<?xml version="1.0" encoding="utf-8"?>
<!-- Generator: Adobe Illustrator 17.1.0, SVG Export Plug-In . SVG Version: 6.00 Build 0)  -->
<!DOCTYPE svg PUBLIC "-//W3C//DTD SVG 1.1//EN" "http://www.w3.org/Graphics/SVG/1.1/DTD/svg11.dtd">
<svg version="1.1" id="Layer_1" xmlns:inkscape="http://www.inkscape.org/namespaces/inkscape"
	 xmlns="http://www.w3.org/2000/svg" xmlns:xlink="http://www.w3.org/1999/xlink" x="0px" y="0px" viewBox="0 0 800 800"
	 enable-background="new 0 0 800 800" xml:space="preserve">
<g id="walg" inkscape:label="walg" inkscape:groupmode="layer">
	<g>
		<g id="walg_1">
			<path fill="#C9C9C9" d="M316.6,659.6v-0.9V659.6"/>
			<path fill="#C9C9C9" d="M319.4,657.7v-0.9V657.7"/>
			<path fill="#C9C9C9" d="M342,649.2h0.9H342"/>
			<path fill="#C9C9C9" d="M317.6,657.7h0.9H317.6"/>
			<path fill="#C9C9C9" d="M319.4,656.8v0.9V656.8"/>
			<path fill="#C9C9C9" d="M343,649.2v-0.9V649.2"/>
			<path fill="#C9C9C9" d="M327,656.8h0.9H327"/>
			<path fill="#C9C9C9" d="M337.3,653.9h0.9v0.9L337.3,653.9"/>
			<path fill="#C9C9C9" d="M326,655.8h-0.9H326v-0.9h-0.9v0.9l-0.9,0.9h-0.9l0.9,0.9h0.9h-0.9l0.9-0.9v1.9l1.9-0.9v0.9H326h-0.9
				h-0.9l-2.8-0.9l-2.8-0.9l-0.9,0.9h0.9l-0.9,0.9v0.9l-0.9-0.9l-0.9-0.9h-0.9h-0.9l-1.9-0.9H310l1.9-0.9l0.9,0.9h0.9l-0.9-0.9h0.9
				v-0.9v-2.8h9.4v-0.9h0.9v-0.9h0.9h0.9v-1.9l0.9-0.9h0.9l0.9,0.9h2.8v-2.8l2.8-0.9v-0.9l0.9-0.9l0.9-0.9v-0.9h-0.9l0.9-0.9
				l-0.9-0.9h0.9l3.8,0.9l0.9,0.9l0.9-0.9h0.9l0.9,1.9h0.9l3.8,0.9v0.9l-1.9,0.9h-1.9v1.9h0.9l-1.9,0.9l-0.9,0.9H342l-2.8,0.9
				l-1.9,0.9l-0.9,1.9v0.9l0.9,0.9h-0.9l-1.9-0.9l-0.9,0.9h-1.9v0.9h-0.9l0.9,0.9l-0.9,0.9v-0.9h-1.9l-1.9,0.9L326,655.8"/>
		</g>
		<g id="walg_2">
			<path fill="#C9C9C9" d="M279.9,588h-0.9L278,587H277v0.9V587h-1.9v-0.9l0.9-0.9l0.9,0.9l0.9-0.9h1.9h0.9h1.9h1.9v1.9h0.9l0.9,1.9
				h-2.8l-0.9,0.9h-1.9V588H279.9"/>
		</g>
		<g id="walg_3">
			<path fill="#C9C9C9" d="M239.3,344.9h0.9H239.3"/>
			<path fill="#C9C9C9" d="M246.9,329.8v-0.9V329.8"/>
			<path fill="#C9C9C9" d="M243.1,337.3h-0.9v-0.9h0.9V337.3"/>
			<path fill="#C9C9C9" d="M240.3,343.9h0.9H240.3"/>
			<path fill="#C9C9C9" d="M263.8,326h0.9H263.8"/>
			<path fill="#C9C9C9" d="M263.8,326v-0.9V326"/>
			<path fill="#C9C9C9" d="M241.2,329.8l0.9,0.9L241.2,329.8"/>
			<path fill="#C9C9C9" d="M265.7,326h0.9H265.7"/>
			<path fill="#C9C9C9" d="M240.3,338.3h-0.9H240.3"/>
			<path fill="#C9C9C9" d="M257.2,328.9h-0.9H257.2"/>
			<path fill="#C9C9C9" d="M244.1,330.7v-0.9V330.7"/>
			<path fill="#C9C9C9" d="M257.2,323.2h0.9H257.2"/>
			<path fill="#C9C9C9" d="M247.8,333.6v-0.9V333.6"/>
			<path fill="#C9C9C9" d="M251.6,329.8h0.9H251.6"/>
			<path fill="#C9C9C9" d="M239.3,339.2v-0.9V339.2"/>
			<path fill="#C9C9C9" d="M247.8,328.9v-0.9V328.9"/>
			<path fill="#C9C9C9" d="M241.2,342h0.9H241.2"/>
			<path fill="#C9C9C9" d="M242.2,341.1h0.9H242.2"/>
			<path fill="#C9C9C9" d="M262,327.9V327V327.9"/>
			<path fill="#C9C9C9" d="M262.9,327H262l0.9-0.9V327"/>
			<path fill="#C9C9C9" d="M262,314.7H261H262"/>
			<path fill="#C9C9C9" d="M243.1,340.2v-0.9V340.2"/>
			<path fill="#C9C9C9" d="M245.9,330.7v-0.9V330.7"/>
			<path fill="#C9C9C9" d="M261,313.8h0.9v-0.9v0.9H261"/>
			<path fill="#C9C9C9" d="M259.1,329.8h0.9H259.1"/>
			<path fill="#C9C9C9" d="M265.7,327.9v0.9l-0.9-0.9H265.7"/>
			<path fill="#C9C9C9" d="M253.5,327h-0.9h1.9H253.5"/>
			<path fill="#C9C9C9" d="M264.8,327.9l-0.9,0.9v-0.9H264.8"/>
			<path fill="#C9C9C9" d="M242.2,340.2v0.9l-0.9-0.9H242.2"/>
			<path fill="#C9C9C9" d="M262.9,312.8l-0.9-0.9l-0.9,0.9h0.9H261v-0.9l0.9-1.9l2.8-2.8v0.9v1.9l-0.9,1.9L262.9,312.8"/>
			<path fill="#C9C9C9" d="M245.9,335.5h0.9l0.9-0.9l3.8-1.9l0.9-0.9h0.9h-0.9v0.9l0.9-0.9l0.9,0.9h0.9l0.9-1.9l0.9,0.9v-0.9h0.9
				h-0.9h0.9h0.9h-0.9l0.9-0.9v0.9v-0.9h0.9h-0.9h0.9h1.9l0.9-0.9h0.9h-0.9l0.9-0.9v0.9h0.9h-0.9l0.9-0.9v0.9v-0.9v0.9h0.9v-0.9h0.9
				h-0.9V327h0.9h-0.9h0.9h-0.9h0.9h-0.9l0.9-0.9h0.9v0.9V326h-0.9h8.5l1.9,0.9v2.8h0.9v-0.9h2.8v-3.8h0.9v-1.9h7.5v0.9h8.5v-3.8
				h4.7v-0.9h2.8v0.9h-0.9v0.9h1.9v-0.9h2.8v0.9h-1.9v1.9h8.5v-3.8h3.8v5.7h5.7v1.9h0.9v6.6h2.8v-1.9h-0.9v-8.5h1.9v0.9h-0.9v1.9
				v0.9h1.9v-1.9h0.9v2.8h0.9v0.9h-0.9v1.9h0.9v1.9h2.8v-0.9h3.8v0.9h0.9v1.9h-0.9v0.9h1.9v3.8h2.8v1.9h12.2v2.8h-0.9v0.9h4.7h0.9
				v1.9v1.9h-6.6v0.9h-6.6v-0.9h-2.8v1.9h2.8v0.9h3.8v1.9h2.8v3.8h-6.6L337.3,375v-2.8h-6.6v-0.9h-1.9v1.9H326v0.9l-6.6-0.9v1.9
				h-1.9v0.9h0.9v0.9h1.9v2.8l-0.9,0.9v1.9h-1.9v0.9h-14.1h-4.7v-5.7h-6.6v-0.9h-1.9v1.9h-4.7v0.9h-2.8h-1.9v-0.9h-0.9v-0.9H277v7.5
				h-1.9h-2.8v-0.9h-0.9v-1.9h-0.9v-1.9h-1.9v-2.8h-1.9V376h-1.9v-1.9h-6.6v0.9h-11.3v-0.9H245v-3.8h0.9v-2.8h-3.8v-1.9h-0.9v-0.9
				h2.8v-0.9h0.9v-0.9h1.9v-0.9h-0.9V359l1.9-1.9v-0.9H245v-3.8h-1.9v-5.7h-3.8h1.9l-0.9-0.9h0.9h-0.9v-0.9h0.9l-0.9-0.9h0.9h0.9
				l-0.9-0.9h0.9V342v-0.9h0.9v-0.9v0.9v-0.9h0.9v-0.9v0.9v-0.9h0.9l-0.9-0.9h0.9h-0.9h0.9l0.9-0.9l-0.9,0.9v-0.9v-0.9L245.9,335.5
				v0.9V335.5"/>
		</g>
		<g id="walg_4">
			<path fill="#C9C9C9" d="M258.2,641.7h0.9H258.2"/>
			<path fill="#C9C9C9" d="M257.2,638.9h0.9H257.2"/>
			<path fill="#C9C9C9" d="M255.4,639.8l-0.9-1.9V637V636l-0.9-1.9v-0.9v-0.9v-1.9v-1.9v-0.9h7.5h1.9v-0.9l6.6,0.9l-2.8,1.9h-2.8
				v1.9h-0.9l0.9,1.9h-0.9l0.9,1.9L262,636v3.8l-1.9-0.9l-1.9,0.9l-0.9-0.9h0.9v-0.9h-0.9v0.9v0.9h0.9l-0.9,0.9L255.4,639.8"/>
		</g>
		<g id="walg_5">
			<path fill="#C9C9C9" d="M277,580.4l-0.9,0.9v-0.9H277"/>
		</g>
		<g id="walg_6">
			<path fill="#C9C9C9" d="M275.1,580.4l0.9-0.9v0.9v0.9v0.9l-0.9-0.9V580.4"/>
		</g>
		<g id="walg_7">
			<path fill="#C9C9C9" d="M276.1,582.3h-0.9l0.9-0.9h1.9l-0.9,0.9H276.1"/>
		</g>
		<g id="walg_8">
			<path fill="#C9C9C9" d="M307.2,588.9l-4.7,0.9v-0.9h-4.7v0.9l-0.9,0.9l-0.9,0.9h-8.5v-2.8h-0.9l-0.9-1.9h-0.9v-0.9h1.9v-0.9h1.9
				v0.9h1.9h2.8h0.9h0.9v-0.9h0.9l-0.9-0.9h0.9v0.9l4.7-1.9l2.8-0.9h0.9h0.9l2.8,1.9v0.9l-0.9,0.9h0.9v1.9v0.9H307.2"/>
		</g>
		<g id="walg_9">
			<path fill="#C9C9C9" d="M283.6,602.1v-0.9h-0.9v-1.9h1.9v-3.8h1.9l1.9,1.9l3.8,4.7h1.9v2.8h-0.9v1.9v0.9h-0.9v0.9h-0.9v0.9
				l-0.9-0.9h-0.9v0.9h-0.9v-2.8l-3.8,0.9h-1.9v-0.9v-0.9v-2.8v-0.9H283.6"/>
		</g>
		<g id="walg_10">
			<path fill="#C9C9C9" d="M290.2,634.2v-0.9h-2.8h-0.9l0.9-1.9l-0.9-0.9v-0.9h-0.9h-0.9v-0.9h-1.9v-0.9v-1.9h0.9v-0.9v-0.9h-0.9
				V620l2.8,0.9l1.9,0.9h0.9l0.9,0.9v0.9h3.8l0.9,0.9l1.9-0.9l0.9,0.9v0.9v3.8l-0.9,0.9v0.9l0.9,1.9v0.9h0.9l-0.9,0.9h1.9v2.8H294
				V637h-3.8l0.9-0.9h-0.9v-0.9h-0.9v-0.9H290.2"/>
		</g>
		<g id="walg_11">
			<path fill="#C9C9C9" d="M281.7,635.1H278v-0.9H277v-2.8v-0.9h0.9l-0.9-0.9h0.9v-2.8h1.9h0.9h1.9v0.9v0.9h1.9v0.9h0.9l0.9,0.9
				l0.9,1.9h-0.9v0.9h0.9h2.8v0.9h-0.9v0.9v0.9h-0.9v0.9h-2.8V636h-1.9l0.9-0.9h-0.9H281.7"/>
		</g>
		<g id="walg_12">
			<path fill="#C9C9C9" d="M307.2,588.9h0.9l3.8-0.9l0.9,4.7h0.9h-6.6l-1.9,0.9l-1.9,0.9h-1.9v-0.9l-0.9,0.9l-1.9-0.9l-0.9,0.9h-6.6
				v-2.8h2.8l2.8-0.9l0.9-0.9v-0.9h4.7v0.9L307.2,588.9"/>
		</g>
		<g id="walg_13">
			<path fill="#C9C9C9" d="M437.2,217.7v-0.9V217.7"/>
			<path fill="#C9C9C9" d="M417.4,260.1v-0.9V260.1"/>
			<path fill="#C9C9C9" d="M418.4,258.2v0.9V258.2"/>
			<path fill="#C9C9C9" d="M415.5,262.9V262V262.9"/>
			<path fill="#C9C9C9" d="M426.9,214.8h-0.9H426.9h-0.9H426.9"/>
			<path fill="#C9C9C9" d="M429.7,223.3v-0.9l0.9-0.9l0.9,0.9l-0.9-0.9h0.9h-0.9h0.9h-0.9h-0.9l0.9-1.9h1.9v-0.9l2.8-1.9l-0.9,0.9
				h0.9v-1.9v0.9h0.9v0.9v-0.9l0.9,0.9h0.9h0.9h-0.9l-0.9-0.9v-1.9v-0.9l0.9,0.9l-0.9-0.9l0.9-0.9h0.9v0.9l2.8-0.9V212v0.9l0.9-0.9
				v0.9V212l0.9,0.9h0.9h-0.9V212h-0.9v-0.9h-0.9l0.9-2.8l0.9-0.9l-0.9,0.9l0.9-0.9h0.9v-0.9v0.9h0.9l-0.9-0.9h0.9v-1.9l0.9-0.9h0.9
				l1.9-0.9l-0.9,0.9l0.9,0.9h0.9l-0.9,0.9h-0.9h-0.9h0.9l-0.9,0.9l0.9,0.9l-1.9,0.9h0.9v0.9h0.9h0.9v0.9v0.9h0.9v-0.9v0.9h0.9v0.9
				h-0.9v0.9h0.9l0.9,0.9v0.9v0.9l-0.9,0.9l2.8,0.9l0.9,1.9v1.9l0.9,0.9l0.9,1.9h-8.5v2.8h2.8v2.8h0.9v1.9h-4.7v6.6h3.8v11.3h5.7
				v4.7h3.8v4.7H458v1.9h3.8v25.4h-45.2v0.9h-4.7v-0.9l-1.9,0.9v-0.9h-7.5v2.8h-7.5v-0.9H392l-0.9,4.7h-14.1v-3.8h2.8l10.4-3.8
				l8.5-2.8l5.7-4.7l3.8-2.8l3.8-5.7v-1.9l0.9-0.9v-0.9h0.9l0.9-1.9v-0.9h0.9V261h-0.9v-0.9h1.9h0.9v-0.9l0.9-0.9v0.9v-1.9l-0.9-0.9
				h0.9v-0.9h0.9v-0.9v0.9l-0.9-0.9l0.9-0.9h0.9v0.9l1.9-0.9l1.9-0.9l0.9-1.9l1.9-0.9l0.9-0.9h0.9v-0.9v0.9v-0.9l2.8-0.9l0.9-0.9
				l0.9-1.9v-1.9l-3.8-0.9l-0.9,1.9l-0.9-0.9l0.9-0.9v-1.9v-4.7l-0.9-2.8v-4.7v-2.8h0.9l0.9-1.9V223.3"/>
			<path fill="#C9C9C9" d="M450.4,213h0.9H450.4"/>
		</g>
		<g id="walg_14">
			<path fill="#C9C9C9" d="M323.2,630.4l0.9,0.9v0.9h1.9v0.9v4.7h-5.7h-1.9h-0.9l0.9-0.9V636h-0.9h-1.9h-0.9v-0.9h-1.9H311v-0.9
				v-1.9H310h0.9v-0.9H310l0.9-0.9l-0.9-0.9v-1.9h0.9l-0.9-0.9l3.8-0.9v0.9h1.9l0.9-0.9l7.5,0.9v1.9l-0.9,0.9V630.4"/>
		</g>
		<g id="walg_15">
			<path fill="#C9C9C9" d="M318.5,578.6h0.9h6.6v-2.8h0.9l1.9,0.9l3.8-0.9h2.8v3.8l-0.9,0.9v1.9h-0.9v0.9h-0.9v0.9v0.9h-0.9v3.8
				h-0.9h-1.9V588H327V587H326h-3.8h-3.8v-0.9l0.9-0.9v-1.9l-0.9-1.9V578.6"/>
		</g>
		<g id="walg_16">
			<path fill="#C9C9C9" d="M269.5,614.4h0.9l0.9,0.9v0.9h-0.9v0.9l-1.9-0.9l0.9-0.9V614.4v0.9V614.4"/>
		</g>
		<g id="walg_17">
			<path fill="#C9C9C9" d="M253.5,623.8l0.9-0.9l-0.9-2.8l1.9,0.9l0.9,1.9h2.8h3.8l1.9-0.9h0.9h0.9l0.9,0.9v0.9h0.9h2.8l0.9,0.9v1.9
				h-0.9v0.9l-8.5-0.9v0.9H261h-7.5v-2.8V623.8"/>
		</g>
		<g id="walg_18">
			<path fill="#C9C9C9" d="M273.3,581.4h0.9H273.3l-0.9,0.9v-1.9L273.3,581.4"/>
		</g>
		<g id="walg_19">
			<path fill="#C9C9C9" d="M275.1,584.2h-0.9l0.9-0.9l0.9-0.9h0.9v0.9l-0.9,0.9v1.9L275.1,584.2"/>
		</g>
		<g id="walg_20">
			<path fill="#C9C9C9" d="M267.6,618.1l0.9-1.9l1.9,0.9l0.9,0.9h0.9v1.9h-0.9v3.8h-2.8h-0.9v-0.9l-0.9-0.9h-0.9h-0.9L267.6,618.1"
				/>
		</g>
		<g id="walg_21">
			<path fill="#C9C9C9" d="M252.5,526.7h0.9v0.9h2.8l2.8-0.9v0.9h13.2l-0.9-0.9l0.9-2.8h0.9v0.9h0.9v-0.9h0.9h0.9V523h2.8h0.9v0.9
				h0.9v0.9v0.9l0.9,2.8l-0.9,0.9h-1.9v0.9H278v-0.9l-0.9,0.9h-1.9v1.9l-3.8-0.9l-11.3,1.9h-2.8v-0.9h-0.9l-2.8,0.9L252.5,526.7"/>
		</g>
		<g id="walg_22">
			<path fill="#C9C9C9" d="M226.1,421.2h0.9H226.1"/>
			<path fill="#C9C9C9" d="M229.9,428.7v-0.9V428.7"/>
			<path fill="#C9C9C9" d="M227.1,422.1v0.9V422.1"/>
			<path fill="#C9C9C9" d="M219.6,409.9h0.9H219.6"/>
			<path fill="#C9C9C9" d="M220.5,409.9v0.9V409.9"/>
			<path fill="#C9C9C9" d="M209.2,408l-0.9,1.9v0.9v1.9V409l0.9-1.9V408"/>
			<path fill="#C9C9C9" d="M206.4,419.3l0.9-2.8v-1.9l0.9-1.9v1.9l-0.9,4.7H206.4"/>
			<path fill="#C9C9C9" d="M232.7,431.6h-0.9v-0.9v-0.9l-1.9-0.9h0.9l-0.9-0.9H229h0.9l-0.9-0.9L228,424l-0.9-0.9v-0.9v-0.9
				l-0.9-0.9l-0.9-0.9v-1.9l-2.8-1.9l-0.9-1.9v-1.9v-0.9v-0.9l-0.9,0.9v-0.9l1.9-0.9l-2.8,0.9l0.9-1.9v-0.9l-4.7-5.7l-0.9-0.9v-1.9
				v-2.8v-1.9l0.9-0.9l-0.9-3.8h0.9l0.9-2.8l0.9-1.9v-0.9l0.9-0.9l0.9-2.8l3.8-2.8l0.9-0.9v-4.7l-0.9-3.8l0.9-0.9l0.9-0.9v-2.8h1.9
				V359h7.5v1.9h5.7l0.9,1.9l2.8,1.9h-2.8v0.9h0.9v1.9h3.8v2.8H245v3.8h1.9v0.9h11.3v-0.9h6.6v1.9h1.9v1.9h1.9v2.8h-0.9v2.8h-2.8
				h-0.9v0.9v1.9v2.8h0.9l0.9,3.8h-0.9v1.9h-1.9v-0.9h-3.8V391l-2.8,0.9v1.9l-2.8,0.9v7.5h3.8v1.9h0.9v3.8h-0.9v1.9h-0.9v0.9h-6.6
				v0.9h-0.9v6.6h1.9v1.9h-1.9v0.9h3.8v5.7h0.9v7.5h-3.8v0.9h-1.9v1.9h-10.4v3.8h-1.9l-0.9-0.9l0.9-0.9l-1.9-1.9l0.9-0.9v0.9h0.9
				v-1.9v-0.9l-0.9-0.9L232.7,431.6"/>
			<path fill="#C9C9C9" d="M226.1,421.2v-0.9V421.2"/>
		</g>
		<g id="walg_23">
			<path fill="#C9C9C9" d="M244.1,502.2l-0.9-2.8v-0.9h1.9v-0.9h0.9v-0.9h0.9l0.9-0.9l0.9-0.9v-1.9l-0.9-0.9v-0.9h5.7V490h0.9
				l0.9-5.7h4.7v-2.8h0.9v1.9h0.9v0.9H261v1.9h2.8v4.7h1.9l-0.9,0.9l-0.9,1.9l-0.9,0.9l-0.9,0.9H261v0.9h-0.9v0.9l-0.9-0.9h-0.9
				l0.9,0.9l-0.9,0.9v0.9l-2.8,0.9v0.9h-0.9h-1.9h-4.7h-0.9l0.9,1.9h-0.9h-0.9v-0.9H244.1"/>
		</g>
		<g id="walg_24">
			<path fill="#C9C9C9" d="M278.9,563.5v-2.8h4.7v0.9v5.7h-1.9v4.7v0.9h-2.8l-0.9,0.9h-3.8v-3.8h3.8v-1.9H277v-0.9h0.9l0.9-0.9
				V563.5"/>
		</g>
		<g id="walg_25">
			<path fill="#C9C9C9" d="M272.3,583.3v-0.9h0.9v0.9H272.3"/>
		</g>
		<g id="walg_26">
			<path fill="#C9C9C9" d="M266.7,583.3h0.9H266.7"/>
			<path fill="#C9C9C9" d="M266.7,583.3h0.9H266.7h-0.9h-0.9l0.9-0.9L266.7,583.3"/>
			<path fill="#C9C9C9" d="M273.3,585.2h1.9l0.9,0.9h-0.9v0.9h-2.8v-0.9h-0.9h0.9v-0.9H273.3"/>
		</g>
		<g id="walg_27">
			<path fill="#C9C9C9" d="M280.8,619.1h-0.9v-0.9h-0.9v-1.9H278v0.9v0.9v-0.9l-1.9-0.9v-1.9h0.9v-1.9h0.9v-0.9l0.9,0.9l-0.9,0.9
				h3.8v-3.8h0.9v-1.9h1.9l3.8-0.9v5.7l-0.9,2.8v2.8l-0.9,0.9l-0.9,0.9l-0.9-0.9l0.9,1.9l-2.8-0.9h-1.9V619.1"/>
		</g>
		<g id="walg_28">
			<path fill="#C9C9C9" d="M395.8,545.6h5.7l11.3,13.2v1.9h0.9v2.8H424v-0.9h6.6l2.8,0.9v16H375L376,538h19.8V545.6"/>
		</g>
		<g id="walg_29">
			<path fill="#C9C9C9" d="M253.5,533.3v-0.9V533.3"/>
			<path fill="#C9C9C9" d="M252.5,533.3h0.9H252.5"/>
			<path fill="#C9C9C9" d="M253.5,538v-1.9l-0.9-0.9v-0.9l0.9-0.9l2.8-0.9h0.9v0.9h2.8l11.3-1.9l3.8,0.9v-1.9h1.9l0.9-0.9v0.9h0.9
				v-0.9h1.9l0.9-0.9h0.9h0.9v0.9h1.9l-0.9,0.9l0.9,1.9v0.9h0.9v3.8l0.9,0.9v0.9h-1.9V538h-0.9v0.9h-1.9h-1.9h-5.7h-1.9V538
				l-3.8,0.9h-3.8h-6.6v-1.9h-3.8v-0.9h-0.9v1.9H253.5"/>
		</g>
		<g id="walg_30">
			<path fill="#C9C9C9" d="M314.7,594.6v-0.9h-0.9v-0.9h-0.9l-0.9-3.8h0.9V588h2.8h1.9V587h4.7h3.8h0.9v0.9h1.9v0.9h2.8l-0.9,0.9
				l0.9,1.9h-0.9v0.9h-0.9l-0.9,0.9v-0.9v1.9H327v1.9h-2.8v0.9h-2.8h-0.9h-0.9h-1.9v-0.9h-0.9v-0.9h-0.9v-0.9H314.7"/>
		</g>
		<g id="walg_31">
			<path fill="#C9C9C9" d="M272.3,583.3v-0.9V583.3"/>
		</g>
		<g id="walg_32">
			<path fill="#C9C9C9" d="M294.9,641.7H294v-0.9h0.9v-1.9v-0.9h3.8V637h0.9h0.9V636h1.9h1.9v-0.9h1.9h0.9l0.9-0.9h1.9h0.9v0.9h1.9
				h1.9v0.9h0.9h1.9h0.9v0.9l-0.9,0.9h0.9h1.9h5.7v3.8h-8.5h-2.8l-0.9,0.9h-0.9v0.9H311v-0.9h-1.9h-0.9h-0.9h-0.9h-6.6v0.9h-0.9v0.9
				l-0.9,0.9h-0.9l0.9-2.8L294.9,641.7"/>
		</g>
		<g id="walg_33">
			<path fill="#C9C9C9" d="M306.2,604h-3.8h-1.9v-2.8l-0.9-1.9l2.8-0.9l1.9-0.9h0.9h4.7v0.9h0.9l0.9,1.9l-0.9,0.9v1.9h0.9l-2.8,0.9
				h-1.9v0.9V604H306.2"/>
		</g>
		<g id="walg_34">
			<path fill="#C9C9C9" d="M311.9,479.6v-1.9H311v-1.9h-4.7v-7.5h1.9h1.9v-0.9v-7.5h-0.9V457h0.9v-0.9h0.9v-1.9h0.9v1.9h3.8v-3.8
				h1.9v3.8h8.5l0.9,1.9v3.8h7.5h6.6l-0.9,5.7h5.7v1.9h0.9v0.9H343v8.5l1.9-0.9v2.8H342v-0.9h-1.9v0.9h-8.5h-1.9v-0.9H327v1.9H326
				v-1.9h-2.8v-0.9h-4.7v1.9h-0.9v-3.8h0.9v-0.9h-1.9h-0.9v1.9h-2.8v1.9H311.9"/>
		</g>
		<g id="walg_35">
			<path fill="#C9C9C9" d="M302.5,577.6l-1.9-1.9h0.9l-1.9-3.8h-0.9V571l3.8-0.9v-0.9h0.9v-0.9h1.9h0.9l1.9-0.9v0.9h1.9v0.9h0.9v0.9
				h0.9H311l0.9,2.8H311v0.9v0.9v1.9v0.9l0.9,0.9l-2.8,0.9l-0.9-0.9v-0.9l-1.9,0.9h-0.9h-0.9l-0.9-0.9H302.5"/>
		</g>
		<g id="walg_36">
			<path fill="#C9C9C9" d="M314.7,537.1l0.9,0.9h-0.9l0.9,0.9l-7.5,0.9v5.7h-2.8v0.9h-4.7h-0.9h-0.9l-2.8,0.9h-0.9v-0.9h-4.7v-0.9
				v-4.7h-0.9v0.9v-0.9h-1.9h-1.9v-0.9V539h0.9h0.9V538l-0.9-0.9v-3.8h-0.9v-0.9h3.8h0.9h5.7l0.9-0.9h0.9h-0.9l1.9-0.9l-0.9-0.9
				l-0.9-0.9h1.9h5.7v0.9h10.4l-0.9,1.9h0.9l2.8-0.9l0.9,0.9v1.9h-0.9h-1.9l-0.9-0.9v0.9V537.1"/>
		</g>
		<g id="walg_37">
			<path fill="#C9C9C9" d="M253.5,541.8v0.9V541.8"/>
			<path fill="#C9C9C9" d="M276.1,545.6v0.9h-0.9v0.9v0.9h0.9v1.9v0.9v5.7l0.9,1.9h-1.9v-0.9h-4.7v0.9v-0.9h-3.8l-0.9-0.9l-0.9-0.9
				h-4.7l-0.9-0.9l-0.9-0.9v-0.9l-2.8-4.7l0.9-0.9l-0.9-0.9l-0.9-3.8v-0.9v-0.9v-0.9h-0.9V538h0.9v-1.9h0.9v0.9h3.8v1.9h6.6l0.9,0.9
				l2.8-0.9l3.8-0.9v0.9h1.9v2.8v2.8h0.9V545.6"/>
		</g>
		<g id="walg_38">
			<path fill="#C9C9C9" d="M270.4,615.3l0.9-0.9l3.8,0.9l0.9,0.9l1.9,0.9v0.9v-0.9v-0.9h0.9v3.8H278l-0.9-0.9l-0.9,0.9h-0.9h-0.9
				l-0.9,0.9h-0.9v-2.8h-0.9l-0.9-0.9v-0.9h0.9v-0.9H270.4"/>
		</g>
		<g id="walg_39">
			<path fill="#C9C9C9" d="M309.1,656.8h-0.9H309.1"/>
			<path fill="#C9C9C9" d="M311,655.8H310v0.9h-0.9h-1.9h-0.9v0.9l-1.9-0.9h-1.9h-0.9l-0.9,0.9l-0.9-0.9l-0.9,0.9l-1.9-0.9h-0.9
				v-0.9h1.9v-0.9l-0.9-0.9h-0.9V653h0.9v-0.9h0.9v-0.9l0.9-0.9h15.1v2.8v1.9l-0.9,0.9l-1.9-0.9V655.8"/>
		</g>
		<g id="walg_40">
			<path fill="#C9C9C9" d="M462.7,206.4h-0.9H462.7"/>
			<path fill="#C9C9C9" d="M461.7,199.8v-0.9V199.8"/>
			<path fill="#C9C9C9" d="M464.5,219.6v-0.9V219.6"/>
			<path fill="#C9C9C9" d="M462.7,231.8h-0.9H462.7"/>
			<path fill="#C9C9C9" d="M472.1,199.8h0.9H472.1"/>
			<path fill="#C9C9C9" d="M459.8,209.2v-0.9V209.2"/>
			<path fill="#C9C9C9" d="M456.1,204.5h0.9H456.1"/>
			<path fill="#C9C9C9" d="M459.8,203.5v-0.9V203.5"/>
			<path fill="#C9C9C9" d="M456.1,198.8v-0.9V198.8"/>
			<path fill="#C9C9C9" d="M461.7,202.6v-0.9V202.6"/>
			<path fill="#C9C9C9" d="M476.8,202.6v-0.9V202.6"/>
			<path fill="#C9C9C9" d="M461.7,202.6v-0.9V202.6"/>
			<path fill="#C9C9C9" d="M457,205.4v-0.9V205.4"/>
			<path fill="#C9C9C9" d="M464.5,191.3v-0.9V191.3"/>
			<path fill="#C9C9C9" d="M450.4,201.6v-0.9V201.6"/>
			<path fill="#C9C9C9" d="M461.7,202.6v-0.9V202.6"/>
			<path fill="#C9C9C9" d="M474.9,200.7l-0.9-0.9h0.9V200.7"/>
			<path fill="#C9C9C9" d="M460.8,225.2h0.9H460.8"/>
			<path fill="#C9C9C9" d="M455.1,201.6h-0.9H455.1"/>
			<path fill="#C9C9C9" d="M463.6,201.6h-0.9H463.6"/>
			<path fill="#C9C9C9" d="M477.7,201.6h-0.9H477.7"/>
			<path fill="#C9C9C9" d="M458,197.9v-0.9V197.9"/>
			<path fill="#C9C9C9" d="M462.7,200.7h-0.9H462.7"/>
			<path fill="#C9C9C9" d="M468.3,200.7v-0.9V200.7"/>
			<path fill="#C9C9C9" d="M461.7,208.2h-0.9H461.7"/>
			<path fill="#C9C9C9" d="M477.7,201.6v-0.9l0.9,0.9H477.7"/>
			<path fill="#C9C9C9" d="M458.9,205.4H458H458.9"/>
			<path fill="#C9C9C9" d="M460.8,209.2h0.9H460.8"/>
			<path fill="#C9C9C9" d="M464.5,197.9h-0.9H464.5"/>
			<path fill="#C9C9C9" d="M476.8,202.6l0.9-0.9L476.8,202.6"/>
			<path fill="#C9C9C9" d="M458.9,201.6v-0.9V201.6"/>
			<path fill="#C9C9C9" d="M460.8,198.8v0.9V198.8"/>
			<path fill="#C9C9C9" d="M458.9,200.7h0.9H458.9"/>
			<path fill="#C9C9C9" d="M469.3,202.6v-0.9V202.6"/>
			<path fill="#C9C9C9" d="M450.4,205.4v-0.9V205.4"/>
			<path fill="#C9C9C9" d="M469.3,200.7h-0.9H469.3"/>
			<path fill="#C9C9C9" d="M459.8,197.9l-0.9-0.9h0.9V197.9"/>
			<path fill="#C9C9C9" d="M468.3,198.8h-0.9H468.3"/>
			<path fill="#C9C9C9" d="M456.1,201.6h-0.9H456.1"/>
			<path fill="#C9C9C9" d="M458.9,196.9V196V196.9"/>
			<path fill="#C9C9C9" d="M461.7,231.8h0.9H461.7"/>
			<path fill="#C9C9C9" d="M477.7,201.6h-0.9H477.7"/>
			<path fill="#C9C9C9" d="M457,206.4v-0.9V206.4"/>
			<path fill="#C9C9C9" d="M482.4,206.4h0.9H482.4"/>
			<path fill="#C9C9C9" d="M467.4,198.8v-0.9V198.8"/>
			<path fill="#C9C9C9" d="M474,196.9v0.9V196.9"/>
			<path fill="#C9C9C9" d="M458,201.6h0.9H458"/>
			<path fill="#C9C9C9" d="M462.7,212v-0.9l0.9,0.9H462.7"/>
			<path fill="#C9C9C9" d="M457,195.1h-0.9H457"/>
			<path fill="#C9C9C9" d="M460.8,194.1h0.9H460.8"/>
			<path fill="#C9C9C9" d="M458.9,226.1H458H458.9"/>
			<path fill="#C9C9C9" d="M478.7,203.5h0.9H478.7"/>
			<path fill="#C9C9C9" d="M462.7,202.6h-0.9H462.7"/>
			<path fill="#C9C9C9" d="M484.3,196h-0.9v-0.9h0.9V196"/>
			<path fill="#C9C9C9" d="M466.4,196.9h0.9H466.4"/>
			<path fill="#C9C9C9" d="M463.6,202.6v-0.9V202.6"/>
			<path fill="#C9C9C9" d="M473,196v-0.9V196"/>
			<path fill="#C9C9C9" d="M458,202.6h0.9H458"/>
			<path fill="#C9C9C9" d="M474,199.8H473H474"/>
			<path fill="#C9C9C9" d="M458.9,197.9H458H458.9"/>
			<path fill="#C9C9C9" d="M450.4,204.5v0.9V204.5"/>
			<path fill="#C9C9C9" d="M489,203.5v-0.9V203.5"/>
			<path fill="#C9C9C9" d="M460.8,195.1v0.9V195.1"/>
			<path fill="#C9C9C9" d="M461.7,204.5v-0.9V204.5"/>
			<path fill="#C9C9C9" d="M453.2,202.6h0.9H453.2"/>
			<path fill="#C9C9C9" d="M469.3,198.8h0.9H469.3"/>
			<path fill="#C9C9C9" d="M469.3,196.9h-0.9H469.3"/>
			<path fill="#C9C9C9" d="M461.7,209.2h-0.9H461.7"/>
			<path fill="#C9C9C9" d="M458.9,203.5H458H458.9"/>
			<path fill="#C9C9C9" d="M460.8,203.5l-0.9-0.9h0.9V203.5"/>
			<path fill="#C9C9C9" d="M458,206.4H457H458"/>
			<path fill="#C9C9C9" d="M457,206.4h0.9H457"/>
			<path fill="#C9C9C9" d="M469.3,198.8v-0.9V198.8"/>
			<path fill="#C9C9C9" d="M460.8,199.8l-0.9-0.9L460.8,199.8"/>
			<path fill="#C9C9C9" d="M465.5,212v0.9V212"/>
			<path fill="#C9C9C9" d="M481.5,201.6h0.9H481.5"/>
			<path fill="#C9C9C9" d="M461.7,209.2v-0.9V209.2"/>
			<path fill="#C9C9C9" d="M467.4,198.8h0.9H467.4"/>
			<path fill="#C9C9C9" d="M458,209.2v-0.9V209.2"/>
			<path fill="#C9C9C9" d="M469.3,200.7h-0.9H469.3"/>
			<path fill="#C9C9C9" d="M481.5,203.5v-0.9V203.5"/>
			<path fill="#C9C9C9" d="M460.8,225.2h0.9H460.8"/>
			<path fill="#C9C9C9" d="M460.8,228h-0.9H460.8"/>
			<path fill="#C9C9C9" d="M471.1,198.8h0.9H471.1"/>
			<path fill="#C9C9C9" d="M466.4,200.7h0.9H466.4"/>
			<path fill="#C9C9C9" d="M459.8,209.2v-0.9V209.2"/>
			<path fill="#C9C9C9" d="M458.9,200.7H458H458.9"/>
			<path fill="#C9C9C9" d="M458,203.5H457H458"/>
			<path fill="#C9C9C9" d="M468.3,198.8v0.9V198.8"/>
			<path fill="#C9C9C9" d="M456.1,197.9v-0.9V197.9"/>
			<path fill="#C9C9C9" d="M464.5,202.6h-0.9H464.5"/>
			<path fill="#C9C9C9" d="M451.4,203.5h0.9H451.4"/>
			<path fill="#C9C9C9" d="M462.7,203.5v-0.9V203.5"/>
			<path fill="#C9C9C9" d="M465.5,202.6h-0.9H465.5"/>
			<path fill="#C9C9C9" d="M459.8,204.5v-0.9l0.9,0.9H459.8"/>
			<path fill="#C9C9C9" d="M474.9,199.8H474H474.9"/>
			<path fill="#C9C9C9" d="M458,200.7h0.9H458"/>
			<path fill="#C9C9C9" d="M458.9,226.1l-0.9-0.9h0.9V226.1"/>
			<path fill="#C9C9C9" d="M453.2,202.6h-0.9H453.2"/>
			<path fill="#C9C9C9" d="M480.6,202.6h0.9H480.6"/>
			<path fill="#C9C9C9" d="M456.1,196.9h-0.9H456.1"/>
			<path fill="#C9C9C9" d="M460.8,200.7v0.9V200.7"/>
			<path fill="#C9C9C9" d="M471.1,202.6l-0.9-0.9L471.1,202.6"/>
			<path fill="#C9C9C9" d="M461.7,226.1v-0.9V226.1"/>
			<path fill="#C9C9C9" d="M458.9,207.3v-0.9V207.3"/>
			<path fill="#C9C9C9" d="M474,200.7v-0.9V200.7"/>
			<path fill="#C9C9C9" d="M457,195.1l0.9,0.9h0.9L457,195.1"/>
			<path fill="#C9C9C9" d="M461.7,199.8v0.9V199.8v0.9V199.8"/>
			<path fill="#C9C9C9" d="M460.8,226.1v0.9V226.1"/>
			<path fill="#C9C9C9" d="M451.4,203.5v0.9V203.5"/>
			<path fill="#C9C9C9" d="M469.3,200.7v0.9V200.7"/>
			<path fill="#C9C9C9" d="M462.7,204.5h0.9H462.7"/>
			<path fill="#C9C9C9" d="M452.3,204.5v-0.9V204.5"/>
			<path fill="#C9C9C9" d="M461.7,199.8h0.9H461.7"/>
			<path fill="#C9C9C9" d="M463.6,204.5h0.9H463.6v-0.9V204.5"/>
			<path fill="#C9C9C9" d="M458.9,226.1v0.9V226.1"/>
			<path fill="#C9C9C9" d="M462.7,197.9h-0.9H462.7"/>
			<path fill="#C9C9C9" d="M452.3,182.8v-0.9V182.8h-0.9l0.9-0.9V182.8"/>
			<path fill="#C9C9C9" d="M458,206.4v0.9l-0.9-0.9H458"/>
			<path fill="#C9C9C9" d="M455.1,195.1h0.9H455.1"/>
			<path fill="#C9C9C9" d="M451.4,204.5h-0.9H451.4"/>
			<path fill="#C9C9C9" d="M483.4,203.5v-0.9V203.5"/>
			<path fill="#C9C9C9" d="M464.5,192.2h0.9v0.9h-0.9V192.2"/>
			<path fill="#C9C9C9" d="M489,202.6h0.9H489"/>
			<path fill="#C9C9C9" d="M458,226.1v-0.9l0.9,0.9H458"/>
			<path fill="#C9C9C9" d="M464.5,219.6v-0.9V219.6"/>
			<path fill="#C9C9C9" d="M457,204.5h-0.9H457"/>
			<path fill="#C9C9C9" d="M463.6,202.6h-0.9v-0.9L463.6,202.6"/>
			<path fill="#C9C9C9" d="M456.1,197.9h0.9H456.1"/>
			<path fill="#C9C9C9" d="M458.9,196v0.9V196"/>
			<path fill="#C9C9C9" d="M467.4,198.8l-0.9-0.9L467.4,198.8"/>
			<path fill="#C9C9C9" d="M460.8,200.7h0.9H460.8"/>
			<path fill="#C9C9C9" d="M469.3,198.8h0.9l-0.9,0.9V198.8"/>
			<path fill="#C9C9C9" d="M453.2,203.5v0.9V203.5"/>
			<path fill="#C9C9C9" d="M457,202.6h-0.9H457"/>
			<path fill="#C9C9C9" d="M469.3,200.7v-0.9V200.7"/>
			<path fill="#C9C9C9" d="M462.7,196l0.9,0.9L462.7,196"/>
			<path fill="#C9C9C9" d="M490,203.5H489v-0.9h0.9V203.5"/>
			<path fill="#C9C9C9" d="M461.7,195.1h-0.9v-0.9L461.7,195.1"/>
			<path fill="#C9C9C9" d="M486.2,202.6h0.9h0.9H486.2"/>
			<path fill="#C9C9C9" d="M474,197.9h0.9H474"/>
			<path fill="#C9C9C9" d="M474.9,200.7v-0.9h0.9L474.9,200.7"/>
			<path fill="#C9C9C9" d="M474.9,200.7v-0.9V200.7"/>
			<path fill="#C9C9C9" d="M467.4,199.8h0.9v0.9L467.4,199.8"/>
			<path fill="#C9C9C9" d="M461.7,224.3v0.9V224.3"/>
			<path fill="#C9C9C9" d="M474,196.9V196h0.9v0.9V196v0.9H474"/>
			<path fill="#C9C9C9" d="M461.7,196h-0.9v-0.9L461.7,196"/>
			<path fill="#C9C9C9" d="M477.7,202.6v0.9h0.9L477.7,202.6"/>
			<path fill="#C9C9C9" d="M469.3,199.8l1.9,0.9h-0.9L469.3,199.8"/>
			<path fill="#C9C9C9" d="M458.9,209.2h0.9h0.9H458.9"/>
			<path fill="#C9C9C9" d="M457,208.2v-0.9l0.9,0.9v0.9L457,208.2"/>
			<path fill="#C9C9C9" d="M452.3,203.5h0.9v0.9h-0.9V203.5"/>
			<path fill="#C9C9C9" d="M458.9,199.8l0.9-0.9v0.9h0.9v0.9l-0.9-0.9l0.9,0.9h-0.9v-0.9H458.9"/>
			<path fill="#C9C9C9" d="M465.5,196.9h-0.9h2.8v0.9h-0.9h0.9h-0.9L465.5,196.9"/>
			<path fill="#C9C9C9" d="M477.7,204.5h2.8l-0.9,0.9h0.9l0.9-0.9l0.9,0.9l-0.9,0.9h0.9v0.9v-0.9l0.9,0.9l-0.9-0.9h0.9h-0.9h0.9
				v-0.9h-0.9l-0.9-0.9h-0.9l0.9-1.9l0.9,0.9v-0.9l0.9,0.9v0.9l0.9-0.9l2.8,0.9l3.8-0.9l1.9,0.9h1.9v-0.9h0.9h-0.9v0.9h-2.8v-0.9
				H490l-0.9-0.9l-2.8-0.9l-1.9,0.9h-0.9h-0.9v-0.9l-0.9-0.9h0.9v-0.9h-0.9l0.9-0.9h-0.9l0.9-0.9l0.9,0.9v-1.9V196h0.9l-0.9,0.9
				l1.9,0.9l-0.9,0.9h0.9v-0.9l0.9-0.9h0.9l0.9-0.9h-0.9v0.9l-0.9-1.9h0.9l-0.9-0.9h8.5v-2.8h4.7v0.9l-0.9,0.9h3.8v0.9h18.8v11.3
				h-0.9v4.7v1.9h1.9v-2.8h6.6l-0.9,1.9h8.5v3.8h8.5v6.6h5.7v-0.9h3.8v-2.8h0.9v-2.8h3.8v3.8H555v4.7l-3.8,0.9v3.8h-4.7v3.8h-3.8
				v-1.9h-0.9l-2.8,0.9h-1.9v0.9h-2.8V229h-2.8v0.9h-2.8V229l-0.9,0.9h-0.9v0.9l-0.9,0.9h-0.9l-0.9,0.9h4.7v0.9h1.9v3.8h5.7v7.5
				h-8.5v1.9h0.9v5.7h-0.9l-1.9-1.9l-1.9,0.9l-1.9-0.9v3.8l-3.8,2.8l0.9,0.9l0.9,0.9l0.9,0.9l0.9,0.9h0.9l0.9,0.9v4.7l11.3,0.9v5.7
				h-1.9v3.8h-12.2v1.9h-59.4V261H458v-1.9h2.8v-4.7H457v-4.7h-5.7v-11.3h-3.8v-6.6h4.7v-1.9h-0.9v-2.8h-2.8v-2.8h8.5l0.9,1.9
				l0.9,0.9l0.9,0.9l0.9,0.9v0.9h0.9v0.9v0.9l0.9,0.9v-1.9v-0.9V229l-0.9-0.9l0.9-0.9l0.9-3.8v-0.9l-0.9-1.9v-0.9v-0.9h0.9l0.9,0.9
				h0.9l0.9,0.9l0.9,1.9l1.9,0.9h0.9h-0.9l-0.9-1.9l-0.9-2.8h0.9l-0.9-0.9h0.9l2.8-2.8v-0.9v0.9h-0.9l-0.9,0.9h-1.9h-0.9v-0.9
				l-0.9-1.9V212h-0.9l-0.9-1.9h-2.8l0.9-0.9v-0.9h0.9h0.9l-0.9-0.9h-1.9l0.9,0.9h-0.9h-0.9h0.9l-0.9-0.9v-0.9h-0.9h0.9l-0.9-0.9
				h0.9l1.9,0.9h-0.9l2.8,0.9l-0.9-0.9h1.9l-1.9-0.9l-1.9-0.9v-0.9l1.9,0.9l-0.9-0.9h-0.9h1.9v0.9h0.9h0.9h0.9h-0.9v-0.9h-0.9v-0.9
				h0.9v0.9v-0.9l0.9,0.9v-0.9l-1.9-1.9h-0.9l0.9,0.9h-0.9l-0.9-0.9h0.9l-0.9-0.9l0.9,0.9v-0.9h-0.9h0.9l-0.9-0.9l0.9-0.9h0.9h0.9
				l0.9,0.9v-0.9v-0.9l0.9,0.9l0.9,0.9l0.9,0.9h-1.9h0.9v0.9v-0.9v0.9v-0.9h-0.9v0.9l0.9,0.9v-0.9v0.9h1.9v0.9v0.9l-0.9-0.9l0.9,1.9
				h0.9l-0.9-1.9h0.9h-0.9h0.9l-0.9-0.9l1.9,0.9l0.9,0.9v-0.9l-0.9-0.9v-0.9h0.9l-1.9-0.9v-0.9l1.9,0.9v0.9h0.9h2.8l0.9,0.9l0.9,1.9
				V204.5"/>
			<path fill="#C9C9C9" d="M463.6,207.3v-0.9V207.3"/>
			<path fill="#C9C9C9" d="M462.7,232.7v-0.9V232.7"/>
		</g>
		<g id="walg_41">
			<path fill="#C9C9C9" d="M273.3,626.6h-0.9v-1.9l-0.9-0.9V620h0.9v0.9h0.9l0.9-0.9h0.9h0.9l0.9-0.9l0.9,0.9h0.9v-1.9h0.9v0.9h0.9
				v0.9h1.9v3.8h0.9v0.9v0.9l-2.8,0.9h-0.9H278v2.8H277l0.9,0.9H277h-0.9v-0.9l-0.9-0.9v-0.9l-1.9,0.9v-0.9h0.9v-0.9H273.3"/>
		</g>
		<g id="walg_42">
			<path fill="#C9C9C9" d="M300.6,563.5h0.9v-0.9l-0.9-0.9h0.9l-0.9-2.8v-0.9l0.9-0.9h0.9v-0.9h0.9v-1.9h5.7v4.7h-0.9v1.9v1.9v0.9
				h0.9v0.9h-0.9l0.9,0.9v0.9v1.9h-0.9v-0.9l-1.9,0.9h-0.9h-0.9h-0.9v0.9h-1.9v-0.9v-0.9l-0.9-0.9v-0.9v-0.9V563.5"/>
		</g>
		<g id="walg_43">
			<path fill="#C9C9C9" d="M318.5,608.7h0.9h2.8v0.9h0.9h0.9v-0.9h0.9h2.8v-0.9v-0.9h0.9h2.8v-0.9h1.9v1.9v0.9l-0.9,0.9h0.9v0.9v2.8
				h0.9l0.9,0.9v0.9h-2.8v0.9h-4.7H327H326v0.9h-0.9v1.9l-1.9-0.9v0.9h-4.7l0.9-0.9h-0.9v-0.9h-0.9v-0.9v-1.9h0.9l-0.9-1.9l0.9-0.9
				h-0.9v-0.9h0.9v-0.9V608.7"/>
		</g>
		<g id="walg_44">
			<path fill="#C9C9C9" d="M413.7,596.5h-25.4v5.7H375v-22.6h58.4v-11.3h26.4h39.6v0.9h12.2v-0.9h37.7v-2.8h6.6v-0.9H571v3.8h22.6
				v7.5h-1.9l-6.6,3.8l-7.5,2.8l-7.5,2.8l-7.5,0.9l-2.8,0.9l-1.9,0.9l-6.6,1.9l-14.1,0.9l-5.7-0.9l-5.7-0.9l-2.8,0.9H522h-1.9
				l-3.8,1.9l-6.6,4.7l-5.7,0.9l-4.7,2.8l-1.9,0.9l-3.8,1.9l-0.9,0.9l-1.9,0.9l-8.5,0.9l-4.7,1.9V604h-17.9l-0.9-0.9v-2.8h0.9v-3.8
				H413.7"/>
		</g>
		<g id="walg_45">
		</g>
		<g id="walg_46">
			<path fill="#C9C9C9" d="M369.4,290.2h0.9h1.9l1.9-0.9h2.8v3.8h13.2h0.9l0.9-4.7h2.8v0.9h7.5v-2.8h7.5v0.9l1.9-0.9v0.9h4.7v-0.9
				h45.2v-7.5h59.4v42.4h72.6V375H399.5v6.6h-0.9H391l2.8-2.8l0.9-3.8h-47.1v-0.9h-0.9v0.9h-9.4l10.4-17.9h6.6v-3.8h-2.8v-1.9h-3.8
				v-0.9h-2.8v-1.9h2.8v0.9h6.6v-0.9h6.6v-1.9v-1.9H360h-4.7v-0.9h0.9v-2.8h-5.7h-6.6v-1.9h0.9v0.9h6.6l-0.9-2.8h1.9v-1.9h2.8v-3.8
				h-0.9v-1.9h-1.9v-4.7h-3.8l-1.9-3.8v-1.9l-0.9-0.9h-1.9v-4.7h2.8V311h1.9v-4.7h1.9v-0.9h10.4v-4.7h2.8v-8.5l0.9,0.9l1.9-0.9
				l0.9-0.9l0.9,0.9h-0.9l0.9-0.9l0.9,0.9l-0.9-0.9h0.9h-0.9L369.4,290.2"/>
		</g>
		<g id="walg_47">
			<path fill="#C9C9C9" d="M423.1,630.4v-0.9V630.4"/>
			<path fill="#C9C9C9" d="M430.6,631.3h0.9H430.6"/>
			<path fill="#C9C9C9" d="M431.6,630.4v0.9V630.4"/>
			<path fill="#C9C9C9" d="M445.7,631.3v-0.9V631.3"/>
			<path fill="#C9C9C9" d="M437.2,632.3h0.9H437.2"/>
			<path fill="#C9C9C9" d="M438.2,629.4h0.9H438.2"/>
			<path fill="#C9C9C9" d="M430.6,631.3h0.9H430.6"/>
			<path fill="#C9C9C9" d="M423.1,635.1v-0.9V635.1"/>
			<path fill="#C9C9C9" d="M420.3,633.2v-0.9h0.9v0.9H420.3"/>
			<path fill="#C9C9C9" d="M461.7,631.3h-0.9H461.7"/>
			<path fill="#C9C9C9" d="M474.9,628.5h0.9H474.9"/>
			<path fill="#C9C9C9" d="M414.6,632.3v0.9V632.3"/>
			<path fill="#C9C9C9" d="M453.2,632.3v-0.9V632.3"/>
			<path fill="#C9C9C9" d="M440,631.3v0.9V631.3"/>
			<path fill="#C9C9C9" d="M414.6,632.3h0.9H414.6"/>
			<path fill="#C9C9C9" d="M423.1,634.2v0.9V634.2"/>
			<path fill="#C9C9C9" d="M430.6,632.3h0.9H430.6"/>
			<path fill="#C9C9C9" d="M442.9,631.3v-0.9h0.9L442.9,631.3"/>
			<path fill="#C9C9C9" d="M471.1,622.9h0.9H471.1"/>
			<path fill="#C9C9C9" d="M456.1,636h0.9H456.1"/>
			<path fill="#C9C9C9" d="M475.9,625.7h0.9H475.9"/>
			<path fill="#C9C9C9" d="M435.3,636h0.9H435.3"/>
			<path fill="#C9C9C9" d="M437.2,631.3v0.9V631.3"/>
			<path fill="#C9C9C9" d="M449.5,635.1v-0.9V635.1"/>
			<path fill="#C9C9C9" d="M444.8,630.4v0.9V630.4"/>
			<path fill="#C9C9C9" d="M426.9,632.3h0.9H426.9"/>
			<path fill="#C9C9C9" d="M425.9,632.3v0.9V632.3"/>
			<path fill="#C9C9C9" d="M438.2,632.3v-0.9V632.3"/>
			<path fill="#C9C9C9" d="M443.8,630.4v0.9V630.4"/>
			<path fill="#C9C9C9" d="M440,631.3h-0.9H440"/>
			<path fill="#C9C9C9" d="M469.3,634.2h0.9H469.3"/>
			<path fill="#C9C9C9" d="M443.8,631.3l0.9-0.9v0.9H443.8"/>
			<path fill="#C9C9C9" d="M429.7,632.3v-0.9V632.3"/>
			<path fill="#C9C9C9" d="M425.9,636h0.9v0.9L425.9,636"/>
			<path fill="#C9C9C9" d="M474.9,625.7v-0.9V625.7"/>
			<path fill="#C9C9C9" d="M424,635.1h0.9H424"/>
			<path fill="#C9C9C9" d="M463.6,628.5v0.9V628.5"/>
			<path fill="#C9C9C9" d="M425.9,633.2h0.9H425.9"/>
			<path fill="#C9C9C9" d="M423.1,631.3h0.9H423.1"/>
			<path fill="#C9C9C9" d="M452.3,634.2v-0.9V634.2"/>
			<path fill="#C9C9C9" d="M423.1,643.6l0.9-0.9v0.9H423.1"/>
			<path fill="#C9C9C9" d="M462.7,637.9V637h0.9L462.7,637.9"/>
			<path fill="#C9C9C9" d="M424,629.4h-0.9H424"/>
			<path fill="#C9C9C9" d="M447.6,634.2v-0.9V634.2"/>
			<path fill="#C9C9C9" d="M423.1,634.2v0.9V634.2"/>
			<path fill="#C9C9C9" d="M423.1,631.3h0.9H423.1"/>
			<path fill="#C9C9C9" d="M424,635.1v-0.9h-0.9h0.9V635.1"/>
			<path fill="#C9C9C9" d="M419.3,629.4h-0.9H419.3"/>
			<path fill="#C9C9C9" d="M421.2,629.4h-0.9H421.2"/>
			<path fill="#C9C9C9" d="M442.9,632.3l0.9-0.9v0.9H442.9"/>
			<path fill="#C9C9C9" d="M423.1,633.2h0.9H423.1"/>
			<path fill="#C9C9C9" d="M427.8,632.3h-0.9H427.8"/>
			<path fill="#C9C9C9" d="M416.5,631.3v0.9l-0.9-0.9H416.5"/>
			<path fill="#C9C9C9" d="M424,630.4v0.9V630.4"/>
			<path fill="#C9C9C9" d="M475.9,628.5v-0.9V628.5"/>
			<path fill="#C9C9C9" d="M424,632.3h-0.9H424"/>
			<path fill="#C9C9C9" d="M414.6,632.3h-0.9H414.6"/>
			<path fill="#C9C9C9" d="M443.8,631.3h0.9H443.8"/>
			<path fill="#C9C9C9" d="M460.8,640.8h0.9v-0.9v0.9H460.8"/>
			<path fill="#C9C9C9" d="M429.7,635.1v0.9V635.1v-0.9V635.1"/>
			<path fill="#C9C9C9" d="M452.3,634.2l0.9-0.9v0.9H452.3v0.9V634.2"/>
			<path fill="#C9C9C9" d="M438.2,630.4h-0.9h-0.9l-0.9-0.9h-2.8v0.9h-0.9h-0.9v0.9l-0.9,0.9v-0.9l-0.9,0.9l-0.9-0.9l-0.9,0.9v-0.9
				h-0.9h0.9l-0.9-1.9l-0.9-1.9H424h-1.9l-0.9,0.9l-2.8,0.9l-1.9-0.9l-0.9,0.9l-0.9-0.9l-1.9-0.9h-0.9h-0.9h-0.9H408h-0.9l-0.9,0.9
				l-1.9-0.9v0.9l-1.9-0.9l-2.8,0.9h-2.8l-1.9,0.9v-0.9v-0.9l0.9-1.9l0.9-0.9l-1.9-2.8V621l-1.9-3.8h0.9v-3.8l-1.9-0.9l-4.7,0.9
				l-0.9-0.9l-5.7-1.9l-3.8-0.9h3.8l0.9-2.8l7.5-4.7h-0.9v-5.7h71.6v3.8h-0.9v2.8l0.9,0.9h17.9v3.8l-1.9,2.8l-0.9,0.9l-2.8,6.6v2.8
				l-0.9,0.9h-1.9v0.9l-1.9,1.9l-0.9,0.9v0.9l-1.9,0.9l-0.9,0.9h-1.9l-0.9,1.9v-0.9h-0.9H457h-0.9l-0.9,1.9l-2.8,0.9v-0.9h-0.9
				l0.9-0.9l-0.9-0.9l-2.8-0.9l-0.9,0.9l-0.9-0.9l-2.8,0.9l-0.9-0.9l-0.9,0.9h-2.8h-0.9V630.4h-0.9H438.2"/>
		</g>
		<g id="walg_48">
			<path fill="#C9C9C9" d="M233.7,348.6h0.9H233.7"/>
			<path fill="#C9C9C9" d="M239.3,346.8h0.9H239.3"/>
			<path fill="#C9C9C9" d="M233.7,350.5v-0.9V350.5"/>
			<path fill="#C9C9C9" d="M233.7,350.5v0.9h-0.9L233.7,350.5"/>
			<path fill="#C9C9C9" d="M238.4,330.7v0.9V330.7"/>
			<path fill="#C9C9C9" d="M237.5,331.7l-0.9,0.9h0.9V331.7"/>
			<path fill="#C9C9C9" d="M231.8,351.5l0.9,0.9v0.9v-0.9l0.9,0.9l0.9-0.9v-0.9l1.9-0.9l0.9,1.9v-0.9v0.9v-0.9l0.9,0.9v-0.9h0.9
				h-0.9v-0.9h0.9h-0.9h0.9h-0.9l0.9-0.9v-0.9h0.9h-0.9h0.9l-0.9-0.9h0.9v-0.9v0.9v-0.9h2.8v5.7h1.9v3.8h2.8v0.9l-1.9,1.9v2.8h0.9
				v0.9H245v0.9h-0.9v0.9l-2.8-1.9l-0.9-1.9h-5.7V359h-7.5v3.8h-1.9l-1.9-4.7l-0.9-0.9h-0.9v-0.9v-0.9v-0.9h-0.9l0.9-0.9l0.9-0.9
				l0.9-0.9v-1.9l1.9-1.9l2.8-8.5l1.9-2.8l3.8-1.9v0.9l-0.9,0.9v2.8l-1.9,4.7l0.9,0.9l0.9,1.9l-0.9,0.9h0.9h0.9v0.9l-0.9,0.9
				L231.8,351.5"/>
		</g>
		<g id="walg_49">
			<path fill="#C9C9C9" d="M272.3,583.3v0.9h-0.9L272.3,583.3"/>
			<path fill="#C9C9C9" d="M271.4,584.2h0.9h0.9v0.9h-0.9L271.4,584.2"/>
		</g>
		<g id="walg_50">
			<path fill="#C9C9C9" d="M244.1,505.1h-0.9l0.9-0.9v-1.9h1.9v0.9h0.9h0.9l-0.9-1.9h5.7h1.9h1.9h-0.9v0.9v0.9v0.9h0.9v0.9v0.9h-1.9
				h0.9v1.9h1.9v2.8h-6.6l-0.9,0.9l-4.7-4.7L244.1,505.1"/>
		</g>
		<g id="walg_51">
			<path fill="#C9C9C9" d="M262,560.7l-1.9-4.7h4.7l0.9,0.9l0.9,0.9h3.8v0.9v-0.9h4.7v0.9h1.9v1.9h1.9v1.9v1.9v0.9l-0.9,1.9H277v0.9
				h0.9v1.9h-7.5h-0.9h-1.9l-2.8-4.7L262,560.7"/>
		</g>
		<g id="walg_52">
			<path fill="#C9C9C9" d="M324.1,631.3l-0.9-0.9v-0.9l0.9-0.9v-1.9h1.9v-0.9v0.9h0.9v-0.9h0.9v0.9h1.9h2.8h0.9h4.7h0.9v-0.9
				l3.8,0.9h0.9v0.9h0.9l-2.8,1.9h-0.9v0.9h0.9v2.8v1.9h-0.9v0.9l0.9,0.9l-0.9,2.8h0.9l-0.9,0.9l-0.9-0.9l-3.8-0.9h-0.9l0.9,0.9
				l-0.9,0.9h0.9v0.9H326v-8.5v-0.9h-1.9V631.3"/>
		</g>
		<g id="walg_53">
			<path fill="#C9C9C9" d="M293.1,562.5v-0.9l-0.9-0.9h0.9l-0.9-1.9h2.8v-0.9l0.9,0.9l0.9-0.9h3.8v0.9v0.9h0.9l-0.9,0.9l0.9,0.9
				h-0.9l0.9,0.9v0.9h-0.9v0.9v0.9v0.9l0.9,0.9v0.9l0.9,1.9l-4.7,0.9v-0.9l-0.9,0.9h-0.9h-0.9H294h-1.9v-2.8l0.9-3.8l-0.9-1.9H293.1
				"/>
		</g>
		<g id="walg_54">
			<path fill="#C9C9C9" d="M276.1,585.2v-0.9l0.9-0.9h0.9h0.9l0.9,0.9v0.9H278l-0.9,0.9L276.1,585.2v0.9V585.2"/>
		</g>
		<g id="walg_55">
			<path fill="#C9C9C9" d="M526.7,230.9v-0.9h0.9l0.9-0.9v0.9h2.8V229h2.8v2.8h2.8v-0.9h1.9l2.8-0.9h0.9v1.9h3.8V228h4.7v-3.8
				l3.8-0.9v-4.7h3.8V213h3.8v7.5h-1.9v3.8h0.9v1.9h3.8v-0.9h-2.8v-0.9h2.8v-1.9h0.9v-2.8h8.5v-2.8h0.9v1.9h5.7v-1.9h5.7v0.9h6.6
				v103.7h-72.6V277h12.2v-3.8h1.9v-5.7l-11.3-0.9V262L523,261H522l-0.9-0.9l-0.9-0.9l-0.9-0.9l-0.9-0.9l3.8-2.8v-3.8l1.9,0.9
				l1.9-0.9l1.9,1.9h0.9v-5.7h-0.9V245h8.5v-7.5h-5.7v-3.8h-1.9v-0.9h-4.7l0.9-0.9h0.9L526.7,230.9"/>
		</g>
		<g id="walg_56">
			<path fill="#C9C9C9" d="M271.4,614.4v0.9l-1.9-0.9l0.9-3.8l-0.9-4.7h2.8h0.9h1.9h2.8h3.8h0.9v0.9v2.8h-0.9v3.8H278l0.9-0.9
				l-0.9-0.9v0.9H277v1.9h-0.9v1.9l-0.9-0.9L271.4,614.4"/>
		</g>
		<g id="walg_57">
			<path fill="#C9C9C9" d="M251.6,516.4l-0.9-3.8l-0.9-0.9l0.9-0.9h6.6v-0.9h0.9v0.9h1.9l-0.9,16l-2.8,0.9h-2.8v-0.9h-0.9l0.9-4.7
				L251.6,516.4"/>
		</g>
		<g id="walg_58">
			<path fill="#C9C9C9" d="M364.7,640.8h0.9H364.7"/>
			<path fill="#C9C9C9" d="M360,642.6v0.9l-0.9-0.9h-0.9h-0.9l0.9,0.9v0.9h-0.9h-0.9h0.9l-0.9-0.9h-1.9l-0.9-0.9h-2.8h-1.9h-0.9
				l-3.8-0.9l-0.9-1.9h-1.9l0.9-2.8l-0.9-0.9v-0.9h0.9v-1.9v-2.8h-0.9v-0.9h0.9l2.8-1.9h-0.9v-0.9h1.9h0.9v-0.9l1.9,0.9v-1.9h7.5
				v-1.9h0.9V621l2.8,0.9l1.9-1.9l1.9,0.9l-1.9,3.8v0.9h-0.9l0.9,0.9l0.9,0.9v11.3h-0.9h0.9v1.9h1.9l-1.9,0.9v-0.9h-1.9l-0.9,0.9
				l0.9,0.9H360"/>
		</g>
		<g id="walg_59">
			<path fill="#C9C9C9" d="M271.4,577.6l-0.9-1.9h1.9l0.9,1.9v0.9v0.9h-0.9l-0.9-0.9V577.6"/>
		</g>
		<g id="walg_60">
			<path fill="#C9C9C9" d="M281.7,582.3l2.8,0.9v0.9v0.9h-1.9h-2.8l-0.9-1.9H278H277l0.9-1.9h0.9h0.9h0.9L281.7,582.3"/>
		</g>
		<g id="walg_61">
			<path fill="#C9C9C9" d="M440,538h114v3.8h39.6v26.4H571v-3.8h-15.1v0.9h-6.6v2.8h-37.7v0.9h-12.2v-0.9h-39.6h-26.4v-4.7v-0.9H424
				v0.9h-10.4v-2.8h-0.9v-1.9l-11.3-13.2h-5.7V538h8.5H440"/>
		</g>
		<g id="walg_62">
			<path fill="#C9C9C9" d="M314.7,626.6h-0.9v-0.9l-3.8,0.9v-3.8h2.8h0.9v-0.9h0.9V621h0.9l0.9-0.9h0.9l0.9-0.9h1.9h3.8h0.9v7.5
				l-8.5-0.9L314.7,626.6"/>
		</g>
		<g id="walg_63">
			<path fill="#C9C9C9" d="M325.1,567.3l0.9-0.9l0.9,0.9v0.9v1.9l0.9,1.9l-1.9,0.9v2.8v2.8h-6.6h-3.8h0.9v-2.8l0.9-0.9l-0.9-6.6h0.9
				h2.8l0.9-0.9H325.1"/>
		</g>
		<g id="walg_64">
			<path fill="#C9C9C9" d="M325.1,624.7v-5.7h-0.9h0.9v-1.9h0.9v-0.9h0.9h0.9h4.7v-0.9h2.8h1.9h2.8h0.9v-0.9h0.9l0.9,0.9l1.9-0.9
				l0.9,0.9l2.8-0.9l2.8,0.9h1.9h0.9v5.7h7.5l-1.9,0.9l-2.8-0.9v1.9h-0.9v1.9h-7.5v1.9l-1.9-0.9v0.9h-0.9H343l-3.8-0.9v0.9h-5.7
				h-0.9h-2.8h-1.9v-0.9H327v0.9H326v-0.9l-0.9,0.9V624.7"/>
		</g>
		<g id="walg_65">
			<path fill="#C9C9C9" d="M310,627.6v1.9l0.9,0.9l-0.9,0.9h0.9v0.9H310h0.9v1.9h-2.8l-0.9,0.9h-0.9h-1.9v0.9h-1.9h-1.9v0.9h-0.9
				h-0.9v-1.9h-1.9l0.9-0.9h-0.9v-0.9l-0.9-1.9v-0.9l0.9-0.9v-3.8v-0.9l-0.9-0.9l0.9,0.9l0.9-0.9h3.8v-0.9h2.8h2.8h0.9h1.9l0.9,2.8
				H310v0.9l0.9,0.9H310"/>
		</g>
		<g id="walg_66">
			<path fill="#C9C9C9" d="M360.9,597.4H360l-0.9-0.9h-1.9l-0.9,0.9h-0.9h-6.6l-0.9-0.9l-7.5,0.9l-4.7-0.9l-0.9,0.9h-0.9h-1.9
				l0.9-0.9l-0.9,0.9v-0.9h-0.9l-0.9-0.9l-1.9,0.9v-0.9v-0.9h0.9v-1.9v0.9l0.9-0.9h0.9v-0.9h0.9l-0.9-0.9l0.9-0.9H342l-0.9-0.9h7.5
				V588H375v14.1h-6.6l-3.8-5.7l-0.9,0.9H360.9"/>
		</g>
		<g id="walg_67">
			<path fill="#C9C9C9" d="M309.1,557.8v-3.8h-1.9l0.9-0.9v-1.9v-0.9v-2.8v-1.9v-5.7h3.8l0.9-0.9h3.8v17v1.9h-0.9h-0.9l-0.9,0.9
				l-1.9-0.9l-0.9,0.9h-1.9V557.8"/>
		</g>
		<g id="walg_68">
			<path fill="#C9C9C9" d="M327,595.5h0.9v0.9l1.9-0.9l0.9,0.9h0.9v0.9l0.9-0.9l-0.9,0.9h1.9h0.9l0.9-0.9l4.7,0.9l7.5-0.9l0.9,0.9
				h6.6h0.9l0.9-0.9h1.9l0.9,0.9h1.9h1.9l0.9-0.9l2.8,3.8l-0.9,0.9h-1.9v0.9H359l-6.6-0.9h-2.8h-0.9l-0.9,0.9v-0.9h-1.9v0.9
				l-0.9-0.9h-3.8l-0.9,1.9v-0.9h-1.9v0.9l-0.9-0.9v0.9l-1.9,0.9v1.9h-3.8v0.9h-2.8h-0.9v0.9v0.9h-3.8l0.9-2.8l-0.9-1.9l-0.9-6.6
				h0.9v-0.9h2.8V595.5"/>
		</g>
		<g id="walg_69">
			<path fill="#C9C9C9" d="M272.3,588.9V587h2.8v0.9v1.9h-0.9h-0.9L272.3,588.9"/>
		</g>
		<g id="walg_70">
			<path fill="#C9C9C9" d="M333.6,611.5v-0.9v-0.9h-0.9l0.9-0.9v-0.9v-1.9h1.9V604l1.9-0.9v-0.9l0.9,0.9v-0.9h1.9v0.9l0.9-1.9h3.8
				l0.9,0.9v-0.9h1.9v0.9l0.9-0.9h0.9h2.8l6.6,0.9h5.7v-0.9h1.9l0.9-0.9l0.9,1.9h20.7l-7.5,4.7l-0.9,2.8H376l0.9,0.9l-2.8,0.9
				l0.9,1.9l-3.8,1.9l-0.9,0.9l-0.9,0.9l-1.9-1.9l-5.7,5.7h-7.5v-5.7h-0.9h-1.9l-2.8-0.9l-2.8,0.9l-0.9-0.9l-1.9,0.9l-0.9-0.9h-0.9
				v0.9h-3.8h-1.9v-0.9l-0.9-0.9h-0.9V611.5"/>
		</g>
		<g id="walg_71">
			<path fill="#C9C9C9" d="M433.5,511.7v-0.9h-11.3v-2.8h-0.9v-0.9h-0.9v-3.8h-1.9v-2.8h-2.8h-0.9h-0.9h-0.9v-3.8h6.6v0.9h3.8v-10.4
				h-1.9v-6.6h1.9v-4.7h-1.9h-2.8v1.9h-2.8v-0.9h-1.9v-6.6h0.9v-0.9h0.9v-0.9h2.8V457h6.6h10.4v-2.8h5.7v-0.9h6.6v0.9h1.9v0.9h144.2
				v55.6H442.9v1.9h-0.9v1.9h-6.6v0.9l-1.9-2.8h0.9v-0.9v0.9h-0.9V511.7"/>
		</g>
		<g id="walg_72">
			<path fill="#C9C9C9" d="M421.2,514.5h-2.8v-0.9h-1.9v0.9H409v-1.9h-4.7v-0.9h-8.5v-2.8H392v-4.7h1.9v-3.8h-3.8v-1.9h-3.8v-0.9
				H376v-4.7h3.8v-5.7h-0.9v-10.4h-1.9V474v-5.7h38.6v0.9h-0.9v0.9h-0.9v6.6h1.9v0.9h2.8v-1.9h2.8h1.9v4.7h-1.9v6.6h1.9v10.4h-3.8
				v-0.9h-6.6v3.8h0.9h0.9h0.9h2.8v2.8h1.9v3.8h0.9v0.9h0.9v2.8h11.3v0.9v0.9l0.9-0.9v0.9h-0.9l1.9,2.8v3.8h-2.8v1.9h-1.9v0.9h-2.8
				v-0.9H425v-3.8h-3.8V514.5"/>
		</g>
		<g id="walg_73">
			<path fill="#C9C9C9" d="M271.4,595.5v-0.9h0.9v1.9v0.9l-0.9-0.9V595.5"/>
			<path fill="#C9C9C9" d="M269.5,597.4h0.9l-0.9,0.9l0.9,3.8h-0.9h-0.9v-2.8v-1.9l1.9-1.9l0.9,0.9L269.5,597.4"/>
		</g>
		<g id="walg_74">
			<path fill="#C9C9C9" d="M295.9,657.7v-0.9V657.7"/>
			<path fill="#C9C9C9" d="M292.1,656.8l-1.9-0.9l-0.9,0.9l-0.9-0.9l-4.7-2.8l-1.9-0.9H278v-0.9l-0.9-1.9l-6.6-5.7l1.9-0.9l0.9-0.9
				l-0.9-0.9l0.9-0.9l0.9-0.9h0.9V637l0.9-0.9h0.9l-0.9-0.9h7.5h0.9l-0.9,0.9h1.9v0.9h2.8V636l1.9-0.9v0.9h0.9l-0.9,0.9h3.8v0.9h0.9
				v0.9l-0.9,2.8l2.8,0.9l0.9,0.9l-0.9,1.9h0.9l-0.9,0.9h0.9l-0.9,0.9v0.9h1.9v1.9l-0.9,0.9v0.9h-0.9v0.9h-0.9v0.9h0.9l0.9,0.9v0.9
				h-1.9v0.9h-0.9l-1.9,0.9v-0.9H292.1"/>
		</g>
		<g id="walg_75">
			<path fill="#C9C9C9" d="M309.1,440h-1.9v-1.9h3.8v-1.9h-3.8v-3.8h0.9v-4.7h0.9v-0.9h1.9v-4.7h7.5h1.9v-2.8v-0.9h0.9V409h-1.9V408
				h3.8v-1.9l-5.7-0.9v-3.8h0.9v-3.8h3.8v-9.4v-1.9l-4.7-0.9v-2.8h1.9v-1.9l0.9-0.9v-2.8h-1.9V376h-0.9V375h1.9v-1.9l6.6,0.9v-0.9
				h2.8v-1.9h1.9v0.9h6.6v2.8h9.4v-0.9h0.9v0.9h47.1l-0.9,3.8l-3.8,5.7l-2.8,0.9l-1.9,3.8l-4.7,5.7l-0.9,1.9l-0.9,0.9l-0.9,1.9
				l-0.9,0.9l0.9,0.9l-1.9,4.7h0.9v2.8l2.8,7.5v0.9h-0.9v0.9l-1.9,2.8v4.7l0.9,5.7l-2.8,6.6l-0.9,0.9l-0.9,2.8l-2.8,4.7v0.9
				l-5.7,3.8v0.9l-0.9,0.9l-1.9,2.8h-0.9L359,458l-0.9,3.8l-1.9,0.9l-0.9,5.7h-1.9h-1.9v0.9h-5.7v-1.9h-5.7l0.9-5.7h-6.6H327V458
				l-0.9-1.9h-8.5v-10.4h-3.8v-1.9H311v-4.7L309.1,440"/>
		</g>
		<g id="walg_76">
			<path fill="#C9C9C9" d="M273.3,583.3h0.9l0.9,0.9v0.9h-1.9v-0.9h-0.9v-0.9H273.3"/>
		</g>
		<g id="walg_77">
			<path fill="#C9C9C9" d="M370.3,497.5h16v0.9h3.8v1.9h3.8v3.8H392v4.7h3.8v2.8h8.5v0.9h4.7v1.9h7.5v-0.9h1.9v0.9h2.8v2.8h3.8v3.8
				h2.8v0.9h2.8v-0.9h1.9v-1.9h2.8v-4.7h6.6v-1.9h0.9v-1.9h150.8v31.1h-39.6V538h-69.7h-80.1h-8.5H375l-35.8-13.2l-1.9-7.5v-4.7h6.6
				v4.7h8.5h3.8l2.8-4.7h7.5l2.8-4.7V506h0.9V497.5"/>
		</g>
		<g id="walg_78">
			<path fill="#C9C9C9" d="M326,573.9v-0.9l1.9-0.9l-0.9-1.9v-1.9v-0.9l2.8-0.9l-0.9-0.9h4.7v-0.9h0.9v-0.9l0.9-0.9h3.8v5.7l1.9,3.8
				h0.9h0.9h1.9v1.9h0.9v1.9h-0.9l0.9,1.9h-0.9h-0.9h-8.5v-1.9h-2.8l-4.7,0.9l-0.9-0.9H326V573.9"/>
		</g>
		<g id="walg_79">
			<path fill="#C9C9C9" d="M268.6,519.2l-6.6-0.9l-0.9,0.9h-0.9v-9.4h1.9v-0.9h0.9v-0.9h4.7v0.9h0.9v1.9h0.9h1.9v0.9h-0.9v3.8h1.9
				v3.8h-2.8v-0.9L268.6,519.2"/>
		</g>
		<g id="walg_80">
			<path fill="#C9C9C9" d="M290.2,546.5v2.8h0.9v2.8h-3.8h-4.7v2.8h-1.9H278h-1.9v-3.8v-0.9v-1.9h-0.9v-0.9v-0.9h0.9v-0.9v-0.9h-0.9
				v-2.8V539h5.7h1.9h1.9V538h0.9v0.9h0.9h-0.9v1.9h1.9h1.9v0.9v-0.9h0.9v4.7V546.5"/>
		</g>
		<g id="walg_81">
			<path fill="#C9C9C9" d="M276.1,505.1h0.9v-0.9h0.9v-0.9h0.9v0.9h0.9v1.9h1.9v0.9l0.9,0.9h0.9v0.9h2.8v1.9h0.9v1.9h2.8v1.9h-2.8
				v1.9l-6.6,0.9v0.9h-4.7h-1.9v-0.9h-1.9v-1.9h-1.9v-3.8h0.9v-0.9h-1.9h-0.9l0.9-3.8l5.7-0.9v-0.9H276.1"/>
		</g>
		<g id="walg_82">
		</g>
		<g id="walg_83">
			<path fill="#C9C9C9" d="M311.9,479.6h0.9v-1.9h2.8v-1.9h0.9h1.9v0.9h-0.9v3.8h0.9v-1.9h4.7v0.9h2.8v1.9h0.9v-1.9h2.8v0.9h1.9h1.9
				h2.8h3.8v-0.9h1.9v6.6h1.9v2.8h-4.7v0.9h0.9v2.8l-2.8,0.9v2.8l2.8,0.9v1.9l-2.8,3.8v6.6h-0.9v0.9h-2.8v-1.9h-4.7v-0.9h-0.9v-2.8
				v-0.9h0.9v-1.9H327H326v1.9h-4.7v0.9h-0.9v-1.9l-4.7-0.9v-4.7h-1.9v-1.9h-0.9v-1.9H311v-1.9h-1.9V489h-0.9v-7.5h-0.9h3.8v-1.9
				h-1.9v-1.9h2.8V479.6"/>
		</g>
		<g id="walg_84">
			<path fill="#C9C9C9" d="M314.7,537.1v-3.8v-0.9l2.8,0.9h0.9v-0.9v-0.9l-0.9-0.9l-2.8,0.9h-0.9l0.9-1.9l0.9-0.9v-0.9v-0.9v-0.9
				h0.9v-0.9l0.9,0.9l1.9,0.9v-0.9v-0.9h19.8V539h-9.4l0.9,9.4h-0.9v0.9h-1.9v0.9h1.9v0.9v1.9h-0.9v0.9v0.9h-0.9l0.9,1.9h-0.9v0.9
				h-2.8v-0.9l-4.7,0.9h-0.9h-0.9h-1.9v-1.9v-17h-0.9l-0.9-0.9h0.9L314.7,537.1"/>
		</g>
		<g id="walg_85">
			<path fill="#C9C9C9" d="M328.9,549.4h-0.9h1.9v-0.9h0.9l-0.9-9.4h9.4v7.5v10.4h-1.9v2.8h-1.9v0.9l-1.9-0.9h-0.9l-0.9-0.9v0.9
				h-1.9h-0.9v-0.9h-0.9v-0.9v-0.9h0.9l-0.9-1.9h0.9v-0.9v-0.9h0.9v-1.9v-0.9h-1.9L328.9,549.4"/>
		</g>
		<g id="walg_86">
			<path fill="#C9C9C9" d="M258.2,509.8h-0.9v-1.9h-1.9V506h-0.9h1.9v-0.9v-0.9h-0.9v-0.9v-0.9v-0.9h0.9h-0.9v-0.9l2.8-0.9v-0.9
				l0.9-0.9l-0.9-0.9h0.9l0.9,0.9l0.9-0.9v-0.9h0.9l0.9-0.9l0.9-0.9l0.9-1.9l0.9-0.9h-1.9v-4.7H261v-1.9h0.9v-0.9H261v-1.9h1.9v2.8
				h12.2l0.9,2.8h-1.9v-0.9h-0.9v10.4h4.7v-1.9h-1.9v-0.9h0.9v-0.9h1.9v-0.9h2.8v1.9h1.9v3.8h0.9v2.8h-2.8v2.8h1.9v1.9h-3.8v-0.9
				h-0.9v-0.9H278v0.9H277v0.9h-1.9v0.9l-5.7,0.9v1.9h-0.9h-0.9v-0.9h-4.7v0.9H262v0.9l-3.8,0.9V509.8"/>
		</g>
		<g id="walg_87">
			<path fill="#C9C9C9" d="M281.7,582.3l-0.9-0.9h-0.9h-0.9l-0.9-0.9h0.9l0.9-0.9h2.8v-0.9h1.9v-1.9v0.9v-0.9l1.9-0.9v1.9v0.9h0.9
				l-0.9,0.9v0.9h1.9v2.8h-2.8v0.9h-0.9L281.7,582.3"/>
		</g>
		<g id="walg_88">
			<path fill="#C9C9C9" d="M309.1,440l1.9-0.9v4.7h2.8v1.9h3.8v6.6h-1.9v3.8h-3.8v-1.9H311v1.9H310v0.9h-0.9v2.8h0.9v7.5v0.9h-1.9
				v-2.8h-4.7v3.8h-4.7v1.9h-0.9v-2.8h-2.8v2.8h0.9v6.6h-3.8v-0.9v-0.9h-2.8v0.9h-1.9v2.8h-0.9v0.9h-4.7v6.6h-0.9v-0.9h-1.9v2.8h4.7
				v0.9h-1.9v0.9h-2.8v1.9H277v0.9h-0.9v0.9h1.9v1.9h-4.7v-10.4h0.9v0.9h1.9l-0.9-2.8h-12.2v-2.8H262v-2.8h0.9l0.9-3.8H261h-1.9V474
				h-0.9v-2.8h0.9v-4.7h1.9v-10.4h2.8v-12.2h1.9v-6.6h-0.9v-2.8h0.9l1.9-0.9h0.9v-2.8h1.9v-0.9h18.8v-1.9h0.9v-0.9h10.4v1.9h7.5v3.8
				h-0.9v3.8h3.8v1.9h-3.8v1.9H309.1"/>
		</g>
		<g id="walg_89">
			<path fill="#C9C9C9" d="M278,602.1l-0.9-0.9v0.9h-5.7v-0.9h-0.9l-0.9-2.8h0.9h1.9v-0.9v-0.9v-1.9l1.9-0.9v0.9h1.9h0.9h0.9h6.6
				v4.7h-1.9v1.9h0.9v0.9h-0.9v0.9v-0.9h-1.9l-0.9-0.9L278,602.1"/>
		</g>
		<g id="walg_90">
			<path fill="#C9C9C9" d="M269.5,643.6l-1.9-1.9h-0.9l-2.8-1.9H262V636l1.9-0.9l-0.9-1.9h0.9l-0.9-1.9h0.9v-1.9h2.8l2.8-1.9h1.9
				v-0.9h1.9h0.9v0.9h-0.9v0.9l1.9-0.9v0.9l0.9,0.9v0.9l0.9,0.9v2.8h0.9v0.9h-1.9l0.9,0.9h-0.9l-0.9,0.9v1.9h-0.9l-0.9,0.9h-0.9v0.9
				l0.9,0.9l-0.9,0.9L269.5,643.6"/>
		</g>
		<g id="walg_91">
			<path fill="#C9C9C9" d="M334.5,581.4v-0.9l0.9-0.9v-1.9h8.5h0.9h0.9l4.7,4.7h3.8v0.9h0.9v1.9h-1.9l1.9,2.8h-6.6v0.9h-1.9h-5.7
				l0.9,0.9h-10.4v-0.9v-3.8h0.9v-0.9v-0.9h0.9v-0.9h0.9V581.4"/>
		</g>
		<g id="walg_92">
			<path fill="#C9C9C9" d="M306.2,604h0.9v0.9V604h1.9h1.9l0.9-0.9h0.9h0.9v0.9h1.9l0.9,1.9l-0.9,1.9h0.9h-0.9v0.9h-0.9v0.9h-1.9
				v0.9v-0.9H311v0.9h-1.9h-0.9h-1.9v0.9h-3.8l0.9-0.9l-0.9-0.9v-1.9h-0.9v-1.9V604h0.9H306.2"/>
			<path fill="#C9C9C9" d="M306.2,605.9h0.9H306.2"/>
		</g>
		<g id="walg_93">
			<path fill="#C9C9C9" d="M307.2,605.9h-0.9H307.2"/>
		</g>
		<g id="walg_94">
			<path fill="#C9C9C9" d="M272.3,582.3v-0.9h0.9v0.9v0.9h-0.9l0.9-0.9H272.3"/>
		</g>
		<g id="walg_95">
			<path fill="#C9C9C9" d="M593.6,375v80.1H489V375H593.6"/>
		</g>
		<g id="walg_96">
			<path fill="#C9C9C9" d="M286.5,577.6v-1.9h1.9v-0.9v0.9l0.9-0.9v0.9h0.9v-0.9v-0.9l1.9-0.9V572V571h1.9h0.9h0.9h0.9l0.9-0.9v0.9
				h0.9v0.9h0.9l1.9,3.8h-0.9h-0.9h0.9l-0.9,0.9l-0.9,0.9v-0.9h-0.9h-0.9h-0.9l-3.8,1.9h-1.9v0.9l0.9,0.9l-0.9,0.9l-3.8-0.9v-0.9
				l0.9-0.9h-0.9V577.6"/>
		</g>
		<g id="walg_97">
			<path fill="#C9C9C9" d="M223.3,497.5v-0.9h0.9L223.3,497.5"/>
			<path fill="#C9C9C9" d="M222.4,496.6v0.9V496.6"/>
			<path fill="#C9C9C9" d="M227.1,506.9v0.9V506.9"/>
			<path fill="#C9C9C9" d="M222.4,497.5v-0.9V497.5"/>
			<path fill="#C9C9C9" d="M225.2,503.2v-0.9V503.2"/>
			<path fill="#C9C9C9" d="M225.2,504.1h-0.9H225.2"/>
			<path fill="#C9C9C9" d="M223.3,497.5h0.9H223.3"/>
			<path fill="#C9C9C9" d="M226.1,506.9v0.9V506.9"/>
			<path fill="#C9C9C9" d="M219.6,492.8v0.9V492.8"/>
			<path fill="#C9C9C9" d="M228,509.8v-0.9l0.9-0.9v0.9L228,509.8"/>
			<path fill="#C9C9C9" d="M222.4,496.6h0.9H222.4"/>
			<path fill="#C9C9C9" d="M221.4,497.5v-0.9h0.9v0.9H221.4"/>
			<path fill="#C9C9C9" d="M233.7,487.2l-1.9-4.7l0.9-1.9v-1.9h0.9v-0.9v0.9l-1.9-4.7l-3.8-6.6h2.8v-2.8h3.8v1.9h1.9v0.9h3.8v0.9
				h8.5h4.7h5.7v0.9v1.9h-0.9v2.8h0.9v0.9h1.9h2.8l-0.9,3.8H262v2.8h-1.9v2.8h-4.7l-0.9,5.7h-0.9v0.9h-5.7v0.9l0.9,0.9v1.9l-1.9,1.9
				h-0.9v0.9H245v0.9h-1.9v0.9l-2.8-3.8l-0.9-1.9l-1.9-1.9l-1.9-1.9l-1.9-1.9V487.2"/>
		</g>
		<g id="walg_98">
			<path fill="#C9C9C9" d="M325.1,567.3v-0.9v-0.9v-0.9h0.9v-1.9v-0.9l0.9-0.9l2.8-0.9h1.9v-0.9l0.9,0.9h0.9l1.9,0.9v-0.9h1.9v-2.8
				h1.9v5.7h-3.8l-0.9,0.9v0.9h-0.9v0.9h-4.7l0.9,0.9l-0.9,0.9l-2.8-0.9L325.1,567.3"/>
		</g>
		<g id="walg_99">
		</g>
		<g id="walg_100">
			<path fill="#C9C9C9" d="M291.2,511.7v-3.8h1.9v-0.9h5.7v1.9h1.9v2.8h2.8v1.9v0.9h2.8v1.9h-2.8v4.7h0.9v7.5h-5.7h-1.9l0.9,0.9
				l0.9,0.9l-1.9,0.9h0.9h-0.9l-0.9,0.9h-5.7h-0.9h-2.8h-0.9v-0.9v-1.9h-1.9v-0.9h-0.9h-0.9l-0.9-2.8v-0.9v-0.9h-0.9V523H278v-1.9
				H277v-0.9h-0.9v-1.9h4.7v-0.9l6.6-0.9v-1.9h2.8l-0.9-2.8H291.2"/>
		</g>
		<g id="walg_101">
			<path fill="#C9C9C9" d="M274.2,582.3h-0.9l0.9-0.9h0.9v0.9H274.2"/>
		</g>
		<g id="walg_102">
			<path fill="#C9C9C9" d="M313.8,593.6h0.9l0.9,1.9h0.9v1.9h-0.9v0.9l-3.8-0.9l-0.9,0.9H310v-0.9h-4.7h-0.9l-1.9,0.9l-1.9,0.9h-0.9
				l0.9-1.9l-2.8-2.8l0.9-0.9l1.9,0.9l0.9-0.9v0.9h1.9l1.9-0.9l1.9-0.9h4.7h0.9L313.8,593.6"/>
		</g>
		<g id="walg_103">
			<path fill="#C9C9C9" d="M319.4,652.1h-5.7v-1.9H311H310h-11.3v-1.9h-1.9v-0.9l0.9-0.9h-0.9l0.9-0.9l0.9-0.9v-0.9h0.9v-0.9h6.6
				h0.9h0.9h0.9h1.9v0.9h1.9v-0.9h0.9l0.9-0.9h2.8h18.8l-0.9,0.9l-0.9,0.9v0.9l-2.8,0.9v2.8h-2.8l-0.9-0.9H327l-0.9,0.9v1.9h-0.9
				h-0.9v0.9h-0.9v0.9H319.4"/>
		</g>
		<g id="walg_104">
			<path fill="#C9C9C9" d="M326,302.5h-0.9H326"/>
			<path fill="#C9C9C9" d="M331.7,300.6v-0.9V300.6"/>
			<path fill="#C9C9C9" d="M337.3,298.7h0.9H337.3"/>
			<path fill="#C9C9C9" d="M353.4,280.8v0.9V280.8"/>
			<path fill="#C9C9C9" d="M320.4,305.3h0.9H320.4"/>
			<path fill="#C9C9C9" d="M324.1,302.5h0.9H324.1"/>
			<path fill="#C9C9C9" d="M323.2,304.4v-0.9V304.4"/>
			<path fill="#C9C9C9" d="M339.2,299.6v-0.9V299.6"/>
			<path fill="#C9C9C9" d="M332.6,300.6l0.9-0.9v0.9v-0.9l0.9,0.9v-0.9h-0.9h1.9h-0.9l0.9,0.9v-0.9v0.9v-0.9h0.9v0.9v-0.9h0.9h0.9
				h0.9v-0.9l0.9,0.9v-0.9h-0.9h0.9v0.9h0.9h0.9l-1.9-0.9h0.9h0.9l0.9,0.9H342h0.9v-0.9l1.9-0.9l1.9,0.9v-0.9v0.9h0.9v-0.9l-0.9,0.9
				v-0.9v-0.9h0.9v0.9v-0.9l0.9-1.9l0.9-0.9l0.9-1.9h1.9l0.9-1.9h0.9v0.9l0.9,0.9h0.9l-0.9-0.9v-0.9h0.9h0.9l2.8,0.9h0.9l0.9,0.9
				l0.9-0.9l0.9,0.9v8.5h-2.8v4.7h-10.4v0.9h-1.9v4.7h-1.9v2.8h-2.8v4.7h1.9l0.9,0.9v1.9l1.9,3.8h3.8v4.7h1.9v1.9h0.9v3.8h-2.8v1.9
				h-1.9l0.9,2.8h-6.6v-0.9h-3.8v-3.8h-1.9v-0.9h0.9v-1.9h-0.9v-0.9h-3.8v0.9h-2.8v-1.9h-0.9v-1.9h0.9v-0.9h-0.9v-2.8h-0.9v1.9h-1.9
				V326v-1.9h0.9v-0.9h-1.9v-1.9H327v-3.8h4.7v-4.7h-0.9v-0.9V311h-0.9l-0.9,0.9L327,311h-1.9v-2.8h-3.8v-0.9l1.9-0.9v-0.9h0.9h-0.9
				l0.9-0.9v0.9h0.9h-0.9l0.9-0.9v0.9v-0.9l0.9,0.9v-0.9h-0.9l0.9-0.9l-0.9,0.9v-1.9v0.9h0.9h-0.9l1.9-0.9l0.9-0.9l0.9-0.9l1.9-0.9
				h0.9h-0.9h0.9v0.9l-0.9-0.9l0.9,0.9h-0.9h0.9v0.9v-0.9H332.6"/>
		</g>
		<g id="walg_105">
			<path fill="#C9C9C9" d="M306.2,583.3l-1.9-0.9v-0.9l0.9-0.9l0.9-0.9l-0.9-0.9h0.9l1.9-0.9v0.9l0.9,0.9l2.8-0.9h0.9h0.9l0.9,0.9
				l3.8-0.9v2.8l0.9,1.9v1.9l-0.9,0.9v0.9h-0.9v0.9h-1.9h-2.8v0.9L310,588v0.9h-0.9h-0.9v-2.8h-0.9l0.9-0.9v-0.9L306.2,583.3"/>
		</g>
		<g id="walg_106">
			<path fill="#C9C9C9" d="M374.1,631.3h-2.8h-0.9v0.9h-0.9l-0.9,0.9l-1.9,0.9l-1.9,0.9l0.9,0.9l-1.9,0.9l-0.9,1.9v-11.3l-0.9-0.9
				l-0.9-0.9h0.9v-0.9l1.9-3.8l-1.9-0.9l5.7-4.7l1.9,1.9l0.9-0.9l0.9-0.9l3.8-1.9l-0.9-1.9l2.8-0.9l-0.9-0.9h0.9l3.8,0.9l5.7,1.9
				l0.9,0.9l4.7-0.9l1.9,0.9v3.8h-0.9l1.9,3.8v0.9l1.9,2.8l-0.9,0.9l-0.9,1.9v0.9h-5.7l-0.9,0.9h0.9l-3.8,1.9l-4.7-0.9h-2.8
				l-1.9-0.9l-0.9,0.9L374.1,631.3"/>
		</g>
		<g id="walg_107">
			<path fill="#C9C9C9" d="M270.4,588.9l-0.9-1.9L270.4,588.9"/>
			<path fill="#C9C9C9" d="M271.4,593.6v-1.9v-0.9h-0.9v-0.9h0.9l0.9-0.9l0.9,0.9h0.9h0.9l-1.9,2.8h0.9v0.9v0.9h-2.8V593.6"/>
		</g>
		<g id="walg_108">
			<path fill="#C9C9C9" d="M266.7,307.2v-0.9V307.2"/>
			<path fill="#C9C9C9" d="M313.8,310h-0.9H313.8"/>
			<path fill="#C9C9C9" d="M267.6,302.5v-0.9V302.5"/>
			<path fill="#C9C9C9" d="M318.5,306.2v0.9V306.2"/>
			<path fill="#C9C9C9" d="M267.6,307.2v-0.9V307.2"/>
			<path fill="#C9C9C9" d="M292.1,309.1v-0.9V309.1"/>
			<path fill="#C9C9C9" d="M282.7,311.9V311V311.9"/>
			<path fill="#C9C9C9" d="M272.3,318.5h0.9H272.3"/>
			<path fill="#C9C9C9" d="M315.7,308.1h0.9H315.7"/>
			<path fill="#C9C9C9" d="M291.2,303.4v-0.9V303.4"/>
			<path fill="#C9C9C9" d="M267.6,301.5h0.9H267.6"/>
			<path fill="#C9C9C9" d="M277,314.7h0.9H277"/>
			<path fill="#C9C9C9" d="M273.3,317.6h0.9H273.3"/>
			<path fill="#C9C9C9" d="M293.1,307.2h0.9H293.1"/>
			<path fill="#C9C9C9" d="M294,303.4v0.9V303.4"/>
			<path fill="#C9C9C9" d="M267.6,307.2h-0.9l0.9-0.9V307.2"/>
			<path fill="#C9C9C9" d="M294,304.4h0.9H294"/>
			<path fill="#C9C9C9" d="M306.2,304.4v0.9V304.4"/>
			<path fill="#C9C9C9" d="M266.7,301.5v0.9V301.5"/>
			<path fill="#C9C9C9" d="M278.9,313.8v-0.9V313.8"/>
			<path fill="#C9C9C9" d="M318.5,307.2v-0.9V307.2"/>
			<path fill="#C9C9C9" d="M294,308.1v-0.9V308.1"/>
			<path fill="#C9C9C9" d="M266.7,300.6v0.9V300.6"/>
			<path fill="#C9C9C9" d="M274.2,315.7v0.9V315.7"/>
			<path fill="#C9C9C9" d="M281.7,313.8l0.9,0.9L281.7,313.8"/>
			<path fill="#C9C9C9" d="M294,305.3l-0.9-0.9h0.9V305.3"/>
			<path fill="#C9C9C9" d="M301.5,301.5v0.9V301.5"/>
			<path fill="#C9C9C9" d="M266.7,301.5h-0.9H266.7"/>
			<path fill="#C9C9C9" d="M265.7,300.6l0.9-0.9v0.9H265.7"/>
			<path fill="#C9C9C9" d="M288.3,307.2h0.9H288.3"/>
			<path fill="#C9C9C9" d="M281.7,313.8v0.9V313.8"/>
			<path fill="#C9C9C9" d="M297.8,301.5h0.9l-0.9,0.9V301.5"/>
			<path fill="#C9C9C9" d="M294.9,303.4v0.9H294L294.9,303.4"/>
			<path fill="#C9C9C9" d="M294,307.2h0.9H294"/>
			<path fill="#C9C9C9" d="M275.1,313.8v0.9V313.8"/>
			<path fill="#C9C9C9" d="M304.4,302.5v-0.9V302.5"/>
			<path fill="#C9C9C9" d="M303.4,307.2l0.9-0.9L303.4,307.2"/>
			<path fill="#C9C9C9" d="M267.6,301.5l-0.9-0.9L267.6,301.5"/>
			<path fill="#C9C9C9" d="M267.6,325.1h0.9v0.9h-1.9L267.6,325.1"/>
			<path fill="#C9C9C9" d="M297.8,302.5l0.9-0.9L297.8,302.5"/>
			<path fill="#C9C9C9" d="M296.8,303.4l0.9-0.9v1.9L296.8,303.4"/>
			<path fill="#C9C9C9" d="M293.1,306.2h0.9l0.9-0.9l-0.9,0.9H293.1"/>
			<path fill="#C9C9C9" d="M266.7,301.5v0.9v0.9v-0.9v0.9v-0.9v0.9v-0.9V301.5"/>
			<path fill="#C9C9C9" d="M293.1,302.5l-0.9,0.9v-0.9H293.1"/>
			<path fill="#C9C9C9" d="M319.4,307.2v-0.9h0.9v0.9H319.4"/>
			<path fill="#C9C9C9" d="M300.6,301.5l-1.9-0.9l-0.9-0.9l3.8,1.9H300.6"/>
			<path fill="#C9C9C9" d="M293.1,305.3l0.9-0.9l-0.9,1.9h-0.9L293.1,305.3"/>
			<path fill="#C9C9C9" d="M294,308.1l-1.9,0.9v-0.9h0.9H294"/>
			<path fill="#C9C9C9" d="M290.2,305.3l0.9,0.9v-0.9h0.9h-0.9v0.9h-1.9v-0.9H290.2"/>
			<path fill="#C9C9C9" d="M298.7,302.5l0.9-0.9L298.7,302.5v0.9h0.9l-1.9,0.9L298.7,302.5"/>
			<path fill="#C9C9C9" d="M283.6,312.8h0.9h0.9l0.9-0.9l0.9-0.9v0.9l0.9-0.9l0.9,0.9h0.9h-0.9l-0.9-0.9l0.9,0.9V311h0.9V310
				l0.9,0.9l-0.9-0.9h0.9h-0.9l1.9-0.9v0.9h0.9l-0.9-0.9h0.9v-0.9v1.9v-0.9v0.9v-0.9h0.9l0.9,0.9v-0.9H294h0.9v-0.9l-0.9,0.9v-0.9
				h0.9l0.9-0.9l0.9-0.9h-0.9l1.9-0.9h-0.9l0.9-0.9h0.9l-0.9,0.9l-0.9,2.8l0.9-0.9v0.9l0.9,0.9h1.9h0.9h-0.9l0.9-0.9h-0.9h0.9h0.9
				l-0.9-0.9h0.9h0.9l0.9-0.9v0.9h0.9l0.9-1.9l0.9,0.9h-0.9v0.9v0.9h0.9l-0.9-0.9h0.9l-0.9,0.9h0.9h0.9l-0.9,0.9l0.9-0.9h-0.9h0.9
				l0.9,0.9h0.9h-0.9h0.9h0.9v0.9H310h0.9H310h0.9v-0.9l0.9,0.9v-0.9h0.9v0.9v-0.9v0.9h0.9l-0.9-0.9l2.8-0.9v0.9v-0.9h0.9l0.9-0.9
				v0.9h0.9v0.9v-0.9v-0.9v0.9v-0.9l0.9,0.9l1.9-0.9v0.9h3.8v2.8h1.9l1.9,0.9l0.9-0.9h0.9v0.9v0.9h0.9v4.7H327v3.8h0.9v10.4h0.9v1.9
				H326V327h-0.9v-1.9h-5.7v-5.7h-3.8v3.8h-8.5v-1.9h1.9v-0.9h-2.8v0.9h-1.9v-0.9h0.9v-0.9h-2.8v0.9h-4.7v3.8h-8.5v-0.9h-7.5v1.9
				h-0.9v3.8H278v0.9H277V327l-1.9-0.9h-6.6v-0.9h-0.9h0.9h-0.9l0.9-0.9v0.9v-0.9h0.9h-0.9l0.9-0.9v0.9v-0.9h0.9v-0.9v0.9l0.9-0.9
				h0.9h0.9v-0.9v0.9v-0.9v0.9l0.9-0.9h-0.9h0.9v-0.9v-0.9h0.9v-0.9l0.9-0.9v0.9l1.9-1.9l1.9-0.9v0.9h0.9v-0.9h0.9l0.9-0.9v-1.9
				H283.6h-0.9v-0.9h0.9h0.9L283.6,312.8"/>
			<path fill="#C9C9C9" d="M308.1,309.1v-0.9V309.1"/>
		</g>
		<g id="walg_109">
			<path fill="#C9C9C9" d="M339.2,490V489h4.7v-2.8H342v-2.8v-2.8h2.8v-2.8l-1.9,0.9v-8.5h3.8v-0.9h4.7v-0.9h1.9h1.9l0.9-0.9h8.5
				v0.9h12.2v5.7v2.8h1.9v10.4h0.9v5.7H376v4.7h-5.7v8.5h-0.9v1.9l-2.8,4.7H359l-2.8,4.7h-3.8h-8.5v-4.7h-6.6v4.7l1.9,7.5h-14.1
				v-6.6h-0.9v-0.9h-0.9h-1.9v-4.7h3.8h3.8v0.9h1.9v-0.9h2.8v-1.9h2.8v-0.9h0.9v-6.6l2.8-3.8v-1.9l-2.8-0.9v-2.8l2.8-0.9V490H339.2"
				/>
		</g>
		<g id="walg_110">
			<path fill="#C9C9C9" d="M275.1,589.9V587h1.9v0.9V587h0.9l0.9,0.9h1.9v1.9h1.9l1.9,2.8v1.9H278H277h-0.9h-1.9v-1.9h-0.9
				L275.1,589.9"/>
		</g>
		<g id="walg_111">
			<path fill="#C9C9C9" d="M216.7,444.8h0.9H216.7"/>
			<path fill="#C9C9C9" d="M226.1,437.2v0.9V437.2"/>
			<path fill="#C9C9C9" d="M235.6,439.1h-0.9H235.6h-0.9H235.6"/>
			<path fill="#C9C9C9" d="M226.1,447.6v0.9V447.6"/>
			<path fill="#C9C9C9" d="M226.1,433.5v0.9V433.5"/>
			<path fill="#C9C9C9" d="M226.1,436.3h0.9H226.1"/>
			<path fill="#C9C9C9" d="M222.4,440v0.9V440"/>
			<path fill="#C9C9C9" d="M222.4,440v-0.9V440"/>
			<path fill="#C9C9C9" d="M222.4,439.1v-0.9V439.1"/>
			<path fill="#C9C9C9" d="M226.1,445.7v0.9V445.7"/>
			<path fill="#C9C9C9" d="M226.1,439.1v-0.9V439.1"/>
			<path fill="#C9C9C9" d="M226.1,438.2l-0.9-0.9h0.9V438.2"/>
			<path fill="#C9C9C9" d="M223.3,450.4h0.9H223.3"/>
			<path fill="#C9C9C9" d="M227.1,433.5v0.9h-0.9v-1.9h0.9V433.5"/>
			<path fill="#C9C9C9" d="M205.4,434.4l-0.9-2.8l-0.9-3.8v-1.9l0.9-0.9h0.9v1.9l0.9,0.9l0.9,3.8l0.9,1.9l-0.9,0.9h1.9l-0.9,0.9v0.9
				h0.9l-0.9-0.9l0.9,0.9l0.9,0.9v0.9l0.9,1.9l-0.9,0.9V440h-0.9l-0.9-1.9l-1.9-2.8L205.4,434.4"/>
			<path fill="#C9C9C9" d="M212,442.9v-4.7v-0.9v1.9l0.9,0.9v5.7h0.9v0.9h0.9v0.9v-0.9l-0.9-1.9H213l0.9-2.8h0.9V440l-0.9-0.9v-1.9
				l0.9,2.8l0.9,0.9v0.9l0.9,3.8h0.9v0.9h-0.9l0.9,0.9h-0.9v0.9h0.9v-0.9v-0.9v-0.9v-0.9h-0.9h0.9v-0.9l0.9,3.8v0.9v0.9v1.9l0.9,0.9
				v-0.9v-1.9v0.9h0.9v-1.9v2.8v0.9v-0.9h0.9v1.9h0.9h-0.9l0.9-0.9h-0.9v-0.9l1.9,0.9v-0.9l0.9,0.9l0.9-0.9l0.9-1.9v-0.9v-1.9v-0.9
				l-1.9-2.8h-2.8v-0.9l-0.9-1.9l-0.9-0.9l-0.9-2.8l-0.9-0.9v-0.9v-0.9l-1.9-0.9l0.9-0.9l-0.9-0.9h0.9h-0.9l0.9-0.9h-0.9v0.9v0.9
				h0.9h-0.9h0.9l-1.9-0.9l0.9-2.8l1.9-2.8v2.8l0.9,0.9l0.9-0.9v2.8l1.9,1.9h0.9v1.9h0.9l-0.9,1.9l0.9,0.9l-0.9,0.9v1.9v1.9h0.9h0.9
				l0.9-0.9V440v0.9V440h0.9v-0.9v-0.9v-1.9h0.9v0.9v0.9v1.9l0.9,0.9v0.9v0.9v0.9l0.9,1.9l1.9,1.9v0.9l3.8-2.8l0.9-1.9l-0.9-0.9
				l-0.9-0.9l0.9-1.9v0.9h0.9h1.9v-3.8h10.4v-1.9h1.9v-0.9h3.8v-2.8h6.6v2.8h0.9v0.9h3.8v1.9h0.9v4.7v1.9h-1.9v12.2H261v10.4h-1.9
				v1.9h-5.7h-4.7h-8.5v-0.9h-3.8v-0.9h-1.9v-1.9h-3.8v2.8H228l-3.8-7.5l-4.7-6.6l-7.5-6.6h0.9l-0.9-1.9l-2.8-3.8h0.9l0.9,0.9
				L212,442.9"/>
		</g>
		<g id="walg_112">
			<path fill="#C9C9C9" d="M274.2,583.3v-0.9h0.9v0.9l-0.9,0.9V583.3"/>
		</g>
		<g id="walg_113">
			<path fill="#C9C9C9" d="M274.2,581.4h-0.9h-0.9v-1.9h2.8v1.9H274.2"/>
		</g>
		<g id="walg_114">
			<path fill="#C9C9C9" d="M273.3,582.3v-0.9h0.9L273.3,582.3h0.9H273.3"/>
		</g>
		<g id="walg_115">
			<path fill="#C9C9C9" d="M276.1,580.4v-0.9h-0.9v-5.7h2.8l0.9-0.9h4.7v1.9h0.9l0.9,0.9l-0.9,0.9v1.9h-1.9v0.9h-2.8l-0.9,0.9H278
				l0.9,0.9H278H277v-0.9H276.1"/>
		</g>
		<g id="walg_116">
			<path fill="#C9C9C9" d="M311,577.6v-0.9v-1.9v-1.9h0.9l-0.9-2.8h0.9H311v-0.9h1.9l0.9-0.9h3.8h-0.9v0.9h0.9v5.7l-0.9,0.9v2.8
				h-0.9v0.9h-1.9v-0.9h-0.9h-0.9L311,577.6"/>
		</g>
		<g id="walg_117">
			<path fill="#C9C9C9" d="M273.3,524.9v-0.9h-0.9l-0.9,2.8l0.9,0.9h-13.2l0.9-8.5h0.9l0.9-0.9h5.7v0.9l1.9-0.9v0.9h2.8v-1.9h1.9
				v0.9h1.9v1.9h0.9v0.9h0.9v1.9h-1.9v0.9h-0.9L273.3,524.9"/>
		</g>
		<g id="walg_118">
			<path fill="#C9C9C9" d="M281.7,567.3h1.9v-2.8h2.8l0.9,1.9l0.9-0.9l0.9,0.9l0.9-0.9v0.9l0.9-0.9l0.9,0.9l0.9-0.9l-0.9,2.8
				l0.9,1.9l-0.9,1.9v0.9l-1.9,0.9v0.9v0.9h-0.9v-0.9l-0.9,0.9v-0.9v0.9h-3.8v-0.9h-0.9v-1.9h-1.9V572V567.3"/>
		</g>
		<g id="walg_119">
			<path fill="#C9C9C9" d="M326,557.8h1.9v0.9h0.9v0.9l-1.9,1.9v0.9l-0.9-0.9v0.9v1.9h-0.9v0.9v0.9v0.9h-3.8l-0.9,0.9h-1.9h-0.9
				v-1.9h-0.9l0.9-5.7v-0.9l-0.9-0.9h0.9v-0.9h1.9h0.9h2.8v-0.9h1.9v0.9H326"/>
		</g>
		<g id="walg_120">
			<path fill="#C9C9C9" d="M300.6,383.5h2.8h14.1v1.9l4.7,0.9v1.9v9.4h-3.8v3.8h-0.9v3.8l5.7,0.9v1.9h-3.8v0.9h1.9v9.4h-0.9v0.9v2.8
				h-1.9H311v4.7h-1.9v0.9h-0.9v0.9h-7.5v-1.9h-10.4v0.9h-0.9v1.9h-18.8v0.9h-1.9v2.8h-0.9l-1.9,0.9h-0.9v0.9H261v-0.9h-0.9v-2.8
				h-6.6v-4.7h-0.9v-5.7h-3.8v-0.9h1.9v-1.9h-1.9v-6.6h0.9v-0.9h6.6v-0.9h0.9V408h0.9v-3.8h-0.9v-1.9h-3.8v-7.5l2.8-0.9V392l2.8-0.9
				v2.8h3.8v0.9h1.9v-1.9h0.9l-0.9-3.8h-0.9v-2.8v-1.9v-0.9h0.9h2.8v-2.8h2.8v1.9h0.9v1.9h0.9v0.9h2.8h1.9v-7.5h2.8v0.9h0.9v0.9h1.9
				h2.8v-0.9h4.7v-1.9h1.9v0.9h6.6v5.7H300.6"/>
		</g>
		<g id="walg_121">
			<path fill="#C9C9C9" d="M276.1,582.3l-0.9,0.9v-1.9L276.1,582.3"/>
		</g>
		<g id="walg_122">
			<path fill="#C9C9C9" d="M287.4,552.2h1.9l-0.9,2.8l0.9,0.9h1.9v1.9h0.9v1.9h0.9l-0.9,0.9l0.9,0.9v0.9h-0.9l0.9,1.9v0.9l-0.9,0.9
				l-0.9-0.9l-0.9,0.9v-0.9l-0.9,0.9l-0.9-0.9l-0.9,0.9l-0.9-1.9h-2.8v-0.9v-2.8h-4.7H277l-0.9-5.7h1.9h2.8h1.9v-2.8H287.4"/>
		</g>
		<g id="walg_123">
			<path fill="#C9C9C9" d="M274.2,581.4h-0.9h1.9H274.2"/>
		</g>
		<g id="walg_124">
			<path fill="#C9C9C9" d="M311,618.1H310l-0.9,0.9h-0.9v0.9h-3.8v-0.9v-0.9h0.9h-0.9v-0.9v-3.8v-1.9l1.9-0.9h1.9h0.9h1.9v-0.9h1.9
				v0.9v-0.9h1.9v-0.9h0.9v-0.9l3.8,0.9l-0.9,0.9v0.9h-0.9v0.9h0.9l-0.9,0.9l0.9,1.9h-0.9v1.9v0.9h-1.9h-0.9h-0.9h-0.9v0.9l-0.9-0.9
				v0.9H311"/>
		</g>
		<g id="walg_125">
			<path fill="#C9C9C9" d="M291.2,600.2l-4.7-4.7h-1.9v-2.8l-1.9-2.8l0.9-0.9h3.8v2.8h3.8v2.8h6.6l2.8,2.8l-0.9,1.9l0.9,1.9
				l-2.8,0.9h-0.9v0.9l-2.8-0.9v0.9v-0.9h-1.9L291.2,600.2"/>
		</g>
		<g id="walg_126">
			<path fill="#C9C9C9" d="M272.3,575.7h-1.9v-0.9l-2.8-4.7h1.9h0.9h3.8v3.8h0.9v5.7h-1.9v-0.9v-0.9L272.3,575.7"/>
		</g>
		<g id="walg_127">
			<path fill="#C9C9C9" d="M278.9,605.9h-3.8h-1.9h-0.9h-2.8l-0.9-3.8h0.9h1.9h0.9h0.9h3.8v-0.9l0.9,0.9v-0.9h1.9l0.9,0.9h1.9v3.8
				h-0.9H278.9"/>
		</g>
		<g id="walg_128">
			<path fill="#C9C9C9" d="M284.6,620h0.9l0.9-0.9l0.9-0.9v-2.8h1.9h1.9v-0.9l0.9,0.9l2.8-0.9v-0.9h3.8v-0.9h0.9h0.9l3.8-0.9v1.9
				v3.8v0.9h0.9h-0.9v0.9l-0.9,0.9v-0.9l-0.9,0.9l-0.9-0.9v4.7h-3.8l-0.9,0.9l-0.9-0.9h-0.9v0.9h-1.9v-0.9h-3.8v-0.9l-0.9-0.9h-0.9
				l-1.9-0.9L284.6,620"/>
		</g>
		<g id="walg_129">
			<path fill="#C9C9C9" d="M339.2,566.3v-24.5v-1.9l5.7,9.4v2.8h0.9v0.9h-0.9h0.9v0.9h1.9l0.9,0.9h0.9v1.9h-0.9v0.9h-0.9v2.8h-0.9
				v0.9v0.9h-0.9v1.9h-0.9v0.9v0.9v0.9v4.7H343H342h-0.9l-1.9-3.8V566.3"/>
		</g>
		<g id="walg_130">
			<path fill="#C9C9C9" d="M322.3,608.7l-6.6-0.9V604h-1.9v-0.9h-0.9h-0.9H311v-1.9l0.9-0.9l-0.9-1.9l0.9-0.9l3.8,0.9v-0.9h0.9v-0.9
				h0.9v0.9h1.9h0.9h0.9h1.9l1.9,9.4l-0.9,1.9l-0.9,0.9h-0.9V608.7"/>
		</g>
		<g id="walg_131">
			<path fill="#C9C9C9" d="M292.1,608.7v-0.9h0.9v-0.9v-1.9h0.9V604v-1.9l2.8,0.9v-0.9h0.9l2.8-0.9l0.9,4.7v1.9h0.9v1.9l0.9,0.9
				l-0.9,1.9h-2.8h-0.9v0.9h-3.8v0.9l-2.8,0.9l-0.9-0.9v0.9h-1.9h-1.9l0.9-2.8v-2.8h0.9v-0.9l1.9,0.9v-0.9H292.1"/>
		</g>
		<g id="walg_132">
			<path fill="#C9C9C9" d="M377.9,431.6l-0.9-5.7v-4.7l1.9-2.8l0.9-0.9l-2.8-8.5v-2.8H376l1.9-4.7l-0.9-0.9l0.9-0.9l0.9-1.9l0.9-0.9
				l0.9-1.9l4.7-5.7l1.9-3.8h0.9l1.9-0.9l0.9-2.8h8.5V375H489v80.1h-39.6v-0.9h-1.9v-0.9H441v0.9h-5.7v2.8H425h-6.6v11.3h-53.7v-0.9
				h-8.5v-1.9v-2.8l1.9-0.9l0.9-3.8l1.9-1.9h0.9l1.9-2.8l0.9-0.9v-0.9l5.7-3.8v-0.9l2.8-4.7l0.9-2.8l0.9-0.9L377.9,431.6"/>
		</g>
		<g id="walg_133">
			<path fill="#C9C9C9" d="M303.4,546.5h1.9v-0.9h2.8v4.7v0.9v1.9l-0.9,0.9h-3.8v1.9h-0.9v0.9h-0.9l-0.9,0.9h-3.8l-0.9,0.9l-0.9-0.9
				v0.9H294h-1.9v-0.9h-0.9v-1.9h-1.9l-0.9-0.9l0.9-2.8h1.9v-2.8h-0.9v-2.8h4.7v0.9h0.9l2.8-0.9h0.9h0.9H303.4"/>
		</g>
		<g id="walg_134">
			<path fill="#C9C9C9" d="M303.4,620l0.9-0.9v0.9h0.9h2.8v-0.9h0.9l0.9-0.9h1.9v-0.9l0.9,0.9v-0.9h0.9h0.9h0.9h1.9h0.9v0.9h0.9
				l-0.9,0.9h-0.9v0.9h-0.9l-0.9,0.9h-0.9v0.9h-0.9v0.9h-0.9h-4.7h-0.9h-2.8h-2.8v-3.8l0.9,0.9l0.9-0.9V620"/>
		</g>
		<g id="walg_135">
			<path fill="#C9C9C9" d="M311,557.8h0.9h0.9l0.9,0.9l0.9-0.9h0.9h1.9v0.9h-0.9l0.9,0.9v0.9l-0.9,5.7h0.9v1.9h0.9h-4.7l-0.9,0.9
				H310v-0.9h-0.9v-1.9v-0.9h-0.9l0.9-0.9v-0.9h-0.9v-1.9v-0.9v-1.9h2.8V557.8"/>
		</g>
		<g id="walg_136">
			<path fill="#C9C9C9" d="M486.2,180V179V180"/>
			<path fill="#C9C9C9" d="M499.4,178.1v-0.9V178.1"/>
			<path fill="#C9C9C9" d="M505.1,173.4h-0.9H505.1"/>
			<path fill="#C9C9C9" d="M484.3,173.4v-0.9V173.4"/>
			<path fill="#C9C9C9" d="M540.9,144.2v-0.9V144.2"/>
			<path fill="#C9C9C9" d="M503.2,160.2v-0.9V160.2"/>
			<path fill="#C9C9C9" d="M556.9,147v-0.9V147"/>
			<path fill="#C9C9C9" d="M479.6,177.1h-0.9H479.6"/>
			<path fill="#C9C9C9" d="M488.1,180.9V180V180.9"/>
			<path fill="#C9C9C9" d="M501.3,165.8h-0.9H501.3"/>
			<path fill="#C9C9C9" d="M502.2,183.7v-0.9V183.7"/>
			<path fill="#C9C9C9" d="M524.9,138.5h-0.9H524.9"/>
			<path fill="#C9C9C9" d="M528.6,145.1v-0.9V145.1"/>
			<path fill="#C9C9C9" d="M484.3,193.2v-0.9V193.2"/>
			<path fill="#C9C9C9" d="M499.4,161.1h-0.9H499.4"/>
			<path fill="#C9C9C9" d="M504.1,173.4h0.9H504.1"/>
			<path fill="#C9C9C9" d="M480.6,178.1h-0.9H480.6"/>
			<path fill="#C9C9C9" d="M565.4,154.5h0.9H565.4"/>
			<path fill="#C9C9C9" d="M499.4,159.2v0.9V159.2"/>
			<path fill="#C9C9C9" d="M495.6,175.3h0.9H495.6"/>
			<path fill="#C9C9C9" d="M500.4,172.4v-0.9V172.4"/>
			<path fill="#C9C9C9" d="M501.3,157.4v-0.9V157.4"/>
			<path fill="#C9C9C9" d="M503.2,161.1h-0.9H503.2"/>
			<path fill="#C9C9C9" d="M502.2,159.2h-0.9H502.2"/>
			<path fill="#C9C9C9" d="M538,144.2h0.9H538"/>
			<path fill="#C9C9C9" d="M505.1,158.3v-0.9h0.9L505.1,158.3"/>
			<path fill="#C9C9C9" d="M481.5,180V179V180"/>
			<path fill="#C9C9C9" d="M488.1,189.4v-0.9V189.4"/>
			<path fill="#C9C9C9" d="M483.4,194.1v-0.9V194.1"/>
			<path fill="#C9C9C9" d="M499.4,162.1h0.9H499.4"/>
			<path fill="#C9C9C9" d="M512.6,155.5v-0.9V155.5"/>
			<path fill="#C9C9C9" d="M559.7,148.9v-0.9V148.9"/>
			<path fill="#C9C9C9" d="M504.1,170.6h-0.9H504.1"/>
			<path fill="#C9C9C9" d="M480.6,178.1h-0.9H480.6"/>
			<path fill="#C9C9C9" d="M487.2,177.1v-0.9V177.1"/>
			<path fill="#C9C9C9" d="M500.4,160.2h0.9H500.4"/>
			<path fill="#C9C9C9" d="M501.3,157.4v-0.9V157.4"/>
			<path fill="#C9C9C9" d="M504.1,156.4v-0.9V156.4"/>
			<path fill="#C9C9C9" d="M541.8,145.1h-0.9H541.8"/>
			<path fill="#C9C9C9" d="M504.1,151.7h0.9H504.1"/>
			<path fill="#C9C9C9" d="M500.4,164.9V164V164.9"/>
			<path fill="#C9C9C9" d="M497.5,175.3v-0.9V175.3"/>
			<path fill="#C9C9C9" d="M514.5,152.7v-0.9V152.7"/>
			<path fill="#C9C9C9" d="M495.6,167.7h-0.9H495.6"/>
			<path fill="#C9C9C9" d="M488.1,174.3v-0.9V174.3"/>
			<path fill="#C9C9C9" d="M489,168.7v-0.9V168.7"/>
			<path fill="#C9C9C9" d="M484.3,175.3v-0.9V175.3"/>
			<path fill="#C9C9C9" d="M501.3,161.1h-0.9l0.9-0.9V161.1"/>
			<path fill="#C9C9C9" d="M505.1,158.3v-0.9V158.3v-0.9V158.3"/>
			<path fill="#C9C9C9" d="M500.4,181.9h0.9H500.4"/>
			<path fill="#C9C9C9" d="M520.1,153.6h-0.9H520.1"/>
			<path fill="#C9C9C9" d="M515.4,147.9h-0.9H515.4"/>
			<path fill="#C9C9C9" d="M503.2,170.6h0.9H503.2"/>
			<path fill="#C9C9C9" d="M504.1,171.5v-0.9V171.5"/>
			<path fill="#C9C9C9" d="M514.5,147.9h0.9H514.5"/>
			<path fill="#C9C9C9" d="M517.3,152.7v-0.9V152.7"/>
			<path fill="#C9C9C9" d="M494.7,158.3v-0.9V158.3"/>
			<path fill="#C9C9C9" d="M483.4,179h0.9H483.4"/>
			<path fill="#C9C9C9" d="M479.6,177.1v-0.9V177.1"/>
			<path fill="#C9C9C9" d="M501.3,157.4v-0.9V157.4"/>
			<path fill="#C9C9C9" d="M494.7,158.3h0.9H494.7"/>
			<path fill="#C9C9C9" d="M593.6,166.8h-0.9H593.6"/>
			<path fill="#C9C9C9" d="M501.3,169.6h0.9H501.3"/>
			<path fill="#C9C9C9" d="M502.2,157.4h0.9H502.2"/>
			<path fill="#C9C9C9" d="M476.8,192.2v0.9V192.2"/>
			<path fill="#C9C9C9" d="M498.5,161.1l0.9-0.9v0.9H498.5"/>
			<path fill="#C9C9C9" d="M488.1,174.3v-0.9V174.3"/>
			<path fill="#C9C9C9" d="M496.6,163h-0.9H496.6"/>
			<path fill="#C9C9C9" d="M483.4,179h0.9H483.4"/>
			<path fill="#C9C9C9" d="M486.2,181.9h0.9H486.2"/>
			<path fill="#C9C9C9" d="M487.2,178.1v-0.9V178.1"/>
			<path fill="#C9C9C9" d="M588.9,164H588H588.9"/>
			<path fill="#C9C9C9" d="M480.6,179v-0.9V179"/>
			<path fill="#C9C9C9" d="M484.3,193.2v-0.9V193.2"/>
			<path fill="#C9C9C9" d="M480.6,191.3v0.9V191.3"/>
			<path fill="#C9C9C9" d="M496.6,158.3h0.9H496.6"/>
			<path fill="#C9C9C9" d="M502.2,160.2h0.9H502.2"/>
			<path fill="#C9C9C9" d="M511.7,148.9v-0.9V148.9"/>
			<path fill="#C9C9C9" d="M497.5,174.3v-0.9V174.3"/>
			<path fill="#C9C9C9" d="M496.6,157.4v-0.9V157.4"/>
			<path fill="#C9C9C9" d="M559.7,147.9h-0.9H559.7"/>
			<path fill="#C9C9C9" d="M484.3,180.9V180V180.9"/>
			<path fill="#C9C9C9" d="M502.2,162.1h-0.9v-0.9L502.2,162.1"/>
			<path fill="#C9C9C9" d="M572,169.6h0.9H572"/>
			<path fill="#C9C9C9" d="M506.9,159.2h0.9H506.9"/>
			<path fill="#C9C9C9" d="M484.3,177.1v-0.9V177.1"/>
			<path fill="#C9C9C9" d="M483.4,193.2h0.9H483.4"/>
			<path fill="#C9C9C9" d="M492.8,170.6v-0.9V170.6"/>
			<path fill="#C9C9C9" d="M486.2,176.2h0.9H486.2"/>
			<path fill="#C9C9C9" d="M516.4,150.8h0.9H516.4"/>
			<path fill="#C9C9C9" d="M491.9,170.6v-0.9V170.6"/>
			<path fill="#C9C9C9" d="M505.1,158.3v-0.9V158.3"/>
			<path fill="#C9C9C9" d="M489,168.7v-0.9V168.7"/>
			<path fill="#C9C9C9" d="M541.8,145.1v-0.9V145.1"/>
			<path fill="#C9C9C9" d="M535.2,150.8v-0.9V150.8"/>
			<path fill="#C9C9C9" d="M542.8,145.1h-0.9H542.8"/>
			<path fill="#C9C9C9" d="M515.4,149.8v-0.9V149.8"/>
			<path fill="#C9C9C9" d="M505.1,159.2h-0.9H505.1"/>
			<path fill="#C9C9C9" d="M563.5,151.7h-0.9H563.5"/>
			<path fill="#C9C9C9" d="M506,172.4v0.9V172.4"/>
			<path fill="#C9C9C9" d="M484.3,180.9V180V180.9"/>
			<path fill="#C9C9C9" d="M492.8,169.6v-0.9V169.6"/>
			<path fill="#C9C9C9" d="M481.5,178.1h0.9H481.5"/>
			<path fill="#C9C9C9" d="M494.7,167.7v-0.9V167.7"/>
			<path fill="#C9C9C9" d="M499.4,164h0.9H499.4"/>
			<path fill="#C9C9C9" d="M514.5,154.5l-0.9-0.9h0.9V154.5"/>
			<path fill="#C9C9C9" d="M484.3,174.3v0.9V174.3"/>
			<path fill="#C9C9C9" d="M480.6,179v-0.9V179"/>
			<path fill="#C9C9C9" d="M493.8,167.7v0.9V167.7"/>
			<path fill="#C9C9C9" d="M496.6,180h0.9H496.6"/>
			<path fill="#C9C9C9" d="M501.3,167.7v0.9V167.7"/>
			<path fill="#C9C9C9" d="M493.8,176.2h0.9H493.8"/>
			<path fill="#C9C9C9" d="M479.6,179v-0.9V179"/>
			<path fill="#C9C9C9" d="M509.8,147.9h0.9H509.8"/>
			<path fill="#C9C9C9" d="M500.4,162.1v-0.9V162.1"/>
			<path fill="#C9C9C9" d="M496.6,177.1h0.9v0.9L496.6,177.1"/>
			<path fill="#C9C9C9" d="M488.1,174.3v-0.9V174.3"/>
			<path fill="#C9C9C9" d="M527.7,149.8l0.9-0.9v0.9H527.7"/>
			<path fill="#C9C9C9" d="M477.7,177.1v0.9V177.1"/>
			<path fill="#C9C9C9" d="M505.1,172.4v-0.9V172.4"/>
			<path fill="#C9C9C9" d="M476.8,178.1h0.9H476.8"/>
			<path fill="#C9C9C9" d="M508.8,157.4v0.9V157.4"/>
			<path fill="#C9C9C9" d="M506.9,159.2h0.9H506.9"/>
			<path fill="#C9C9C9" d="M496.6,175.3v-0.9h0.9L496.6,175.3"/>
			<path fill="#C9C9C9" d="M492.8,178.1h0.9H492.8"/>
			<path fill="#C9C9C9" d="M476.8,193.2v-0.9V193.2"/>
			<path fill="#C9C9C9" d="M535.2,144.2h0.9H535.2"/>
			<path fill="#C9C9C9" d="M510.7,154.5v-0.9V154.5"/>
			<path fill="#C9C9C9" d="M562.5,151.7v-0.9V151.7"/>
			<path fill="#C9C9C9" d="M477.7,193.2v-0.9V193.2"/>
			<path fill="#C9C9C9" d="M497.5,177.1h0.9H497.5"/>
			<path fill="#C9C9C9" d="M515.4,149.8v-0.9h0.9L515.4,149.8"/>
			<path fill="#C9C9C9" d="M513.5,149.8h-0.9l0.9-0.9V149.8"/>
			<path fill="#C9C9C9" d="M489,168.7h-0.9H489"/>
			<path fill="#C9C9C9" d="M513.5,154.5h-0.9H513.5"/>
			<path fill="#C9C9C9" d="M527.7,144.2v-0.9l0.9,0.9H527.7"/>
			<path fill="#C9C9C9" d="M509.8,156.4h-0.9v-0.9h0.9V156.4"/>
			<path fill="#C9C9C9" d="M505.1,171.5h0.9H505.1"/>
			<path fill="#C9C9C9" d="M506.9,158.3h0.9H506.9"/>
			<path fill="#C9C9C9" d="M501.3,166.8v-0.9V166.8"/>
			<path fill="#C9C9C9" d="M506,169.6v0.9h-0.9L506,169.6"/>
			<path fill="#C9C9C9" d="M481.5,176.2v-0.9h0.9v0.9H481.5"/>
			<path fill="#C9C9C9" d="M549.4,143.2v-0.9V143.2"/>
			<path fill="#C9C9C9" d="M521.1,153.6h-0.9H521.1"/>
			<path fill="#C9C9C9" d="M483.4,195.1v-0.9h0.9L483.4,195.1"/>
			<path fill="#C9C9C9" d="M488.1,189.4v-0.9V189.4"/>
			<path fill="#C9C9C9" d="M492.8,170.6l0.9-0.9v0.9H492.8"/>
			<path fill="#C9C9C9" d="M484.3,175.3v-0.9l0.9,0.9H484.3"/>
			<path fill="#C9C9C9" d="M497.5,164v0.9V164"/>
			<path fill="#C9C9C9" d="M508.8,173.4h-0.9H508.8"/>
			<path fill="#C9C9C9" d="M513.5,148.9v-0.9V148.9"/>
			<path fill="#C9C9C9" d="M490.9,170.6l0.9-0.9v0.9H490.9"/>
			<path fill="#C9C9C9" d="M487.2,180.9V180V180.9"/>
			<path fill="#C9C9C9" d="M538,144.2h-0.9H538"/>
			<path fill="#C9C9C9" d="M490.9,167.7l-0.9,0.9v-0.9H490.9"/>
			<path fill="#C9C9C9" d="M491.9,175.3v-0.9V175.3"/>
			<path fill="#C9C9C9" d="M565.4,154.5v-0.9V154.5"/>
			<path fill="#C9C9C9" d="M503.2,157.4v-0.9V157.4"/>
			<path fill="#C9C9C9" d="M501.3,168.7h0.9H501.3"/>
			<path fill="#C9C9C9" d="M535.2,150.8v-0.9V150.8"/>
			<path fill="#C9C9C9" d="M528.6,142.3v0.9V142.3"/>
			<path fill="#C9C9C9" d="M572,174.3v-0.9l0.9,0.9H572"/>
			<path fill="#C9C9C9" d="M487.2,177.1v-0.9h0.9L487.2,177.1"/>
			<path fill="#C9C9C9" d="M502.2,169.6l0.9-0.9v0.9H502.2"/>
			<path fill="#C9C9C9" d="M504.1,152.7v-0.9V152.7"/>
			<path fill="#C9C9C9" d="M511.7,144.2h0.9H511.7"/>
			<path fill="#C9C9C9" d="M493.8,177.1h-0.9l0.9-0.9V177.1"/>
			<path fill="#C9C9C9" d="M496.6,156.4v-0.9V156.4"/>
			<path fill="#C9C9C9" d="M496.6,154.5v0.9h-0.9L496.6,154.5"/>
			<path fill="#C9C9C9" d="M502.2,171.5h0.9l-0.9,0.9V171.5"/>
			<path fill="#C9C9C9" d="M503.2,159.2v0.9V159.2v0.9V159.2"/>
			<path fill="#C9C9C9" d="M495.6,171.5v-0.9V171.5"/>
			<path fill="#C9C9C9" d="M521.1,154.5h-0.9H521.1"/>
			<path fill="#C9C9C9" d="M495.6,179v-0.9h0.9L495.6,179"/>
			<path fill="#C9C9C9" d="M528.6,144.2v0.9V144.2"/>
			<path fill="#C9C9C9" d="M496.6,157.4v0.9V157.4"/>
			<path fill="#C9C9C9" d="M524.9,144.2l0.9-0.9v0.9H524.9"/>
			<path fill="#C9C9C9" d="M576.7,164l0.9-0.9v0.9H576.7"/>
			<path fill="#C9C9C9" d="M521.1,150.8h0.9l-0.9,0.9V150.8"/>
			<path fill="#C9C9C9" d="M479.6,178.1l0.9-0.9v0.9H479.6"/>
			<path fill="#C9C9C9" d="M481.5,179h-0.9H481.5"/>
			<path fill="#C9C9C9" d="M580.4,166.8l0.9,0.9L580.4,166.8"/>
			<path fill="#C9C9C9" d="M540.9,144.2l0.9,0.9v-0.9l0.9,0.9l-0.9-0.9H540.9"/>
			<path fill="#C9C9C9" d="M507.9,158.3v-0.9h0.9L507.9,158.3"/>
			<path fill="#C9C9C9" d="M483.4,193.2v-0.9v-0.9v0.9v1.9V193.2"/>
			<path fill="#C9C9C9" d="M530.5,145.1v0.9V145.1"/>
			<path fill="#C9C9C9" d="M495.6,171.5l0.9-0.9v0.9l-0.9,0.9V171.5"/>
			<path fill="#C9C9C9" d="M488.1,194.1h-1.9l0.9-0.9v0.9v-0.9h0.9V194.1"/>
			<path fill="#C9C9C9" d="M566.3,157.4l-0.9-0.9l0.9-0.9v0.9V157.4"/>
			<path fill="#C9C9C9" d="M519.2,154.5l0.9-0.9v0.9H519.2"/>
			<path fill="#C9C9C9" d="M477.7,192.2v0.9l-0.9-0.9H477.7"/>
			<path fill="#C9C9C9" d="M502.2,161.1v-0.9l0.9,0.9H502.2h-0.9H502.2"/>
			<path fill="#C9C9C9" d="M478.7,177.1h-0.9l1.9-0.9v0.9H478.7"/>
			<path fill="#C9C9C9" d="M497.5,178.1v0.9h-0.9v-0.9l0.9-0.9V178.1"/>
			<path fill="#C9C9C9" d="M509.8,157.4l-0.9-0.9l0.9-0.9v0.9V157.4h0.9H509.8"/>
			<path fill="#C9C9C9" d="M514.5,156.4v-0.9h0.9h-0.9l0.9,0.9l-0.9,0.9V156.4"/>
			<path fill="#C9C9C9" d="M486.2,192.2h0.9l-0.9,0.9h-0.9L486.2,192.2"/>
			<path fill="#C9C9C9" d="M521.1,152.7h0.9v0.9h-0.9V152.7"/>
			<path fill="#C9C9C9" d="M535.2,143.2h-0.9h-0.9v-0.9L535.2,143.2h0.9H535.2"/>
			<path fill="#C9C9C9" d="M491.9,176.2v-0.9l1.9,0.9h-0.9l-0.9,0.9V176.2"/>
			<path fill="#C9C9C9" d="M493.8,169.6v-0.9h0.9v-0.9l0.9,0.9l-0.9,0.9h0.9v0.9h-0.9v-0.9H493.8"/>
			<path fill="#C9C9C9" d="M502.2,171.5v0.9h-0.9h-0.9l0.9-0.9h-0.9v-0.9l0.9,0.9H502.2"/>
			<path fill="#C9C9C9" d="M482.4,176.2h0.9v0.9h-0.9l-0.9,0.9l-0.9-0.9h0.9L482.4,176.2"/>
			<path fill="#C9C9C9" d="M572.9,171.5v-0.9h0.9v1.9l0.9,0.9v0.9l-1.9-0.9v-0.9V171.5"/>
			<path fill="#C9C9C9" d="M499.4,159.2v-0.9V159.2v-0.9l0.9,0.9v-0.9l-0.9-0.9h0.9v-0.9h0.9v0.9h0.9h-0.9h0.9l-0.9,0.9v0.9h0.9
				l-0.9,0.9h0.9h-0.9v0.9v-0.9l-0.9,0.9h-0.9v-0.9V159.2"/>
			<path fill="#C9C9C9" d="M485.3,179h-0.9H485.3h-0.9v0.9h-0.9l0.9-0.9v-0.9l-0.9,0.9v-0.9h0.9v-0.9l0.9,0.9l-0.9-0.9h0.9h-0.9
				l0.9-0.9h0.9v-0.9v0.9v0.9h0.9l-0.9,0.9h0.9v0.9h0.9l-0.9,0.9l-1.9,0.9V180l1.9-0.9h-0.9H485.3v-0.9V179"/>
			<path fill="#C9C9C9" d="M506,159.2h0.9l-0.9-0.9h0.9v0.9v0.9v0.9l0.9-0.9h-0.9h0.9v-0.9h0.9h-0.9v-0.9h0.9v0.9v-0.9l0.9-0.9v0.9
				h0.9h-0.9v0.9h1.9l-0.9-0.9h0.9l-0.9-0.9l0.9-2.8h-0.9l0.9-0.9l-0.9-0.9l0.9-0.9h-0.9h0.9v-0.9v0.9v-0.9l0.9,0.9v0.9h0.9l0.9-0.9
				v0.9l-0.9,0.9h0.9h-0.9h-0.9l0.9,0.9h-0.9l0.9,2.8l-0.9,2.8v0.9v-0.9l0.9-2.8h1.9l0.9-0.9v0.9l0.9-0.9v0.9h-0.9l0.9,0.9v0.9v0.9
				h0.9l0.9,0.9v-0.9l-0.9-0.9l0.9-0.9h0.9l0.9,0.9v-0.9h0.9v-0.9v-0.9l-0.9-0.9l-0.9-0.9l0.9,0.9l0.9-0.9h0.9v-0.9l-0.9-1.9
				l0.9-0.9v0.9l0.9-0.9l0.9-0.9v-0.9l-0.9-1.9l-0.9,0.9V147l-0.9,0.9l-0.9-0.9l-0.9-0.9l0.9-0.9v0.9v0.9l0.9-0.9v-0.9h0.9v0.9h0.9
				l-0.9-0.9h0.9H523l-1.9-1.9h0.9l0.9,0.9v-0.9h0.9l-0.9,0.9l0.9-0.9v0.9v-0.9h0.9v0.9h-0.9l0.9,0.9h-0.9v0.9l1.9-0.9l0.9-0.9v0.9
				h-0.9l-0.9,0.9h0.9v-0.9l0.9,0.9l-1.9,0.9h0.9h-0.9v0.9h0.9l0.9-0.9l-0.9,0.9h0.9l-0.9,0.9v0.9h0.9v0.9l0.9,0.9v-0.9h0.9l0.9-0.9
				l-0.9-0.9v-0.9h0.9V147h0.9v-0.9h0.9v-0.9l0.9,0.9l0.9-0.9v-0.9h0.9h0.9l-1.9,1.9v0.9h-0.9v0.9l0.9-0.9h0.9l-0.9,0.9v0.9h1.9v1.9
				h0.9v-0.9h0.9v-1.9V147l0.9,0.9v0.9l0.9-0.9H538l0.9-0.9h0.9l-0.9-0.9H538v-0.9h0.9h0.9h0.9h-0.9h0.9h-0.9h0.9h0.9h0.9l-0.9-1.9
				l-0.9,0.9v-1.9h-0.9l-0.9-1.9h0.9l0.9-0.9v0.9l0.9,0.9v-0.9h0.9l-0.9-0.9h0.9l0.9,0.9v-0.9h0.9v0.9h0.9v-0.9v0.9h0.9l-0.9,0.9
				h0.9v-0.9v0.9h0.9l-0.9,1.9l0.9-0.9l0.9,0.9h-0.9l0.9,0.9v0.9l0.9-0.9v-0.9h0.9v0.9v0.9v-0.9h0.9v-0.9h0.9v0.9h0.9h0.9l-0.9-0.9
				h0.9l0.9,0.9h0.9l0.9,0.9l-0.9,0.9v0.9h0.9v0.9l0.9-0.9v0.9h0.9h-0.9h0.9v0.9h0.9h0.9l0.9,0.9h-0.9h0.9v0.9h0.9l-0.9,0.9h0.9
				l1.9,1.9l-0.9,0.9l0.9-0.9v0.9h0.9v0.9v0.9l0.9,0.9l0.9-0.9v0.9h0.9v0.9v0.9h0.9l1.9,0.9v0.9h0.9h0.9v0.9l0.9,0.9h0.9v0.9V163
				l-0.9,0.9v0.9l0.9,0.9l-1.9,0.9l-0.9,1.9v2.8v0.9v0.9v1.9v0.9l-0.9,0.9l0.9,1.9l-0.9,2.8h-0.9h-0.9l0.9,0.9l0.9-0.9l1.9-1.9v-2.8
				l-0.9-0.9l0.9-1.9l2.8,2.8l0.9,0.9v2.8l0.9,0.9l-0.9-0.9v-3.8l-0.9-0.9l-0.9-1.9v-0.9v-0.9v-2.8h0.9l0.9-0.9l0.9,1.9l-0.9-1.9
				l0.9-0.9l0.9,3.8v-1.9l0.9,0.9l-0.9-1.9v-1.9l1.9,2.8l-0.9-2.8l2.8,2.8v0.9v-1.9l-0.9-0.9v-0.9l-0.9-0.9h-1.9l0.9-0.9h0.9h0.9
				h0.9V164h0.9l0.9,0.9h0.9h-0.9h1.9l1.9,0.9h0.9H588l0.9,0.9l2.8-0.9l1.9,0.9v50.9H587v-0.9h-5.7v1.9h-5.7v-1.9h-0.9v2.8h-8.5v2.8
				h-0.9v1.9h-2.8v0.9h2.8v0.9h-3.8v-1.9h-0.9v-3.8h1.9V213h-3.8v1.9H555v2.8h-0.9v2.8h-3.8v0.9h-5.7v-6.6h-8.5v-3.8h-8.5l0.9-1.9
				H522v2.8h-1.9v-1.9v-4.7h0.9v-11.3h-18.8v-0.9h-3.8l0.9-0.9v-0.9h-4.7v2.8h-6.6v-0.9h-0.9v-0.9h0.9l-0.9-0.9l0.9-0.9h0.9v0.9
				v-0.9h0.9v-0.9h0.9l-1.9-0.9h0.9v-0.9l-0.9,0.9l0.9-0.9l-1.9,0.9v0.9v-0.9l-3.8,5.7v-0.9l0.9-0.9h-0.9v-0.9v-0.9h-0.9v-0.9h0.9
				h-0.9v-0.9v0.9v0.9v0.9l-0.9-0.9v0.9v-0.9v-0.9l-0.9-1.9h0.9l0.9-0.9h-0.9v0.9v-0.9l-0.9-0.9l0.9,0.9v-0.9h0.9v-0.9l0.9,0.9v-0.9
				h-0.9v-0.9v0.9l-0.9-0.9v0.9v-0.9v-0.9h0.9v-0.9h0.9l0.9,0.9l-0.9-0.9h-0.9l0.9-0.9v0.9l0.9-0.9l0.9,0.9v0.9l0.9-0.9l0.9,0.9
				v-0.9h-0.9v-0.9l0.9-0.9v0.9l0.9,0.9v-0.9v0.9v-0.9V180V179l1.9-0.9H490H489h-0.9h0.9l0.9-0.9H489v-0.9h0.9l0.9,0.9l-0.9,0.9h0.9
				l0.9-0.9l0.9,0.9v-0.9v0.9h0.9l0.9,0.9h0.9h-0.9h0.9v0.9h0.9v0.9h-0.9v0.9l0.9-0.9l-0.9,0.9h0.9v-0.9v0.9v-0.9h0.9v0.9h-0.9
				l0.9,0.9h-0.9h0.9v-0.9v0.9v-0.9h0.9l-0.9-0.9h0.9l3.8,2.8l4.7,2.8l-2.8-1.9l-0.9-0.9h0.9h-0.9l-0.9-0.9l-1.9-0.9l-1.9-1.9
				l0.9-1.9h0.9v-0.9h-0.9l-0.9,0.9l0.9-0.9v-0.9v0.9v-0.9h-0.9h0.9l-0.9,0.9h0.9h-0.9h-0.9v-0.9v0.9l-0.9,0.9h-1.9v-0.9l-0.9,0.9
				v-0.9v-0.9h0.9v-0.9h0.9h0.9l0.9-0.9h0.9v-0.9h-0.9v0.9v-0.9l-0.9,0.9v-0.9v0.9l-0.9-0.9v0.9v0.9v-0.9v0.9h-0.9l-0.9,0.9v-0.9
				v-0.9h0.9h-1.9h0.9h-0.9v-0.9l1.9-0.9h0.9l0.9,0.9v-0.9h0.9v-0.9v-0.9v-0.9h-0.9h0.9h0.9h0.9l-0.9,0.9v0.9h0.9v-0.9v1.9l0.9,0.9
				l0.9-0.9h0.9h0.9v0.9h1.9h0.9h0.9h1.9l-0.9-0.9l-1.9,0.9l-0.9-0.9l1.9-0.9H506v-0.9h0.9l1.9-0.9h-0.9l-0.9,0.9v-0.9v0.9H506v-0.9
				h-0.9h-0.9h-0.9l0.9-0.9h-0.9v0.9v-0.9h-0.9v-0.9h0.9l0.9,0.9v-0.9v-0.9h0.9h-0.9v-0.9l-0.9,0.9v-0.9v0.9v-0.9v0.9h-0.9l0.9-0.9
				h-0.9v0.9v-0.9h-0.9v-0.9V164l-0.9,0.9l0.9-0.9h-0.9V163l0.9,0.9V163v-0.9l0.9,0.9v-0.9v-0.9l0.9,0.9v-0.9h0.9v-0.9l-0.9,0.9
				v-0.9v-0.9h0.9h0.9v-0.9l0.9-0.9l-0.9,1.9H506"/>
		</g>
		<g id="walg_137">
			<path fill="#C9C9C9" d="M291.2,511.7l-3.8,0.9v-1.9h-0.9v-1.9h-2.8v-0.9h-0.9l-0.9-0.9V506h-1.9v-0.9h3.8v-1.9h-1.9v-2.8h2.8
				v-2.8h-0.9v-3.8h-1.9v-1.9h-2.8v-0.9h2.8V490h1.9V489h-4.7v-2.8h1.9v0.9h0.9v-6.6h4.7v-0.9h0.9v-2.8h1.9v-0.9h2.8v0.9v0.9h3.8
				v-6.6h-0.9v-2.8h2.8v2.8h0.9v-1.9h4.7v-3.8h4.7v2.8h-1.9v7.5h4.7v1.9h-1.9v1.9h1.9v1.9h-3.8h0.9v7.5h0.9v2.8h1.9v1.9h1.9v1.9h0.9
				v1.9h1.9v4.7l4.7,0.9v1.9h0.9v-0.9h4.7v-1.9h0.9h1.9v1.9h-0.9v3.8h0.9v0.9h4.7v3.8h-2.8v0.9h-1.9v-0.9h-3.8h-3.8v4.7h1.9h0.9v0.9
				h0.9v6.6h-5.7v0.9v0.9l-1.9-0.9l-0.9-0.9v0.9h-0.9v0.9v0.9v0.9l-0.9,0.9h-10.4v-8.5h-0.9v-4.7h2.8v-1.9h-2.8v-0.9v-1.9h-2.8v-2.8
				h-1.9v-1.9h-5.7v0.9h-1.9V511.7"/>
		</g>
		<g id="walg_138">
			<path fill="#C9C9C9" d="M344.9,564.4h0.9v-1.9h0.9v-0.9v-0.9h0.9v-2.8h0.9v-0.9h0.9V555h-0.9l-0.9-0.9h-1.9v-0.9h-0.9h0.9v-0.9
				h-0.9v-2.8l-5.7-9.4v-15.1L376,538L375,588h-19.8l-1.9-2.8h1.9v-1.9h-0.9v-0.9h-3.8l-5.7-6.6h0.9v-1.9h-0.9V572v-4.7v-0.9v-0.9
				V564.4"/>
		</g>
		<g id="walg_139">
			<path fill="#C9C9C9" d="M302.5,577.6h0.9l0.9,0.9h0.9l0.9,0.9l-0.9,0.9l-0.9,0.9v0.9h-0.9l-2.8,0.9l-4.7,1.9v-0.9h-0.9l0.9,0.9
				h-0.9v0.9H294h-0.9h-2.8h-1.9v-0.9h-1.9v0.9h-1.9v-1.9h0.9v-0.9h2.8v-2.8l1.9,0.9l0.9-0.9l-0.9-0.9v-0.9h1.9l3.8-1.9h0.9h0.9h0.9
				v0.9l0.9-0.9l0.9-0.9h-0.9h0.9L302.5,577.6"/>
		</g>
	</g>
</g>
<g id="qgisviewbox" inkscape:label="qgisviewbox" inkscape:groupmode="layer">
</g>
</svg>
