<?xml version="1.0" encoding="utf-8"?>
<!-- Generator: Adobe Illustrator 17.1.0, SVG Export Plug-In . SVG Version: 6.00 Build 0)  -->
<!DOCTYPE svg PUBLIC "-//W3C//DTD SVG 1.1//EN" "http://www.w3.org/Graphics/SVG/1.1/DTD/svg11.dtd">
<?xml-stylesheet href="../css/svg.css" type="text/css"?>
<svg version="1.1" id="Layer_1" xmlns:inkscape="http://www.inkscape.org/namespaces/inkscape"
	 xmlns="http://www.w3.org/2000/svg" xmlns:xlink="http://www.w3.org/1999/xlink" x="0px" y="0px" viewBox="90 0 629 800"
	 enable-background="new 90 0 629 800" xml:space="preserve">
<g id="walg" inkscape:label="walg" inkscape:groupmode="layer">
	<g id="walg_1">
		<path  d="M279,785.6v-1.3V785.6"/>
		<path  d="M283.1,782.8v-1.3V782.8"/>
		<path  d="M316.5,770.3h1.3H316.5"/>
		<path  d="M280.5,782.8h1.3H280.5"/>
		<path  d="M283.1,781.5v1.3V781.5"/>
		<path  d="M317.9,770.3v-1.3V770.3"/>
		<path  d="M294.3,781.5h1.3H294.3"/>
		<path  d="M309.5,777.2h1.3v1.3L309.5,777.2"/>
		<path  d="M292.9,780h-1.3H292.9v-1.3h-1.3v1.3l-1.3,1.3h-1.3l1.3,1.3h1.3h-1.3l1.3-1.3v2.8l2.8-1.3v1.3h-1.5h-1.3
			h-1.3l-4.1-1.3l-4.1-1.3l-1.3,1.3h1.3l-1.3,1.3v1.3l-1.3-1.3l-1.3-1.3h-1.3h-1.3l-2.8-1.3h-3.2l2.8-1.3l1.3,1.3h1.3l-1.3-1.3h1.3
			v-1.3v-4.1h13.9v-1.3h1.3V772h1.3h1.3v-2.8l1.3-1.3h1.3l1.3,1.3h4.1v-4.1l4.1-1.3v-1.3l1.3-1.3l1.3-1.3v-1.3h-1.3l1.3-1.3
			l-1.3-1.3h1.3l5.6,1.3l1.3,1.3l1.3-1.3h1.3l1.3,2.8h1.3l5.6,1.3v1.3l-2.8,1.3h-2.8v2.8h1.3l-2.8,1.3l-1.3,1.3h-0.4l-4.1,1.3
			l-2.8,1.3l-1.3,2.8v1.3l1.3,1.3h-1.3l-2.8-1.3l-1.3,1.3h-2.8v1.3h-1.3l1.3,1.3l-1.3,1.3v-1.3h-2.8l-2.8,1.3L292.9,780"/>
	</g>
	<g id="walg_2">
		<path  d="M224.8,679.9h-1.3l-1.5-1.5h-1.5v1.3v-1.3h-2.8v-1.3l1.3-1.3l1.3,1.3l1.3-1.3h2.8h1.3h2.8h2.8v2.8h1.3
			l1.3,2.8H230l-1.3,1.3h-2.8v-2.8H224.8"/>
	</g>
	<g id="walg_3">
		<path  d="M164.9,321.1h1.3H164.9"/>
		<path  d="M176.1,298.8v-1.3V298.8"/>
		<path  d="M170.5,309.9h-1.3v-1.3h1.3V309.9"/>
		<path  d="M166.4,319.7h1.3H166.4"/>
		<path  d="M201,293.2h1.3H201"/>
		<path  d="M201,293.2v-1.3V293.2"/>
		<path  d="M167.7,298.8l1.3,1.3L167.7,298.8"/>
		<path  d="M203.9,293.2h1.3H203.9"/>
		<path  d="M166.4,311.4H165H166.4"/>
		<path  d="M191.3,297.5H190H191.3"/>
		<path  d="M172,300.2v-1.3V300.2"/>
		<path  d="M191.3,289.1h1.3H191.3"/>
		<path  d="M177.4,304.5v-1.3V304.5"/>
		<path  d="M183,298.8h1.3H183"/>
		<path  d="M164.9,312.7v-1.3V312.7"/>
		<path  d="M177.4,297.5v-1.3V297.5"/>
		<path  d="M167.7,316.8h1.3H167.7"/>
		<path  d="M169.2,315.5h1.3H169.2"/>
		<path  d="M198.4,296v-1.3V296"/>
		<path  d="M199.7,294.7h-1.3l1.3-1.3V294.7"/>
		<path  d="M198.4,276.6h-1.5H198.4"/>
		<path  d="M170.5,314.2v-1.3V314.2"/>
		<path  d="M174.6,300.2v-1.3V300.2"/>
		<path  d="M196.9,275.2h1.3v-1.3v1.3H196.9"/>
		<path  d="M194.1,298.8h1.3H194.1"/>
		<path  d="M203.9,296v1.3l-1.3-1.3H203.9"/>
		<path  d="M185.8,294.7h-1.3h2.8H185.8"/>
		<path  d="M202.5,296l-1.3,1.3V296H202.5"/>
		<path  d="M169.2,314.2v1.3l-1.3-1.3H169.2"/>
		<path  d="M199.7,273.8l-1.3-1.3l-1.3,1.3h1.3h-1.5v-1.3l1.3-2.8l4.1-4.1v1.3v2.8l-1.3,2.8L199.7,273.8"/>
		<path  d="M174.6,307.3h1.3l1.3-1.3l5.6-2.8l1.3-1.3h1.3h-1.3v1.3l1.3-1.3l1.3,1.3h1.3l1.3-2.8l1.3,1.3v-1.3h1.3
			h-1.3h1.3h1.3h-1.3l1.3-1.3v1.3V299h1.3h-1.3h1.3h2.8l1.3-1.3h1.3H199l1.3-1.3v1.3h1.3h-1.3l1.3-1.3v1.3v-1.3v1.3h1.3v-1.3h1.3
			H203v-1.6h1.3H203h1.3H203h1.3H203l1.3-1.3h1.3v1.3v-1.5h-1.3h12.5l2.8,1.3v4.1h1.3v-1.3h4.1v-5.6h1.3V289h11.1v1.3H250v-5.6h6.9
			v-1.3h4.1v1.3h-1.3v1.3h2.8v-1.3h4.1v1.3h-2.8v2.8h12.5v-5.6h5.6v8.4h8.4v2.8h1.3v9.7h4.1v-2.8h-1.3v-12.5h2.8v1.3h-1.3v2.8v1.3
			h2.8v-2.8h1.3v4.1h1.3v1.3h-1.3v2.8h1.3v2.8h4.1v-1.3h5.6v1.3h1.3v2.8h-1.3v1.3h2.8v5.6h4.1v2.8h18v4.1h-1.3v1.3h6.9h1.3v2.8v2.8
			h-9.7v1.3h-9.7v-1.3h-4.1v2.8h4.1v1.3h5.6v2.8h4.1v5.6h-9.7l-14.2,26.9v-4.1h-9.7v-1.3H297v2.8h-4.1v1.3l-9.7-1.3v2.8h-2.8v1.3
			h1.3v1.3h2.8v4.1l-1.3,1.3v2.8h-2.8v1.3h-20.8h-6.9v-8.4h-9.7v-1.3H240v2.8h-6.9v1.3h-4.1h-2.8V371h-1.3v-1.3h-4.3v11.1h-2.8h-4.1
			v-1.3h-1.3v-2.8h-1.3v-2.8h-2.8v-4.1h-2.8V367h-2.8v-2.8h-9.7v1.3h-16.7v-1.3h-2.8v-5.6h1.3v-4.1H169v-2.8h-1.3v-1.3h4.1V349h1.3
			v-1.3h2.8v-1.3h-1.3v-4.4l2.8-2.8v-1.3h-4.1v-5.6h-2.8v-8.4h-5.6h2.8l-1.3-1.3h1.3h-1.3v-1.3h1.3l-1.3-1.3h1.3h1.3l-1.3-1.3h1.3
			v-1.6v-1.3h1.3v-1.3v1.3v-1.3h1.3v-1.3v1.3v-1.3h1.3l-1.3-1.3h1.3h-1.3h1.3l1.3-1.3l-1.3,1.3v-1.3v-1.3L174.6,307.3v1.3V307.3"/>
	</g>
	<g id="walg_4">
		<path  d="M192.8,759.2h1.3H192.8"/>
		<path  d="M191.3,755h1.3H191.3"/>
		<path  d="M188.7,756.4l-1.3-2.8v-1.3v-1.5L186,748v-1.3v-1.3v-2.8v-2.8v-1.3h11.1h2.8V737l9.7,1.3l-4.1,2.8h-4.1
			v2.8H200l1.3,2.8H200l1.3,2.8l-3,1.2v5.6l-2.8-1.3l-2.8,1.3l-1.3-1.3h1.3v-1.3h-1.3v1.3v1.3h1.3l-1.3,1.3L188.7,756.4"/>
	</g>
	<g id="walg_5">
		<path  d="M220.5,668.7l-1.3,1.3v-1.3H220.5"/>
	</g>
	<g id="walg_6">
		<path  d="M217.7,668.7l1.3-1.3v1.3v1.3v1.3l-1.3-1.3V668.7"/>
	</g>
	<g id="walg_7">
		<path  d="M219.2,671.5h-1.3l1.3-1.3h2.8l-1.3,1.3H219.2"/>
	</g>
	<g id="walg_8">
		<path  d="M265.1,681.3l-6.9,1.3v-1.3h-6.9v1.3l-1.3,1.3l-1.3,1.3H236v-4.1h-1.3l-1.3-2.8H232V677h2.8v-1.3h2.8v1.3
			h2.8h4.1h1.3h1.3v-1.3h1.3l-1.3-1.3h1.3v1.3l6.9-2.8l4.1-1.3h1.3h1.3l4.1,2.8v1.3l-1.3,1.3h1.3v2.8v1.3h-1.3"/>
	</g>
	<g id="walg_9">
		<path  d="M230.3,700.7v-1.3h-1.3v-2.8h2.8V691h2.8l2.8,2.8l5.6,6.9h2.8v4.1h-1.3v2.8v1.3h-1.3v1.3h-1.3v1.3
			l-1.3-1.3h-1.3v1.3h-1.3v-4.1l-5.6,1.3h-2.8v-1.3v-1.3v-4.1v-1.3L230.3,700.7"/>
	</g>
	<g id="walg_10">
		<path  d="M240,748.1v-1.3h-4.1h-1.3l1.3-2.8l-1.3-1.3v-1.3h-1.3h-1.3V740h-2.8v-1.3v-2.8h1.3v-1.3v-1.3h-1.3v-6.1
			l4.1,1.3l2.8,1.3h1.3l1.3,1.3v1.3h5.6l1.3,1.3l2.8-1.3l1.3,1.3v1.3v5.6l-1.3,1.3v1.3l1.3,2.8v1.3h1.3l-1.3,1.3h2.8v4.1h-6.9v-0.7
			H240l1.3-1.3H240v-1.3h-1.3v-1.3h1.3"/>
	</g>
	<g id="walg_11">
		<path  d="M227.5,749.4H222v-1.3h-1.5V744v-1.3h1.3l-1.3-1.3h1.3v-4.1h2.8h1.3h2.8v1.3v1.3h2.8v1.3h1.3l1.3,1.3
			l1.3,2.8h-1.3v1.3h1.3h4.1v1.3h-1.3v1.3v1.3h-1.3v1.3h-4.1v-1.2h-2.8l1.3-1.3h-1.3H227.5"/>
	</g>
	<g id="walg_12">
		<path  d="M265.1,681.3h1.3l5.6-1.3l1.3,6.9h1.3H265l-2.8,1.3l-2.8,1.3h-2.8v-1.3l-1.3,1.3l-2.8-1.3l-1.3,1.3h-9.7
			v-4.1h4.1l4.1-1.3l1.3-1.3v-1.3h6.9v1.3L265.1,681.3"/>
	</g>
	<g id="walg_13">
		<path  d="M457,133.4v-1.3V133.4"/>
		<path  d="M427.8,196v-1.3V196"/>
		<path  d="M429.2,193.2v1.3V193.2"/>
		<path  d="M424.9,200.1v-1.3V200.1"/>
		<path  d="M441.8,129.1h-1.3H441.8h-1.3H441.8"/>
		<path  d="M445.9,141.7v-1.3l1.3-1.3l1.3,1.3l-1.3-1.3h1.3h-1.3h1.3h-1.3h-1.3l1.3-2.8h2.8v-1.3l4.1-2.8l-1.3,1.3
			h1.3v-2.8v1.3h1.3v1.3v-1.3l1.3,1.3h1.3h1.3h-1.3l-1.3-1.3v-2.8v-1.3l1.3,1.3l-1.3-1.3l1.3-1.3h1.3v1.3l4.1-1.3V125v1.3l1.3-1.3
			v1.3V125l1.3,1.3h1.3h-1.3V125h-1.3v-1.3h-1.3l1.3-4.1l1.3-1.3l-1.3,1.3l1.3-1.3h1.3v-1.3v1.3h1.3l-1.3-1.3h1.3v-2.8l1.3-1.3h1.3
			l2.8-1.3l-1.3,1.3l1.3,1.3h1.3l-1.3,1.3h-1.3h-1.3h1.3l-1.3,1.3l1.3,1.3l-2.8,1.3h1.3v1.3h1.3h1.3v1.3v1.3h1.3V122v1.3h1.3v1.3
			h-1.3v1.3h1.3l1.3,1.3v1.3v1.3l-1.3,1.3l4.1,1.3l1.3,2.8v2.8l1.3,1.3l1.3,2.8h-12.5v4.1h4.1v4.1h1.3v2.8H471v9.7h5.6v16.7h8.4v6.9
			h5.6v6.9h-3v2.8h5.6V234h-66.7v1.3h-6.9V234l-2.8,1.3V234h-11.1v4.1h-11.1v-1.3h-4.4l-1.3,6.9h-20.8v-5.6h4.1l15.3-5.6l12.5-4.1
			l8.4-6.9l5.6-4.1l5.6-8.4v-2.8l1.3-1.3v-1.3h1.3l1.3-2.8v-1.3h1.3v-2.1h-1.3V196h2.8h1.3v-1.3l1.3-1.3v1.3v-2.8l-1.3-1.3h1.3v-1.3
			h1.3v-1.3v1.3l-1.3-1.3l1.3-1.3h1.3v1.3l2.8-1.3l2.8-1.3l1.3-2.8l2.8-1.3l1.3-1.3h1.3v-1.3v1.3v-1.3l4.1-1.3l1.3-1.3l1.3-2.8v-2.8
			l-5.6-1.3l-1.3,2.8l-1.3-1.3l1.3-1.3v-2.8v-6.9l-1.3-4.1v-6.9V144h1.3l1.3-2.8v0.4"/>
		<path  d="M476.5,126.5h1.3H476.5"/>
	</g>
	<g id="walg_14">
		<path  d="M288.7,742.5l1.3,1.3v1.3h2.8v1.3v6.9h-8.4h-2.8h-1.3l1.3-1.3v-1.3h-1.3h-2.8h-1.3v-1.3h-2.8h-2.7v-1.3
			v-2.8h-1.5h1.3V744h-1.3l1.3-1.3l-1.3-1.3v-2.8h1.3l-1.3-1.3l5.6-1.3v1.3h2.8l1.3-1.3l11.1,1.3v2.8l-1.3,1.3L288.7,742.5"/>
	</g>
	<g id="walg_15">
		<path  d="M281.8,666.1h1.3h9.7v-4.1h1.3l2.8,1.3l5.6-1.3h4.1v5.6l-1.3,1.3v2.8h-1.3v1.3h-1.3v1.3v1.3h-1.3v5.6h-1.3
			h-2.8v-1.3h-3v-1.5h-1.5h-5.6h-5.6v-1.3l1.3-1.3V673l-1.3-2.8v-4.1"/>
	</g>
	<g id="walg_16">
		<path  d="M209.5,718.9h1.3l1.3,1.3v1.3h-1.3v1.3l-2.8-1.3l1.3-1.3v-1.3v1.3v-1.3"/>
	</g>
	<g id="walg_17">
		<path  d="M185.8,732.8l1.3-1.3l-1.3-4.1l2.8,1.3l1.3,2.8h4.1h5.6l2.8-1.3h1.3h1.3l1.3,1.3v1.3h1.3h4.1l1.3,1.3v2.8
			H212v1.3l-12.5-1.3v1.3h-2.5h-11.1v-4.1V732.8"/>
	</g>
	<g id="walg_18">
		<path  d="M215.1,670.2h1.3H215.1l-1.3,1.3v-2.8L215.1,670.2"/>
	</g>
	<g id="walg_19">
		<path  d="M217.7,674.3h-1.3l1.3-1.3l1.3-1.3h1.3v1.3l-1.3,1.3v2.8L217.7,674.3"/>
	</g>
	<g id="walg_20">
		<path  d="M206.7,724.3l1.3-2.8l2.8,1.3l1.3,1.3h1.3v2.8h-1.3v5.6H208h-1.3v-1.3l-1.3-1.3H204h-1.3L206.7,724.3"/>
	</g>
	<g id="walg_21">
		<path  d="M184.4,589.5h1.3v1.3h4.1l4.1-1.3v1.3h19.5l-1.3-1.3l1.3-4.1h1.3v1.3h1.3v-1.3h1.3h1.3V584h4.1h1.3v1.3
			h1.3v1.3v1.3l1.3,4.1l-1.3,1.3h-2.8v1.3H222v-1.3l-1.3,1.3h-2.8v2.8l-5.6-1.3l-16.7,2.8h-4.1v-1.3h-1.3L186,599L184.4,589.5"/>
	</g>
	<g id="walg_22">
		<path  d="M145.4,433.7h1.3H145.4"/>
		<path  d="M151,444.8v-1.3V444.8"/>
		<path  d="M146.9,435.1v1.3V435.1"/>
		<path  d="M135.8,417.1h1.3H135.8"/>
		<path  d="M137.1,417.1v1.3V417.1"/>
		<path  d="M120.5,414.3l-1.3,2.8v1.3v2.8v-5.5l1.3-2.8V414.3"/>
		<path  d="M116.3,430.9l1.3-4.1V424l1.3-2.8v2.8l-1.3,6.9L116.3,430.9"/>
		<path  d="M155.1,449.1h-1.3v-1.3v-1.3l-2.8-1.3h1.3l-1.3-1.3h-1.3h1.3l-1.3-1.3l-1.5-4.6l-1.3-1.3v-1.3v-1.3
			l-1.3-1.3l-1.3-1.3v-2.8l-4.1-2.8l-1.3-2.8V420v-1.3v-1.3l-1.3,1.3v-1.3l2.8-1.3l-4.1,1.3l1.3-2.8v-1.3l-6.9-8.4l-1.3-1.3v-2.8
			v-4.1v-2.8l1.3-1.3l-1.3-5.6h1.3l1.3-4.1l1.3-2.8v-1.3l1.3-1.3l1.3-4.1l5.6-4.1l1.3-1.3v-6.9l-1.3-5.6l1.3-1.3l1.3-1.3v-4.1h2.8
			v-6.3H158v2.8h8.4l1.3,2.8l4.1,2.8h-4.1v1.3h1.3v2.8h5.6v4.1h-1.3v5.6h2.8v1.3h16.7v-1.3h9.7v2.8h2.8v2.8h2.8v4.1h-1.3v4.1h-4.1
			h-1.3v1.3v2.8v4.1h1.3l1.3,5.6h-1.3v2.8h-2.8v-1.3h-5.6v-4.3l-4.1,1.3v2.8l-4.1,1.3v11.1h5.6v2.8h1.3v5.6h-1.3v2.8h-1.3v1.3h-9.7
			v1.3h-1.3v9.7h2.8v2.8h-2.8v1.3h5.6v8.4h1.3v11.1h-5.6v1.3h-2.8v2.8h-15.3v5.6h-2.8l-1.3-1.3l1.3-1.3l-2.8-2.8l1.3-1.3v1.3h1.3
			v-2.8v-1.3l-1.3-1.3L155.1,449.1"/>
		<path  d="M145.4,433.7v-1.3V433.7"/>
	</g>
	<g id="walg_23">
		<path  d="M172,553.3l-1.3-4.1v-1.3h2.8v-1.3h1.3v-1.3h1.3l1.3-1.3l1.3-1.3v-2.8l-1.3-1.3v-1.3h8.4v-1.8h1.3l1.3-8.4
			h6.9v-4.1h1.3v2.8h1.3v1.3h-1.2v2.8h4.1v6.9h2.8l-1.3,1.3l-1.3,2.8l-1.3,1.3l-1.3,1.3h-1.6v1.3h-1.3v1.3l-1.3-1.3h-1.3l1.3,1.3
			l-1.3,1.3v1.3l-4.1,1.3v1.3h-1.3h-2.8h-6.9h-1.3l1.3,2.8h-1.3h-1.3v-1.3H172"/>
	</g>
	<g id="walg_24">
		<path  d="M223.3,643.8v-4.1h6.9v1.3v8.4h-2.8v6.9v1.3h-4.1L222,659h-5.6v-5.6h5.6v-2.8h-1.5v-1.3h1.3l1.3-1.3v-4.1"
			/>
	</g>
	<g id="walg_25">
		<path  d="M213.6,673v-1.3h1.3v1.3H213.6"/>
	</g>
	<g id="walg_26">
		<path  d="M205.3,673h1.3H205.3"/>
		<path  d="M205.3,673h1.3H205.3H204h-1.3l1.3-1.3L205.3,673"/>
		<path  d="M215.1,675.8h2.8l1.3,1.3h-1.3v1.3h-4.1v-1.3h-1.3h1.3v-1.3H215.1"/>
	</g>
	<g id="walg_27">
		<path  d="M226.1,725.8h-1.3v-1.3h-1.3v-2.8H222v1.3v1.3V723l-2.8-1.3v-2.8h1.3v-2.8h1.3v-1.3l1.3,1.3l-1.3,1.3h5.6
			v-5.6h1.3V709h2.8l5.6-1.3v8.4l-1.3,4.1v4.1l-1.3,1.3l-1.3,1.3l-1.3-1.3l1.3,2.8l-4.1-1.3h-2.8v-1.3"/>
	</g>
	<g id="walg_28">
		<path  d="M395.9,617.3h8.4l16.7,19.5v2.8h1.3v4.1h15.2v-1.3h9.7l4.1,1.3v23.6h-86.2l1.5-61.3h29.2V617.3"/>
	</g>
	<g id="walg_29">
		<path  d="M185.8,599.2v-1.3V599.2"/>
		<path  d="M184.4,599.2h1.3H184.4"/>
		<path  d="M185.8,606.1v-2.8l-1.3-1.3v-1.3l1.3-1.3l4.1-1.3h1.3v1.3h4.1l16.7-2.8l5.6,1.3v-2.8h2.8l1.3-1.3v1.3h1.3
			v-1.3h2.8l1.3-1.3h1.3h1.3v1.3h2.8l-1.3,1.3l1.3,2.8v1.3h1.3v5.6l1.3,1.3v1.3h-2.8v-1.3h-1.3v1.3h-2.8h-2.8h-8.4h-2.8v-1.3
			l-5.6,1.3h-5.6h-9.7v-2.8h-5.6v-1.3h-1.3v2.8H185.8"/>
	</g>
	<g id="walg_30">
		<path  d="M276.2,689.7v-1.3h-1.3V687h-1.3l-1.3-5.6h1.3v-1.5h4.1h2.8v-1.5h6.9h5.6h1.3v1.3h2.8v1.3h4.1l-1.3,1.3
			l1.3,2.8h-1.3v1.3h-1.3l-1.3,1.3v-1.3v2.8h-3v2.8h-4.1v1.3h-4.1h-1.3h-1.3h-2.8v-1.3h-1.3v-1.3h-1.3v-1.3h-1.8"/>
	</g>
	<g id="walg_31">
		<path  d="M213.6,673v-1.3V673"/>
	</g>
	<g id="walg_32">
		<path  d="M247,759.2h-1.3v-1.3h1.3V755v-1.3h5.6v-1.5h1.3h1.3v-1.5h2.8h2.8v-1.3h2.8h1.3l1.3-1.3h2.8h1.3v1.3h2.8
			h2.8v1.3h1.3h2.8h1.3v1.3l-1.3,1.3h1.3h2.8h8.4v5.6h-12.5H276l-1.3,1.3h-1.3v1.3h-2.7v-1.3h-2.8h-1.3h-1.3h-1.3h-9.7v1.3h-1.3v1.3
			l-1.3,1.3h-1.3l1.3-4.1L247,759.2"/>
	</g>
	<g id="walg_33">
		<path  d="M263.6,703.5H258h-2.8v-4.1l-1.3-2.8l4.1-1.3l2.8-1.3h1.3h6.9v1.3h1.3l1.3,2.8l-1.3,1.3v2.8h1.3l-4.1,1.3
			h-2.8v1.3v-1.3H263.6"/>
	</g>
	<g id="walg_34">
		<path  d="M272,519.9v-2.8h-1.3v-2.8h-6.9v-11.1h2.8h2.8v-1.3v-11.1h-1.3v-4.3h1.3v-1.3h1.3v-2.8h1.3v2.8h5.6v-5.6
			h2.8v5.6H293l1.3,2.8v5.6h11.1h9.7l-1.3,8.4h8.4v2.8h1.3v1.3h-5.6v12.5l2.8-1.3v4.1h-4.3v-1.3h-2.8v1.3h-12.5h-2.8v-1.3h-4v2.8
			h-1.5v-2.8h-4.1v-1.3h-6.9v2.8h-1.3v-5.6h1.3v-1.3H279h-1.3v2.8h-4.1v2.8H272"/>
	</g>
	<g id="walg_35">
		<path  d="M258.2,664.6l-2.8-2.8h1.3l-2.8-5.6h-1.3v-1.3l5.6-1.3v-1.3h1.3v-1.3h2.8h1.3l2.8-1.3v1.3h2.8v1.3h1.3v1.3
			h1.3h-1.2l1.3,4.1h-1.3v1.3v1.3v2.8v1.3l1.3,1.3l-4.1,1.3l-1.3-1.3v-1.3l-2.8,1.3h-1.3h-1.3l-1.3-1.3h-1.6"/>
	</g>
	<g id="walg_36">
		<path  d="M276.2,604.8l1.3,1.3h-1.3l1.3,1.3l-11.1,1.3v8.4h-4.1v1.3h-6.9H254h-1.3l-4.1,1.3h-1.3v-1.3h-6.9v-1.3
			v-6.9H239v1.3v-1.3h-2.8h-2.8v-1.3v-1.3h1.3h1.3v-1.5l-1.3-1.3v-5.6h-1.3v-1.3h5.6h1.3h8.4l1.3-1.3h1.3h-1.3l2.8-1.3l-1.3-1.3
			l-1.3-1.3h2.8h8.4v1.3h15.3l-1.3,2.8h1.3l4.1-1.3l1.3,1.3v2.8h-1.3h-2.8l-1.3-1.3v1.3v5.3"/>
	</g>
	<g id="walg_37">
		<path  d="M185.8,611.7v1.3V611.7"/>
		<path  d="M219.2,617.3v1.3h-1.3v1.3v1.3h1.3v2.8v1.3v8.4l1.3,2.8h-2.8v-1.3h-6.9v1.3v-1.3h-5.6l-1.3-1.3l-1.3-1.3
			h-6.9l-1.3-1.3l-1.3-1.3v-1.3l-4.1-6.9l1.3-1.3l-1.3-1.3l-1.3-5.6v-1.3v-1.3v-1.3h-1.3v-3.4h1.3v-2.8h1.3v1.3h5.6v2.8h9.7l1.3,1.3
			l4.1-1.3l5.6-1.3v1.3h2.8v4.1v4.1h1.3v1.6"/>
	</g>
	<g id="walg_38">
		<path  d="M210.8,720.2l1.3-1.3l5.6,1.3l1.3,1.3l2.8,1.3v1.3v-1.3v-1.3h1.3v5.6H222l-1.3-1.3l-1.3,1.3H218h-1.3
			l-1.3,1.3H214v-4.1h-1.3l-1.3-1.3v-1.3h1.3v-1.3h-1.9"/>
	</g>
	<g id="walg_39">
		<path  d="M267.9,781.5h-1.3H267.9"/>
		<path  d="M270.7,780h-1.5v1.3h-1.3h-2.8h-1.3v1.3l-2.8-1.3h-2.8h-1.3l-1.3,1.3l-1.3-1.3l-1.3,1.3l-2.8-1.3h-1.3V780
			h2.8v-1.3l-1.3-1.3h-1.3v-1.5h1.3v-1.3h1.3v-1.3l1.3-1.3h22.3v4.1v2.8l-1.3,1.3l-2.8-1.3v1.2"/>
	</g>
	<g id="walg_40">
		<path  d="M494.6,116.7h-1.3H494.6"/>
		<path  d="M493.1,107v-1.3V107"/>
		<path  d="M497.3,136.2v-1.3V136.2"/>
		<path  d="M494.6,154.2h-1.3H494.6"/>
		<path  d="M508.5,107h1.3H508.5"/>
		<path  d="M490.3,120.8v-1.3V120.8"/>
		<path  d="M484.9,113.9h1.3H484.9"/>
		<path  d="M490.3,112.4v-1.3V112.4"/>
		<path  d="M484.9,105.5v-1.3V105.5"/>
		<path  d="M493.1,111.1v-1.3V111.1"/>
		<path  d="M515.4,111.1v-1.3V111.1"/>
		<path  d="M493.1,111.1v-1.3V111.1"/>
		<path  d="M486.2,115.2v-1.3V115.2"/>
		<path  d="M497.3,94.4v-1.3V94.4"/>
		<path  d="M476.5,109.6v-1.3V109.6"/>
		<path  d="M493.1,111.1v-1.3V111.1"/>
		<path  d="M512.6,108.3l-1.3-1.3h1.3V108.3"/>
		<path  d="M491.8,144.5h1.3H491.8"/>
		<path  d="M483.4,109.6h-1.3H483.4"/>
		<path  d="M495.9,109.6h-1.3H495.9"/>
		<path  d="M516.7,109.6h-1.3H516.7"/>
		<path  d="M487.7,104.2v-1.3V104.2"/>
		<path  d="M494.6,108.3h-1.3H494.6"/>
		<path  d="M502.9,108.3V107V108.3"/>
		<path  d="M493.1,119.4h-1.3H493.1"/>
		<path  d="M516.7,109.6v-1.3l1.3,1.3H516.7"/>
		<path  d="M489,115.2h-1.3H489"/>
		<path  d="M491.8,120.8h1.3H491.8"/>
		<path  d="M497.3,104.2h-1.3H497.3"/>
		<path  d="M515.4,111.1l1.3-1.3L515.4,111.1"/>
		<path  d="M489,109.6v-1.3V109.6"/>
		<path  d="M491.8,105.5v1.3V105.5"/>
		<path  d="M489,108.3h1.3H489"/>
		<path  d="M504.4,111.1v-1.3V111.1"/>
		<path  d="M476.5,115.2v-1.3V115.2"/>
		<path  d="M504.4,108.3H503H504.4"/>
		<path  d="M490.3,104.2l-1.3-1.3h1.3V104.2"/>
		<path  d="M502.9,105.5h-1.3H502.9"/>
		<path  d="M484.9,109.6h-1.3H484.9"/>
		<path  d="M489,102.7v-1.3V102.7"/>
		<path  d="M493.1,154.2h1.3H493.1"/>
		<path  d="M516.7,109.6h-1.3H516.7"/>
		<path  d="M486.2,116.7v-1.3V116.7"/>
		<path  d="M523.7,116.7h1.3H523.7"/>
		<path  d="M501.5,105.5v-1.3V105.5"/>
		<path  d="M511.3,102.7v1.3V102.7"/>
		<path  d="M487.7,109.6h1.3H487.7"/>
		<path  d="M494.6,125v-1.3l1.3,1.3H494.6"/>
		<path  d="M486.2,100h-1.3H486.2"/>
		<path  d="M491.8,98.6h1.3H491.8"/>
		<path  d="M489,145.8h-1.3H489"/>
		<path  d="M518.2,112.4h1.3H518.2"/>
		<path  d="M494.6,111.1h-1.3H494.6"/>
		<path  d="M526.5,101.4h-1.3V100h1.3V101.4"/>
		<path  d="M500.1,102.7h1.3H500.1"/>
		<path  d="M495.9,111.1v-1.3V111.1"/>
		<path  d="M509.8,101.4V100V101.4"/>
		<path  d="M487.7,111.1h1.3H487.7"/>
		<path  d="M511.3,107h-1.5H511.3"/>
		<path  d="M489,104.2h-1.3H489"/>
		<path  d="M476.5,113.9v1.3V113.9"/>
		<path  d="M533.4,112.4v-1.3V112.4"/>
		<path  d="M491.8,100v1.3V100"/>
		<path  d="M493.1,113.9v-1.3V113.9"/>
		<path  d="M480.6,111.1h1.3H480.6"/>
		<path  d="M504.4,105.5h1.3H504.4"/>
		<path  d="M504.4,102.7H503H504.4"/>
		<path  d="M493.1,120.8h-1.3H493.1"/>
		<path  d="M489,112.4h-1.3H489"/>
		<path  d="M491.8,112.4l-1.3-1.3h1.3V112.4"/>
		<path  d="M487.7,116.7h-1.5H487.7"/>
		<path  d="M486.2,116.7h1.3H486.2"/>
		<path  d="M504.4,105.5v-1.3V105.5"/>
		<path  d="M491.8,107l-1.3-1.3L491.8,107"/>
		<path  d="M498.7,125v1.3V125"/>
		<path  d="M522.4,109.6h1.3H522.4"/>
		<path  d="M493.1,120.8v-1.3V120.8"/>
		<path  d="M501.5,105.5h1.3H501.5"/>
		<path  d="M487.7,120.8v-1.3V120.8"/>
		<path  d="M504.4,108.3H503H504.4"/>
		<path  d="M522.4,112.4v-1.3V112.4"/>
		<path  d="M491.8,144.5h1.3H491.8"/>
		<path  d="M491.8,148.6h-1.3H491.8"/>
		<path  d="M507,105.5h1.3H507"/>
		<path  d="M500.1,108.3h1.3H500.1"/>
		<path  d="M490.3,120.8v-1.3V120.8"/>
		<path  d="M489,108.3h-1.3H489"/>
		<path  d="M487.7,112.4h-1.5H487.7"/>
		<path  d="M502.9,105.5v1.3V105.5"/>
		<path  d="M484.9,104.2v-1.3V104.2"/>
		<path  d="M497.3,111.1h-1.3H497.3"/>
		<path  d="M477.9,112.4h1.3H477.9"/>
		<path  d="M494.6,112.4v-1.3V112.4"/>
		<path  d="M498.7,111.1h-1.3H498.7"/>
		<path  d="M490.3,113.9v-1.3l1.3,1.3H490.3"/>
		<path  d="M512.6,107h-1.3H512.6"/>
		<path  d="M487.7,108.3h1.3H487.7"/>
		<path  d="M489,145.8l-1.3-1.3h1.3V145.8"/>
		<path  d="M480.6,111.1h-1.3H480.6"/>
		<path  d="M521,111.1h1.3H521"/>
		<path  d="M484.9,102.7h-1.3H484.9"/>
		<path  d="M491.8,108.3v1.3V108.3"/>
		<path  d="M507,111.1l-1.3-1.3L507,111.1"/>
		<path  d="M493.1,145.8v-1.3V145.8"/>
		<path  d="M489,118v-1.3V118"/>
		<path  d="M511.3,108.3V107V108.3"/>
		<path  d="M486.2,100l1.3,1.3h1.3L486.2,100"/>
		<path  d="M493.1,107v1.3V107v1.3V107"/>
		<path  d="M491.8,145.8v1.3V145.8"/>
		<path  d="M477.9,112.4v1.3V112.4"/>
		<path  d="M504.4,108.3v1.3V108.3"/>
		<path  d="M494.6,113.9h1.3H494.6"/>
		<path  d="M479.3,113.9v-1.3V113.9"/>
		<path  d="M493.1,107h1.3H493.1"/>
		<path  d="M495.9,113.9h1.3H495.9v-1.3V113.9"/>
		<path  d="M489,145.8v1.3V145.8"/>
		<path  d="M494.6,104.2h-1.3H494.6"/>
		<path  d="M479.3,81.9v-1.3V81.9h-1.3l1.3-1.3V81.9"/>
		<path  d="M487.7,116.7v1.3l-1.3-1.3H487.7"/>
		<path  d="M483.4,100h1.3H483.4"/>
		<path  d="M477.9,113.9h-1.3H477.9"/>
		<path  d="M525.2,112.4v-1.3V112.4"/>
		<path  d="M497.3,95.8h1.3v1.3h-1.3V95.8"/>
		<path  d="M533.4,111.1h1.3H533.4"/>
		<path  d="M487.7,145.8v-1.3l1.3,1.3H487.7"/>
		<path  d="M497.3,136.2v-1.3V136.2"/>
		<path  d="M486.2,113.9h-1.3H486.2"/>
		<path  d="M495.9,111.1h-1.3v-1.3L495.9,111.1"/>
		<path  d="M484.9,104.2h1.3H484.9"/>
		<path  d="M489,101.4v1.3V101.4"/>
		<path  d="M501.5,105.5l-1.3-1.3L501.5,105.5"/>
		<path  d="M491.8,108.3h1.3H491.8"/>
		<path  d="M504.4,105.5h1.3l-1.3,1.3V105.5"/>
		<path  d="M480.6,112.4v1.3V112.4"/>
		<path  d="M486.2,111.1h-1.3H486.2"/>
		<path  d="M504.4,108.3V107V108.3"/>
		<path  d="M494.6,101.4l1.3,1.3L494.6,101.4"/>
		<path  d="M534.9,112.4h-1.5v-1.3h1.3v1.3"/>
		<path  d="M493.1,100h-1.3v-1.3L493.1,100"/>
		<path  d="M529.3,111.1h1.3h1.3H529.3"/>
		<path  d="M511.3,104.2h1.3H511.3"/>
		<path  d="M512.6,108.3V107h1.3L512.6,108.3"/>
		<path  d="M512.6,108.3V107V108.3"/>
		<path  d="M501.5,107h1.3v1.3L501.5,107"/>
		<path  d="M493.1,143.1v1.3V143.1"/>
		<path  d="M511.3,102.7v-1.3h1.3v1.3v-1.3v1.3H511.3"/>
		<path  d="M493.1,101.4h-1.3V100L493.1,101.4"/>
		<path  d="M516.7,111.1v1.3h1.3L516.7,111.1"/>
		<path  d="M504.4,107l2.8,1.3h-1.3L504.4,107"/>
		<path  d="M489,120.8h1.3h1.3H489"/>
		<path  d="M486.2,119.4V118l1.3,1.3v1.3L486.2,119.4"/>
		<path  d="M479.3,112.4h1.3v1.3h-1.3V112.4"/>
		<path  d="M489,107l1.3-1.3v1.3h1.3v1.3l-1.3-1.3l1.3,1.3h-1.3V107H489"/>
		<path  d="M498.7,102.7h-1.3h4.1v1.3h-1.3h1.3h-1.3L498.7,102.7"/>
		<path  d="M516.7,113.9h4.1l-1.3,1.3h1.3l1.3-1.3l1.3,1.3l-1.3,1.3h1.3v1.3v-1.3l1.3,1.3l-1.3-1.3h1.3h-1.3h1.3v-1.3
			h-1.3l-1.3-1.3h-1.3l1.3-2.8l1.3,1.3v-1.3l1.3,1.3v1.3l1.3-1.3l4.1,1.3l5.6-1.3l2.8,1.3h2.8v-1.3h1.3h-1.3v1.3h-4.1v-1.3h-2.5
			l-1.3-1.3l-4.1-1.3l-2.8,1.3h-1.3H524v-1.3l-1.3-1.3h1.3v-1.3h-1.3l1.3-1.3h-1.3l1.3-1.3l1.3,1.3V103v-1.6h1.3l-1.3,1.3l2.8,1.3
			l-1.3,1.3h1.3V104l1.3-1.3h1.3l1.3-1.3h-1.3v1.3l-1.3-2.8h1.3l-1.3-1.3H542v-4.1h6.9v1.3l-1.3,1.3h5.6v1.3H581v16.7h-1.3v6.9v2.8
			h2.8v-4.1h9.7l-1.3,2.8h12.5v5.6h12.5v9.7h8.4v-1.3h5.6v-4.1h1.3v-4.1h5.6v5.6h-6.1v6.9l-5.6,1.3v5.6h-6.9v5.6h-5.6v-2.8h-1.3
			l-4.1,1.3h-2.8v1.3h-4.1v-4.1h-4.1v1.3H592v-1.3l-1.3,1.3h-1.3v1.3l-1.3,1.3h-1.3l-1.3,1.3h6.9v1.3h2.8v5.6h8.4v11.1H591v2.8h1.3
			v8.4H591l-2.8-2.8l-2.8,1.3l-2.8-1.3v5.6l-5.6,4.1l1.3,1.3l1.3,1.3l1.3,1.3l1.3,1.3h1.3l1.3,1.3v6.9l16.7,1.3v8.4h-2.8v5.6h-18
			v2.8h-87.7v-26h-5.5v-2.8h4.1v-6.9h-5.6v-6.9h-8.4v-16.7h-5.6v-9.7h6.9v-2.8h-1.3v-4.1h-4.1v-4.1h12.5l1.3,2.8l1.3,1.3l1.3,1.3
			l1.3,1.3v1.3h1.3v1.3v1.3l1.3,1.3v-2.8v-1.3v-1l-1.3-1.3l1.3-1.3l1.3-5.6v-1.3l-1.3-2.8v-1.3V135h1.3l1.3,1.3h1.3l1.3,1.3l1.3,2.8
			l2.8,1.3h1.3h-1.3l-1.3-2.8l-1.3-4.1h1.3l-1.3-1.3h1.3l4.1-4.1v-1.3v1.3h-1.3l-1.3,1.3H501h-1.3v-1.3l-1.3-2.8V125H497l-1.3-2.8
			h-4.1l1.3-1.3v-1.3h1.3h1.3l-1.3-1.3h-2.8l1.3,1.3h-1.3H490h1.3l-1.3-1.3v-1.3h-1.3h1.3l-1.3-1.3h1.3l2.8,1.3h-1.3l4.1,1.3
			l-1.3-1.3h2.8l-2.8-1.3l-2.8-1.3v-1.3l2.8,1.3l-1.3-1.3h-1.3h2.8v1.3h1.3h1.3h1.3h-1.3v-1.3h-1.3v-1.3h1.3v1.3v-1.3l1.3,1.3v-1.3
			l-2.8-2.8h-1.3l1.3,1.3h-1.3l-1.3-1.3h1.3l-1.3-1.3l1.3,1.3v-1.3H493h1.3l-1.3-1.3l1.3-1.3h1.3h1.3l1.3,1.3v-1.3v-1.3l1.3,1.3
			l1.3,1.3l1.3,1.3h-2.8h1.3v1.3v-1.3v1.3v-1.3h-1.3v1.3l1.3,1.3v-1.3v1.3h2.8v1.3v1.3l-1.3-1.3l1.3,2.8h1.3l-1.3-2.8h1.3h-1.3h1.3
			l-1.3-1.3l2.8,1.3l1.3,1.3v-1.3l-1.3-1.3v-1.3h1.3l-2.8-1.3v-1.3l2.8,1.3v1.3h1.3h4.1l1.3,1.3l1.3,2.8v1"/>
		<path  d="M495.9,118v-1.3V118"/>
		<path  d="M494.6,155.5v-1.3V155.5"/>
	</g>
	<g id="walg_41">
		<path  d="M215.1,736.9h-1.3v-2.8l-1.3-1.3v-5.6h1.3v1.3h1.3l1.3-1.3h1.3h1.3l1.3-1.3l1.3,1.3h1.3v-2.8h1.3v1.3h1.3
			v1.3h2.8v5.6h1.3v1.3v1.3l-4.1,1.3h-1.3H222v4.1h-1.5l1.3,1.3h-1.3h-1.3v-1.3l-1.3-1.3v-1.3l-2.8,1.3v-1.3h1.3v-1.3h-1.3"/>
	</g>
	<g id="walg_42">
		<path  d="M255.4,643.8h1.3v-1.3l-1.3-1.3h1.3l-1.3-4.1v-1.3l1.3-1.3h1.3V633h1.3v-2.8h8.4v6.9h-1.3v2.8v2.8v1.3h1.3
			v1.3h-1.3l1.3,1.3v1.3v2.8h-1.3v-1.3l-2.8,1.3h-1.3H261h-1.3v1.3h-2.8v-1.3v-1.3l-1.3-1.3v-1.3v-1.3v-1.8"/>
	</g>
	<g id="walg_43">
		<path  d="M281.8,710.5h1.3h4.1v1.3h1.3h1.3v-1.3h1.3h4.1v-1.3v-1.3h1.3h4.1v-1.3h2.8v2.8v1.3l-1.3,1.3h1.3v1.3v4.1
			h1.3l1.3,1.3v1.3h-4.1v1.3h-6.9h-0.9h-1.5v1.3h-1.3v2.8l-2.8-1.3v1.3h-6.9l1.3-1.3h-1.3v-1.3h-1.3v-1.3v-2.8h1.3l-1.3-2.8l1.3-1.3
			h-1.3v-1.3h1.3V712V710.5"/>
	</g>
	<g id="walg_44">
		<path  d="M422.3,692.5h-37.5v8.4h-19.6v-33.4h86.2v-16.7h39h58.4v1.3h18v-1.3h55.6v-4.1h9.7v-1.3h22.3v5.6h33.4
			v11.1H685l-9.7,5.6l-11.1,4.1l-11.1,4.1l-11.1,1.3l-4.1,1.3l-2.8,1.3l-9.7,2.8l-20.8,1.3l-8.4-1.3l-8.4-1.3l-4.1,1.3h-1.5h-2.8
			l-5.6,2.8l-9.7,6.9l-8.4,1.3l-6.9,4.1l-2.8,1.3l-5.6,2.8l-1.3,1.3l-2.8,1.3l-12.5,1.3l-6.9,2.8v-5.3h-26.4l-1.3-1.3v-4.1h1.3v-5.6
			H422.3"/>
	</g>
	<g id="walg_45">
	</g>
	<g id="walg_46">
		<path  d="M356.9,240.4h1.3h2.8l2.8-1.3h4.1v5.6h19.5h1.3l1.3-6.9h4.1v1.3h11.1v-4.1h11.1v1.3l2.8-1.3v1.3h6.9v-1.3
			h66.7v-11.1h87.7v62.6h107.2v79.1H401.3v9.7H400h-11.2l4.1-4.1l1.3-5.6h-69.5v-1.3h-1.3v1.3h-13.9l15.3-26.4h9.7v-5.6h-4.1v-2.8
			h-5.6v-1.3h-4.1v-2.8h4.1v1.3h9.7v-1.3h9.7v-2.8V321H343h-6.9v-1.3h1.3v-4.1H329h-9.7v-2.8h1.3v1.3h9.7l-1.3-4.1h2.8v-2.8h4.1
			v-5.6h-1.3v-2.8h-2.8v-6.9h-5.6l-2.8-5.6v-2.8l-1.3-1.3h-2.8v-6.9h4.1v-4h2.8v-6.9h2.8v-1.3h15.3v-6.9h4.1v-12.5l1.3,1.3l2.8-1.3
			l1.3-1.3l1.3,1.3H354l1.3-1.3l1.3,1.3l-1.3-1.3h1.3h-1.3L356.9,240.4"/>
	</g>
	<g id="walg_47">
		<path  d="M436.2,742.5v-1.3V742.5"/>
		<path  d="M447.2,743.8h1.3H447.2"/>
		<path  d="M448.7,742.5v1.3V742.5"/>
		<path  d="M469.5,743.8v-1.3V743.8"/>
		<path  d="M457,745.3h1.3H457"/>
		<path  d="M458.4,741h1.3H458.4"/>
		<path  d="M447.2,743.8h1.3H447.2"/>
		<path  d="M436.2,749.4v-1.3V749.4"/>
		<path  d="M432,746.6v-1.3h1.3v1.3H432"/>
		<path  d="M493.1,743.8h-1.3H493.1"/>
		<path  d="M512.6,739.7h1.3H512.6"/>
		<path  d="M423.6,745.3v1.3V745.3"/>
		<path  d="M480.6,745.3V744V745.3"/>
		<path  d="M461.1,743.8v1.3V743.8"/>
		<path  d="M423.6,745.3h1.3H423.6"/>
		<path  d="M436.2,748.1v1.3V748.1"/>
		<path  d="M447.2,745.3h1.3H447.2"/>
		<path  d="M465.4,743.8v-1.3h1.3L465.4,743.8"/>
		<path  d="M507,731.4h1.3H507"/>
		<path  d="M484.9,750.8h1.3H484.9"/>
		<path  d="M514.1,735.6h1.3H514.1"/>
		<path  d="M454.2,750.8h1.3H454.2"/>
		<path  d="M457,743.8v1.3V743.8"/>
		<path  d="M475.1,749.4v-1.3V749.4"/>
		<path  d="M468.2,742.5v1.3V742.5"/>
		<path  d="M441.8,745.3h1.3H441.8"/>
		<path  d="M440.3,745.3v1.3V745.3"/>
		<path  d="M458.4,745.3V744V745.3"/>
		<path  d="M466.7,742.5v1.3V742.5"/>
		<path  d="M461.1,743.8h-1.3H461.1"/>
		<path  d="M504.4,748.1h1.3H504.4"/>
		<path  d="M466.7,743.8l1.3-1.3v1.3H466.7"/>
		<path  d="M445.9,745.3V744V745.3"/>
		<path  d="M440.3,750.8h1.3v1.3L440.3,750.8"/>
		<path  d="M512.6,735.6v-1.3V735.6"/>
		<path  d="M437.5,749.4h1.3H437.5"/>
		<path  d="M495.9,739.7v1.3V739.7"/>
		<path  d="M440.3,746.6h1.3H440.3"/>
		<path  d="M436.2,743.8h1.3H436.2"/>
		<path  d="M479.3,748.1v-1.3V748.1"/>
		<path  d="M436.2,762l1.3-1.3v1.3H436.2"/>
		<path  d="M494.6,753.6v-1.3h1.3L494.6,753.6"/>
		<path  d="M437.5,741h-1.3H437.5"/>
		<path  d="M472.3,748.1v-1.3V748.1"/>
		<path  d="M436.2,748.1v1.3V748.1"/>
		<path  d="M436.2,743.8h1.3H436.2"/>
		<path  d="M437.5,749.4v-1.3h-1.3h1.3V749.4"/>
		<path  d="M430.6,741h-1.3H430.6"/>
		<path  d="M433.4,741H432H433.4"/>
		<path  d="M465.4,745.3l1.3-1.3v1.3H465.4"/>
		<path  d="M436.2,746.6h1.3H436.2"/>
		<path  d="M443.1,745.3h-1.3H443.1"/>
		<path  d="M426.4,743.8v1.3l-1.3-1.3H426.4"/>
		<path  d="M437.5,742.5v1.3V742.5"/>
		<path  d="M514.1,739.7v-1.3V739.7"/>
		<path  d="M437.5,745.3h-1.3H437.5"/>
		<path  d="M423.6,745.3h-1.3H423.6"/>
		<path  d="M466.7,743.8h1.3H466.7"/>
		<path  d="M491.8,757.9h1.3v-1.3v1.3H491.8"/>
		<path  d="M445.9,749.4v1.3V749.4v-1.3V749.4"/>
		<path  d="M479.3,748.1l1.3-1.3v1.3H479.3v1.3V748.1"/>
		<path  d="M458.4,742.5h-1.3h-1.3l-1.3-1.3h-4.1v1.3H449h-1.3v1.3l-1.3,1.3v-1.3l-1.3,1.3l-1.3-1.3l-1.3,1.3v-1.3
			H441h1.3L441,741l-1.3-2.8h-2.2h-2.8l-1.3,1.3l-4.1,1.3l-2.8-1.3l-1.3,1.3l-1.3-1.3l-2.8-1.3h-1.3h-1.3H417h-3.1h-1.3l-1.3,1.3
			l-2.8-1.3v1.3l-2.8-1.3l-4.1,1.3h-4.1l-2.8,1.3v-1.3v-1.3l1.3-2.8l1.3-1.3l-2.8-4.1v-1.3l-2.8-5.6h1.3v-5.6l-2.8-1.3l-6.9,1.3
			l-1.3-1.3l-8.4-2.8l-5.6-1.3h5.6l1.3-4.1l11.1-6.9h-1.3v-8.4h105.7v5.6h-1.3v4.1l1.3,1.3h26.4v5.6l-2.8,4.1l-1.3,1.3l-4.1,9.7v4.1
			l-1.3,1.3h-2.8v1.3l-2.8,2.8l-1.3,1.3v1.3l-2.8,1.3l-1.3,1.3h-2.8l-1.3,2.8v-1.3h-1.3h-4.3h-1.3l-1.3,2.8l-4.1,1.3v-1.3h-1.3
			l1.3-1.3l-1.3-1.3l-4.1-1.3l-1.3,1.3l-1.3-1.3l-4.1,1.3l-1.3-1.3l-1.3,1.3h-4.1H459v1.6h-1.3H458.4"/>
	</g>
	<g id="walg_48">
		<path  d="M156.6,326.6h1.3H156.6"/>
		<path  d="M164.9,323.9h1.3H164.9"/>
		<path  d="M156.6,329.4v-1.3V329.4"/>
		<path  d="M156.6,329.4v1.3h-1.3L156.6,329.4"/>
		<path  d="M163.6,300.2v1.3V300.2"/>
		<path  d="M162.2,301.6l-1.3,1.3h1.3V301.6"/>
		<path  d="M153.8,330.9l1.3,1.3v1.3v-1.3l1.3,1.3l1.3-1.3v-1.3l2.8-1.3l1.3,2.8V331v1.3V331l1.3,1.3V331h1.3h-1.3
			v-1.3h1.3h-1.3h1.3h-1.3l1.3-1.3V327h1.3h-1.3h1.3l-1.3-1.3h1.3v-1.3v1.3v-1.3h4.1v8.4h2.8v5.6h4.1v1.3l-2.8,2.8v4.1h1.3v1.3h-2.2
			v1.3H172v1.3l-4.1-2.8l-1.3-2.8h-8.4v-3.1H147v5.6h-2.8l-2.8-6.9l-1.3-1.3h-1.3V338v-1.3v-1.3h-1.3l1.3-1.3l1.3-1.3l1.3-1.3v-2.8
			l2.8-2.8l4.1-12.5l2.8-4.1l5.6-2.8v1.3l-1.3,1.3v4.1l-2.8,6.9l1.3,1.3l1.3,2.8l-1.3,1.3h1.3h1.3v1.3l-1.3,1.3L153.8,330.9"/>
	</g>
	<g id="walg_49">
		<path  d="M213.6,673v1.3h-1.3L213.6,673"/>
		<path  d="M212.3,674.3h1.3h1.3v1.3h-1.3L212.3,674.3"/>
	</g>
	<g id="walg_50">
		<path  d="M172,557.6h-1.3l1.3-1.3v-2.8h2.8v1.3h1.3h1.3l-1.3-2.8h8.4h2.8h2.8h-1.3v1.3v1.3v1.3h1.3v1.3v1.3h-2.8
			h1.3v2.8h2.8v4.1h-9.7l-1.3,1.3l-6.9-6.9L172,557.6"/>
	</g>
	<g id="walg_51">
		<path  d="M198.4,639.6l-2.8-6.9h6.9l1.3,1.3l1.3,1.3h5.6v1.3v-1.3h6.9v1.3h2.8v2.8h2.8v2.8v2.8v1.3l-1.3,2.8h-1.5
			v1.3h1.3v2.8h-11.1h-1.3h-2.8l-4.1-6.9L198.4,639.6"/>
	</g>
	<g id="walg_52">
		<path  d="M290,743.8l-1.3-1.3v-1.3l1.3-1.3V737h2.8v-1.3v1.3h1.3v-1.3h1.3v1.3h2.8h4.1h1.3h6.9h1.3v-1.3l5.6,1.3
			h1.3v1.3h1.3l-4.1,2.8h-1.3v1.3h1.3v4.1v2.8h-1.3v1.3l1.3,1.3l-1.3,4.1h1.3l-1.3,1.3l-1.3-1.3l-5.6-1.3h-1.3l1.3,1.3l-1.3,1.3h1.3
			v1.3h-15.1v-12.5V745H290V743.8"/>
	</g>
	<g id="walg_53">
		<path  d="M244.3,642.3V641l-1.3-1.3h1.3l-1.3-2.8h4.1v-1.3l1.3,1.3l1.3-1.3h5.6v1.3v1.3h1.3l-1.3,1.3l1.3,1.3h-1.3
			l1.3,1.3v1.3h-1.3v1.3v1.3v1.3l1.3,1.3v1.3l1.3,2.8l-6.9,1.3v-1.3l-1.3,1.3h-1.3h-1.3h-1.5h-2.8v-4.1l1.3-5.6l-1.3-2.8h1.5"/>
	</g>
	<g id="walg_54">
		<path  d="M219.2,675.8v-1.3l1.3-1.3h1.3h1.3l1.3,1.3v1.3H222l-1.3,1.3L219.2,675.8v1.3V675.8"/>
	</g>
	<g id="walg_55">
		<path  d="M589.1,152.9v-1.3h1.3l1.3-1.3v1.3h4.1v-1.5h4.1v4.1h4.1v-1.3h2.8l4.1-1.3h1.3v2.8h5.6v-5.8h6.9V143
			l5.6-1.3v-6.9h5.6v-8.3h5.6v11.1H639v5.6h1.3v2.8h5.6v-1.3h-4.1v-1.3h4.1v-2.8h1.3v-4.1h12.5v-4.1h1.3v2.8h8.4v-2.8h8.4v1.3h9.7
			v153.1H580.5v-65.7h18v-5.6h2.8v-8.4l-16.7-1.3v-6.8l-1-1.5h-1.5l-1.3-1.3l-1.3-1.3l-1.3-1.3l-1.3-1.3l5.6-4.1v-5.6l2.8,1.3
			l2.8-1.3l2.8,2.8h1.3v-8.4h-1.3v-3h12.5v-11.1H595V157h-2.8v-1.3h-6.9l1.3-1.3h1.3L589.1,152.9"/>
	</g>
	<g id="walg_56">
		<path  d="M212.3,718.9v1.3l-2.8-1.3l1.3-5.6l-1.3-6.9h4.1h1.3h2.8h4.1h5.6h1.3v1.3v4.1h-1.3v5.6H222l1.3-1.3
			l-1.3-1.3v1.3h-1.5v2.8h-1.3v2.8l-1.3-1.3L212.3,718.9"/>
	</g>
	<g id="walg_57">
		<path  d="M183,574.2l-1.3-5.6l-1.3-1.3l1.3-1.3h9.7v-1.3h1.3v1.3h2.8l-1.3,23.6l-4.1,1.3H186v-1.3h-1.3l1.3-6.9
			L183,574.2"/>
	</g>
	<g id="walg_58">
		<path  d="M350,757.9h1.3H350"/>
		<path  d="M343,760.5v1.3l-1.3-1.3h-1.3H339l1.3,1.3v1.3H339h-1.3h1.3l-1.3-1.3h-2.8l-1.3-1.3h-4.1h-2.8h-1.3
			l-5.6-1.3l-1.3-2.8h-2.8l1.3-4.1l-1.3-1.3v-1.3h1.3v-2.8v-4.1h-1.3v-1.3h1.3l4.1-2.8h-1.3v-1.3h2.8h1.3v-1.3l2.8,1.3v-2.8h11.1
			v-2.8h1.3v-3l4.1,1.3l2.8-2.8l2.8,1.3l-2.8,5.6v1.3h-1.3l1.3,1.3l1.3,1.3v16.7H346h1.3v2.8h2.8l-2.8,1.3v-1.3h-2.8l-1.3,1.3
			l1.3,1.3H343"/>
	</g>
	<g id="walg_59">
		<path  d="M212.3,664.6l-1.3-2.8h2.8l1.3,2.8v1.3v1.3h-1.3l-1.3-1.3v-1.3"/>
	</g>
	<g id="walg_60">
		<path  d="M227.5,671.5l4.1,1.3v1.3v1.3h-2.8h-4.1l-1.3-2.8H222h-1.5l1.3-2.8h1.3h1.3h1.3L227.5,671.5"/>
	</g>
	<g id="walg_61">
		<path  d="M461.1,606.1h168.3v5.6h58.4v39h-33.4v-5.6h-22.3v1.3h-9.7v4.1h-55.6v1.3h-18v-1.3h-58.4h-39v-6.9v-1.3
			h-13.9v1.3h-15.3v-4.1h-1.3v-2.8l-16.7-19.5h-8.4v-11.1h12.5H461.1"/>
	</g>
	<g id="walg_62">
		<path  d="M276.2,736.9h-1.3v-1.3l-5.6,1.3v-5.6h4.1h1.3V730h1.3v-1.3h1.3l1.3-1.3h1.3l1.3-1.3h2.8h5.6h1.3V737
			l-12.5-1.3L276.2,736.9"/>
	</g>
	<g id="walg_63">
		<path  d="M291.5,649.4l1.3-1.3l1.3,1.3v1.3v2.8l1.3,2.8l-2.8,1.3v4.1v4.1H283h-5.6h1.3v-4.1l1.3-1.3l-1.3-9.7h1.3
			h4.1l1.3-1.3L291.5,649.4"/>
	</g>
	<g id="walg_64">
		<path  d="M291.5,734.1v-8.4h-1.3h1.3v-2.8h1.3v-1.3h1.3h1.3h6.9v-1.3h4.1h2.8h4.1h1.3v-1.3h1.3l1.3,1.3l2.8-1.3
			l1.3,1.3l4.1-1.3l4.1,1.3h2.8h1.3v8.4h11.1l-2.8,1.3l-4.1-1.3v2.8h-1.3v2.8h-11.1v2.8l-2.8-1.3v1.3h-1.3h-3.7l-5.6-1.3v1.3h-8.4
			h-1.3h-4.1h-2.8v-1.3h-1.3v1.3h-1.5v-1.3l-1.3,1.3V734.1"/>
	</g>
	<g id="walg_65">
		<path  d="M269.2,738.4v2.8l1.3,1.3l-1.3,1.3h1.3v1.3h-1.3h1.3v2.8h-4.1l-1.3,1.3h-1.3H261v1.3h-2.8h-2.8v1.3H254
			h-1.3v-2.8h-2.8l1.3-1.3h-1.3v-1.3l-1.3-2.8v-1.3l1.3-1.3v-5.6v-1.3l-1.3-1.3l1.3,1.3l1.3-1.3h5.6v-1.3h4.1h4.1h1.3h2.8l1.3,4.1
			h-1.3v1.3l1.3,1.3h-1.3"/>
	</g>
	<g id="walg_66">
		<path  d="M344.4,693.8H343l-1.3-1.3h-2.8l-1.3,1.3h-1.3h-9.7l-1.3-1.3l-11.1,1.3l-6.9-1.3l-1.3,1.3h-1.3h-2.8
			l1.3-1.3l-1.3,1.3v-1.3h-1.3l-1.3-1.3l-2.8,1.3v-1.3v-1.3h1.3V687v1.3l1.3-1.3h1.3v-1.3h1.3l-1.3-1.3l1.3-1.3h14.9l-1.3-1.3h11.1
			v-1.8h39v20.8h-9.7l-5.6-8.4l-1.3,1.3h-4.1"/>
	</g>
	<g id="walg_67">
		<path  d="M267.9,635.4v-5.6h-2.8l1.3-1.3v-2.8v-1.3v-4.1v-2.8v-8.4h5.6l1.3-1.3h5.6v25.1v2.8h-1.3h-1.3l-1.3,1.3
			l-2.8-1.3l-1.3,1.3h-2.8v-1.5"/>
	</g>
	<g id="walg_68">
		<path  d="M294.3,691h1.3v1.3l2.8-1.3l1.3,1.3h1.3v1.3l1.3-1.3l-1.3,1.3h2.8h1.3l1.3-1.3l6.9,1.3l11.1-1.3l1.3,1.3
			h9.7h1.3l1.3-1.3h2.8l1.3,1.3h2.8h2.8l1.3-1.3l4.1,5.6l-1.3,1.3h-2.8v1.3h-7.8l-9.7-1.3h-4.1h-1.3l-1.3,1.3v-1.3h-2.8v1.3
			l-1.3-1.3h-5.6l-1.3,2.8v-1.3h-2.8v1.3l-1.3-1.3v1.3l-2.8,1.3v2.8h-5.6v1.3h-4.1H296v1.3v1.3h-5.6l1.3-4.1l-1.3-2.8l-1.3-9.7h1.3
			v-1.3h4.1V691"/>
	</g>
	<g id="walg_69">
		<path  d="M213.6,681.3v-2.8h4.1v1.3v2.8h-1.3h-1.3L213.6,681.3"/>
	</g>
	<g id="walg_70">
		<path  d="M304.1,714.6v-1.3V712h-1.3l1.3-1.3v-1.3v-2.8h2.8v-3l2.8-1.3v-1.3l1.3,1.3v-1.3h2.8v1.3l1.3-2.8h5.6
			l1.3,1.3v-1.3h2.8v1.3l1.3-1.3h1.3h4.1l9.7,1.3h8.4v-1.3h2.8l1.3-1.3l1.3,2.8h30.6l-11.1,6.9l-1.3,4.1h-6.8l1.3,1.3l-4.1,1.3
			l1.3,2.8l-5.6,2.8l-1.3,1.3l-1.3,1.3l-2.8-2.8l-8.4,8.4h-11.1v-8.4h-1.3h-2.8l-4.1-1.3l-4.1,1.3l-1.3-1.3l-2.8,1.3l-1.3-1.3h-1.3
			v1.3h-5.6H307v-1.3l-1.3-1.3h-1.3v-2.8"/>
	</g>
	<g id="walg_71">
		<path  d="M451.5,567.3V566h-16.7v-4.1h-1.3v-1.3h-1.3v-5.6h-2.8v-4.1h-4.1h-1.3h-1.3h-1.3v-5.6h9.7v1.3h5.6v-15.3
			h-2.8v-9.7h2.8v-6.9h-2.8h-4.1v2.8h-4.1V516h-2.8v-9.7h1.3v-1.3h1.3v-1.3h4.1v-17h9.7h15.3v-4.1h8.4v-1.3h9.7v1.3h2.8v1.3h212.8
			v82.1h-223v2.8h-1.3v2.8h-9.7v1.3l-2.8-4.1h1.3v-1.3v1.3h-1.3V567.3"/>
	</g>
	<g id="walg_72">
		<path  d="M433.4,571.4h-4.1v-1.3h-2.8v1.3h-11.1v-2.8h-6.9v-1.3h-12.5v-4.1h-5.6v-6.9h2.8v-5.6h-5.6v-2.8h-5.6v-1.3
			h-15.2v-6.9h5.6v-8.4h-1.3v-15.3h-2.8v-4.1v-8.4h57v1.3h-1.3v1.3h-1.3v9.7h2.8v1.3h4.1v-2.8h4.1h2.8v6.9h-2.8v9.7h2.8v15.3h-5.6
			v-1.3H421v5.6h1.3h1.3h1.3h4.1v4.1h2.8v5.6h1.3v1.3h1.3v4.1h16.7v1.3v1.3l1.3-1.3v1.3h-1.3l2.8,4.1v5.6h-4.1v2.8h-2.8v1.3H443
			v-1.3h-4v-5.6h-5.6V571.4"/>
	</g>
	<g id="walg_73">
		<path  d="M212.3,691v-1.3h1.3v2.8v1.3l-1.3-1.3V691"/>
		<path  d="M209.5,693.8h1.3l-1.3,1.3l1.3,5.6h-1.3h-1.3v-4.1v-2.8l2.8-2.8l1.3,1.3L209.5,693.8"/>
	</g>
	<g id="walg_74">
		<path  d="M248.4,782.8v-1.3V782.8"/>
		<path  d="M242.8,781.5l-2.8-1.3l-1.3,1.3l-1.3-1.3l-6.9-4.1l-2.8-1.3H222v-1.3l-1.3-2.8l-9.7-8.4l2.8-1.3l1.3-1.3
			l-1.3-1.3l1.3-1.3l1.3-1.3h1.3v-3.2l1.3-1.3h1.3l-1.3-1.3h11.1h1.3l-1.3,1.3h2.8v1.3h4.1v-1.5l2.8-1.3v1.3h1.3l-1.3,1.3h5.6v1.3
			h1.3v1.3l-1.3,4.1l4.1,1.3l1.3,1.3l-1.3,2.8h1.3l-1.3,1.3h1.3l-1.3,1.3v1.3h2.8v2.8l-1.3,1.3v1.3h-1.3v1.3h-1.3v1.3h1.3l1.3,1.3
			v1.3h-2.8v1.3H247l-2.8,1.3v-1.3h-1.3"/>
	</g>
	<g id="walg_75">
		<path  d="M267.9,461.5h-2.8v-2.8h5.6v-2.8h-5.6v-5.6h1.3v-6.9h1.3V442h2.8v-6.9h11.1h2.8v-4.1v-1.3h1.3v-13.9H283
			v-1.5h5.6v-2.8l-8.4-1.3v-5.6h1.3v-5.6h5.6V385v-2.8l-6.9-1.3v-4.1h2.8V374l1.3-1.3v-4.1h-2.8V367h-1.3v-1.5h2.8v-2.8l9.7,1.3
			v-1.3h4.1v-2.8h2.8v1.3h9.7v4.1h13.9v-1.3h1.3v1.3h69.5l-1.3,5.6l-5.6,8.4l-4.1,1.3l-2.8,5.6l-6.9,8.4l-1.3,2.8l-1.3,1.3l-1.3,2.8
			L368,403l1.3,1.3l-2.8,6.9h1.3v4.1l4.1,11.1v1.3h-1.3v1.3l-2.8,4.1v6.9l1.3,8.4l-4.1,9.7l-1.3,1.3l-1.3,4.1l-4.1,6.9v1.3l-8.4,5.6
			v1.3l-1.3,1.3l-2.8,4.1h-1.3l-2.8,3.5l-1.3,5.6l-2.8,1.3l-1.3,8.4h-2.8h-2.8v1.3h-8.4v-2.8h-8.4l1.3-8.4h-9.7h-10.9v-5.5l-1.3-2.8
			h-12.5v-15.3h-5.6v-2.8h-4.1v-6.9L267.9,461.5"/>
	</g>
	<g id="walg_76">
		<path  d="M215.1,673h1.3l1.3,1.3v1.3h-2.8v-1.3h-1.3V673H215.1"/>
	</g>
	<g id="walg_77">
		<path  d="M358.2,546.4h23.6v1.3h5.6v2.8h5.6v5.6h-2.8v6.9h5.6v4.1h12.5v1.3h6.9v2.8h11.1V570h2.8v1.3h4.1v4.1h5.6
			v5.6h4.1v1.3h4.1V581h2.8v-2.8h4.1v-6.9h9.7v-2.8h1.3v-2.8h222.6v45.9h-58.4v-5.5H526.5H408.3h-12.5h-30.6l-52.8-19.5l-2.8-11.1
			v-6.9h9.7v6.9h12.5h5.6l4.1-6.9h11.1l4.1-6.9v-2.8h1.3v-12.5"/>
	</g>
	<g id="walg_78">
		<path  d="M292.9,659.1v-1.3l2.8-1.3l-1.3-2.8v-2.8v-1.3l4.1-1.3l-1.3-1.3h6.9v-1.3h1.3v-1.3l1.3-1.3h5.6v8.4
			l2.8,5.6h1.3h1.3h2.8v2.8h1.3v2.8h-1.3l1.3,2.8h-1.3h-1.3h-12.5v-2.8h-4.1l-6.9,1.3l-1.3-1.3h-1.5V659.1"/>
	</g>
	<g id="walg_79">
		<path  d="M208.1,578.4l-9.7-1.3l-1.3,1.3h-1.3v-13.9h2.8v-1.3h1.3v-1.3h6.9v1.3h1.3v2.8h1.3h2.8v1.3h-1.3v5.6h2.8
			v5.6h-4.1v-1.3L208.1,578.4"/>
	</g>
	<g id="walg_80">
		<path  d="M240,618.7v4.1h1.3v4.1h-5.6h-6.9v4.1H226h-4h-2.8v-5.6v-1.3v-2.8h-1.3V620v-1.3h1.3v-1.3V616h-1.3v-4.1
			v-4.3h8.4h2.8h2.8v-1.5h1.3v1.3h1.3h-1.3v2.8h2.8h2.8v1.3v-1.3h1.3v6.9v1.5"/>
	</g>
	<g id="walg_81">
		<path  d="M219.2,557.6h1.3v-1.3h1.3v-1.3h1.3v1.3h1.3v2.8h2.8v1.3l1.3,1.3h1.3v1.3h4.1v2.8h1.3v2.8h4.1v2.8h-4.1
			v2.8l-9.7,1.3v1.3h-6.9H216v-1.3h-2.8v-2.8h-2.8v-5.6h1.3v-1.3h-2.8h-1.3l1.3-5.6l8.4-1.3v-1.3L219.2,557.6"/>
	</g>
	<g id="walg_82">
	</g>
	<g id="walg_83">
		<path  d="M272,519.9h1.3v-2.8h4.1v-2.8h1.3h2.8v1.3h-1.3v5.6h1.3v-2.8h6.9v1.3h4.1v2.8h1.3v-2.8h4.1v1.3h2.8h2.8
			h4.1h5.6v-1.3h2.8v9.7h2.8v4.1h-6.9v1.3h1.3v4.1l-4.1,1.3v4.1l4.1,1.3v2.8l-4.1,5.6v9.7h-1.3v1.3h-4.1v-2.8H297v-1.3h-1.3v-4.1
			v-1.3h1.3V553h-2.7h-1.5v2.8h-6.9v1.3h-1.3v-2.8l-6.9-1.3v-6.9h-2.8v-2.8h-1.3v-2.8h-2.8v-2.8h-2.8v-3.8h-1.3v-11.1h-1.3h5.6v-2.8
			h-2.8v-2.8h4.1v2.8"/>
	</g>
	<g id="walg_84">
		<path  d="M276.2,604.8v-5.6v-1.3l4.1,1.3h1.3v-1.3v-1.3l-1.3-1.3l-4.1,1.3h-1.3l1.3-2.8l1.3-1.3v-1.3v-1.3v-1.3h1.3
			v-1.3l1.3,1.3l2.8,1.3v-1.3v-1.3h29.2v20.5h-13.9l1.3,13.9h-1.3v1.3h-2.8v1.3h2.8v1.3v2.8H297v1.3v1.3h-1.3l1.3,2.8h-1.3v1.3h-4.1
			v-1.3l-6.9,1.3h-1.3h-1.3h-2.8v-2.8v-25.1h-1.3l-1.3-1.3h1.3L276.2,604.8"/>
	</g>
	<g id="walg_85">
		<path  d="M297.1,623h-1.3h2.8v-1.3h1.3l-1.3-13.9h13.9v11.1v15.3h-2.8v4.1h-2.8v1.3l-2.8-1.3h-1.3l-1.3-1.3v1.3
			h-2.8h-1.3V637H296v-1.3v-1.3h1.3l-1.3-2.8h1.3v-1.3v-1.3h1.3v-2.8v-1.3h-2.8L297.1,623"/>
	</g>
	<g id="walg_86">
		<path  d="M192.8,564.5h-1.3v-2.8h-2.8v-2.8h-1.3h2.8v-1.3v-1.3h-1.3v-1.3v-1.3v-1.3h1.3h-1.3v-1.3l4.1-1.3v-1.3
			l1.3-1.3l-1.3-1.3h1.3l1.3,1.3l1.3-1.3v-1.3h1.3l1.3-1.3l1.3-1.3l1.3-2.8l1.3-1.3h-2.8v-6.9h-3.8v-2.8h1.3v-1.3h-1.3v-2.8h2.8v4.1
			h18l1.3,4.1h-2.8v-1.3h-1.3v15.3h6.9v-2.8h-2.8v-1.3h1.3v-1.3h2.8v-1.3h4.1v2.8h2.8v5.6h1.3v4.1h-4.1v4.1h2.8v2.8h-5.6v-1.3h-1.3
			v-1.3H222v1.3h-1.5v1.3h-2.8v1.3l-8.4,1.3v2.8H208h-1.3v-1.3h-6.9v1.3h-1.3v1.3l-5.6,1.3V564.5"/>
	</g>
	<g id="walg_87">
		<path  d="M227.5,671.5l-1.3-1.3h-1.3h-1.3l-1.3-1.3h1.3l1.3-1.3h4.1v-1.3h2.8v-2.8v1.3v-1.3l2.8-1.3v2.8v1.3h1.3
			l-1.3,1.3v1.3h2.8v4.1h-4.1v1.3h-1.3L227.5,671.5"/>
	</g>
	<g id="walg_88">
		<path  d="M267.9,461.5l2.8-1.3v6.9h4.1v2.8h5.6v9.7h-2.8v5.6H272v-2.8h-1.3v2.8h-1.5v1.3h-1.3v4.1h1.3v11.1v1.3
			h-2.8V499h-6.9v5.6h-6.9v2.8h-1.3v-4.1h-4.1v4.1h1.3v9.7h-5.6v-1.3v-1.3h-4.1v1.3h-2.8v4.1h-1.3v1.3h-6.9v9.7h-1.3v-1.3h-2.8v4.1
			h6.9v1.3h-2.8v1.3h-4.1v2.8h-3v1.3h-1.3v1.3h2.8v2.8h-6.9v-15.3h1.3v1.3h2.8l-1.3-4.1h-18v-4.1h-1.5v-4.1h1.3l1.3-5.6h-4.1h-2.8
			v-1h-1.3v-4.1h1.3v-6.9h2.8v-15.3h4.1v-18h2.8v-9.7h-1.3v-4.1h1.3l2.8-1.3h1.3v-4.1h2.8v-1.3h27.7v-2.8h1.3v-1.3h15.3v2.8h11.1
			v5.6H265v5.6h5.6v2.8H265v2.8h3"/>
	</g>
	<g id="walg_89">
		<path  d="M222,700.7l-1.3-1.3v1.3h-8.4v-1.3h-1.3l-1.3-4.1h1.3h2.8v-1.3v-1.3v-2.8l2.8-1.3v1.3h2.8h1.3h1.3h9.7v6.9
			h-2.8v2.8h1.3v1.3h-1.3v1.3v-1.3h-2.8l-1.3-1.3L222,700.7"/>
	</g>
	<g id="walg_90">
		<path  d="M209.5,762l-2.8-2.8h-1.3l-4.1-2.8h-2.8v-5.6l2.8-1.3l-1.3-2.8h1.3l-1.3-2.8h1.3V741h4.1l4.1-2.8h2.8v-1.3
			h2.8h1.3v1.3h-1.3v1.3l2.8-1.3v1.3l1.3,1.3v1.3l1.3,1.3v4.1h1.3v1.3h-2.8l1.3,1.3h-1.3l-1.3,1.3v2.8h-1.3l-1.3,1.3h-1.3v1.3
			l1.3,1.3l-1.3,1.3L209.5,762"/>
	</g>
	<g id="walg_91">
		<path  d="M305.4,670.2v-1.3l1.3-1.3v-2.8h12.5h1.3h1.3l6.9,6.9h5.6v1.3h1.3v2.8H333l2.8,4.1h-9.7v1.3h-2.8h-8.4
			l1.3,1.3h-15.3v-1.3v-5.6h1.3v-1.3V673h1.3v-1.3h1.3v-1.5"/>
	</g>
	<g id="walg_92">
		<path  d="M263.6,703.5h1.3v1.3v-1.3h2.8h2.8l1.3-1.3h1.3h1.3v1.3h2.8l1.3,2.8l-1.3,2.8h1.3h-1.3v1.3H276v1.3h-2.8
			v1.3v-1.3h-2.5v1.3h-2.8h-1.3h-2.8v1.3h-5.6l1.3-1.3l-1.3-1.3V709h-1.3v-2.8v-2.7h1.3H263.6"/>
		<path  d="M263.6,706.3h1.3H263.6"/>
	</g>
	<g id="walg_93">
		<path  d="M265.1,706.3h-1.3H265.1"/>
	</g>
	<g id="walg_94">
		<path  d="M213.6,671.5v-1.3h1.3v1.3v1.3h-1.3l1.3-1.3H213.6"/>
	</g>
	<g id="walg_95">
		<path  d="M687.8,365.6v118.2H533.4V365.6H687.8"/>
	</g>
	<g id="walg_96">
		<path  d="M234.6,664.6v-2.8h2.8v-1.3v1.3l1.3-1.3v1.3h1.3v-1.3v-1.3l2.8-1.3v-1.5v-1.5h2.8h1.3h1.3h1.3l1.3-1.3v1.3
			h1.3v1.3h1.3l2.8,5.6h-1.3h-1.3h1.3l-1.3,1.3l-1.3,1.3v-1.3h-1.3h-1.3h-1.3l-5.6,2.8H240v1.3l1.3,1.3l-1.3,1.3l-5.6-1.3v-1.3
			l1.3-1.3h-1.3v-1.3"/>
	</g>
	<g id="walg_97">
		<path  d="M141.3,546.4V545h1.3L141.3,546.4"/>
		<path  d="M139.9,545v1.3V545"/>
		<path  d="M146.9,560.2v1.3V560.2"/>
		<path  d="M139.9,546.4V545V546.4"/>
		<path  d="M144.1,554.8v-1.3V554.8"/>
		<path  d="M144.1,556.1h-1.3H144.1"/>
		<path  d="M141.3,546.4h1.3H141.3"/>
		<path  d="M145.4,560.2v1.3V560.2"/>
		<path  d="M135.8,539.4v1.3V539.4"/>
		<path  d="M148.2,564.5v-1.3l1.3-1.3v1.3L148.2,564.5"/>
		<path  d="M139.9,545h1.3H139.9"/>
		<path  d="M138.5,546.4V545h1.3v1.3H138.5"/>
		<path  d="M156.6,531.2l-2.8-6.9l1.3-2.8v-2.8h1.3v-1.3v1.3l-2.8-6.9l-5.6-9.7h4.1v-4.1h5.6v2.8h2.8v1.3h5.6v1.3
			h12.5h6.9h8.4v1.3v2.8h-1.3v4.1h1.3v1.3h2.8h4.1l-1.3,5.6h-1.3v4.1h-2.8v4.1h-6.9l-1.3,8.4H186v1.3h-8.4v1.3l1.3,1.3v2.8l-2.8,2.8
			h-1.3v1.3h-1.5v1.3h-2.8v1.3l-4.1-5.6l-1.3-2.8l-2.8-2.8l-2.8-2.8l-2.8-2.8L156.6,531.2"/>
	</g>
	<g id="walg_98">
		<path  d="M291.5,649.4V648v-1.3v-1.3h1.3v-2.8v-1.3l1.3-1.3l4.1-1.3h2.8v-1.3l1.3,1.3h1.3l2.8,1.3v-1.3h2.8v-4.1
			h2.8v8.4h-5.6l-1.3,1.3v1.3h-1.3v1.3H297l1.3,1.3l-1.3,1.3l-4.1-1.3L291.5,649.4"/>
	</g>
	<g id="walg_99">
	</g>
	<g id="walg_100">
		<path  d="M241.5,567.3v-5.6h2.8v-1.3h8.4v2.8h2.8v4.1h4.1v2.8v1.3h4.1v2.8h-4.1v6.9h1.3v11.1h-8.4h-2.8l1.3,1.3
			l1.3,1.3l-2.8,1.3h1.3h-1.3l-1.3,1.3h-8.4h-1.3h-4.1h-1.3v-1.3v-2.8h-2.8v-1.3h-1.3h-1.3l-1.3-4.1v-1.3v-1.3H225V584h-3v-2.8h-1.5
			v-1.3h-1.3v-2.8h6.9v-1.3l9.7-1.3v-2.8h4.1l-1.3-4.1h2.8"/>
	</g>
	<g id="walg_101">
		<path  d="M216.4,671.5h-1.3l1.3-1.3h1.3v1.3H216.4"/>
	</g>
	<g id="walg_102">
		<path  d="M274.8,688.2h1.3l1.3,2.8h1.3v2.8h-1.3v1.3l-5.6-1.3l-1.3,1.3h-1.3v-1.3h-6.9H261l-2.8,1.3l-2.8,1.3H254
			l1.3-2.8l-4.1-4.1l1.3-1.3l2.8,1.3l1.3-1.3v1.3h2.8l2.8-1.3l2.8-1.3h6.9h1.3L274.8,688.2"/>
	</g>
	<g id="walg_103">
		<path  d="M283.1,774.5h-8.4v-2.8h-4h-1.5h-16.7v-2.8h-2.8v-1.3l1.3-1.3h-1.3l1.3-1.3l1.3-1.3v-1.3h1.3V761h9.7h1.3
			h1.3h1.3h2.8v1.3h2.8V761h1.3l1.3-1.3h4.1h27.7l-1.3,1.3l-1.3,1.3v1.3l-4.1,1.3v4.1h-4.1l-1.3-1.3h-1l-1.3,1.3v2.8h-1.3h-1.3v1.3
			H289v1.3L283.1,774.5"/>
	</g>
	<g id="walg_104">
		<path  d="M292.9,258.6h-1.3H292.9"/>
		<path  d="M301.3,255.7v-1.3V255.7"/>
		<path  d="M309.5,252.9h1.3H309.5"/>
		<path  d="M333.3,226.5v1.3V226.5"/>
		<path  d="M284.6,262.7h1.3H284.6"/>
		<path  d="M290,258.6h1.3H290"/>
		<path  d="M288.7,261.4V260V261.4"/>
		<path  d="M312.3,254.3v-1.3V254.3"/>
		<path  d="M302.6,255.7l1.3-1.3v1.3v-1.3l1.3,1.3v-1.3h-1.3h2.8h-1.3l1.3,1.3v-1.3v1.3v-1.3h1.3v1.3v-1.3h1.3h1.3
			h1.3v-1.3l1.3,1.3v-1.3H312h1.3v1.3h1.3h1.3l-2.8-1.3h1.3h1.3l1.3,1.3h-0.7h1.3v-1.3l2.8-1.3l2.8,1.3v-1.3v1.3h1.3v-1.3l-1.3,1.3
			v-1.3v-1.3h1.3v1.3v-1.3l1.3-2.8l1.3-1.3l1.3-2.8h2.8l1.3-2.8h1.3v1.3l1.3,1.3h1.3l-1.3-1.3v-1.3h1.3h1.3l4.1,1.3h1.3l1.3,1.3
			l1.3-1.3l1.3,1.3v12.5h-4.1v6.9h-15.3v1.3h-2.8v6.9h-2.8v4.1h-4.1v6.9h2.8l1.3,1.3v2.8l2.8,5.6h5.6v6.9h2.8v2.8h1.3v5.6h-4.1v2.8
			h-2.8l1.3,4.1h-9.7v-1.3h-5.6v-5.6h-2.8v-1.3h1.3v-2.8h-1.3v-1.3h-5.6v1.3h-4.1v-2.8h-1.3v-2.8h1.3v-1.3h-1.3v-4.1h-1.3v2.8h-2.8
			v-1.6v-2.8h1.3v-1.3h-2.8v-2.8h-0.3v-5.6h6.9v-6.9h-1.3v-1.3v-1.3h-1.3l-1.3,1.3l-3-1.3h-2.8V267h-5.6v-1.3l2.8-1.3V263h1.3h-1.3
			l1.3-1.3v1.3h1.3H290l1.3-1.3v1.3v-1.3l1.3,1.3v-1.3h-1.3l1.3-1.3l-1.3,1.3v-2.8v1.3h1.3h-1.3l2.8-1.3l1.3-1.3l1.3-1.3l2.8-1.3
			h1.3h-1.3h1.3v1.3l-1.3-1.3l1.3,1.3h-1.3h1.3v1.3v-1.3h1.6"/>
	</g>
	<g id="walg_105">
		<path  d="M263.6,673l-2.8-1.3v-1.3l1.3-1.3l1.3-1.3l-1.3-1.3h1.3l2.8-1.3v1.3l1.3,1.3l4.1-1.3h1.3h1.3l1.3,1.3
			l5.6-1.3v4.1l1.3,2.8v2.8l-1.3,1.3v1.3H280v1.3h-2.8h-4.1v1.3l-3.8-1.5v1.3h-1.3h-1.3v-4.1h-1.3l1.3-1.3v-1.3L263.6,673"/>
	</g>
	<g id="walg_106">
		<path  d="M363.8,743.8h-4.1h-1.3v1.3h-1.3l-1.3,1.3l-2.8,1.3l-2.8,1.3l1.3,1.3l-2.8,1.3l-1.3,2.8v-16.7l-1.3-1.3
			l-1.3-1.3h1.3v-1.3l2.8-5.6L346,727l8.4-6.9l2.8,2.8l1.3-1.3l1.3-1.3l5.6-2.8l-1.3-2.8l4.1-1.3l-1.3-1.3h1.3l5.6,1.3l8.4,2.8
			l1.3,1.3l6.9-1.3l2.8,1.3v5.6H392l2.8,5.6v1.3l2.8,4.1l-1.3,1.3l-1.3,2.8v1.3h-8.4l-1.3,1.3h1.3l-5.6,2.8l-6.9-1.3h-4.1l-2.8-1.3
			l-1.3,1.3L363.8,743.8"/>
	</g>
	<g id="walg_107">
		<path  d="M210.8,681.3l-1.3-2.8L210.8,681.3"/>
		<path  d="M212.3,688.2v-2.8v-1.3h-1.3v-1.3h1.3l1.3-1.3l1.3,1.3h1.3h1.3l-2.8,4.1h1.3v1.3v1.3H212v-1.3"/>
	</g>
	<g id="walg_108">
		<path  d="M205.3,265.5v-1.3V265.5"/>
		<path  d="M274.8,269.6h-1.3H274.8"/>
		<path  d="M206.7,258.6v-1.3V258.6"/>
		<path  d="M281.8,264v1.3V264"/>
		<path  d="M206.7,265.5v-1.3V265.5"/>
		<path  d="M242.8,268.3V267V268.3"/>
		<path  d="M228.9,272.4v-1.3V272.4"/>
		<path  d="M213.6,282.2h1.3H213.6"/>
		<path  d="M277.6,266.8h1.3H277.6"/>
		<path  d="M241.5,259.9v-1.3V259.9"/>
		<path  d="M206.7,257.1h1.3H206.7"/>
		<path  d="M220.5,276.6h1.3H220.5"/>
		<path  d="M215.1,280.8h1.3H215.1"/>
		<path  d="M244.3,265.5h1.3H244.3"/>
		<path  d="M245.6,259.9v1.3V259.9"/>
		<path  d="M206.7,265.5h-1.3l1.3-1.3V265.5"/>
		<path  d="M245.6,261.4h1.3H245.6"/>
		<path  d="M263.6,261.4v1.3V261.4"/>
		<path  d="M205.3,257.1v1.3V257.1"/>
		<path  d="M223.3,275.2v-1.3V275.2"/>
		<path  d="M281.8,265.5v-1.3V265.5"/>
		<path  d="M245.6,266.8v-1.3V266.8"/>
		<path  d="M205.3,255.7v1.3V255.7"/>
		<path  d="M216.4,278v1.3V278"/>
		<path  d="M227.5,275.2l1.3,1.3L227.5,275.2"/>
		<path  d="M245.6,262.7l-1.3-1.3h1.3V262.7"/>
		<path  d="M256.7,257.1v1.3V257.1"/>
		<path  d="M205.3,257.1H204H205.3"/>
		<path  d="M203.9,255.7l1.3-1.3v1.3H203.9"/>
		<path  d="M237.2,265.5h1.3H237.2"/>
		<path  d="M227.5,275.2v1.3V275.2"/>
		<path  d="M251.2,257.1h1.3l-1.3,1.3V257.1"/>
		<path  d="M247,259.9v1.3h-1.3L247,259.9"/>
		<path  d="M245.6,265.5h1.3H245.6"/>
		<path  d="M217.7,275.2v1.3V275.2"/>
		<path  d="M261,258.6v-1.3V258.6"/>
		<path  d="M259.5,265.5l1.3-1.3L259.5,265.5"/>
		<path  d="M206.7,257.1l-1.3-1.3L206.7,257.1"/>
		<path  d="M206.7,291.9h1.3v1.3h-2.8L206.7,291.9"/>
		<path  d="M251.2,258.6l1.3-1.3L251.2,258.6"/>
		<path  d="M249.8,259.9l1.3-1.3v2.8L249.8,259.9"/>
		<path  d="M244.3,264h1.3l1.3-1.3l-1.3,1.3H244.3"/>
		<path  d="M205.3,257.1v1.3v1.3v-1.3v1.3v-1.3v1.3v-1.3V257.1"/>
		<path  d="M244.3,258.6l-1.3,1.3v-1.3H244.3"/>
		<path  d="M283.1,265.5v-1.3h1.3v1.3H283.1"/>
		<path  d="M255.4,257.1l-2.8-1.3l-1.3-1.3l5.6,2.8h-1.5"/>
		<path  d="M244.3,262.7l1.3-1.3l-1.3,2.8H243L244.3,262.7"/>
		<path  d="M245.6,266.8l-2.8,1.3v-1.3h1.3H245.6"/>
		<path  d="M240,262.7l1.3,1.3v-1.3h1.3h-1.3v1.3h-2.8v-1.3H240"/>
		<path  d="M252.6,258.6l1.3-1.3L252.6,258.6v1.3h1.3l-2.8,1.3L252.6,258.6"/>
		<path  d="M230.3,273.8h1.3h1.3l1.3-1.3l1.3-1.3v1.3l1.3-1.3l1.3,1.3h1.3h-1.3l-1.3-1.3l1.3,1.3v-1.3h1.3v-1.5
			l1.3,1.3l-1.3-1.3h1.3h-1.3l2.8-1.3v1.3h1.3l-1.3-1.3h1.3V267v2.8v-1.3v1.3v-1.3h1.3l1.3,1.3v-1.3h-0.7h1.3v-1.3l-1.3,1.3v-1.3
			h1.3l1.3-1.3l1.3-1.3h-1.3l2.8-1.3h-1.3l1.3-1.3h1.3l-1.3,1.3l-1.3,4.1l1.3-1.3v1.3l1.3,1.3h2.8h1.3h-1.3l1.3-1.3h-1.3h1.3h1.3
			l-1.3-1.3h1.3h1.3l1.3-1.3v1.3h1.3l1.3-2.8l1.3,1.3h-1.3v1.3v1.3h1.3l-1.3-1.3h1.3l-1.3,1.3h1.3h1.3l-1.3,1.3l1.3-1.3h-1.3h1.3
			l1.3,1.3h1.3h-1.3h1.3h1.3v1.3h-0.6h1.3h-1.3h1.3v-1.3l1.3,1.3v-1.3h1.3v1.3v-1.3v1.3h1.3l-1.3-1.3l4.1-1.3v1.3v-1.3h1.3l1.3-1.3
			v1.3h1.3v1.3v-1.3v-1.3v1.3v-1.3l1.3,1.3l2.8-1.3v1.3h5.6v4.1h2.8l2.8,1.3l1.3-1.3h1.3v1.3v1.3h1.3v6.9h-6.3v5.6h1.3v15.3h1.3v2.8
			h-4.1v-9.9h-1.3v-2.8h-8.4v-8.4h-5.6v5.6H265v-2.8h2.8V285h-4.1v1.3h-2.8V285h1.3v-1.3H258v1.3h-6.9v5.6h-12.5v-1.3h-11.1v2.8
			h-1.3v5.6H222v1.3h-1.5v-4.3l-2.8-1.3H208v-1.3h-1.3h1.3h-1.3l1.3-1.3v1.3v-1.3h1.3H208l1.3-1.3v1.3v-1.3h1.3v-1.3v1.3l1.3-1.3
			h1.3h1.3v-1.3v1.3v-1.3v1.3l1.3-1.3h-1.3h1.3v-1.3v-1.3h1.3v-1.3l1.3-1.3v1.3l2.8-2.8l2.8-1.3v1.3h1.3v-1.3h1.3l1.3-1.3v-2.8h2.1
			h-1.3v-1.3h1.3h1.3L230.3,273.8"/>
		<path  d="M266.4,268.3V267V268.3"/>
	</g>
	<g id="walg_109">
		<path  d="M312.3,535.3v-1.5h6.9v-4.1h-2.8v-4.1v-4.1h4.1v-4.1l-2.8,1.3v-12.5h5.6v-1.3h6.9v-1.3h2.8h2.8l1.3-1.3
			h12.5v1.3h18v8.4v4.1h2.8v15.3h1.3v8.4h-5.3v6.9h-8.4v12.5h-1.3v2.8l-4.1,6.9h-11.2l-4.1,6.9h-5.6h-12.5v-6.9h-9.7v6.9l2.8,11.1
			h-20.8v-9.7h-1.3v-1.3h-1.3h-2.8v-6.9h5.6h5.6v1.3h2.8v-1.3h4.1v-2.8h4.1v-1.3h1.3v-9.7l4.1-5.6v-2.8l-4.1-1.3v-4.1l4.1-1.3v-4.6
			H312.3"/>
	</g>
	<g id="walg_110">
		<path  d="M217.7,682.7v-4.3h2.8v1.3v-1.3h1.3l1.3,1.3h2.8v2.8h2.8l2.8,4.1v2.8H222h-1.5h-1.3h-2.8v-2.8h-1.3
			L217.7,682.7"/>
	</g>
	<g id="walg_111">
		<path  d="M131.5,468.6h1.3H131.5"/>
		<path  d="M145.4,457.4v1.3V457.4"/>
		<path  d="M159.4,460.2h-1.3H159.4h-1.3H159.4"/>
		<path  d="M145.4,472.7v1.3V472.7"/>
		<path  d="M145.4,451.9v1.3V451.9"/>
		<path  d="M145.4,456h1.3H145.4"/>
		<path  d="M139.9,461.5v1.3V461.5"/>
		<path  d="M139.9,461.5v-1.3V461.5"/>
		<path  d="M139.9,460.2v-1.3V460.2"/>
		<path  d="M145.4,469.9v1.3V469.9"/>
		<path  d="M145.4,460.2v-1.3V460.2"/>
		<path  d="M145.4,458.8l-1.3-1.3h1.3V458.8"/>
		<path  d="M141.3,476.8h1.3H141.3"/>
		<path  d="M146.9,451.9v1.3h-1.3v-2.8h1.3V451.9"/>
		<path  d="M114.9,453.2l-1.3-4.1l-1.3-5.6v-2.8l1.3-1.3h1.3v2.8l1.3,1.3l1.3,5.6l1.3,2.8l-1.3,1.3h2.8l-1.3,1.3v1.3
			h1.3l-1.3-1.3l1.3,1.3l1.3,1.3v1.3l1.3,2.8l-1.3,1.3v-1.2h-1.3l-1.3-2.8l-2.8-4.1L114.9,453.2"/>
		<path  d="M124.6,465.8v-6.9v-1.3v2.8l1.3,1.3v8.4h1.3v1.3h1.3v1.3v-1.3l-1.3-2.8h-1.2l1.3-4.1h1.3v-3l-1.3-1.3v-2.8
			l1.3,4.1l1.3,1.3v1.3l1.3,5.6h1.3v1.3h-1.3l1.3,1.3h-1.3v1.3h1.3v-1.3v-1.3v-1.3v-1.3h-1.3h1.3v-1.3l1.3,5.6v1.3v1.3v2.8l1.3,1.3
			v-1.3v-2.8v1.3h1.3v-2.8v4.1v1.3V478h1.3v2.8h1.3H138l1.3-1.3H138v-1.3l2.8,1.3v-1.3l1.3,1.3l1.3-1.3l1.3-2.8V474v-2.8v-1.3
			l-2.8-4.1h-4.1v-1.3l-1.3-2.8l-1.3-1.3l-1.3-4.1l-1.3-1.3v-1.3v-1.3l-2.8-1.3l1.3-1.3l-1.3-1.3h1.3h-1.3l1.3-1.3h-1.3v1.3v1.3h1.3
			h-1.3h1.3l-2.8-1.3l1.3-4.1l2.8-4.1v4.1l1.3,1.3l1.3-1.3v4.1l2.8,2.8h1.3v2.8h1.3l-1.3,2.8l1.3,1.3l-1.3,1.3v2.8v2.8h1.3h1.3
			l1.3-1.3v-2.1v1.3v-1.3h1.3v-1.3v-1.3V456h1.3v1.3v1.3v2.8l1.3,1.3v1.3v1.3v1.3l1.3,2.8l2.8,2.8v1.3l5.6-4.1l1.3-2.8l-1.3-1.3
			l-1.3-1.3l1.3-2.8v1.3h1.3h2.8v-5.6h15.3v-2.8h2.8v-1.3h5.6v-4.1h9.7v4.1h1.3v1.3h5.6v2.8h1.3v6.9v2.8H200v18h-3.1v15.3h-2.8v2.8
			h-8.4h-6.9h-12.5v-1.3h-5.6v-1.3h-2.8v-2.8h-5.6v4.1h-4l-5.6-11.1l-6.9-9.7l-11.1-9.7h1.3l-1.3-2.8l-4.1-5.6h1.3l1.3,1.3
			L124.6,465.8"/>
	</g>
	<g id="walg_112">
		<path  d="M216.4,673v-1.3h1.3v1.3l-1.3,1.3V673"/>
	</g>
	<g id="walg_113">
		<path  d="M216.4,670.2h-1.3h-1.3v-2.8h4.1v2.8H216.4"/>
	</g>
	<g id="walg_114">
		<path  d="M215.1,671.5v-1.3h1.3L215.1,671.5h1.3H215.1"/>
	</g>
	<g id="walg_115">
		<path  d="M219.2,668.7v-1.3h-1.3V659h4.1l1.3-1.3h6.9v2.8h1.3l1.3,1.3l-1.3,1.3v2.8h-2.8v1.3h-4.1l-1.3,1.3H222
			l1.3,1.3H222h-1.5v-1.3h-1.3"/>
	</g>
	<g id="walg_116">
		<path  d="M270.7,664.6v-1.3v-2.8v-2.8h1.3l-1.3-4.1h1.3h-1.3v-1.3h2.8l1.3-1.3h5.6h-1.3v1.3h1.3v8.4l-1.3,1.3v4.1
			h-1.3v1.3H275v-1.3h-1.3h-1.3L270.7,664.6"/>
	</g>
	<g id="walg_117">
		<path  d="M215.1,586.8v-1.3h-1.3l-1.3,4.1l1.3,1.3h-19.5l1.3-12.5h1.3l1.3-1.3h8.4v1.3l2.8-1.3v1.3h4.1v-2.8h2.8
			v1.3h2.8v2.8h1.3v1.3h1.3v2.8h-2.8v1.3h-1.3L215.1,586.8"/>
	</g>
	<g id="walg_118">
		<path  d="M227.5,649.4h2.8v-4.1h4.1l1.3,2.8l1.3-1.3l1.3,1.3l1.3-1.3v1.3l1.3-1.3l1.3,1.3l1.3-1.3l-1.3,4.1l1.3,2.8
			l-1.3,2.8v1.3l-2.8,1.3v1.3v1.3h-1.3v-1.3l-1.3,1.3v-1.3v1.3h-5.6v-1.3H230v-2.8h-2.8v-1.3v-6.9"/>
	</g>
	<g id="walg_119">
		<path  d="M292.9,635.4h2.8v1.3h1.3v1.3l-2.8,2.8v1.3l-1.3-1.3v1.3v2.8h-1.3v1.3v1.3v1.3h-5.6l-1.3,1.3h-2.8h-1.3
			v-2.8h-1.3l1.3-8.4v-1.3l-1.3-1.3h1.3v-1.3h2.8h1.3h4.1v-1.3h2.8v1.3h1.3"/>
	</g>
	<g id="walg_120">
		<path  d="M255.4,378.1h4.1h20.8v2.8l6.9,1.3v2.8v13.9h-5.6v5.6h-1.3v5.6l8.4,1.3v2.8h-5.6v1.3h2.8v13.9h-1.3v1.3
			v4.1h-2.8h-11.1v6.9h-2.8v1.3h-1.3v1.3h-11.1v-2.8h-15.3v1.3h-1.3v2.8h-27.7v1.3h-2.8v4.1H207l-2.8,1.3h-1.3v1.3h-5.9v-1.3h-1.3
			v-4.1h-9.7v-6.9h-1.3v-8.4h-5.6v-1.3h2.8V429h-2.8v-9.7h1.3v-1.3h9.7v-1.3h1.3v-2.4h1.3v-5.6h-1.3v-2.8h-5.6v-11.1l4.1-1.3v-2.8
			l4.1-1.3v4.1h5.6v1.3h2.8V392h1.3l-1.3-5.6H201v-4.1v-2.8v-1.3h1.3h4.1V374h4.1v2.8h1.3v2.8h1.3v1.3h4.1h2.8v-11.1h4.1v1.3h1.3
			v1.3h2.8h4.1v-1.3h6.9v-2.8h2.8v1.3h9.7v8.4L255.4,378.1"/>
	</g>
	<g id="walg_121">
		<path  d="M219.2,671.5l-1.3,1.3V670L219.2,671.5"/>
	</g>
	<g id="walg_122">
		<path  d="M235.9,627.1h2.8l-1.3,4.1l1.3,1.3h2.8v2.8h1.3v2.8h1.3l-1.3,1.3l1.3,1.3v1.3h-1.3l1.3,2.8v1.3l-1.3,1.3
			l-1.3-1.3l-1.3,1.3v-1.3l-1.3,1.3l-1.3-1.3l-1.3,1.3l-1.3-2.8h-4.1v-1.3v-4.1h-6.9h-3.2l-1.3-8.4h2.8h4.1h2.8v-4.1h6.9"/>
	</g>
	<g id="walg_123">
		<path  d="M216.4,670.2h-1.3h2.8H216.4"/>
	</g>
	<g id="walg_124">
		<path  d="M270.7,724.3h-1.5l-1.3,1.3h-1.3v1.3H261v-1.3v-1.3h1.3H261V723v-5.6v-2.8l2.8-1.3h2.8h1.3h2.8V712h2.8
			v1.3V712h2.8v-1.3h1.3v-1.3l5.6,1.3l-1.3,1.3v1.3h-1.3v1.3h1.3l-1.3,1.3l1.3,2.8h-1.3v2.8v1.3h-2.8h-1.3h-1.3h-1.3v1.3l-1.3-1.3
			v1.3h-1.8"/>
	</g>
	<g id="walg_125">
		<path  d="M241.5,697.9l-6.9-6.9h-2.8v-4.1l-2.8-4.1l1.3-1.3h5.6v4.1h5.6v4.1h9.7l4.1,4.1l-1.3,2.8l1.3,2.8l-4.1,1.3
			h-1.3v1.3l-4.1-1.3v1.3v-1.3H243L241.5,697.9"/>
	</g>
	<g id="walg_126">
		<path  d="M213.6,661.8h-2.8v-1.3l-4.1-6.9h2.8h1.3h5.6v5.6h1.3v8.4h-2.8v-1.3v-1.3L213.6,661.8"/>
	</g>
	<g id="walg_127">
		<path  d="M223.3,706.3h-5.6h-2.8h-1.3h-4.1l-1.3-5.6h1.3h2.8h1.3h1.3h5.6v-1.3l1.3,1.3v-1.3h2.8l1.3,1.3h2.8v5.6
			h-1.3H223.3"/>
	</g>
	<g id="walg_128">
		<path  d="M231.7,727.2h1.3l1.3-1.3l1.3-1.3v-4.1h2.8h2.8V719l1.3,1.3l4.1-1.3v-1.3h5.6v-1.3h1.3h1.3l5.6-1.3v2.8
			v5.6v1.3h1.3h-1.3v1.3l-1.3,1.3v-1.3l-1.3,1.3l-1.3-1.3v6.9h-5.6l-1.3,1.3l-1.3-1.3h-1.3v1.3h-2.8v-1.3h-5.6v-1.3l-1.3-1.3H236
			l-2.8-1.3L231.7,727.2"/>
	</g>
	<g id="walg_129">
		<path  d="M312.3,647.9v-36.2v-2.8l8.4,13.9v4.1h1.3v1.3h-1.3h1.3v1.3h2.8l1.3,1.3h1.3v2.8h-1.3v1.3h-1.3v4.1h-1.3
			v1.3v1.3h-1.3v2.8h-1.3v1.3v1.3v1.3v6.9h-3h-1.5h-1.3l-2.8-5.6V647.9"/>
	</g>
	<g id="walg_130">
		<path  d="M287.4,710.5l-9.7-1.3v-5.6h-2.8v-1.3h-1.3h-1.3h-1.5v-2.8l1.3-1.3l-1.3-2.8l1.3-1.3l5.6,1.3v-1.3h1.3
			v-1.3h1.3v1.3h2.8h1.3h1.3h2.8l2.8,13.9l-1.3,2.8l-1.3,1.3h-1.3L287.4,710.5"/>
	</g>
	<g id="walg_131">
		<path  d="M242.8,710.5v-1.3h1.3v-1.3V705h1.3v-1.5v-2.8l4.1,1.3v-1.3h1.3l4.1-1.3l1.3,6.9v2.8h1.3v2.8l1.3,1.3
			l-1.3,2.8h-4.1h-1.3v1.3h-5.6v1.3l-4.1,1.3l-1.3-1.3v1.3h-2.8h-2.8l1.3-4.1v-4.1h1.3v-1.3l2.8,1.3v-1.3L242.8,710.5"/>
	</g>
	<g id="walg_132">
		<path  d="M369.5,449.1l-1.3-8.4v-6.9l2.8-4.1l1.3-1.3l-4.1-12.5v-4.1h-1.5l2.8-6.9l-1.3-1.3l1.3-1.3l1.3-2.8
			l1.3-1.3l1.3-2.8l6.9-8.4l2.8-5.6h1.3l2.8-1.3l1.3-4.1h12.5v-10h132.2v118.2H475v-1.3h-2.8v-1.3h-9.6v1.3h-8.4v4.1H439h-9.7v16.7
			H350v-1.3h-12.5v-2.8V495l2.8-1.3l1.3-5.6l2.8-2.8h1.3l2.8-4.1l1.3-1.3v-1.3l8.4-5.6v-1.3l4.1-6.9l1.3-4.1l1.3-1.3L369.5,449.1"/>
	</g>
	<g id="walg_133">
		<path  d="M259.5,618.7h2.8v-1.3h4.1v6.9v1.3v2.8l-1.3,1.3h-5.6v2.8h-1.3v1.3h-1.3l-1.3,1.3h-5.6l-1.3,1.3l-1.3-1.3
			v1.3h-1.6h-2.8v-1.3h-1.3v-2.8h-2.8l-1.3-1.3l1.3-4.1h2.8v-4.1h-1.3v-4.1h6.9v1.3h1.3l4.1-1.3h1.3h1.3L259.5,618.7"/>
	</g>
	<g id="walg_134">
		<path  d="M259.5,727.2l1.3-1.3v1.3h1.3h4.1v-1.3h1.3l1.3-1.3h2.8v-1.3l1.3,1.3v-1.3h1.3h1.3h1.3h2.8h1.3v1.3h1.3
			l-1.3,1.3h-1.3v1.3h-1.3l-1.3,1.3h-1.3v1.3h-1.3v1.3h-1.3h-6.9H265h-4.1h-4.1v-5.6l1.3,1.3l1.3-1.3v1.6"/>
	</g>
	<g id="walg_135">
		<path  d="M270.7,635.4h1.3h1.3l1.3,1.3l1.3-1.3h1.3h2.8v1.3h-1.3l1.3,1.3v1.3l-1.3,8.4h1.3v2.8h1.3h-6.9l-1.3,1.3
			h-4v-1.3h-1.3v-2.8v-1.3h-1.3l1.3-1.3v-1.3h-1.3V641v-1.3v-2.8h4.1V635.4"/>
	</g>
	<g id="walg_136">
		<path  d="M529.3,77.8v-1.5V77.8"/>
		<path  d="M548.8,74.9v-1.3V74.9"/>
		<path  d="M557.2,68h-1.3H557.2"/>
		<path  d="M526.5,68v-1.3V68"/>
		<path  d="M610,24.9v-1.3V24.9"/>
		<path  d="M554.4,48.5v-1.3V48.5"/>
		<path  d="M633.6,29v-1.3V29"/>
		<path  d="M519.6,73.5h-1.3H519.6"/>
		<path  d="M532.1,79.1v-1.3V79.1"/>
		<path  d="M551.6,56.8h-1.3H551.6"/>
		<path  d="M552.9,83.2v-1.3V83.2"/>
		<path  d="M586.4,16.5h-1.3H586.4"/>
		<path  d="M591.9,26.2v-1.3V26.2"/>
		<path  d="M526.5,97.2v-1.3V97.2"/>
		<path  d="M548.8,49.9h-1.3H548.8"/>
		<path  d="M555.7,68h1.3H555.7"/>
		<path  d="M521,74.9h-1.3H521"/>
		<path  d="M646.2,40.1h1.3H646.2"/>
		<path  d="M548.8,47.1v1.3V47.1"/>
		<path  d="M543.2,70.8h1.3H543.2"/>
		<path  d="M550.3,66.5v-1.3V66.5"/>
		<path  d="M551.6,44.4v-1.3V44.4"/>
		<path  d="M554.4,49.9h-1.3H554.4"/>
		<path  d="M552.9,47.1h-1.3H552.9"/>
		<path  d="M605.7,24.9h1.3H605.7"/>
		<path  d="M557.2,45.7v-1.3h1.3L557.2,45.7"/>
		<path  d="M522.4,77.8v-1.5V77.8"/>
		<path  d="M532.1,91.6v-1.3V91.6"/>
		<path  d="M525.2,98.6v-1.3V98.6"/>
		<path  d="M548.8,51.3h1.3H548.8"/>
		<path  d="M568.3,41.6v-1.3V41.6"/>
		<path  d="M637.8,31.8v-1.3V31.8"/>
		<path  d="M555.7,63.9h-1.3H555.7"/>
		<path  d="M521,74.9h-1.3H521"/>
		<path  d="M530.8,73.5v-1.3V73.5"/>
		<path  d="M550.3,48.5h1.3H550.3"/>
		<path  d="M551.6,44.4v-1.3V44.4"/>
		<path  d="M555.7,42.9v-1.3V42.9"/>
		<path  d="M611.4,26.2H610H611.4"/>
		<path  d="M555.7,36h1.3H555.7"/>
		<path  d="M550.3,55.5v-1.3V55.5"/>
		<path  d="M546,70.8v-1.3V70.8"/>
		<path  d="M571.1,37.5v-1.3V37.5"/>
		<path  d="M543.2,59.6h-1.3H543.2"/>
		<path  d="M532.1,69.3V68V69.3"/>
		<path  d="M533.4,61.1v-1.3V61.1"/>
		<path  d="M526.5,70.8v-1.3V70.8"/>
		<path  d="M551.6,49.9h-1.3l1.3-1.3V49.9"/>
		<path  d="M557.2,45.7v-1.3V45.7v-1.3V45.7"/>
		<path  d="M550.3,80.6h1.3H550.3"/>
		<path  d="M579.3,38.8H578H579.3"/>
		<path  d="M572.4,30.4h-1.3H572.4"/>
		<path  d="M554.4,63.9h1.3H554.4"/>
		<path  d="M555.7,65.2v-1.3V65.2"/>
		<path  d="M571.1,30.4h1.3H571.1"/>
		<path  d="M575.2,37.5v-1.3V37.5"/>
		<path  d="M541.8,45.7v-1.3V45.7"/>
		<path  d="M525.2,76.3h1.3H525.2"/>
		<path  d="M519.6,73.5v-1.3V73.5"/>
		<path  d="M551.6,44.4v-1.3V44.4"/>
		<path  d="M541.8,45.7h1.3H541.8"/>
		<path  d="M687.8,58.3h-1.3H687.8"/>
		<path  d="M551.6,62.4h1.3H551.6"/>
		<path  d="M552.9,44.4h1.3H552.9"/>
		<path  d="M515.4,95.8v1.3V95.8"/>
		<path  d="M547.4,49.9l1.3-1.3v1.3H547.4"/>
		<path  d="M532.1,69.3V68V69.3"/>
		<path  d="M544.6,52.7h-1.3H544.6"/>
		<path  d="M525.2,76.3h1.3H525.2"/>
		<path  d="M529.3,80.6h1.3H529.3"/>
		<path  d="M530.8,74.9v-1.3V74.9"/>
		<path  d="M680.9,54.1h-1.3H680.9"/>
		<path  d="M521,76.3v-1.3V76.3"/>
		<path  d="M526.5,97.2v-1.3V97.2"/>
		<path  d="M521,94.4v1.3V94.4"/>
		<path  d="M544.6,45.7h1.3H544.6"/>
		<path  d="M552.9,48.5h1.3H552.9"/>
		<path  d="M566.9,31.8v-1.3V31.8"/>
		<path  d="M546,69.3V68V69.3"/>
		<path  d="M544.6,44.4v-1.3V44.4"/>
		<path  d="M637.8,30.4h-1.3H637.8"/>
		<path  d="M526.5,79.1v-1.3V79.1"/>
		<path  d="M552.9,51.3h-1.3V50L552.9,51.3"/>
		<path  d="M655.9,62.4h1.3H655.9"/>
		<path  d="M559.8,47.1h1.3H559.8"/>
		<path  d="M526.5,73.5v-1.3V73.5"/>
		<path  d="M525.2,97.2h1.3H525.2"/>
		<path  d="M539,63.9v-1.3V63.9"/>
		<path  d="M529.3,72.1h1.3H529.3"/>
		<path  d="M573.9,34.7h1.3H573.9"/>
		<path  d="M537.7,63.9v-1.3V63.9"/>
		<path  d="M557.2,45.7v-1.3V45.7"/>
		<path  d="M533.4,61.1v-1.3V61.1"/>
		<path  d="M611.4,26.2v-1.3V26.2"/>
		<path  d="M601.6,34.7v-1.3V34.7"/>
		<path  d="M612.8,26.2h-1.3H612.8"/>
		<path  d="M572.4,33.2v-1.3V33.2"/>
		<path  d="M557.2,47.1h-1.3H557.2"/>
		<path  d="M643.4,36h-1.3H643.4"/>
		<path  d="M558.5,66.5v1.3V66.5"/>
		<path  d="M526.5,79.1v-1.3V79.1"/>
		<path  d="M539,62.4v-1.3V62.4"/>
		<path  d="M522.4,74.9h1.3H522.4"/>
		<path  d="M541.8,59.6v-1.3V59.6"/>
		<path  d="M548.8,54.1h1.3H548.8"/>
		<path  d="M571.1,40.1l-1.3-1.3h1.3V40.1"/>
		<path  d="M526.5,69.3v1.3V69.3"/>
		<path  d="M521,76.3v-1.3V76.3"/>
		<path  d="M540.5,59.6v1.3V59.6"/>
		<path  d="M544.6,77.8h1.3H544.6"/>
		<path  d="M551.6,59.6v1.3V59.6"/>
		<path  d="M540.5,72.1h1.3H540.5"/>
		<path  d="M519.6,76.3v-1.3V76.3"/>
		<path  d="M564.1,30.4h1.3H564.1"/>
		<path  d="M550.3,51.3V50V51.3"/>
		<path  d="M544.6,73.5h1.3v1.3L544.6,73.5"/>
		<path  d="M532.1,69.3V68V69.3"/>
		<path  d="M590.5,33.2l1.3-1.3v1.3H590.5"/>
		<path  d="M516.7,73.5v1.3V73.5"/>
		<path  d="M557.2,66.5v-1.3V66.5"/>
		<path  d="M515.4,74.9h1.3H515.4"/>
		<path  d="M562.6,44.4v1.3V44.4"/>
		<path  d="M559.8,47.1h1.3H559.8"/>
		<path  d="M544.6,70.8v-1.3h1.3L544.6,70.8"/>
		<path  d="M539,74.9h1.3H539"/>
		<path  d="M515.4,97.2v-1.3V97.2"/>
		<path  d="M601.6,24.9h1.3H601.6"/>
		<path  d="M565.5,40.1v-1.3V40.1"/>
		<path  d="M641.9,36v-1.3V36"/>
		<path  d="M516.7,97.2v-1.3V97.2"/>
		<path  d="M546,73.5h1.3H546"/>
		<path  d="M572.4,33.2v-1.3h1.3L572.4,33.2"/>
		<path  d="M569.6,33.2h-1.3l1.3-1.3V33.2"/>
		<path  d="M533.4,61.1h-1.3H533.4"/>
		<path  d="M569.6,40.1h-1.3H569.6"/>
		<path  d="M590.5,24.9v-1.3l1.3,1.3H590.5"/>
		<path  d="M564.1,42.9h-1.3v-1.3h1.3V42.9"/>
		<path  d="M557.2,65.2h1.3H557.2"/>
		<path  d="M559.8,45.7h1.3H559.8"/>
		<path  d="M551.6,58.3v-1.3V58.3"/>
		<path  d="M558.5,62.4v1.3h-1.3L558.5,62.4"/>
		<path  d="M522.4,72.1v-1.3h1.3v1.3H522.4"/>
		<path  d="M622.6,23.4v-1.3V23.4"/>
		<path  d="M580.8,38.8h-1.3H580.8"/>
		<path  d="M525.2,100v-1.3h1.3L525.2,100"/>
		<path  d="M532.1,91.6v-1.3V91.6"/>
		<path  d="M539,63.9l1.3-1.3v1.3H539"/>
		<path  d="M526.5,70.8v-1.3l1.3,1.3H526.5"/>
		<path  d="M546,54.1v1.3V54.1"/>
		<path  d="M562.6,68h-1.3H562.6"/>
		<path  d="M569.6,31.8v-1.3V31.8"/>
		<path  d="M536.2,63.9l1.3-1.3v1.3H536.2"/>
		<path  d="M530.8,79.1v-1.3V79.1"/>
		<path  d="M605.7,24.9h-1.3H605.7"/>
		<path  d="M536.2,59.6l-1.3,1.3v-1.3H536.2"/>
		<path  d="M537.7,70.8v-1.3V70.8"/>
		<path  d="M646.2,40.1v-1.3V40.1"/>
		<path  d="M554.4,44.4v-1.3V44.4"/>
		<path  d="M551.6,61.1h1.3H551.6"/>
		<path  d="M601.6,34.7v-1.3V34.7"/>
		<path  d="M591.9,22.1v1.3V22.1"/>
		<path  d="M655.9,69.3V68l1.3,1.3H655.9"/>
		<path  d="M530.8,73.5v-1.3h1.3L530.8,73.5"/>
		<path  d="M552.9,62.4l1.3-1.3v1.3H552.9"/>
		<path  d="M555.7,37.5v-1.3V37.5"/>
		<path  d="M566.9,24.9h1.3H566.9"/>
		<path  d="M540.5,73.5h-1.3l1.3-1.3V73.5"/>
		<path  d="M544.6,42.9v-1.3V42.9"/>
		<path  d="M544.6,40.1v1.3h-1.3L544.6,40.1"/>
		<path  d="M552.9,65.2h1.3l-1.3,1.3V65.2"/>
		<path  d="M554.4,47.1v1.3V47.1v1.3V47.1"/>
		<path  d="M543.2,65.2v-1.3V65.2"/>
		<path  d="M580.8,40.1h-1.3H580.8"/>
		<path  d="M543.2,76.3v-1.3h1.3L543.2,76.3"/>
		<path  d="M591.9,24.9v1.3V24.9"/>
		<path  d="M544.6,44.4v1.3V44.4"/>
		<path  d="M586.4,24.9l1.3-1.3v1.3H586.4"/>
		<path  d="M662.9,54.1l1.3-1.3v1.3H662.9"/>
		<path  d="M580.8,34.7h1.3l-1.3,1.3V34.7"/>
		<path  d="M519.6,74.9l1.3-1.3v1.3H519.6"/>
		<path  d="M522.4,76.3H521H522.4"/>
		<path  d="M668.3,58.3l1.3,1.3L668.3,58.3"/>
		<path  d="M610,24.9l1.3,1.3v-1.3l1.3,1.3l-1.3-1.3H610"/>
		<path  d="M561.3,45.7v-1.3h1.3L561.3,45.7"/>
		<path  d="M525.2,97.2v-1.3v-1.3v1.3v2.8V97.2"/>
		<path  d="M594.7,26.2v1.3V26.2"/>
		<path  d="M543.2,65.2l1.3-1.3v1.3l-1.3,1.3V65.2"/>
		<path  d="M532.1,98.6h-2.8l1.3-1.3v1.3v-1.3h1.3v1.3"/>
		<path  d="M647.5,44.4l-1.3-1.3l1.3-1.3v1.3V44.4"/>
		<path  d="M578,40.1l1.3-1.3v1.3H578"/>
		<path  d="M516.7,95.8v1.3l-1.3-1.3H516.7"/>
		<path  d="M552.9,49.9v-1.3l1.3,1.3H552.9h-1.3H552.9"/>
		<path  d="M518.2,73.5h-1.3l2.8-1.3v1.3H518.2"/>
		<path  d="M546,74.9v1.3h-1.3v-1.3l1.3-1.3V74.9"/>
		<path  d="M564.1,44.4l-1.3-1.3l1.3-1.3v1.3V44.4h1.3H564.1"/>
		<path  d="M571.1,42.9v-1.3h1.3h-1.3l1.3,1.3l-1.3,1.3V42.9"/>
		<path  d="M529.3,95.8h1.3l-1.3,1.3H528L529.3,95.8"/>
		<path  d="M580.8,37.5h1.3v1.3h-1.3V37.5"/>
		<path  d="M601.6,23.4h-1.3H599v-1.3L601.6,23.4h1.3H601.6"/>
		<path  d="M537.7,72.1v-1.3l2.8,1.3h-1.3l-1.3,1.3v-1.3"/>
		<path  d="M540.5,62.4v-1.3h1.3v-1.3l1.3,1.3l-1.3,1.3h1.3v1.3h-1.3v-1.3H540.5"/>
		<path  d="M552.9,65.2v1.3h-1.3h-1.3l1.3-1.3h-1.3v-1.3l1.3,1.3H552.9"/>
		<path  d="M523.7,72.1h1.3v1.3h-1.3l-1.3,1.3l-1.3-1.3h1.3L523.7,72.1"/>
		<path  d="M657.3,65.2v-1.3h1.3v2.8l1.3,1.3v1.3l-2.8-1.3v-1.3v-1.5"/>
		<path  d="M548.8,47.1v-1.3V47.1v-1.3l1.3,1.3v-1.3l-1.3-1.3h1.3v-1.3h1.3v1.3h1.3h-1.3h1.3l-1.3,1.3v1.3h1.3
			l-1.3,1.3h1.3h-1.3v1.3v-1.3l-1.3,1.3h-1.3v-1.3V47.1"/>
		<path  d="M528,76.3h-1.3H528h-1.3v1.3h-1.3l1.3-1.3v-1.3l-1.3,1.3v-1.3h1.3v-1.3l1.3,1.3l-1.3-1.3h1.3h-1.3l1.3-1.3
			h1.3V71v1.3v1.3h1.3l-1.3,1.3h1.3v1.3h1.3l-1.3,1.3l-2.8,1.3v-1.2l2.8-1.3h-1.3H528v-1.3V76.3"/>
		<path  d="M558.5,47.1h1.3l-1.3-1.3h1.3v1.3v1.3v1.3l1.3-1.3h-1.3h1.3v-1.3h1.3h-1.3v-1.3h1.3v1.3v-1.3l1.3-1.3v1.3
			h1.3h-1.3v1.3h2.8l-1.3-1.3h1.3l-1.3-1.3l1.3-4.1h-1.3l1.3-1.3l-1.3-1.3l1.3-1.3h-1.3h1.3v-1.3v1.3v-1.3l1.3,1.3v1.3h1.3l1.3-1.3
			v1.3l-1.3,1.3h1.3h-1.3H568l1.3,1.3H568l1.3,4.1l-1.3,4.1v1.3v-1.3l1.3-4.1h2.8l1.3-1.3v1.3l1.3-1.3v1.3h-1.3l1.3,1.3v1.3v1.3h1.3
			l1.3,1.3v-1.3l-1.3-1.3l1.3-1.3h1.3l1.3,1.3v-1.3h1.3v-1.3v-1.3l-1.3-1.3l-1.3-1.3l1.3,1.3l1.3-1.3h1.3v-1.3l-1.3-2.8l1.3-1.3v1.3
			l1.3-1.3l1.3-1.3v-1.3l-1.3-2.8l-1.3,1.3V29l-1.3,1.3l-1.3-1.3l-1.3-1.3l1.3-1.3v1.3V29l1.3-1.3v-1.3h1.3v1.3h1.3l-1.3-1.3h1.3
			h-0.4l-2.8-2.8h1.3l1.3,1.3v-1.3h1.3l-1.3,1.3l1.3-1.3v1.3v-1.3h1.3v1.3h-1.3l1.3,1.3h-1.3v1.3l2.8-1.3l1.3-1.3v1.3h-1.3l-1.3,1.3
			h1.3v-1.3l1.3,1.3l-2.8,1.3h1.3h-1.3v1.3h1.3l1.3-1.3l-1.3,1.3h1.3l-1.3,1.3v1.3h1.3v1.3l1.3,1.3v-1.3h1.3l1.3-1.3l-1.3-1.3v-1.3
			h1.3V29h1.3v-1.3h1.3v-1.3l1.3,1.3l1.3-1.3v-1.3h1.3h1.3l-2.8,2.8v1.3h-1.3v1.3l1.3-1.3h1.3l-1.3,1.3v1.3h2.8v2.8h1.3v-1.3h1.3
			v-2.8V29l1.3,1.3v1.3l1.3-1.3h-0.3l1.3-1.3h1.3l-1.3-1.3h-1.3v-1.3h1.3h1.3h1.3h-1.3h1.3h-1.3h1.3h1.3h1.3l-1.3-2.8l-1.3,1.3v-2.8
			h-1.3l-1.3-2.8h1.3l1.3-1.3v1.3l1.3,1.3v-1.3h1.3l-1.3-1.3h1.3l1.3,1.3V18h1.3v1.3h1.3V18v1.3h1.3l-1.3,1.3h1.3v-1.3v1.3h1.3
			l-1.3,2.8l1.3-1.3l1.3,1.3H619l1.3,1.3v1.3l1.3-1.3v-1.3h1.3v1.3v1.3v-1.3h1.3v-1.3h1.3v1.3h1.3h1.3l-1.3-1.3h1.3l1.3,1.3h1.3
			l1.3,1.3l-1.3,1.3v1.3h1.3v1.3l1.3-1.3v1.3h1.3h-1.3h1.3v1.3h1.3h1.3l1.3,1.3h-1.3h1.3v1.3h1.3l-1.3,1.3h1.3l2.8,2.8l-1.3,1.3
			l1.3-1.3v1.3h1.3v1.3v1.3l1.3,1.3l1.3-1.3v1.3h1.3v1.3v1.3h1.3l2.8,1.3v1.3h1.3h1.3v1.3l1.3,1.3h1.3v1.3v-0.1l-1.3,1.3v1.3
			l1.3,1.3L655,58l-1.3,2.8v4.1v1.3v1.3v2.8v1.3l-1.3,1.3l1.3,2.8l-1.3,4.1h-1.3h-1.3l1.3,1.3l1.3-1.3l2.8-2.8V73l-1.3-1.3l1.3-2.8
			l4.1,4.1l1.3,1.3v4.1l1.3,1.3l-1.3-1.3v-5.6l-1.3-1.3l-1.3-2.8v-1.3v-1.3V62h1.3l1.3-1.3l1.3,2.8l-1.3-2.8l1.3-1.3l1.3,5.6v-2.8
			l1.3,1.3l-1.3-2.8v-2.8l2.8,4.1l-1.3-4.1l4.1,4.1v1.3v-2.8l-1.3-1.3v-1.3l-1.3-1.3h-2.8l1.3-1.3h1.3h1.3h1.3v-1h1.3l1.3,1.3h1.3
			h-1.3h2.8l2.8,1.3h1.3h1.2l1.3,1.3l4.1-1.3l2.8,1.3v75.1h-9.7v-1.3h-8.4v2.8h-8.4v-2.8h-1.3v4.1h-12.5v4.1H646v2.8h-4.1v1.3h4.1
			v1.3h-5.6v-2.8h-1.3v-5.6h2.8v-10.8h-5.6v2.8h-5.5v4.1h-1.3v4.1h-5.6v1.3h-8.4v-9.7h-12.5v-5.6h-12.5l1.3-2.8h-9.6v4.1h-2.8V122
			v-6.9h1.3V98.4h-27.7v-1.3h-5.6l1.3-1.3v-1.3h-6.9v4.1H532v-1.3h-1.3v-1.3h1.3l-1.3-1.3l1.3-1.3h1.3v1.3v-1.3h1.3v-1.3h1.3
			l-2.8-1.3h1.3v-1.3l-1.3,1.3l1.3-1.3l-2.8,1.3v1.3v-1.3L526,99v-1.3l1.3-1.3H526V95v-1.3h-1.3v-1.3h1.3h-1.3V91v1.3v1.3V95
			l-1.3-1.3V95v-1.3v-1.3l-1.3-2.8h1.3l1.3-1.3h-1.3v1.3v-1.3l-1.3-1.3l1.3,1.3v-1.3h1.3v-1.3l1.3,1.3v-1.3h-1.3v-1.3v1.3l-1.3-1.3
			v1.3v-1.3v-1.3h1.3v-1.3h1.3l1.3,1.3l-1.3-1.3h-1.3l1.3-1.3v1.3l1.3-1.3l1.3,1.3v1.3l1.3-1.3l1.3,1.3v-1.3H530v-1.3l1.3-1.3v1.3
			l1.3,1.3v-1.3v1.3v-1.3v-2.5v-1.5l2.8-1.3h-0.6h-1.5h-1.3h1.3l1.3-1.3h-1.3v-1.3h1.3l1.3,1.3l-1.3,1.3h1.3l1.3-1.3l1.3,1.3v-1.3
			v1.3h1.3l1.3,1.3h1.3h-1.3h1.3v1.3h1.3v1.3h-1.3v1.3l1.3-1.3l-1.3,1.3h1.3v-1.3v1.3v-1.3h1.3v1.3h-1.3l1.3,1.3h-1.3h1.3v-1.3v1.3
			v-1.3h1.3l-1.3-1.3h1.3l5.6,4.1l6.9,4.1l-4.1-2.8l-1.3-1.3h1.3h-1.3l-1.3-1.3l-2.8-1.3l-2.8-2.8l1.3-2.8h1.3v-1.3h-1.3l-1.3,1.3
			l1.3-1.3v-1.3v1.3v-1.3h-1.3h1.3l-1.3,1.3h1.3h-1.3h-1.3v-1.3v1.3l-1.3,1.3h-2.8v-1.3l-1.3,1.3v-1.3v-1.3h1.3v-1.3h1.3h1.3
			l1.3-1.3h1.3v-1.3h-1.3v1.3v-1.3l-1.3,1.3v-1.3v1.3l-1.3-1.3v1.3v1.3v-1.3v1.3h-1.3l-1.3,1.3v-1.3v-1.3h1.3h-2.8h1.3h-1.3v-1.3
			l2.8-1.3h1.3l1.3,1.3v-1.3h1.3v-1.3v-1.3v-1.3h-1.3h1.3h1.3h1.3l-1.3,1.3v1.3h1.3v-1.3V67l1.3,1.3l1.3-1.3h1.3h1.3v1.3h2.8h1.3
			h1.3h2.8l-1.3-1.3l-2.8,1.3l-1.3-1.3l2.8-1.3h-0.4v-1.3h1.3l2.8-1.3h-1.3l-1.3,1.3V63v1.3h-1.5V63h-1.3h-1.3h-1.3l1.3-1.3h-1.3V63
			v-1.3h-1.3v-1.3h1.3l1.3,1.3v-1.3V59h1.3h-1.3v-1.3l-1.3,1.3v-1.3V59v-1.3V59h-1.3l1.3-1.3h-1.3V59v-1.3h-1.3v-1.3v-2.2l-1.3,1.3
			l1.3-1.3h-1.3v-1.5l1.3,1.3v-1.3v-1.3l1.3,1.3v-1.3V50l1.3,1.3V50h1.3v-1.3l-1.3,1.3v-1.3v-1.3h1.3h1.3V46l1.3-1.3l-1.3,2.8h1.3"
			/>
	</g>
	<g id="walg_137">
		<path  d="M241.5,567.3l-5.6,1.3v-2.8h-1.3V563h-4.1v-1.3h-1.3l-1.3-1.3v-1.5H225v-1.3h5.6v-2.8h-2.8v-4.1h4.1v-4.1
			h-1.3v-5.6h-2.8v-2.8h-4.1v-1.3h4.1v-1.5h2.8v-1.5h-6.9v-4.1h2.8v1.3h1.3v-9.7h6.9v-1.3h1.3v-4.1h2.8v-1.3h4.1v1.3v1.3h5.6v-9.7
			h-1.3v-4.1h4.1v4.1h1.3v-2.8h6.9V499h6.9v4.1h-2.8v11.1h6.9v2.8h-2.8v2.8h2.8v2.8h-5.6h1.3v11.1h1.3v4.1h2.8v2.8h2.8v2.8h1.3v2.8
			h2.8v6.9l6.9,1.3v2.8h1.3v-1.3h6.9v-2.8h1.3h2.8v2.8h-1.3v5.6h1.3v1.3h6.9v5.6h-4.1v1.3h-2.8v-1.3h-5.6h-5.6v6.9h2.8h1.3v1.3h1.3
			v9.7h-8.4v1.3v1.3l-2.8-1.3l-1.3-1.3v1.3h-1.3v1.3v1.3v1.3l-1.3,1.3h-15.3v-12.5h-1.3v-6.9h4.1v-2.8h-4.1v-1.3v-2.8h-4.1v-4.1
			h-2.8v-2.8h-8.4v1.3H241v6.2"/>
	</g>
	<g id="walg_138">
		<path  d="M320.7,645.1h1.3v-2.8h1.3V641v-1.3h1.3v-4.1h1.3v-1.3h1.3v-3h-1.3l-1.3-1.3h-2.8v-1.3h-1.3h1.3v-1.3h-1.3
			v-4.1l-8.4-13.9v-22.3l54.5,19.2l-1.5,73.8h-29.2l-2.8-4.1h2.8V673h-1.3v-1.3H329l-8.4-9.7h1.3v-2.8h-1.3v-2.8v-6.9V648v-1.3v-1.6
			"/>
	</g>
	<g id="walg_139">
		<path  d="M258.2,664.6h1.3l1.3,1.3h1.3l1.3,1.3l-1.3,1.3l-1.3,1.3v1.3h-1.3l-4.1,1.3l-6.9,2.8V674h-1.3l1.3,1.3
			h-1.3v1.3h-1.5h-1.3h-4.1h-2.8v-1.3h-2.8v1.3h-2.8v-2.8h1.3v-1.3h4.1v-4.1l2.8,1.3l1.3-1.3l-1.3-1.3v-1.3h2.8l5.6-2.8h1.3h1.3h1.3
			v1.3l1.3-1.3l1.3-1.3h-1.3h1.3L258.2,664.6"/>
	</g>
</g>
<g id="qgisviewbox" inkscape:label="qgisviewbox" inkscape:groupmode="layer">
</g>
</svg>
