<?xml version="1.0" encoding="utf-8"?>
<!-- Generator: Adobe Illustrator 17.1.0, SVG Export Plug-In . SVG Version: 6.00 Build 0)  -->
<!DOCTYPE svg PUBLIC "-//W3C//DTD SVG 1.1//EN" "http://www.w3.org/Graphics/SVG/1.1/DTD/svg11.dtd">
<svg version="1.1" id="Layer_1" xmlns:inkscape="http://www.inkscape.org/namespaces/inkscape"
	 xmlns="http://www.w3.org/2000/svg" xmlns:xlink="http://www.w3.org/1999/xlink" x="0px" y="0px" viewBox="0 0 435 548"
	 enable-background="new 0 0 435 548" xml:space="preserve">
<g id="sa3_2011_aust" inkscape:label="sa3_2011_aust" inkscape:groupmode="layer">
	<g>
		<g id="sa3_2011_aust_1">
			<path fill="#7F8946" d="M68.3,510.7v-0.9h-0.9v-0.9v-0.9v-0.9V506h-0.9v-0.9v-0.9v-0.9v-0.9v-0.9v-0.9v-0.9v-0.9v-0.9v-0.9v-0.9
				v-0.9h0.9v-0.9v-0.9h-0.9v-0.9v0.9v-0.9h0.9h0.9v0.9h0.9v0.9h0.9v0.9h0.9h0.9H73H74h0.9h0.9v-0.9h0.9v-0.9h0.9v0.9h-0.9h0.9v0.9
				v-0.9h0.9v0.9l0.9-0.9h0.9v0.9h0.9h0.9h0.9h0.9v0.9h0.9v0.9v0.9v0.9h-0.9h-0.9h-0.9l-0.9,0.9l-0.9,0.9h-0.9v0.9l-0.9,0.9v0.9v1.9
				h-0.9v-0.9v0.9h-0.9h-0.9h0.9h-0.9h-0.9v0.9v0.9v0.9v0.9v0.9v0.9H74H73h-0.9h-0.9h-0.9h0.9h-0.9h0.9v-0.9h-0.9h0.9h-0.9v0.9h0.9
				v0.9h-0.9h0.9h-0.9h0.9h-0.9v0.9v-0.9h-0.9v-0.9H68.3"/>
			<path fill="#7F8946" d="M67.4,508.8h-0.9H67.4"/>
			<path fill="#7F8946" d="M70.2,509.8h0.9H70.2"/>
			<path fill="#7F8946" d="M71.1,513.5h0.9H71.1"/>
			<path fill="#7F8946" d="M68.3,511.7v-0.9V511.7"/>
			<path fill="#7F8946" d="M71.1,513.5v-0.9V513.5"/>
			<path fill="#7F8946" d="M68.3,511.7v-0.9V511.7"/>
			<path fill="#7F8946" d="M70.2,512.6v-0.9V512.6"/>
			<path fill="#7F8946" d="M66.4,506v-0.9V506"/>
		</g>
		<g id="sa3_2011_aust_2">
			<path fill="#7F8946" d="M97.5,490.9v0.9h0.9h-0.9h-0.9l-0.9-0.9h-1.9h-0.9V489h-0.9v1.9h-0.9H90H89h-0.9v0.9h-0.9v-0.9v0.9v-0.9
				v0.9h-0.9h0.9h-0.9h-0.9h-0.9v0.9v0.9v0.9h-0.9h-0.9h-0.9h-0.9v-0.9h-0.9l-0.9,0.9v-0.9h-0.9v0.9v-0.9h-0.9h0.9v-0.9v-0.9h0.9
				v-0.9h0.9V490h0.9V489h0.9v-0.9v-0.9v-0.9h0.9h0.9v-0.9v-0.9v-0.9v-0.9v-0.9v-0.9v-0.9v-0.9h-0.9v-0.9v-0.9v-0.9v-0.9h-0.9V474
				h0.9V473h0.9v0.9h0.9V473v0.9h0.9h0.9h0.9h0.9H89H90V473v0.9V473h0.9h0.9h0.9h0.9v0.9h1.9v1.9v1.9v0.9v0.9h0.9h0.9v-0.9h0.9h0.9
				h0.9h0.9v0.9v0.9v0.9v1.9h-0.9v0.9v0.9v0.9v0.9v0.9v0.9v0.9h-0.9v0.9h-0.9H97.5"/>
		</g>
		<g id="sa3_2011_aust_3">
			<path fill="#7F8946" d="M105.1,527.7v0.9V527.7h-0.9h-0.9h-0.9v-0.9h-0.9h-0.9v-0.9h-0.9v-0.9h-0.9h-0.9h-0.9v-0.9h-0.9h-0.9
				h-0.9h-0.9h-0.9V523v0.9h-0.9V523v0.9V523V522H90v-0.9v-0.9H89v-0.9h-0.9h-0.9v-0.9h-0.9v-0.9h-0.9v-0.9h-0.9v-0.9h-0.9v-0.9
				h-0.9h-0.9v-0.9h-0.9h-0.9v-0.9h-0.9h-0.9v-0.9h-0.9h-0.9v-0.9h-0.9v-0.9v-0.9v-0.9v-0.9V506v-0.9h0.9h0.9h-0.9h0.9h0.9v-0.9v0.9
				h0.9v-1.9v-0.9l0.9-0.9v-0.9h0.9l0.9-0.9l0.9-0.9h0.9h0.9h0.9v-0.9v-0.9v-0.9h-0.9v-0.9v-0.9v-0.9v-0.9h0.9h0.9h0.9h-0.9h0.9
				v-0.9v0.9v-0.9v0.9h0.9v-0.9H89H90h0.9h0.9V489h0.9v1.9h0.9h1.9l0.9,0.9h0.9h0.9v0.9h0.9h0.9h0.9v0.9h0.9v0.9h0.9h0.9h0.9v0.9
				h0.9v-0.9v0.9h0.9h0.9h0.9h0.9v0.9v0.9v0.9v0.9v0.9v0.9h-0.9v0.9v0.9v0.9h0.9v0.9v0.9h0.9h-0.9h0.9h0.9v0.9v0.9v0.9h-0.9h-0.9
				l-0.9,0.9h-0.9v-0.9v0.9v0.9v0.9l-0.9,0.9v0.9h0.9h0.9h0.9v0.9h0.9v0.9h-0.9v0.9h0.9v0.9h-0.9h0.9h-0.9h0.9h-0.9h0.9h-0.9h0.9
				v0.9h-0.9v0.9h0.9h0.9v0.9v0.9v-0.9v0.9v-0.9v0.9v0.9h-0.9v0.9v0.9h-0.9V523v0.9h-0.9h0.9h-0.9h0.9h-0.9h0.9h-0.9v0.9v-0.9v0.9
				h0.9v0.9h0.9v0.9v0.9h-0.9h-0.9v0.9v-0.9v0.9h-0.9v-0.9v0.9h-0.9H106v-0.9v0.9h-0.9V527.7"/>
			<path fill="#7F8946" d="M103.2,527.7v0.9V527.7v0.9V527.7"/>
			<path fill="#7F8946" d="M103.2,528.6v-0.9V528.6v-0.9V528.6"/>
		</g>
		<g id="sa3_2011_aust_4">
			<path fill="#7F8946" d="M83.4,470.2h0.9h0.9v-0.9v-0.9h-0.9v-0.9v-0.9v-0.9h0.9h0.9h0.9h0.9H89H90h0.9v0.9v-0.9v0.9h0.9h-0.9v0.9
				v0.9v0.9H90v0.9v0.9h0.9H90h0.9v0.9H90h0.9H90v0.9h0.9H90v0.9V473v0.9H89h-0.9h-0.9h-0.9h-0.9h-0.9V473v-0.9h-0.9h0.9h-0.9v-0.9
				V470.2h-0.9v-0.9h0.9V470.2"/>
			<path fill="#7F8946" d="M82.4,468.3v0.9h0.9h-0.9v0.9v0.9v0.9h0.9v0.9h-0.9v0.9h-0.9V473v-0.9v-0.9v-0.9v-0.9h0.9V468.3h0.9v-0.9
				h0.9v0.9h-0.9H82.4"/>
		</g>
		<g id="sa3_2011_aust_5">
			<path fill="#7F8946" d="M85.3,454.2v-0.9v-0.9v0.9h0.9v-0.9v0.9v0.9h0.9h-0.9h0.9h-0.9H85.3v0.9V454.2"/>
		</g>
		<g id="sa3_2011_aust_6">
			<path fill="#7F8946" d="M86.2,453.2v-0.9h0.9h0.9h-0.9h0.9v0.9h-0.9v0.9h-0.9V453.2"/>
		</g>
		<g id="sa3_2011_aust_7">
			<path fill="#7F8946" d="M88.1,451.4H89H90v0.9H89v0.9v-0.9v0.9h-0.9v-0.9V451.4"/>
		</g>
		<g id="sa3_2011_aust_8">
			<path fill="#7F8946" d="M91.9,452.3h-0.9v-0.9h0.9h0.9v-0.9h0.9h0.9h0.9h0.9h0.9v-0.9v-0.9v-0.9h0.9h0.9v0.9v0.9v0.9v-0.9h0.9
				l-0.9,0.9v0.9v0.9h0.9h0.9v0.9v0.9v0.9h-0.9h-0.9v-0.9h-0.9v0.9v0.9h-0.9v-0.9h-0.9h-0.9h-0.9l-0.9-0.9h0.9v-0.9h-0.9h0.9h-0.9
				h-0.9v-0.9H91.9v0.9V452.3h-0.9H91.9"/>
		</g>
		<g id="sa3_2011_aust_9">
			<path fill="#7F8946" d="M89,451.4h-0.9v-0.9v-0.9v-0.9v-0.9v-0.9v-0.9H89H90h0.9v-0.9h0.9h0.9h0.9h0.9h0.9h0.9v0.9v0.9h0.9v0.9
				h0.9h-0.9v0.9v0.9v0.9h-0.9h-0.9h-0.9h-0.9h-0.9v0.9h-0.9h-0.9v0.9h0.9h-0.9h0.9v0.9h-0.9v-0.9H90v-0.9H89"/>
		</g>
		<g id="sa3_2011_aust_10">
			<path fill="#7F8946" d="M84.3,448.5v-0.9h-0.9h0.9h0.9v0.9h0.9h-0.9h0.9v0.9v0.9h-0.9h-0.9v-0.9V448.5"/>
		</g>
		<g id="sa3_2011_aust_11">
			<path fill="#7F8946" d="M88.1,451.4v0.9h-0.9h0.9h-0.9h-0.9v0.9v-0.9v0.9h-0.9v-0.9v-0.9v-0.9h0.9h0.9h0.9V451.4"/>
		</g>
		<g id="sa3_2011_aust_12">
			<path fill="#7F8946" d="M87.2,443.8v0.9v0.9h0.9v0.9v0.9v0.9v0.9v0.9h-0.9h-0.9v-0.9v-0.9h-0.9h0.9h-0.9v-0.9h-0.9h-0.9v-0.9
				v-0.9h-0.9v-0.9v-0.9h-0.9v-0.9h-0.9v-0.9V441h0.9h0.9v0.9h0.9h0.9h0.9h0.9h0.9V443.8"/>
		</g>
		<g id="sa3_2011_aust_13">
			<path fill="#7F8946" d="M92.8,459.8h-0.9v-0.9h-0.9H90H89h-0.9V458H89V457H90v0.9V457h0.9h0.9h0.9v-0.9h0.9h0.9h0.9h1.9v0.9v0.9
				v0.9h0.9v0.9h0.9h-2.8l-0.9,0.9v0.9h-1.9v-0.9v-0.9H92.8"/>
		</g>
		<g id="sa3_2011_aust_14">
			<path fill="#7F8946" d="M89,453.2v-0.9H90h0.9v0.9l-0.9,0.9H89h-0.9v-0.9H89"/>
		</g>
		<g id="sa3_2011_aust_15">
			<path fill="#7F8946" d="M90,454.2v0.9V454.2v0.9H89v0.9v0.9h-0.9v-0.9v-0.9l-0.9,0.9v-0.9h0.9v-0.9H89H90"/>
		</g>
		<g id="sa3_2011_aust_16">
			<path fill="#7F8946" d="M89,457v-0.9v-0.9H90v-0.9v0.9v-0.9h0.9v0.9h0.9v0.9h0.9v0.9h-0.9h-0.9H90v0.9V457H89"/>
		</g>
		<g id="sa3_2011_aust_17">
			<path fill="#7F8946" d="M92.8,453.2h0.9h0.9h-0.9h0.9v0.9h-0.9l0.9,0.9h0.9h0.9h0.9v0.9h-1.9h-0.9h-0.9h-0.9h-0.9v-0.9h-0.9v-0.9
				H90l0.9-0.9v-0.9v0.9h0.9v-0.9h0.9V453.2"/>
		</g>
		<g id="sa3_2011_aust_18">
			<path fill="#7F8946" d="M88.1,461.7v-0.9v-0.9v-0.9H89H90h0.9h0.9v0.9h0.9h0.9v0.9v0.9h1.9v0.9h0.9v0.9h0.9v1.9h-0.9h-1.9h-0.9
				h-0.9h-0.9v0.9h-0.9v-0.9v0.9v-0.9H90H89h-0.9h-0.9v-0.9h-0.9h0.9v-0.9v-0.9h0.9V461.7"/>
		</g>
		<g id="sa3_2011_aust_19">
			<path fill="#7F8946" d="M87.2,454.2h0.9v0.9h-0.9V454.2v-0.9V454.2"/>
		</g>
		<g id="sa3_2011_aust_20">
			<path fill="#7F8946" d="M85.3,458.9V458h-0.9h0.9V457v-0.9h0.9h0.9v0.9v-0.9h0.9v0.9H89v0.9h-0.9v0.9h-0.9h-0.9H85.3"/>
		</g>
		<g id="sa3_2011_aust_21">
			<path fill="#7F8946" d="M79.6,454.2h0.9H79.6v0.9h-0.9h-0.9h0.9v-0.9H79.6"/>
			<path fill="#7F8946" d="M84.3,456.1l0.9-0.9v0.9h0.9h-0.9H84.3h0.9H84.3"/>
			<path fill="#7F8946" d="M85.3,455.1h-0.9v0.9v-0.9H85.3"/>
			<path fill="#7F8946" d="M79.6,455.1h0.9H79.6"/>
		</g>
		<g id="sa3_2011_aust_22">
			<path fill="#7F8946" d="M85.3,460.8v-0.9v-0.9h0.9h0.9h0.9v0.9v0.9h-0.9l-0.9,0.9v-0.9H85.3"/>
		</g>
		<g id="sa3_2011_aust_23">
			<path fill="#7F8946" d="M88.1,456.1h-0.9v0.9v-0.9h-0.9h-0.9v-0.9h0.9h0.9v-0.9v0.9v0.9l0.9-0.9V456.1"/>
		</g>
		<g id="sa3_2011_aust_24">
			<path fill="#7F8946" d="M84.3,464.5v-0.9v-0.9v-0.9h-0.9v-0.9h0.9h0.9h0.9v0.9l0.9-0.9h0.9v0.9v0.9h-0.9v0.9v0.9h-0.9h0.9v0.9
				h-0.9h-0.9h-0.9h0.9v-0.9H84.3"/>
			<path fill="#7F8946" d="M82.4,458.9V458h0.9v0.9v0.9v0.9v-0.9h-0.9V458.9"/>
			<path fill="#7F8946" d="M82.4,457v0.9V457"/>
		</g>
		<g id="sa3_2011_aust_25">
			<path fill="#7F8946" d="M239.8,503.2h-0.9H239.8v-0.9h-0.9v-0.9v-0.9h-0.9v-0.9H237v-0.9H236v0.9h-0.9h-0.9v0.9v-0.9v0.9h-0.9
				h-0.9h-0.9l0.9,0.9h-0.9v-0.9v0.9v-0.9h-0.9l-0.9-0.9h-0.9v0.9h-0.9v-0.9h-0.9l-0.9-0.9v0.9h-0.9v-0.9h-0.9h-0.9v0.9v-0.9h-0.9
				H221v0.9v-0.9v0.9v-0.9H220v0.9h-0.9h-0.9h-0.9v0.9h-0.9v-0.9h-0.9h-0.9h-0.9h-0.9v0.9v-0.9h-0.9v0.9v-0.9h-0.9v0.9v-0.9h-0.9
				h-0.9v0.9h-0.9h-0.9h-0.9h-0.9H204h-0.9h-0.9h-0.9v0.9h0.9h-0.9h-0.9v0.9h-0.9h-0.9h-0.9h-0.9v-0.9h-0.9h-0.9h-0.9h-0.9h-0.9v0.9
				h-0.9v-0.9h-0.9h-0.9H188v0.9H187h-0.9h-0.9h-0.9h-0.9v0.9v0.9h-0.9h-0.9v0.9h-0.9h-0.9v0.9h-0.9v0.9h-0.9h0.9h-0.9v0.9h-0.9v0.9
				v0.9h-0.9h-0.9v0.9v-0.9v0.9v-0.9h0.9v0.9v-0.9v0.9v0.9h0.9v0.9h0.9h-0.9h0.9h-0.9h0.9h-0.9v0.9h-0.9v-0.9v0.9v-0.9v0.9v-0.9
				h-0.9h0.9h-0.9v-0.9h-0.9v0.9h-0.9H172v-0.9v-0.9v-0.9v-0.9V506l-2.8-1.9l-0.9-1.9h1.9l1.9-1.9h1.9h1.9v-0.9v-0.9h-0.9l-0.9-0.9
				h0.9v-0.9v-0.9v-0.9h0.9v-0.9h0.9v-0.9l-0.9-0.9h-0.9v-0.9h0.9V490h0.9h0.9V489h0.9v-0.9h0.9v-0.9h0.9h0.9l0.9,0.9h0.9v-0.9h0.9
				l0.9-0.9h0.9h0.9v-0.9h0.9v-0.9v-0.9l-0.9-0.9h0.9h0.9v-0.9h0.9l-0.9-0.9h0.9h0.9h0.9h0.9h0.9v-0.9l0.9-0.9l0.9-0.9h0.9v-0.9h0.9
				v-0.9h0.9l0.9-0.9l2.8-1.9h-0.9v-4.7h5.7h5.7h7.5h4.7h1.9h4.7h2.8h2.8h8.5h3.8h7.5h4.7h1.9h9.4v2.8h-0.9v1.9v0.9l0.9,0.9h0.9
				l17,0.9v1.9v1.9h-0.9v0.9h-0.9v0.9v0.9h-0.9v0.9v0.9h-0.9v0.9v0.9l-0.9,0.9v0.9v0.9H285v0.9v0.9v0.9v0.9h-0.9h-0.9h-0.9v0.9v0.9
				h-0.9h-0.9v0.9h-0.9v0.9v0.9v0.9h-0.9v0.9h-0.9h-0.9v0.9h-0.9h-0.9v0.9h-0.9h-0.9v-0.9h-0.9h-0.9H270v0.9H269v0.9h-0.9h-0.9v0.9
				h-0.9h-0.9v-0.9h-0.9h0.9v-0.9h-0.9v-0.9h-0.9l-0.9-0.9h-0.9v0.9h-0.9h-0.9h-0.9h-0.9h-0.9v0.9v-0.9h-0.9h-0.9h-0.9H253h-0.9
				h-0.9v0.9v0.9h-0.9h0.9h-0.9h0.9h-0.9v-0.9h-0.9v0.9v-0.9h-0.9h-0.9h-0.9h-0.9h-0.9h-0.9v0.9v0.9h-0.9h-0.9h0.9h-0.9h-0.9H239.8"
				/>
			<path fill="#7F8946" d="M265.3,506v-0.9h0.9v0.9H265.3"/>
			<path fill="#7F8946" d="M242.6,506h0.9H242.6v0.9V506"/>
			<path fill="#7F8946" d="M273.7,512.6v-0.9h0.9v0.9H273.7"/>
			<path fill="#7F8946" d="M256.8,503.2v-0.9h0.9v0.9H256.8"/>
			<path fill="#7F8946" d="M227.6,504.1v-0.9V504.1h-0.9H227.6"/>
			<path fill="#7F8946" d="M237,503.2v0.9H236h0.9V503.2"/>
			<path fill="#7F8946" d="M228.5,503.2h0.9H228.5"/>
			<path fill="#7F8946" d="M240.8,504.1h-0.9H240.8"/>
			<path fill="#7F8946" d="M237,504.1v0.9H236v-0.9H237"/>
			<path fill="#7F8946" d="M255.8,503.2h0.9H255.8"/>
			<path fill="#7F8946" d="M237.9,506.9V506V506.9"/>
			<path fill="#7F8946" d="M233.2,501.3h0.9H233.2"/>
			<path fill="#7F8946" d="M232.3,501.3h-0.9H232.3"/>
			<path fill="#7F8946" d="M237,506H236H237"/>
			<path fill="#7F8946" d="M236,503.2h0.9v-0.9v0.9H236"/>
			<path fill="#7F8946" d="M267.1,504.1v-0.9V504.1"/>
			<path fill="#7F8946" d="M237,505.1v-0.9V505.1"/>
			<path fill="#7F8946" d="M236,501.3h0.9H236"/>
			<path fill="#7F8946" d="M275.6,508.8h0.9H275.6"/>
			<path fill="#7F8946" d="M178.6,512.6v-0.9V512.6"/>
			<path fill="#7F8946" d="M236,514.5h0.9H236"/>
			<path fill="#7F8946" d="M236,502.2h0.9H236"/>
			<path fill="#7F8946" d="M177.6,512.6v-0.9V512.6v-0.9h0.9v0.9H177.6"/>
			<path fill="#7F8946" d="M267.1,504.1v0.9V504.1"/>
			<path fill="#7F8946" d="M238.9,504.1h0.9v0.9h-0.9V504.1"/>
			<path fill="#7F8946" d="M237,506.9h0.9H237"/>
			<path fill="#7F8946" d="M239.8,505.1v0.9V505.1"/>
			<path fill="#7F8946" d="M268.1,503.2v0.9V503.2v0.9V503.2"/>
			<path fill="#7F8946" d="M229.4,503.2v-0.9V503.2"/>
			<path fill="#7F8946" d="M238.9,507.9h0.9H238.9"/>
			<path fill="#7F8946" d="M221,500.4v-0.9V500.4"/>
			<path fill="#7F8946" d="M256.8,502.2h0.9H256.8"/>
			<path fill="#7F8946" d="M282.2,506v-0.9h0.9v0.9H282.2v-0.9V506"/>
			<path fill="#7F8946" d="M252.1,503.2h0.9H252.1"/>
			<path fill="#7F8946" d="M239.8,503.2h0.9H239.8"/>
			<path fill="#7F8946" d="M248.3,507.9h0.9H248.3"/>
			<path fill="#7F8946" d="M288.8,497.5h0.9H288.8"/>
			<path fill="#7F8946" d="M269,506.9h0.9H269"/>
			<path fill="#7F8946" d="M245.5,506v-0.9V506v-0.9V506"/>
			<path fill="#7F8946" d="M284.1,494.7h0.9H284.1"/>
			<path fill="#7F8946" d="M256.8,502.2h-0.9H256.8"/>
			<path fill="#7F8946" d="M265.3,503.2v0.9V503.2v0.9V503.2"/>
			<path fill="#7F8946" d="M243.6,503.2h0.9H243.6"/>
			<path fill="#7F8946" d="M264.3,503.2v-0.9V503.2"/>
			<path fill="#7F8946" d="M253.9,503.2v-0.9V503.2"/>
			<path fill="#7F8946" d="M227.6,503.2h0.9H227.6"/>
			<path fill="#7F8946" d="M253.9,502.2v-0.9V502.2v-0.9V502.2"/>
			<path fill="#7F8946" d="M287.9,499.4h0.9H287.9"/>
			<path fill="#7F8946" d="M274.7,503.2h-0.9H274.7"/>
			<path fill="#7F8946" d="M238.9,507.9v0.9V507.9"/>
			<path fill="#7F8946" d="M233.2,504.1h0.9H233.2"/>
			<path fill="#7F8946" d="M256.8,501.3v-0.9V501.3"/>
			<path fill="#7F8946" d="M260.5,501.3v-0.9V501.3"/>
			<path fill="#7F8946" d="M243.6,502.2h0.9H243.6"/>
			<path fill="#7F8946" d="M251.1,501.3h0.9H251.1"/>
			<path fill="#7F8946" d="M241.7,512.6v-0.9V512.6"/>
			<path fill="#7F8946" d="M235.1,507.9v-0.9V507.9"/>
			<path fill="#7F8946" d="M235.1,506v0.9V506"/>
			<path fill="#7F8946" d="M250.2,503.2h0.9H250.2"/>
			<path fill="#7F8946" d="M253,503.2v-0.9V503.2"/>
			<path fill="#7F8946" d="M243.6,503.2v-0.9h0.9v0.9H243.6"/>
			<path fill="#7F8946" d="M227.6,503.2h0.9H227.6"/>
			<path fill="#7F8946" d="M285,493.8h-0.9H285"/>
			<path fill="#7F8946" d="M249.2,502.2v-0.9h0.9L249.2,502.2"/>
		</g>
		<g id="sa3_2011_aust_26">
			<path fill="#7F8946" d="M45.7,303.4v-0.9V303.4v-0.9h-0.9h0.9h-0.9h0.9h-0.9v-0.9h-0.9h0.9l-0.9-0.9h-0.9h0.9h-0.9v-0.9h-0.9h0.9
				v-0.9h-0.9h0.9v0.9v-0.9h-0.9v-0.9v0.9v-0.9v-0.9H41v-0.9v-0.9H40V294v-0.9v-0.9h-0.9v-0.9h-0.9v-0.9v-0.9v-0.9h-0.9v-0.9h-0.9
				h-0.9v-0.9h-0.9v-0.9v-0.9v-0.9v-0.9v-0.9h-0.9v-0.9h0.9h0.9h-0.9h-0.9h-0.9h0.9h-0.9h0.9v-0.9v0.9v-0.9v-0.9V278h-0.9V277h-0.9
				v-0.9l-0.9-0.9v-0.9h-0.9v-0.9h-0.9v-0.9h-0.9v-0.9v-0.9v-0.9v-0.9v-0.9v-0.9v-0.9v-0.9h0.9v-0.9v-0.9l-0.9-0.9h0.9V261h-0.9h0.9
				v-0.9h0.9v-0.9v-0.9v-0.9v-0.9h0.9v-0.9v-0.9h0.9v-0.9l0.9-0.9v-0.9v-0.9h0.9l0.9-0.9h0.9v-0.9h0.9v-0.9h0.9v-0.9v-0.9V245v-0.9
				v-0.9v-0.9v-0.9h-0.9l0.9-0.9h-0.9v-0.9v-0.9h0.9v-0.9h0.9v-0.9v-0.9v-0.9v-0.9l-0.9-0.9v-0.9v-0.9h-0.9v-0.9V229h-0.9h-0.9V228
				v-0.9v-0.9v-0.9h-0.9h0.9v-0.9h0.9v-0.9l0.9-0.9v-0.9v-0.9h0.9v-0.9l0.9-0.9v-0.9v-0.9h0.9v-0.9v-0.9v-0.9H40V213V212v-0.9H41
				v-0.9v-0.9h0.9v-0.9h0.9v-0.9h0.9l0.9-0.9h0.9h0.9v0.9h-0.9v0.9v0.9v0.9v0.9v0.9h-0.9v0.9v0.9v0.9h-0.9h0.9l-0.9,0.9h0.9v0.9v0.9
				h0.9v0.9h-0.9v0.9l0.9-0.9v0.9v-0.9h0.9v0.9v0.9h-0.9v0.9v-0.9v0.9v0.9h-0.9h0.9v0.9v0.9v-0.9v0.9h0.9h-0.9h0.9h0.9v-0.9v-0.9
				h0.9v-0.9h0.9v0.9v-0.9v0.9h0.9v0.9v0.9v-0.9h0.9v-0.9h0.9h-0.9h0.9h-0.9h0.9h-0.9v-0.9h0.9h-0.9h0.9v-0.9h-0.9h0.9v0.9v-0.9
				v-0.9l0.9,0.9v-0.9v0.9v-0.9v0.9v-0.9v0.9v-0.9h-0.9h0.9h-0.9v-0.9v0.9v-0.9h0.9h-0.9h0.9v0.9v-0.9v-0.9h2.8v2.8v2.8H57H58v3.8
				h0.9h0.9h0.9v0.9v0.9h-0.9v0.9l-0.9,0.9v0.9v0.9v0.9h0.9H58v0.9H57v0.9v0.9h-0.9h-0.9h-0.9v0.9h0.9v1.9h0.9h2.8v1.9H58v1.9v0.9
				v0.9h0.9h0.9v1.9h1.9h1.9h0.9h0.9h0.9h1.9h0.9h0.9h0.9V245h0.9H73h1.9h0.9h0.9h0.9v2.8h0.9h0.9v1.9h0.9h0.9v0.9v0.9h0.9h0.9v0.9
				v0.9h0.9v2.8h0.9h1.9h0.9v0.9H89H90v-4.7v-0.9v-1.9h1.9h0.9v0.9h0.9h0.9h0.9v0.9h0.9h1.9v-0.9h4.7v-2.8h0.9h0.9v1.9h6.6v5.7h1.9
				h0.9h0.9h0.9v-0.9h14.1v2.8h1.9h1.9h0.9v1.9v0.9v7.5v1.9h-3.8v2.8v0.9h-0.9v1.9v1.9h3.8h1.9v1.9h-3.8v1.9h1.9v2.8v1.9v3.8h-0.9
				v1.9v2.8h-1.9v-0.9h-2.8h-4.7v2.8v0.9v1.9H123H122h-0.9v0.9h-0.9h-1.9h-2.8h-1.9v-0.9h-2.8h-2.8h-0.9H106h-2.8v0.9h-0.9v0.9h-0.9
				h-0.9h-1.9h-1.9h-1.9h-0.9h-0.9h-0.9h-0.9H90h-2.8h-0.9h-0.9h-1.9v1.9h-1.9v1.9h-0.9h-0.9v0.9h-0.9h-0.9v1.9v0.9v0.9h0.9v1.9v2.8
				v1.9h-1.9v0.9v0.9v0.9v0.9v0.9v3.8v2.8v0.9H74v1.9v2.8v4.7v0.9h-1.9v1.9h-5.7h-4.7h-0.9h-7.5v-1.9h-3.8v-0.9h-1.9v-1.9h-3.8v1.9
				v0.9H41v-0.9H40v-0.9v-0.9h-0.9v-0.9v-0.9h-0.9v-0.9h-0.9v-0.9v-0.9h-0.9v-0.9h-0.9v-0.9l-0.9-0.9V327h-0.9V326h-0.9v-0.9h-0.9
				v-0.9h-0.9v-0.9h-0.9v-0.9h-0.9v-0.9h-0.9v-0.9h-0.9v-0.9h-0.9v-0.9H25h0.9v-0.9H25v-0.9v-0.9H24v-0.9v-0.9h-0.9v-0.9h-0.9v-0.9
				v0.9h0.9H24v0.9v0.9H25v-0.9v-0.9v-0.9V311V310v-0.9v0.9h0.9H25h0.9L25,311h0.9v0.9v0.9v0.9v0.9v0.9v0.9h0.9v0.9v0.9v-0.9v0.9
				h0.9v-0.9h-0.9v-0.9v-0.9h-0.9h0.9v-0.9v-0.9h0.9h-0.9v-0.9v-0.9V311v0.9l0.9-0.9h-0.9V310v-0.9v0.9h0.9h-0.9v0.9h0.9v0.9h0.9
				h-0.9v0.9h0.9v0.9v0.9h0.9v0.9v0.9v0.9h0.9v0.9h-0.9v-0.9v0.9h0.9h-0.9v0.9v0.9h0.9v-0.9h-0.9h0.9v-0.9v-0.9v-0.9h-0.9v-0.9v0.9
				v-0.9h0.9h0.9l-0.9,0.9h0.9h-0.9h0.9v0.9v0.9v0.9v0.9v0.9v0.9v0.9h0.9v-0.9v-0.9v-0.9v0.9h0.9h-0.9h0.9h-0.9h0.9v-0.9v-0.9v0.9
				v0.9v0.9v0.9h0.9v0.9v0.9v-0.9v0.9v-0.9h0.9v0.9v-0.9h-0.9h0.9h-0.9h0.9h-0.9l0.9-0.9h-0.9h0.9h0.9h0.9h0.9l-0.9-0.9h0.9l0.9-0.9
				v-0.9v-0.9v-0.9v-0.9v-0.9v-0.9h-0.9v-0.9h-0.9h-0.9v-0.9h-0.9h-0.9v-0.9v-0.9h-0.9V311h-0.9h0.9h-0.9h-0.9h0.9V310h-0.9v-0.9
				v-0.9v-0.9h-0.9v-0.9v-0.9v-0.9h-0.9h-0.9h0.9v-0.9v-0.9h-0.9v-0.9h0.9v0.9v-0.9h-0.9h0.9h-0.9v0.9h0.9h-0.9v0.9h0.9h-0.9v-0.9
				h-0.9v-0.9v-0.9l0.9-0.9v-0.9h0.9v-0.9v-0.9h0.9v0.9v0.9v0.9h0.9h0.9h-0.9h0.9v0.9v0.9l0.9,0.9h0.9v0.9h0.9v0.9v0.9h0.9v0.9v0.9
				h-0.9h0.9v0.9h-0.9h0.9h-0.9v0.9l0.9-0.9v0.9h-0.9h0.9h-0.9v0.9v0.9v0.9v0.9v0.9h0.9v-0.9v0.9h0.9v-0.9h0.9v-0.9V311v0.9l0.9-0.9
				V310v-0.9v-0.9v-0.9H40v0.9v0.9v0.9v0.9v0.9H41v0.9v0.9v0.9v0.9h0.9v0.9v0.9h0.9v0.9h0.9v0.9v0.9h0.9v-0.9h0.9v-0.9h0.9h-0.9h0.9
				v-0.9h0.9v-0.9v-0.9h0.9h-0.9v-0.9v-0.9h-0.9v-0.9h0.9v-0.9v0.9h0.9v-0.9h-0.9V311h0.9h-0.9h0.9V310h-0.9v-0.9h-0.9h0.9v-0.9
				h-0.9h0.9h0.9v-0.9v-0.9v-0.9h-0.9v-0.9h-0.9v-0.9H45.7"/>
			<path fill="#7F8946" d="M18.4,305.3v-0.9h-0.9v-0.9v-0.9v-0.9h-0.9v-0.9v-0.9v-0.9v-0.9v-0.9v-0.9h0.9v0.9h0.9v0.9v0.9v0.9h0.9
				v0.9v0.9v0.9h0.9v0.9v0.9h0.9h-0.9h0.9v0.9h-0.9h0.9v0.9h0.9h-0.9v0.9v0.9h0.9v-0.9h-0.9h0.9v0.9h0.9v0.9v0.9H24v0.9h-0.9H24
				h-0.9H24v0.9h-0.9v0.9v-0.9h-0.9V311V310h-0.9v-0.9v-0.9h-0.9v-0.9h-0.9v-0.9h-0.9V305.3"/>
			<path fill="#7F8946" d="M40,304.4v0.9V304.4v0.9v0.9h-0.9v-0.9v-0.9v-0.9H40V304.4v-0.9V304.4"/>
			<path fill="#7F8946" d="M19.3,290.2v-0.9h0.9v-0.9v-0.9v-0.9v-0.9v-0.9h0.9v-0.9v0.9v0.9v0.9h-0.9v0.9v0.9v0.9v0.9v0.9h-0.9
				V290.2"/>
			<path fill="#7F8946" d="M22.1,278.9v0.9l-0.9,0.9v0.9v0.9v0.9v-0.9v-0.9v-0.9v-0.9v-0.9l0.9-0.9V278.9"/>
			<path fill="#7F8946" d="M33.5,281.7v-0.9V281.7v-0.9V281.7"/>
			<path fill="#7F8946" d="M46.6,222.4v0.9h-0.9v-0.9H46.6"/>
			<path fill="#7F8946" d="M36.3,321.3h0.9v0.9h-0.9V321.3"/>
			<path fill="#7F8946" d="M39.1,310v-0.9h-0.9v-0.9v0.9h0.9V310"/>
			<path fill="#7F8946" d="M39.1,310v0.9V310"/>
			<path fill="#7F8946" d="M39.1,316.6v0.9V316.6"/>
			<path fill="#7F8946" d="M25.9,316.6v-0.9V316.6"/>
			<path fill="#7F8946" d="M35.3,311V310V311"/>
			<path fill="#7F8946" d="M35.3,311v0.9V311"/>
			<path fill="#7F8946" d="M32.5,280.8h0.9H32.5"/>
			<path fill="#7F8946" d="M51.4,221.4v-0.9V221.4"/>
			<path fill="#7F8946" d="M53.2,218.6h-0.9H53.2"/>
			<path fill="#7F8946" d="M39.1,307.2H40H39.1"/>
			<path fill="#7F8946" d="M35.3,310v-0.9V310"/>
			<path fill="#7F8946" d="M35.3,311V310V311"/>
			<path fill="#7F8946" d="M46.6,219.6h0.9H46.6"/>
			<path fill="#7F8946" d="M48.5,311h-0.9H48.5h-0.9V310v0.9H48.5"/>
			<path fill="#7F8946" d="M27.8,272.3v-0.9V272.3"/>
			<path fill="#7F8946" d="M29.7,316.6h0.9H29.7"/>
			<path fill="#7F8946" d="M39.1,292.1H40H39.1"/>
			<path fill="#7F8946" d="M34.4,325.1v-0.9V325.1"/>
			<path fill="#7F8946" d="M23.1,309.1v-0.9V309.1"/>
		</g>
		<g id="sa3_2011_aust_27">
			<path fill="#7F8946" d="M226.6,468.3h-1.9H220h-7.5h-5.7h-5.7v4.7h-0.9h-0.9h-0.9h-0.9h-0.9h-0.9h-0.9h-0.9h-0.9h-0.9h-0.9h-0.9
				h-0.9H188v-13.2v-4.7v-3.8v-9.4v-5.7v-0.9v-5.7v-0.9v-1.9V424v-3.8l0.9-2.8v-1.9v-3.8v-1.9H188l-2.8-0.9l-7.5-2.8l-0.9-0.9
				l-2.8-0.9l-2.8-0.9l-1.9-0.9l-3.8-0.9l-13.2-4.7v-0.9l-0.9-0.9v-0.9v-0.9V392l-0.9-0.9v-1.9v-0.9v-1.9v-0.9v-0.9h1.9h4.7v2.8v0.9
				h8.5h2.8h0.9l2.8-3.8h7.5l2.8-4.7v-0.9v-0.9h0.9v-9.4h0.9h3.8h0.9v-0.9v-0.9v-0.9v-0.9h3.8v-6.6h-0.9v-7.5v-1.9v-0.9h-1.9v-2.8
				v-4.7h11.3h7.5h3.8h16h2.8v-12.2h6.6v0.9h10.4V326h5.7v-1.9h1.9h0.9h0.9h0.9h0.9h0.9v0.9h0.9h0.9v1.9h0.9h0.9h0.9h0.9h0.9h0.9
				h0.9h0.9h0.9h0.9h0.9h0.9h0.9h0.9h0.9h0.9h0.9h0.9h0.9h0.9h0.9h0.9h0.9h0.9h0.9h0.9h0.9h0.9h0.9h0.9h0.9h0.9h0.9h0.9h0.9h0.9h0.9
				h0.9h0.9h0.9h0.9h0.9v-33v-23.6v-24.5h7.5h12.2H334h44.3h17h11.3v1.9v1.9v1.9v1.9v2.8v3.8v1.9v0.9v0.9v3.8v2.8v1.9v1.9v5.7v1.9
				v2.8v1.9v5.7v6.6v1.9v1.9v1.9v3.8v1.9v1.9v1.9v6.6v1.9v1.9v1.9v0.9v0.9v1.9v10.4v14.1v1.9v0.9v1.9v0.9v4.7v1.9v1.9v0.9v0.9v2.8
				v1.9v5.7v1.9v1.9v6.6v1.9v0.9v0.9v1.9v2.8v1.9v3.8v0.9v3.8v3.8V424v5.7v5.7v3.8v1.9v0.9v1.9v0.9v1.9h-0.9v0.9h-0.9h-0.9v0.9h-0.9
				h-0.9l-0.9,0.9H400v0.9h-0.9h-0.9v0.9h-0.9h-0.9h-0.9v0.9h-0.9h-0.9v0.9h-0.9h-0.9l-0.9,0.9h-0.9h-0.9h-0.9v0.9h-0.9h-0.9h-0.9
				v0.9H384H383h-0.9v0.9h-0.9h-0.9h-0.9h-0.9h-0.9v0.9h-0.9h-0.9h-0.9h-0.9v0.9h-0.9h-0.9l-0.9,0.9h-0.9h-0.9H368v0.9v-0.9v0.9H367
				h-0.9h-0.9h-0.9h-0.9h-0.9h-0.9v0.9v-0.9v0.9h-0.9h-0.9h-0.9h-0.9h-0.9h-0.9h-0.9h-0.9h-0.9h-0.9H351h-0.9h-0.9h-0.9h-0.9h-0.9
				h-0.9h-0.9h-0.9v-0.9h-0.9h-0.9h-0.9h-0.9v-0.9h-0.9h-0.9v0.9h-0.9h-0.9H335H334v0.9h-0.9h-0.9h-0.9v0.9h-0.9h-0.9v0.9h-0.9v0.9
				h-0.9h-0.9v0.9h-0.9v0.9h-0.9h-0.9v0.9h-0.9v0.9h-0.9h-0.9h-0.9H319v0.9H318h-0.9h-0.9v0.9h-0.9h-0.9v0.9h-0.9h-0.9v0.9h-0.9
				h-0.9l-0.9,0.9h-0.9v0.9h-0.9v0.9h-0.9h-0.9v0.9h-0.9h-0.9v0.9h-0.9H302h-0.9h-0.9h-0.9h-0.9h-0.9h-0.9v0.9h-0.9h-0.9l-1.9,0.9
				h-0.9v0.9h-0.9v-1.9v-1.9l-17-0.9h-0.9l-0.9-0.9V473v-1.9h0.9v-2.8h-9.4h-1.9h-4.7h-7.5h-3.8H237h-2.8h-2.8H226.6"/>
		</g>
		<g id="sa3_2011_aust_28">
			<path fill="#7F8946" d="M260.5,79.2h-0.9H260.5v0.9h-0.9h0.9V81h0.9v-0.9h0.9V81h-0.9h0.9h-0.9h0.9V82h0.9v0.9h0.9V82v0.9
				l-0.9,0.9v0.9h0.9h0.9v0.9v0.9h-0.9v0.9h0.9h-0.9h0.9v0.9h0.9h0.9v0.9v0.9h0.9v0.9v0.9h0.9v0.9l0.9,0.9v0.9l0.9,0.9v0.9V98h0.9
				l0.9,0.9v0.9h0.9v0.9v-0.9v0.9v-0.9v0.9v0.9v-0.9h0.9v0.9v-0.9v0.9v0.9v0.9h0.9h-0.9h0.9v-0.9v-0.9v-0.9v-0.9h-0.9v-0.9V98h0.9
				v0.9V98v-0.9v-0.9h0.9v-0.9v-0.9v-0.9h-0.9v-0.9v-0.9v-0.9v-0.9h0.9h0.9v0.9v0.9h0.9v-0.9v0.9h0.9v0.9h0.9v0.9v0.9h0.9h0.9v0.9
				h0.9v-0.9h-0.9v-0.9h-0.9v-0.9v-0.9v-0.9h-0.9v-0.9h0.9h-0.9h0.9v-0.9h0.9v-0.9h0.9v-0.9h0.9v-0.9v0.9h-0.9v-0.9v0.9h-0.9h0.9
				h-0.9v0.9l-0.9-0.9v0.9h-0.9v-0.9h-0.9v-0.9v-0.9h-0.9v-0.9h-0.9v-0.9h-0.9V82h-0.9h-0.9V81V82V81V82h-0.9V81h0.9v-0.9h0.9v-0.9
				h0.9h-0.9h0.9h-0.9v-0.9v0.9h-0.9h-0.9v-0.9v0.9h0.9h-0.9v0.9l-0.9-0.9h0.9h-0.9v-0.9h-0.9h0.9h-0.9h0.9h-0.9v-0.9v0.9h0.9h-0.9
				h0.9v-0.9v0.9h0.9v-0.9h-0.9h-0.9h0.9h0.9h0.9h-0.9v0.9v-0.9l0.9,0.9v-0.9v0.9h0.9h0.9h-0.9v-0.9v0.9v-0.9h0.9h0.9h-0.9v-0.9
				h-0.9h-0.9v-0.9v0.9h-0.9v-0.9h-0.9h0.9h0.9v0.9h0.9v-0.9h-0.9h0.9h-0.9h-0.9h0.9h-0.9v-0.9v0.9h0.9h0.9l0.9,0.9v-0.9v0.9v-0.9
				v0.9h0.9v-0.9v0.9v-0.9h0.9h-0.9l-0.9-0.9h0.9h-0.9h0.9h0.9v-0.9v0.9v-0.9h-0.9l-0.9-0.9h-0.9h0.9v0.9h-0.9v-0.9v0.9v-0.9v0.9
				v-0.9v0.9v-0.9h-0.9v-0.9v0.9v-0.9h0.9h-0.9l0.9,0.9v-0.9h-0.9h0.9v-0.9h-0.9h0.9h-0.9h0.9h-0.9v-0.9h0.9h0.9h0.9h-0.9h0.9v-0.9
				v0.9v-0.9v0.9v-0.9h0.9v0.9h-0.9h0.9h-0.9h0.9h-0.9h0.9v-0.9v0.9v-0.9v0.9v-0.9h0.9v0.9v-0.9v0.9h0.9v0.9h0.9h-0.9h-0.9h0.9v0.9
				v-0.9v0.9h-0.9v0.9h0.9h-0.9h0.9v0.9v-0.9l0.9,0.9h0.9v0.9v-0.9v0.9v-0.9v0.9h-0.9h0.9h-0.9v0.9h0.9v0.9v-0.9h0.9v-0.9h-0.9h0.9
				v-0.9h-0.9h0.9v0.9v-0.9h-0.9v-0.9h0.9v0.9h0.9v0.9h0.9v-0.9h-0.9v-0.9h0.9v-0.9h-0.9l-0.9-0.9v0.9v-0.9v0.9v-0.9h0.9v0.9h0.9
				h0.9v0.9v-0.9v0.9h0.9H286h0.9v-0.9v0.9v-0.9v0.9v-0.9v0.9v-0.9h0.9l-0.9,0.9h0.9v-0.9v0.9h0.9h0.9v0.9v0.9h0.9h-0.9h0.9h-0.9
				h0.9h-0.9h0.9h-0.9l0.9,0.9v-0.9v0.9h0.9h0.9h0.9v0.9v-0.9v0.9h-0.9h0.9v0.9v-0.9h0.9h0.9h-0.9h0.9v0.9h-0.9h0.9v0.9v-0.9v0.9
				h0.9h-0.9h0.9v-0.9h-0.9h0.9v0.9v-0.9v0.9v-0.9h-0.9v-0.9v-0.9h-0.9h-0.9v-0.9l0.9,0.9v-0.9v-0.9h0.9v0.9h0.9h-0.9v0.9h0.9v-0.9
				v0.9h0.9h0.9h0.9h0.9h0.9h0.9h0.9h0.9h0.9h0.9v0.9v-0.9h0.9h0.9v-0.9h0.9v0.9v-0.9h-0.9v0.9h-0.9h-0.9h-0.9v-0.9h-0.9h-0.9v-0.9
				H302h-0.9h-0.9h-0.9h-0.9h-0.9h0.9h-0.9v0.9v-0.9h-0.9v0.9h-0.9v-0.9v-0.9h-0.9h0.9v-0.9v0.9v-0.9v-0.9h-0.9h0.9h-0.9h0.9v-0.9
				h-0.9h0.9h0.9v-0.9v-0.9v-0.9v0.9v-0.9h0.9v0.9h-0.9h0.9v0.9h0.9v0.9h-0.9h0.9h-0.9h0.9l-0.9,0.9h0.9h-0.9h0.9h-0.9h0.9h-0.9h0.9
				v-0.9v-0.9v0.9v-0.9h0.9h0.9v-0.9h0.9h-0.9v-0.9h-0.9h0.9V66h-0.9h0.9h-0.9V65h0.9h-0.9h0.9h-0.9h0.9h0.9h-0.9v-0.9v-0.9h0.9
				h-0.9v-0.9h0.9h0.9v0.9v-0.9v0.9v-0.9v-0.9h0.9h0.9h-0.9v-0.9H302h0.9v-0.9v0.9v-0.9v0.9v-0.9H302h0.9H302v0.9v-0.9h0.9H302v0.9
				h-0.9h-0.9v0.9l-0.9,0.9v0.9h-0.9v0.9V65h-0.9h0.9h-0.9v-0.9h0.9h-0.9h0.9h-0.9v-0.9v0.9v-0.9v-0.9v0.9v-0.9v0.9v-0.9h-0.9v-0.9
				h0.9h-0.9v-0.9v0.9v0.9h-0.9v-0.9v-0.9v-0.9h-0.9v-0.9h0.9v0.9v-0.9v0.9v-0.9h0.9h-0.9v-0.9h-0.9h0.9v-0.9v0.9h0.9h-0.9h0.9v-0.9
				v0.9v-0.9v-0.9v0.9v-0.9v0.9h0.9l-0.9-0.9v0.9v-0.9h-0.9h0.9h-0.9v0.9v-0.9v-0.9h0.9v-0.9v0.9v-0.9v0.9v-0.9h0.9v-0.9v0.9h0.9
				h-0.9v-0.9v0.9h-0.9v-0.9v0.9v-0.9h0.9h0.9h-0.9h0.9h-0.9h0.9h0.9v0.9v-0.9v0.9h0.9h0.9h-0.9h0.9h-0.9l0.9-0.9h-0.9h0.9h-0.9h0.9
				h-0.9h0.9h-0.9h0.9v-0.9v0.9h0.9v-0.9v0.9v-0.9v-0.9h0.9v-0.9v0.9v-0.9h0.9h-0.9H302h0.9H302h-0.9h0.9V49v0.9V49h-0.9h0.9h0.9
				H302v-0.9V49v-0.9v-0.9v0.9v-0.9v0.9h0.9v-0.9H302h0.9v0.9h0.9V49h-0.9v0.9h0.9V49h0.9v-0.9V49v-0.9V49h0.9h-0.9h0.9v-0.9V49v0.9
				h0.9V49v0.9h0.9v0.9h0.9h-0.9h0.9h0.9v0.9v0.9h-0.9h0.9h-0.9h0.9v0.9v-0.9v0.9v-0.9h0.9v0.9h-0.9h0.9h-0.9h0.9h-0.9v0.9h0.9v-0.9
				v-0.9v0.9v-0.9v0.9h0.9v-0.9h-0.9h0.9h-0.9h0.9v-0.9v0.9v-0.9v0.9h0.9h0.9h-0.9h0.9v0.9h0.9v0.9h0.9v0.9h0.9h0.9v0.9h0.9v0.9h0.9
				h0.9v0.9v-0.9H319l-0.9-0.9h-0.9v-0.9h-0.9h0.9h-0.9v-0.9h-0.9h-0.9v-0.9h-0.9v-0.9h-0.9v-0.9h-0.9v-0.9v-0.9h0.9h-0.9h0.9V49
				h0.9v0.9V49h-0.9h-0.9h0.9v-0.9V49v-0.9v-0.9v0.9v-0.9v0.9h-0.9v-0.9h0.9h-0.9h0.9h-0.9v0.9h0.9h-0.9h0.9h-0.9h0.9V49h-0.9v-0.9
				h-0.9V49h-0.9h-0.9v0.9h-0.9V49h-0.9h0.9h-0.9v-0.9h0.9v-0.9v0.9v-0.9v-0.9h0.9v0.9v-0.9h0.9h-0.9v0.9l0.9-0.9v0.9v-0.9h0.9v-0.9
				h0.9h-0.9h-0.9h0.9h-0.9v0.9v-0.9h-0.9v0.9v-0.9v0.9h-0.9v0.9h-0.9v-0.9v-0.9h0.9h-0.9h-0.9h0.9h-0.9v-0.9h0.9h0.9v-0.9v0.9v-0.9
				v0.9h0.9h0.9v-0.9h0.9v0.9v-0.9v-0.9v-0.9v0.9v-0.9v-0.9h-0.9h0.9v0.9v-0.9h0.9v0.9v-0.9h0.9h-0.9v0.9v0.9h0.9v-0.9v0.9h0.9h-0.9
				v0.9h0.9v0.9v0.9v-0.9h0.9h0.9h-0.9h0.9v-0.9v0.9v-0.9v0.9v-0.9v0.9v-0.9h0.9v0.9v-0.9h0.9v0.9h-0.9h0.9v0.9h0.9v-0.9v0.9v-0.9
				v0.9h0.9v-0.9v0.9h0.9h0.9v-0.9v0.9v-0.9v0.9h0.9v-0.9h-0.9h-0.9H319v-0.9H318h0.9h0.9H319h0.9H319h0.9l-0.9-0.9h0.9H319h0.9H319
				v0.9v-0.9h0.9v-0.9h0.9h0.9h-0.9v-0.9v0.9h-0.9H319v-0.9v0.9H318v-0.9v0.9h-0.9h-0.9v-0.9h0.9h-0.9h0.9h-0.9v-0.9h-0.9v0.9v-0.9
				v-0.9h0.9v0.9v-0.9v0.9h0.9v-0.9h0.9h-0.9h0.9h-0.9v-0.9h-0.9h-0.9v-0.9h0.9h-0.9v0.9h-0.9v-0.9v0.9v-0.9v-0.9v0.9v-0.9h-0.9h0.9
				h-0.9v-0.9h0.9v-0.9h0.9V33h0.9v0.9V33v0.9V33h0.9V32h-0.9v-0.9h0.9v-0.9v0.9h0.9v-0.9v0.9v-0.9v-0.9h0.9H318v0.9h0.9H318h0.9
				v0.9H318h0.9v-0.9v0.9v-0.9v0.9h0.9v-0.9H319h0.9H319h0.9v0.9V32h0.9h-0.9h0.9v-0.9h-0.9h0.9v-0.9h0.9v0.9v-0.9h-0.9h0.9v-0.9
				h0.9h0.9v0.9h-0.9h0.9h-0.9h0.9h0.9h-0.9v-0.9v0.9h0.9v-0.9v0.9v-0.9h-0.9h0.9h-0.9h0.9v-0.9v-0.9v-0.9l-0.9-0.9h0.9h-0.9h0.9
				v-0.9h-0.9v-0.9h0.9h-0.9v-0.9h0.9v0.9v-0.9h0.9h-0.9h0.9v0.9v-0.9v0.9v-0.9v0.9h0.9v0.9h0.9v-0.9v0.9v-0.9v0.9h-0.9h0.9h-0.9
				h0.9v0.9h-0.9v-0.9h-0.9v0.9h0.9h-0.9h0.9h-0.9v0.9v0.9h0.9v0.9v0.9v0.9h-0.9v0.9V32V33V32v-0.9h0.9v-0.9v-0.9v-0.9h0.9h0.9h0.9
				v-0.9v0.9h0.9h-0.9v0.9h0.9v0.9v0.9v-0.9v0.9V32v-0.9h0.9V32h0.9V33V32V33V32v-0.9h-0.9h0.9h-0.9h0.9h-0.9v-0.9h0.9h0.9v-0.9v0.9
				v-0.9v0.9h0.9v-0.9h0.9v0.9v-0.9v-0.9v-0.9H334h0.9H334v-0.9v0.9v-0.9h-0.9h0.9h0.9v-0.9h0.9v-0.9v-0.9l-0.9-0.9h0.9h0.9h0.9
				v-0.9h-0.9h0.9h-0.9h0.9v-0.9v-0.9h-0.9v-0.9h-0.9H335H334v-0.9h-0.9h0.9h-0.9V17h0.9h-0.9h0.9v0.9v0.9v-0.9h0.9V17v0.9V17V16V17
				V16h0.9V17v0.9h0.9h-0.9V17V16h0.9h-0.9H335v-0.9H334h0.9h0.9v-0.9h0.9h-0.9v0.9h0.9h-0.9h0.9h0.9V16v-0.9V16h-0.9h0.9h-0.9V17
				v0.9V17v0.9V17h0.9V16h0.9h0.9V17V16h-0.9V17V16V17h-0.9h0.9h0.9v0.9h-0.9h-0.9v0.9h0.9h-0.9v0.9v-0.9h0.9h0.9h-0.9h0.9h-0.9v0.9
				l0.9-0.9v0.9h-0.9h0.9h-0.9v0.9v0.9v-0.9v0.9v-0.9l0.9,0.9v-0.9v0.9v0.9h0.9h-0.9h0.9v-0.9v0.9v-0.9v0.9h0.9v-0.9h0.9v-0.9h-0.9
				v-0.9v0.9v-0.9v-0.9h0.9v-0.9h0.9V17h0.9V16V17h0.9h0.9V16h0.9v-0.9V16v-0.9h0.9V16v-0.9V16h-0.9V17h-0.9v0.9h-0.9v0.9v0.9v-0.9
				v0.9v-0.9h0.9h0.9h-0.9v0.9v0.9h0.9h-0.9h0.9v-0.9h0.9v0.9v0.9v0.9h0.9v-0.9v-0.9v0.9v-0.9v0.9h0.9v-0.9v-0.9v-0.9h0.9v0.9v-0.9
				v0.9h0.9H351v-0.9h0.9v-0.9h0.9h-0.9V17h0.9h-0.9v0.9H351V17V16l0.9,0.9V16h0.9h0.9h-0.9h0.9V17V16V17h-0.9h0.9V16V17V16h0.9h0.9
				V17V16h-0.9v-0.9h-0.9v-0.9h-0.9v-0.9v-0.9h-0.9v-0.9h0.9h0.9v0.9h0.9h0.9h-0.9v-0.9v-0.9h0.9v0.9h0.9v-0.9h0.9v0.9v-0.9v0.9
				v-0.9v0.9h0.9h-0.9h0.9v0.9v-0.9v0.9v-0.9v0.9h0.9h-0.9h0.9h-0.9h0.9v0.9v-0.9v0.9v-0.9v0.9h0.9h-0.9h0.9v0.9h-0.9h0.9h-0.9h0.9
				h0.9h-0.9h0.9v0.9h-0.9h0.9V16h0.9v-0.9v-0.9h0.9v0.9V16v-0.9V16v-0.9h0.9v-0.9h0.9v0.9h0.9V16h0.9v-0.9h-0.9h0.9v-0.9v0.9v-0.9
				v0.9h0.9H367h0.9V16h0.9v-0.9V16h0.9V17h-0.9v0.9h0.9h-0.9h0.9v0.9v-0.9h0.9v0.9h0.9l-0.9,0.9h0.9v-0.9v0.9h0.9v0.9h0.9h0.9h-0.9
				l0.9,0.9v0.9v-0.9l0.9,0.9h-0.9h0.9v0.9h0.9v0.9h0.9v0.9h-0.9h0.9v0.9h0.9v0.9v0.9v-0.9v0.9h0.9h0.9v0.9h0.9v0.9v-0.9v0.9v-0.9
				v0.9v-0.9v0.9v0.9h0.9v-0.9h0.9v0.9h0.9V32V33h0.9V32V33h0.9v0.9V33v0.9V33v0.9h0.9h-0.9h0.9h0.9v0.9h-0.9v0.9v0.9h0.9h-0.9v0.9
				h-0.9v0.9v0.9h-0.9v0.9h0.9h-0.9h0.9h-0.9v0.9v0.9v0.9v0.9v0.9v0.9v0.9v0.9H384V49v0.9h0.9v0.9v0.9H384v0.9H383v0.9h-0.9h0.9h0.9
				v-0.9h0.9v-0.9h0.9v-0.9v-0.9V49v-0.9v-0.9h-0.9h0.9h-0.9v-0.9h0.9v-0.9v0.9h0.9v0.9h0.9v0.9h0.9V49h0.9v0.9v0.9v0.9v0.9h0.9v0.9
				v-0.9v0.9v-0.9h-0.9v-0.9v-0.9h0.9h-0.9v-0.9V49v-0.9l-0.9-0.9v-0.9h-0.9v-0.9v-0.9v-0.9v-0.9v-0.9h0.9v-0.9h0.9h0.9v0.9v0.9
				v-0.9v-0.9h-0.9v-0.9h0.9v0.9v0.9h0.9v0.9v-0.9v-0.9v0.9h0.9v0.9v-0.9l-0.9-0.9v-0.9v-0.9h0.9v0.9v0.9h0.9v0.9v-0.9v-0.9h-0.9
				v-0.9v-0.9v0.9h0.9v0.9h0.9v0.9h0.9v0.9v-0.9h-0.9v-0.9v-0.9h-0.9v-0.9v-0.9h-0.9h-0.9h0.9v-0.9h0.9v0.9l0.9-0.9h0.9h0.9h0.9
				h-0.9h0.9v0.9v-0.9v0.9v-0.9v0.9v-0.9v0.9v-0.9h0.9v0.9v-0.9h-0.9h0.9h0.9v0.9h0.9h0.9l0.9,0.9h-0.9h0.9h0.9h0.9h0.9h0.9v0.9h0.9
				v-0.9v0.9v-0.9v0.9v2.8v5.7v3.8v1.9v2.8v2.8v3.8v0.9v0.9V65v5.7v1.9v4.7v7.5v4.7v1.9v7.5v1.9v4.7v8.5v0.9v2.8v1.9V131v7.5v1.9
				V163v23.6v5.7h-60.3H334v-1.9V163v-12.2h-12.2h-1.9h-10.4h-3.8h-2.8h-5.7H285h-10.4v7.5h-6.6h-6.6h-32v0.9h-4.7v-0.9h-1.9v-0.9
				h-7.5v2.8h-0.9h-6.6v-0.9h-2.8v3.8L204,164h-0.9h-2.8h-0.9h-9.4V163v-0.9v-0.9h0.9v-0.9h0.9h0.9h0.9h0.9h0.9l0.9-0.9h0.9h0.9
				v-0.9h0.9h0.9h0.9v-0.9h0.9h0.9l0.9-0.9h0.9h0.9v-0.9h0.9h0.9l0.9-0.9h0.9h-0.9h0.9h0.9v-0.9h0.9h0.9v-0.9h0.9h0.9v-0.9h0.9v-0.9
				h0.9l0.9-0.9l0.9-0.9h0.9v-0.9h0.9V147h0.9v-0.9v-0.9h0.9l0.9-0.9v-0.9h0.9v-0.9v-0.9h0.9v-0.9v-0.9h0.9h-0.9h0.9v-0.9v-0.9h0.9
				h-0.9v-0.9h0.9v0.9v-0.9v0.9v-0.9v-0.9h0.9h-0.9l0.9-0.9v0.9v-0.9v-0.9h0.9v0.9v-0.9v-0.9v-0.9h-0.9V131v0.9V131h0.9v0.9h0.9
				h-0.9h0.9V131l-0.9,0.9l0.9-0.9h0.9V130h0.9v-0.9v-0.9h-0.9l0.9-0.9v-0.9h0.9h-0.9v0.9h0.9l-0.9-0.9h0.9v-0.9v0.9h-0.9v-0.9h0.9
				l0.9-0.9v0.9h0.9h0.9v-0.9h0.9v-0.9h0.9h0.9v-0.9v-0.9h0.9h0.9h0.9v-0.9v-0.9h0.9v-0.9h0.9h0.9h0.9v-0.9v0.9v-0.9h0.9v-0.9
				l0.9-0.9h-0.9h0.9V115h-0.9V114h0.9h-0.9v-0.9v0.9h-0.9v-0.9h-0.9h-0.9l-0.9,0.9h-0.9v-0.9h0.9v-0.9v-0.9v-0.9v-0.9v-0.9v-0.9
				v-0.9v-0.9h-0.9v-0.9v-0.9v-0.9l-0.9-0.9h0.9v-0.9v-0.9v-0.9V98v-0.9v-0.9h0.9v-0.9v0.9v-0.9v0.9v-0.9l0.9-0.9v-0.9v0.9v-0.9h0.9
				h0.9h-0.9h0.9h-0.9v-0.9h0.9h-0.9v0.9h-0.9v-0.9h0.9v-0.9h0.9l0.9-0.9v-0.9h0.9v-0.9h0.9h0.9h-0.9v0.9v-0.9v0.9h0.9v-0.9v0.9
				v-0.9v0.9v-0.9v-0.9h0.9v0.9h0.9h0.9v0.9v-0.9h0.9h-0.9v-0.9h-0.9v-0.9v-0.9h0.9h-0.9h0.9h-0.9h0.9h-0.9v-0.9h0.9v-0.9h-0.9h0.9
				h0.9v0.9h0.9h0.9v-0.9v0.9h0.9v-0.9h0.9h-0.9h0.9h0.9v0.9h0.9h-0.9v-0.9h-0.9h0.9h-0.9v-0.9V82v0.9h-0.9h0.9h-0.9V82V81h0.9v-0.9
				v-0.9h0.9v-0.9v0.9h-0.9h0.9h0.9v-0.9h0.9h-0.9v-0.9v0.9h0.9v-0.9v-0.9v-0.9h0.9v-0.9v0.9h0.9v-0.9v0.9v-0.9h0.9h0.9h-0.9v0.9
				h0.9h-0.9v0.9h0.9h0.9h-0.9v0.9v-0.9h-0.9h-0.9v0.9h0.9h-0.9h0.9h-0.9v0.9h0.9h-0.9V79.2"/>
			<path fill="#7F8946" d="M298.2,48.1v-0.9h0.9v0.9V49h0.9l-0.9,0.9V49v0.9h0.9V49v0.9h0.9h-0.9v0.9h0.9h-0.9h0.9h-0.9v0.9v-0.9
				v0.9h-0.9h-0.9v-0.9v0.9v-0.9v0.9h0.9h-0.9v-0.9v0.9v-0.9h0.9v-0.9v0.9v-0.9v0.9l0.9-0.9h-0.9v0.9v-0.9v0.9h-0.9l0.9-0.9h-0.9
				h0.9h-0.9h0.9h-0.9v0.9v-0.9v0.9h-0.9v-0.9h0.9h-0.9v0.9h-0.9h0.9v-0.9h-0.9h0.9V49h0.9h-0.9h0.9V48.1V49V48.1h-0.9H298.2"/>
			<path fill="#7F8946" d="M312.4,32v-0.9v-0.9v0.9v-0.9h0.9v0.9v-0.9v-0.9v0.9v-0.9v0.9v-0.9h-0.9h0.9h-0.9v-0.9h0.9v-0.9v0.9v-0.9
				h0.9h-0.9h0.9v0.9v-0.9v0.9h0.9l-0.9,0.9h0.9h-0.9h0.9h-0.9v0.9v0.9v-0.9v0.9h0.9h-0.9h0.9V32v-0.9V32v-0.9V32h-0.9v-0.9V32h-0.9
				V33V32H312.4"/>
			<path fill="#7F8946" d="M385.9,42.4h0.9v0.9v0.9h0.9v0.9v0.9l-0.9-0.9h-0.9v-0.9v-0.9V42.4"/>
			<path fill="#7F8946" d="M295.4,47.1h0.9v0.9V49v-0.9V49h-0.9v-0.9V49h-0.9h-0.9v-0.9h0.9V49v-0.9h0.9V47.1"/>
			<path fill="#7F8946" d="M314.3,43.3h-0.9H314.3h-0.9v-0.9v-0.9h0.9h-0.9h0.9v0.9h0.9v0.9l-0.9,0.9V43.3h-0.9H314.3"/>
			<path fill="#7F8946" d="M306.7,40.5h0.9v-0.9h0.9v0.9v0.9h-0.9h0.9v0.9h-0.9v-0.9v0.9v-0.9v-0.9v0.9v-0.9l-0.9,0.9V40.5v0.9V40.5
				"/>
			<path fill="#7F8946" d="M304.8,47.1h0.9h0.9h-0.9v0.9h-0.9V49v-0.9V47.1"/>
			<path fill="#7F8946" d="M347.2,14.1h-0.9v-0.9h0.9V14.1h0.9h0.9v0.9v-0.9h-0.9H347.2h0.9H347.2"/>
			<path fill="#7F8946" d="M278.4,67.8v0.9V67.8h-0.9H278.4h0.9v0.9h0.9v-0.9v0.9v0.9v-0.9h-0.9l0.9,0.9h-0.9v-0.9v0.9v-0.9h-0.9
				V67.8"/>
			<path fill="#7F8946" d="M334,24.5v-0.9V24.5h0.9v0.9v-0.9v0.9H334V24.5"/>
			<path fill="#7F8946" d="M299.2,63.1h0.9v0.9h-0.9h0.9h-0.9h0.9h-0.9V65h-0.9v-0.9V65v-0.9h0.9V63.1"/>
			<path fill="#7F8946" d="M328.4,27.3v0.9V27.3v0.9h-0.9v-0.9v-0.9h0.9V27.3h-0.9H328.4"/>
			<path fill="#7F8946" d="M272.8,70.7v0.9h0.9h-0.9h0.9v0.9h-0.9v-0.9v0.9v-0.9h-0.9v-0.9H272.8"/>
			<path fill="#7F8946" d="M322.7,27.3h-0.9H322.7v0.9h0.9v0.9h-0.9v-0.9h-0.9v-0.9H322.7"/>
			<path fill="#7F8946" d="M310.5,49v0.9h-0.9V49H310.5"/>
			<path fill="#7F8946" d="M266.2,74.4v0.9v0.9h-0.9v-0.9v0.9v-0.9v-0.9v0.9L266.2,74.4v0.9h-0.9h0.9V74.4"/>
			<path fill="#7F8946" d="M290.7,49v-0.9h0.9h0.9V49h-0.9v-0.9V49v-0.9V49H290.7"/>
			<path fill="#7F8946" d="M270,80.1v-0.9v-0.9v0.9h0.9v0.9H270"/>
			<path fill="#7F8946" d="M315.2,33h-0.9H315.2V32h0.9V33V32V33V32V33V32V33V32h-0.9V33"/>
			<path fill="#7F8946" d="M289.8,63.1v0.9V63.1l0.9,0.9v-0.9v0.9V65v-0.9h-0.9V63.1"/>
			<path fill="#7F8946" d="M273.7,81v-0.9V81h-0.9h-0.9v-0.9h0.9V81H273.7"/>
			<path fill="#7F8946" d="M332.2,26.4v-0.9V26.4v-0.9h0.9h-0.9h0.9v-0.9v0.9v-0.9v0.9v0.9H332.2"/>
			<path fill="#7F8946" d="M378.3,28.3h0.9v-0.9v0.9H378.3"/>
			<path fill="#7F8946" d="M283.2,72.6v-0.9h-0.9v-0.9v0.9h0.9h0.9v0.9v-0.9v0.9H283.2"/>
			<path fill="#7F8946" d="M308.6,43.3v-0.9h0.9v0.9H308.6"/>
			<path fill="#7F8946" d="M290.7,73.5v0.9h0.9h-0.9h0.9v0.9h-0.9v-0.9V73.5"/>
			<path fill="#7F8946" d="M273.7,67.8v-0.9h0.9v0.9H273.7h0.9H273.7"/>
			<path fill="#7F8946" d="M286.9,67.8h0.9H286.9v0.9V67.8v0.9V67.8"/>
			<path fill="#7F8946" d="M343.5,17h-0.9V16h0.9V17V16V17"/>
			<path fill="#7F8946" d="M296.3,65v-0.9v-0.9h0.9h-0.9v0.9V65"/>
			<path fill="#7F8946" d="M321.8,29.2v-0.9V29.2v-0.9V29.2v-0.9V29.2h-0.9v-0.9v0.9H321.8"/>
			<path fill="#7F8946" d="M353.8,16h0.9h0.9V17V16V17V16h-0.9H353.8"/>
			<path fill="#7F8946" d="M393.4,38.6h0.9v0.9L393.4,38.6"/>
			<path fill="#7F8946" d="M294.5,49.9v0.9h-0.9v-0.9H294.5"/>
			<path fill="#7F8946" d="M273.7,96.1h0.9H273.7v-0.9h0.9v0.9v0.9v-0.9H273.7h0.9H273.7"/>
			<path fill="#7F8946" d="M293.5,49v0.9h-0.9L293.5,49l-0.9,0.9V49H293.5"/>
			<path fill="#7F8946" d="M280.3,71.6h0.9H280.3h0.9H280.3h0.9v-0.9v0.9v-0.9v0.9H280.3"/>
			<path fill="#7F8946" d="M334,22.6h0.9H334"/>
			<path fill="#7F8946" d="M389.6,34.9h0.9v0.9v-0.9H389.6h0.9H389.6"/>
			<path fill="#7F8946" d="M337.8,16v-0.9h0.9V16H337.8"/>
			<path fill="#7F8946" d="M287.9,70.7v0.9h0.9h-0.9V70.7"/>
			<path fill="#7F8946" d="M286.9,68.8h0.9H286.9h0.9H286.9h0.9v0.9h-0.9V68.8"/>
			<path fill="#7F8946" d="M299.2,73.5h0.9h0.9h-0.9H299.2"/>
			<path fill="#7F8946" d="M273.7,66h0.9v0.9V66v0.9h-0.9V66"/>
			<path fill="#7F8946" d="M302.9,74.4H302H302.9"/>
			<path fill="#7F8946" d="M309.5,29.2v-0.9V29.2"/>
			<path fill="#7F8946" d="M341.6,16v-0.9V16"/>
			<path fill="#7F8946" d="M275.6,67.8h0.9H275.6"/>
			<path fill="#7F8946" d="M282.2,72.6v-0.9V72.6"/>
			<path fill="#7F8946" d="M269,73.5h0.9v0.9H269h0.9H269h0.9H269V73.5"/>
			<path fill="#7F8946" d="M308.6,49.9l0.9-0.9v0.9H308.6"/>
			<path fill="#7F8946" d="M334,25.4v0.9h-0.9v-0.9H334"/>
			<path fill="#7F8946" d="M282.2,69.7v0.9h0.9h-0.9h0.9h-0.9V69.7v0.9V69.7"/>
			<path fill="#7F8946" d="M273.7,71.6h0.9H273.7h0.9v0.9v-0.9H273.7v0.9V71.6v0.9V71.6"/>
			<path fill="#7F8946" d="M270.9,68.8v-0.9V68.8v-0.9V68.8v-0.9V68.8"/>
			<path fill="#7F8946" d="M308.6,42.4v0.9V42.4"/>
			<path fill="#7F8946" d="M280.3,69.7v0.9V69.7h-0.9H280.3"/>
			<path fill="#7F8946" d="M271.8,66.9v0.9V66.9"/>
			<path fill="#7F8946" d="M316.1,31.1v-0.9V31.1"/>
			<path fill="#7F8946" d="M315.2,43.3h0.9H315.2"/>
			<path fill="#7F8946" d="M269,68.8h0.9v0.9H269h0.9H269V68.8v0.9V68.8"/>
			<path fill="#7F8946" d="M308.6,26.4h0.9v0.9L308.6,26.4h0.9H308.6"/>
			<path fill="#7F8946" d="M309.5,27.3h-0.9H309.5v0.9V27.3"/>
			<path fill="#7F8946" d="M276.6,73.5h-0.9H276.6v0.9V73.5"/>
			<path fill="#7F8946" d="M273.7,68.8v0.9V68.8"/>
			<path fill="#7F8946" d="M306.7,48.1V49h-0.9v-0.9H306.7"/>
			<path fill="#7F8946" d="M324.6,16v-0.9h0.9h-0.9h0.9V16H324.6"/>
			<path fill="#7F8946" d="M270,75.4v0.9H269h0.9H269h0.9H269h0.9H269L270,75.4H269H270"/>
			<path fill="#7F8946" d="M315.2,40.5h0.9H315.2h0.9v0.9h-0.9V40.5"/>
			<path fill="#7F8946" d="M290.7,63.1v0.9V63.1"/>
			<path fill="#7F8946" d="M349.1,14.1v-0.9V14.1"/>
			<path fill="#7F8946" d="M273.7,80.1v-0.9V80.1"/>
			<path fill="#7F8946" d="M271.8,98h-0.9v-0.9V98H271.8"/>
			<path fill="#7F8946" d="M271.8,69.7v-0.9V69.7v-0.9V69.7"/>
			<path fill="#7F8946" d="M341.6,15.1v-0.9V15.1"/>
			<path fill="#7F8946" d="M300.1,48.1v-0.9V48.1h0.9H300.1"/>
			<path fill="#7F8946" d="M316.1,26.4v0.9V26.4v0.9V26.4"/>
			<path fill="#7F8946" d="M315.2,24.5v-0.9V24.5"/>
			<path fill="#7F8946" d="M384.9,46.2v-0.9h0.9h-0.9V46.2"/>
			<path fill="#7F8946" d="M302,74.4v-0.9V74.4h0.9H302"/>
			<path fill="#7F8946" d="M341.6,14.1v-0.9V14.1"/>
			<path fill="#7F8946" d="M348.2,21.7v0.9V21.7v0.9V21.7"/>
			<path fill="#7F8946" d="M314.3,39.6h0.9H314.3h0.9H314.3v0.9h0.9h-0.9V39.6"/>
			<path fill="#7F8946" d="M378.3,26.4v-0.9V26.4"/>
			<path fill="#7F8946" d="M277.5,64.1h0.9H277.5h0.9H277.5V65V64.1h0.9H277.5"/>
			<path fill="#7F8946" d="M263.4,76.3v-0.9V76.3h0.9H263.4"/>
			<path fill="#7F8946" d="M268.1,66.9V66V66.9V66h0.9h-0.9V66.9"/>
			<path fill="#7F8946" d="M303.9,39.6h-0.9H303.9h-0.9v-0.9h0.9V39.6"/>
			<path fill="#7F8946" d="M270.9,78.2H270H270.9"/>
			<path fill="#7F8946" d="M351,15.1V16h-0.9h0.9V15.1"/>
			<path fill="#7F8946" d="M327.4,21.7v-0.9V21.7"/>
			<path fill="#7F8946" d="M303.9,41.5h0.9H303.9v0.9V41.5"/>
			<path fill="#7F8946" d="M264.3,53.7h0.9H264.3"/>
			<path fill="#7F8946" d="M326.5,19.8v0.9V19.8"/>
			<path fill="#7F8946" d="M320.8,44.3h0.9v0.9h-0.9V44.3"/>
			<path fill="#7F8946" d="M297.3,46.2h0.9H297.3"/>
			<path fill="#7F8946" d="M305.8,41.5h0.9H305.8"/>
			<path fill="#7F8946" d="M275.6,69.7v-0.9V69.7v-0.9h-0.9h0.9V69.7"/>
			<path fill="#7F8946" d="M303.9,39.6v0.9V39.6"/>
			<path fill="#7F8946" d="M296.3,66V65V66V65V66h0.9H296.3"/>
			<path fill="#7F8946" d="M334,24.5v0.9V24.5h-0.9v0.9v-0.9H334"/>
			<path fill="#7F8946" d="M276.6,75.4h0.9H276.6"/>
			<path fill="#7F8946" d="M270.9,67.8v-0.9V67.8"/>
			<path fill="#7F8946" d="M295.4,47.1h-0.9H295.4h-0.9v-0.9v0.9H295.4"/>
			<path fill="#7F8946" d="M276.6,73.5h0.9H276.6"/>
			<path fill="#7F8946" d="M274.7,71.6v-0.9V71.6v-0.9V71.6h0.9H274.7"/>
			<path fill="#7F8946" d="M281.3,70.7v-0.9V70.7"/>
			<path fill="#7F8946" d="M318,41.5h0.9H318"/>
			<path fill="#7F8946" d="M271.8,71.6v0.9V71.6v0.9V71.6"/>
			<path fill="#7F8946" d="M275.6,75.4h0.9H275.6"/>
			<path fill="#7F8946" d="M282.2,72.6v0.9V72.6"/>
			<path fill="#7F8946" d="M319.9,30.2h0.9H319.9"/>
			<path fill="#7F8946" d="M318,43.3v-0.9V43.3h0.9H318h0.9H318"/>
			<path fill="#7F8946" d="M273.7,97.1V98V97.1"/>
			<path fill="#7F8946" d="M321.8,27.3h0.9H321.8"/>
			<path fill="#7F8946" d="M340.6,15.1h0.9H340.6"/>
			<path fill="#7F8946" d="M270.9,66.9h0.9H270.9H270H270.9"/>
			<path fill="#7F8946" d="M325.6,25.4h0.9v0.9h-0.9V25.4"/>
			<path fill="#7F8946" d="M393.4,37.7v0.9V37.7"/>
			<path fill="#7F8946" d="M301.1,39.6h0.9H301.1"/>
			<path fill="#7F8946" d="M326.5,20.7h-0.9H326.5"/>
			<path fill="#7F8946" d="M348.2,22.6v-0.9V22.6"/>
			<path fill="#7F8946" d="M296.3,61.2v0.9V61.2"/>
			<path fill="#7F8946" d="M328.4,20.7h0.9H328.4h0.9H328.4h0.9H328.4"/>
			<path fill="#7F8946" d="M296.3,62.2v0.9V62.2"/>
			<path fill="#7F8946" d="M283.2,73.5h0.9H283.2"/>
			<path fill="#7F8946" d="M286.9,69.7h0.9H286.9"/>
			<path fill="#7F8946" d="M310.5,49h0.9H310.5"/>
			<path fill="#7F8946" d="M269,68.8h-0.9H269"/>
			<path fill="#7F8946" d="M271.8,68.8v0.9V68.8"/>
			<path fill="#7F8946" d="M293.5,74.4v-0.9h0.9h-0.9h0.9v0.9H293.5"/>
			<path fill="#7F8946" d="M265.3,74.4h0.9H265.3"/>
			<path fill="#7F8946" d="M271.8,97.1h-0.9H271.8"/>
			<path fill="#7F8946" d="M348.2,15.1h0.9V16L348.2,15.1"/>
			<path fill="#7F8946" d="M305.8,49.9V49h0.9v0.9H305.8"/>
			<path fill="#7F8946" d="M270.9,72.6v-0.9V72.6h0.9H270.9"/>
			<path fill="#7F8946" d="M287.9,70.7v0.9h-0.9v-0.9H287.9"/>
			<path fill="#7F8946" d="M272.8,75.4h0.9H272.8"/>
			<path fill="#7F8946" d="M302,39.6v0.9V39.6"/>
			<path fill="#7F8946" d="M277.5,74.4h0.9H277.5v-0.9V74.4"/>
			<path fill="#7F8946" d="M309.5,46.2h0.9H309.5"/>
			<path fill="#7F8946" d="M319.9,31.1l0.9-0.9v0.9H319.9"/>
			<path fill="#7F8946" d="M297.3,52.8v-0.9V52.8"/>
			<path fill="#7F8946" d="M269,73.5v-0.9V73.5"/>
			<path fill="#7F8946" d="M265.3,75.4h-0.9v-0.9h0.9V75.4"/>
			<path fill="#7F8946" d="M298.2,47.1v-0.9V47.1h0.9H298.2"/>
			<path fill="#7F8946" d="M290.7,49h-0.9H290.7"/>
			<path fill="#7F8946" d="M277.5,74.4h-0.9H277.5l-0.9-0.9h0.9V74.4"/>
			<path fill="#7F8946" d="M270.9,74.4H270H270.9"/>
			<path fill="#7F8946" d="M271.8,71.6v0.9h-0.9h0.9V71.6"/>
			<path fill="#7F8946" d="M280.3,72.6h-0.9v-0.9h0.9V72.6"/>
			<path fill="#7F8946" d="M281.3,71.6v-0.9V71.6"/>
			<path fill="#7F8946" d="M238.9,86.7v-0.9h0.9h-0.9V86.7h0.9H238.9"/>
			<path fill="#7F8946" d="M340.6,20.7h0.9H340.6"/>
			<path fill="#7F8946" d="M303.9,39.6h0.9H303.9"/>
			<path fill="#7F8946" d="M284.1,70.7h0.9H284.1"/>
			<path fill="#7F8946" d="M299.2,48.1v-0.9V48.1"/>
			<path fill="#7F8946" d="M309.5,49h0.9H309.5"/>
			<path fill="#7F8946" d="M272.8,98.9h0.9v0.9h-0.9V98.9"/>
			<path fill="#7F8946" d="M273.7,97.1h0.9H273.7"/>
			<path fill="#7F8946" d="M313.3,34.9v0.9V34.9v0.9V34.9"/>
			<path fill="#7F8946" d="M319.9,25.4v-0.9V25.4"/>
			<path fill="#7F8946" d="M322.7,19.8v-0.9h0.9v0.9H322.7"/>
			<path fill="#7F8946" d="M308.6,46.2v-0.9V46.2"/>
			<path fill="#7F8946" d="M337.8,10.4v0.9V10.4"/>
			<path fill="#7F8946" d="M282.2,71.6v0.9h-0.9h0.9l-0.9-0.9H282.2"/>
			<path fill="#7F8946" d="M306.7,48.1l0.9-0.9v0.9H306.7"/>
			<path fill="#7F8946" d="M309.5,51.8h0.9H309.5"/>
			<path fill="#7F8946" d="M281.3,70.7l-0.9-0.9h0.9V70.7"/>
			<path fill="#7F8946" d="M268.1,72.6v0.9V72.6"/>
			<path fill="#7F8946" d="M313.3,36.7v-0.9V36.7"/>
			<path fill="#7F8946" d="M294.5,73.5h0.9H294.5"/>
			<path fill="#7F8946" d="M239.8,85.7v0.9V85.7"/>
			<path fill="#7F8946" d="M269,91.4v0.9V91.4"/>
			<path fill="#7F8946" d="M327.4,25.4h-0.9H327.4"/>
			<path fill="#7F8946" d="M312.4,34.9h0.9H312.4"/>
			<path fill="#7F8946" d="M317.1,24.5v-0.9V24.5v-0.9V24.5"/>
			<path fill="#7F8946" d="M294.5,49.9V49h0.9v0.9H294.5"/>
			<path fill="#7F8946" d="M353.8,15.1V16V15.1"/>
			<path fill="#7F8946" d="M325.6,21.7v-0.9h0.9h-0.9V21.7"/>
			<path fill="#7F8946" d="M317.1,33V32V33"/>
			<path fill="#7F8946" d="M265.3,76.3v-0.9V76.3"/>
			<path fill="#7F8946" d="M272.8,70.7h0.9H272.8"/>
			<path fill="#7F8946" d="M309.5,45.2v0.9V45.2"/>
			<path fill="#7F8946" d="M375.5,23.6v-0.9h0.9v0.9v-0.9v0.9H375.5"/>
			<path fill="#7F8946" d="M277.5,91.4v-0.9V91.4"/>
			<path fill="#7F8946" d="M351,15.1V16V15.1"/>
			<path fill="#7F8946" d="M317.1,30.2h0.9H317.1"/>
			<path fill="#7F8946" d="M274.7,70.7v-0.9h-0.9h0.9V70.7"/>
			<path fill="#7F8946" d="M281.3,71.6v0.9V71.6"/>
			<path fill="#7F8946" d="M355.7,16h-0.9H355.7"/>
			<path fill="#7F8946" d="M330.3,22.6v0.9V22.6"/>
			<path fill="#7F8946" d="M332.2,33V32V33"/>
			<path fill="#7F8946" d="M316.1,33V32V33"/>
			<path fill="#7F8946" d="M270,66.9h0.9H270"/>
			<path fill="#7F8946" d="M274.7,80.1v-0.9V80.1v-0.9V80.1"/>
			<path fill="#7F8946" d="M270,77.3h0.9v0.9H270V77.3"/>
			<path fill="#7F8946" d="M270,77.3h0.9H270"/>
			<path fill="#7F8946" d="M317.1,43.3v-0.9V43.3"/>
			<path fill="#7F8946" d="M282.2,74.4v0.9V74.4"/>
			<path fill="#7F8946" d="M273.7,74.4h-0.9H273.7"/>
			<path fill="#7F8946" d="M271.8,74.4h-0.9H271.8"/>
			<path fill="#7F8946" d="M329.3,22.6h0.9H329.3"/>
			<path fill="#7F8946" d="M299.2,47.1h0.9H299.2"/>
			<path fill="#7F8946" d="M274.7,81h-0.9H274.7"/>
			<path fill="#7F8946" d="M240.8,120.6v-0.9V120.6"/>
			<path fill="#7F8946" d="M282.2,68.8h-0.9H282.2"/>
			<path fill="#7F8946" d="M296.3,65h0.9v-0.9V65H296.3"/>
			<path fill="#7F8946" d="M282.2,69.7h0.9H282.2"/>
			<path fill="#7F8946" d="M314.3,40.5v-0.9V40.5"/>
			<path fill="#7F8946" d="M267.1,74.4h-0.9H267.1"/>
			<path fill="#7F8946" d="M290.7,72.6v-0.9V72.6"/>
			<path fill="#7F8946" d="M325.6,32v-0.9V32"/>
			<path fill="#7F8946" d="M319.9,29.2v0.9V29.2"/>
			<path fill="#7F8946" d="M273.7,69.7v-0.9V69.7"/>
			<path fill="#7F8946" d="M268.1,73.5v-0.9V73.5"/>
			<path fill="#7F8946" d="M319.9,30.2h0.9H319.9"/>
			<path fill="#7F8946" d="M303.9,42.4v-0.9V42.4"/>
			<path fill="#7F8946" d="M384.9,41.5h0.9H384.9"/>
			<path fill="#7F8946" d="M315.2,33h-0.9H315.2"/>
			<path fill="#7F8946" d="M271.8,73.5v-0.9V73.5"/>
			<path fill="#7F8946" d="M270.9,69.7h0.9H270.9"/>
			<path fill="#7F8946" d="M274.7,70.7v0.9V70.7"/>
			<path fill="#7F8946" d="M317.1,23.6v-0.9V23.6"/>
			<path fill="#7F8946" d="M286.9,71.6H286H286.9"/>
			<path fill="#7F8946" d="M371.7,19.8h0.9H371.7"/>
			<path fill="#7F8946" d="M287.9,68.8v-0.9V68.8"/>
			<path fill="#7F8946" d="M270.9,74.4h0.9H270.9"/>
			<path fill="#7F8946" d="M262.4,74.4v-0.9V74.4"/>
			<path fill="#7F8946" d="M284.1,86.7v-0.9V86.7"/>
			<path fill="#7F8946" d="M288.8,72.6v-0.9V72.6"/>
			<path fill="#7F8946" d="M289.8,71.6v0.9V71.6"/>
			<path fill="#7F8946" d="M282.2,72.6v0.9V72.6"/>
			<path fill="#7F8946" d="M315.2,32h0.9H315.2"/>
			<path fill="#7F8946" d="M293.5,48.1v-0.9V48.1"/>
			<path fill="#7F8946" d="M309.5,30.2h0.9H309.5"/>
			<path fill="#7F8946" d="M279.4,67.8h0.9H279.4"/>
			<path fill="#7F8946" d="M295.4,54.7v-0.9V54.7"/>
			<path fill="#7F8946" d="M296.3,66.9h0.9H296.3"/>
			<path fill="#7F8946" d="M274.7,68.8v0.9V68.8"/>
			<path fill="#7F8946" d="M275.6,74.4h-0.9H275.6"/>
			<path fill="#7F8946" d="M298.2,44.3v-0.9V44.3v-0.9V44.3"/>
			<path fill="#7F8946" d="M291.6,75.4h0.9H291.6"/>
			<path fill="#7F8946" d="M401.9,35.8h-0.9H401.9"/>
			<path fill="#7F8946" d="M282.2,70.7v0.9V70.7v0.9V70.7"/>
			<path fill="#7F8946" d="M270.9,97.1h0.9H270.9"/>
			<path fill="#7F8946" d="M273.7,70.7v0.9V70.7"/>
			<path fill="#7F8946" d="M308.6,43.3v-0.9V43.3"/>
			<path fill="#7F8946" d="M273.7,65h0.9H273.7"/>
			<path fill="#7F8946" d="M313.3,33V32V33"/>
			<path fill="#7F8946" d="M305.8,47.1v-0.9V47.1"/>
			<path fill="#7F8946" d="M269,66.9h0.9H269"/>
			<path fill="#7F8946" d="M299.2,53.7h0.9H299.2"/>
			<path fill="#7F8946" d="M274.7,80.1v-0.9V80.1"/>
			<path fill="#7F8946" d="M296.3,50.9h0.9H296.3"/>
			<path fill="#7F8946" d="M319,25.4v-0.9V25.4"/>
			<path fill="#7F8946" d="M314.3,36.7v0.9V36.7"/>
			<path fill="#7F8946" d="M275.6,82.9h0.9H275.6"/>
			<path fill="#7F8946" d="M270.9,73.5h0.9H270.9"/>
			<path fill="#7F8946" d="M309.5,33.9h-0.9H309.5"/>
			<path fill="#7F8946" d="M317.1,30.2v-0.9V30.2"/>
			<path fill="#7F8946" d="M315.2,39.6v-0.9V39.6"/>
			<path fill="#7F8946" d="M268.1,66.9V66V66.9"/>
			<path fill="#7F8946" d="M325.6,22.6v-0.9V22.6"/>
			<path fill="#7F8946" d="M342.5,11.3v-0.9V11.3"/>
			<path fill="#7F8946" d="M327.4,23.6v0.9V23.6"/>
			<path fill="#7F8946" d="M270,66.9V66V66.9"/>
			<path fill="#7F8946" d="M289.8,72.6v-0.9V72.6v-0.9V72.6"/>
			<path fill="#7F8946" d="M280.3,69.7h0.9H280.3"/>
			<path fill="#7F8946" d="M311.4,32h0.9H311.4h0.9H311.4"/>
			<path fill="#7F8946" d="M295.4,78.2v-0.9h0.9v0.9H295.4"/>
			<path fill="#7F8946" d="M289.8,72.6h0.9H289.8"/>
			<path fill="#7F8946" d="M313.3,38.6v0.9V38.6"/>
			<path fill="#7F8946" d="M315.2,28.3h0.9H315.2"/>
			<path fill="#7F8946" d="M314.3,40.5h0.9H314.3"/>
			<path fill="#7F8946" d="M286.9,71.6v-0.9V71.6"/>
			<path fill="#7F8946" d="M302,45.2v-0.9V45.2"/>
			<path fill="#7F8946" d="M291.6,75.4v-0.9V75.4"/>
			<path fill="#7F8946" d="M314.3,37.7v-0.9V37.7"/>
			<path fill="#7F8946" d="M275.6,103.7h-0.9H275.6"/>
			<path fill="#7F8946" d="M269,72.6h-0.9H269"/>
			<path fill="#7F8946" d="M315.2,30.2v-0.9V30.2"/>
			<path fill="#7F8946" d="M398.1,33.9v0.9V33.9"/>
			<path fill="#7F8946" d="M280.3,70.7v0.9V70.7"/>
			<path fill="#7F8946" d="M298.2,47.1v-0.9V47.1"/>
			<path fill="#7F8946" d="M281.3,69.7h-0.9H281.3"/>
			<path fill="#7F8946" d="M272.8,68.8h-0.9H272.8"/>
			<path fill="#7F8946" d="M406.6,38.6h-0.9H406.6v-0.9V38.6"/>
			<path fill="#7F8946" d="M270.9,74.4v-0.9V74.4"/>
			<path fill="#7F8946" d="M308.6,30.2h-0.9H308.6"/>
			<path fill="#7F8946" d="M319.9,31.1v-0.9V31.1"/>
			<path fill="#7F8946" d="M304.8,47.1v-0.9V47.1"/>
			<path fill="#7F8946" d="M270.9,73.5v-0.9V73.5"/>
			<path fill="#7F8946" d="M296.3,50.9h0.9H296.3"/>
			<path fill="#7F8946" d="M282.2,72.6h-0.9H282.2"/>
			<path fill="#7F8946" d="M327.4,19.8h0.9H327.4"/>
			<path fill="#7F8946" d="M314.3,33.9V33V33.9"/>
			<path fill="#7F8946" d="M271.8,72.6h0.9H271.8"/>
			<path fill="#7F8946" d="M272.8,74.4v0.9V74.4"/>
			<path fill="#7F8946" d="M316.1,41.5h0.9H316.1"/>
			<path fill="#7F8946" d="M348.2,22.6v-0.9V22.6"/>
			<path fill="#7F8946" d="M286.9,71.6v-0.9V71.6"/>
			<path fill="#7F8946" d="M328.4,18.8h-0.9H328.4"/>
			<path fill="#7F8946" d="M268.1,67.8v0.9V67.8"/>
			<path fill="#7F8946" d="M333.1,24.5h-0.9H333.1"/>
			<path fill="#7F8946" d="M313.3,53.7h0.9H313.3"/>
			<path fill="#7F8946" d="M314.3,32h-0.9H314.3"/>
			<path fill="#7F8946" d="M297.3,50.9v-0.9V50.9"/>
			<path fill="#7F8946" d="M286.9,67.8v-0.9V67.8"/>
			<path fill="#7F8946" d="M289.8,73.5h0.9H289.8"/>
			<path fill="#7F8946" d="M300.1,49v0.9V49"/>
			<path fill="#7F8946" d="M277.5,69.7h-0.9v-0.9h0.9V69.7"/>
			<path fill="#7F8946" d="M273.7,81h0.9H273.7"/>
			<path fill="#7F8946" d="M271.8,76.3h-0.9H271.8"/>
			<path fill="#7F8946" d="M353.8,17V16V17"/>
			<path fill="#7F8946" d="M308.6,38.6h-0.9H308.6"/>
			<path fill="#7F8946" d="M315.2,28.3v-0.9V28.3"/>
			<path fill="#7F8946" d="M290.7,72.6h0.9H290.7"/>
			<path fill="#7F8946" d="M274.7,80.1h-0.9H274.7"/>
			<path fill="#7F8946" d="M317.1,24.5v-0.9V24.5"/>
			<path fill="#7F8946" d="M275.6,71.6h-0.9H275.6"/>
			<path fill="#7F8946" d="M272.8,71.6v-0.9V71.6"/>
			<path fill="#7F8946" d="M273.7,71.6v-0.9V71.6"/>
			<path fill="#7F8946" d="M270,66.9V66V66.9"/>
			<path fill="#7F8946" d="M289.8,72.6h0.9H289.8"/>
			<path fill="#7F8946" d="M317.1,22.6h0.9H317.1"/>
			<path fill="#7F8946" d="M354.8,16h-0.9H354.8"/>
			<path fill="#7F8946" d="M263.4,75.4v0.9V75.4"/>
			<path fill="#7F8946" d="M287.9,71.6v-0.9V71.6"/>
			<path fill="#7F8946" d="M263.4,84.8h0.9H263.4"/>
			<path fill="#7F8946" d="M275.6,73.5h0.9H275.6"/>
			<path fill="#7F8946" d="M268.1,72.6h-0.9H268.1"/>
			<path fill="#7F8946" d="M319.9,29.2v0.9V29.2"/>
			<path fill="#7F8946" d="M313.3,32h0.9H313.3"/>
			<path fill="#7F8946" d="M273.7,97.1h0.9H273.7"/>
			<path fill="#7F8946" d="M286.9,71.6h0.9H286.9"/>
			<path fill="#7F8946" d="M301.1,52.8v-0.9V52.8"/>
			<path fill="#7F8946" d="M293.5,49.9h-0.9H293.5"/>
			<path fill="#7F8946" d="M316.1,41.5h0.9H316.1"/>
			<path fill="#7F8946" d="M323.7,20.7v-0.9V20.7"/>
			<path fill="#7F8946" d="M294.5,58.4v-0.9V58.4"/>
			<path fill="#7F8946" d="M326.5,29.2v-0.9V29.2"/>
			<path fill="#7F8946" d="M326.5,20.7v-0.9V20.7"/>
			<path fill="#7F8946" d="M312.4,33h0.9H312.4"/>
			<path fill="#7F8946" d="M300.1,53.7v-0.9V53.7"/>
			<path fill="#7F8946" d="M273.7,69.7v-0.9V69.7"/>
			<path fill="#7F8946" d="M296.3,49v-0.9V49"/>
			<path fill="#7F8946" d="M264.3,75.4v-0.9V75.4"/>
			<path fill="#7F8946" d="M277.5,65v-0.9V65"/>
			<path fill="#7F8946" d="M270.9,74.4v-0.9V74.4"/>
			<path fill="#7F8946" d="M318,29.2h0.9H318"/>
			<path fill="#7F8946" d="M302.9,48.1v-0.9V48.1"/>
			<path fill="#7F8946" d="M351,15.1h0.9H351"/>
			<path fill="#7F8946" d="M314.3,31.1h0.9H314.3"/>
			<path fill="#7F8946" d="M348.2,22.6v-0.9V22.6"/>
			<path fill="#7F8946" d="M315.2,32l0.9,0.9h-0.9V32"/>
			<path fill="#7F8946" d="M308.6,46.2h0.9H308.6"/>
			<path fill="#7F8946" d="M326.5,21.7v-0.9V21.7"/>
			<path fill="#7F8946" d="M310.5,54.7v-0.9V54.7"/>
			<path fill="#7F8946" d="M282.2,71.6v-0.9V71.6"/>
			<path fill="#7F8946" d="M270.9,69.7v-0.9V69.7"/>
			<path fill="#7F8946" d="M298.2,47.1v-0.9V47.1"/>
			<path fill="#7F8946" d="M378.3,25.4h0.9H378.3"/>
			<path fill="#7F8946" d="M292.6,49h0.9H292.6"/>
			<path fill="#7F8946" d="M317.1,44.3h0.9H317.1"/>
			<path fill="#7F8946" d="M269,75.4h0.9H269"/>
			<path fill="#7F8946" d="M312.4,35.8v-0.9V35.8"/>
			<path fill="#7F8946" d="M302,52.8v-0.9V52.8"/>
			<path fill="#7F8946" d="M302.9,61.2v-0.9V61.2"/>
			<path fill="#7F8946" d="M285,71.6h0.9H285"/>
			<path fill="#7F8946" d="M315.2,39.6v-0.9V39.6"/>
			<path fill="#7F8946" d="M275.6,103.7h-0.9H275.6"/>
			<path fill="#7F8946" d="M312.4,32h-0.9H312.4"/>
			<path fill="#7F8946" d="M313.3,33h-0.9H313.3"/>
			<path fill="#7F8946" d="M337.8,10.4h-0.9H337.8"/>
			<path fill="#7F8946" d="M271.8,70.7v-0.9V70.7"/>
			<path fill="#7F8946" d="M313.3,37.7h0.9H313.3"/>
			<path fill="#7F8946" d="M316.1,32V33V32"/>
			<path fill="#7F8946" d="M296.3,63.1v-0.9V63.1"/>
			<path fill="#7F8946" d="M275.6,77.3h-0.9H275.6"/>
			<path fill="#7F8946" d="M295.4,73.5v-0.9V73.5"/>
			<path fill="#7F8946" d="M314.3,32V33V32"/>
			<path fill="#7F8946" d="M292.6,49h-0.9H292.6"/>
			<path fill="#7F8946" d="M317.1,39.6v-0.9V39.6"/>
			<path fill="#7F8946" d="M294.5,50.9v-0.9V50.9"/>
			<path fill="#7F8946" d="M297.3,49v0.9V49"/>
			<path fill="#7F8946" d="M297.3,49.9V49V49.9"/>
			<path fill="#7F8946" d="M304.8,49v-0.9V49"/>
			<path fill="#7F8946" d="M317.1,45.2h0.9H317.1"/>
			<path fill="#7F8946" d="M320.8,32v-0.9V32"/>
			<path fill="#7F8946" d="M313.3,44.3v-0.9V44.3"/>
			<path fill="#7F8946" d="M308.6,50.9v-0.9V50.9"/>
			<path fill="#7F8946" d="M315.2,41.5v-0.9V41.5"/>
		</g>
		<g id="sa3_2011_aust_29">
			<path fill="#7F8946" d="M63.6,385.4v-0.9v-0.9h-0.9v-0.9h-0.9v-0.9h-0.9v-0.9h-0.9v-0.9h-0.9v-0.9H58v-0.9H57H58v-0.9H57V376v0.9
				V376h-0.9H57V375v-0.9v-0.9v-0.9v-0.9h-0.9v-0.9h-0.9v-0.9v-0.9h-0.9v-0.9h-0.9v-0.9h-0.9v-0.9v-0.9h-0.9v-0.9h-0.9v-0.9h-0.9
				h-0.9v-0.9h-0.9v-0.9V360h-0.9V359v-0.9h-0.9v-0.9v-0.9v-0.9l-0.9-0.9v-0.9v-0.9l0.9-0.9v-0.9h0.9v-0.9v-0.9v0.9v0.9v-0.9h-0.9
				v-0.9v-0.9v-0.9h-0.9v-0.9v-0.9v-0.9h-0.9V343V342h-0.9v-0.9v-0.9h-0.9v-0.9v-0.9H41h2.8v-0.9v-1.9h3.8v1.9h1.9v0.9h3.8v1.9h7.5
				h0.9h4.7h5.7v-1.9H74v-0.9v-4.7v-2.8v-1.9h2.8V327v-2.8v-3.8v-0.9v-0.9v-0.9v-0.9v-0.9h1.9v-1.9V311v-1.9h-0.9v-0.9v-0.9v-1.9
				h0.9h0.9v-0.9h0.9h0.9v-1.9h1.9v-1.9h1.9h0.9h0.9H90h0.9h0.9h0.9h0.9h0.9h1.9h1.9h1.9h0.9h0.9v-0.9h0.9v-0.9h2.8h0.9h0.9h2.8h2.8
				v0.9h1.9h2.8h1.9h0.9v-0.9h0.9h0.9h0.9v-1.9v-0.9v-2.8h4.7h2.8v0.9h1.9v-2.8v-1.9h0.9v-3.8v-1.9v-2.8h-1.9v-1.9h3.8V277h-1.9
				h-3.8v-1.9v-1.9h0.9v-0.9v-2.8h3.8v-1.9v-7.5v-0.9v-1.9h-0.9h-1.9h-1.9v-2.8v-0.9h0.9h0.9v-0.9v-0.9v0.9v-0.9l0.9-0.9v-1.9h-1.9
				v-0.9l-0.9-0.9v-0.9h1.9V245h0.9h0.9h0.9h3.8h2.8v-1.9h0.9h0.9h1.9h2.8h1.9v2.8h0.9h0.9h0.9h0.9h0.9h0.9h0.9h0.9h0.9h0.9h0.9h0.9
				h0.9h0.9h0.9h0.9h1.9h0.9h0.9h0.9h0.9h0.9h0.9h0.9h0.9h0.9h0.9h0.9h0.9h0.9h0.9h0.9h0.9h0.9h0.9h0.9h0.9h0.9h0.9h0.9h0.9h0.9h0.9
				h0.9h0.9h0.9h0.9h0.9h0.9h0.9h0.9h0.9h0.9h0.9h0.9h0.9h0.9h0.9h0.9h0.9l-0.9,0.9v0.9v0.9v0.9v0.9l-0.9,0.9l-0.9,0.9l-0.9,0.9h0.9
				h0.9h0.9h0.9h0.9h0.9h0.9h0.9h0.9v-5.7v-1.9h0.9h0.9h0.9h0.9h0.9h0.9h0.9h0.9h0.9h0.9h0.9h0.9h0.9h0.9h0.9h0.9h0.9h0.9h0.9h0.9
				h0.9h0.9h0.9h0.9h0.9h0.9h0.9h0.9h0.9h0.9h0.9h0.9h0.9h0.9h0.9h0.9h0.9h0.9h0.9h0.9h0.9h0.9h0.9h0.9h0.9h0.9h0.9h0.9h0.9h0.9h0.9
				h0.9h0.9v0.9h0.9h0.9h0.9h0.9h0.9h0.9h0.9h0.9h0.9h0.9h0.9h0.9h0.9h0.9h0.9h0.9h0.9h0.9h0.9h0.9h0.9h0.9h0.9h0.9h0.9h0.9v-0.9
				h0.9h0.9h0.9h0.9h0.9h0.9h0.9h0.9h0.9h0.9h0.9h0.9h0.9h0.9h0.9h0.9v24.5V294v33h-0.9h-0.9h-0.9h-0.9h-0.9h-0.9h-0.9h-0.9h-0.9
				h-0.9h-0.9h-0.9h-0.9h-0.9h-0.9h-0.9H286H285h-0.9h-0.9h-0.9h-0.9h-0.9h-0.9h-0.9h-0.9h-0.9h-0.9h-0.9h-0.9h-0.9h-0.9h-0.9H270
				H269h-0.9h-0.9h-0.9h-0.9h-0.9h-0.9h-0.9v-1.9h-0.9h-0.9v-0.9h-0.9h-0.9h-0.9h-0.9h-0.9h-1.9v1.9h-5.7v2.8h-10.4v-0.9h-6.6v12.2
				h-2.8h-16h-3.8h-7.5h-11.3v4.7v2.8h1.9v0.9v1.9v7.5h0.9v6.6h-3.8v0.9v0.9v0.9v0.9H188h-3.8h-0.9v9.4h-0.9v0.9v0.9l-2.8,4.7H172
				l-2.8,3.8h-0.9h-2.8h-8.5v-0.9v-2.8h-4.7h-1.9v0.9v0.9v1.9v0.9v1.9l0.9,0.9v0.9v0.9v0.9l0.9,0.9v0.9h-0.9h-0.9h-0.9h-0.9h-0.9
				h-0.9h-0.9h-0.9h-0.9h-0.9h-0.9h-0.9h-0.9H139H138h-0.9h-0.9h-0.9h-0.9h-0.9h-0.9v0.9h-0.9h-0.9v-0.9h-0.9v0.9h-0.9v0.9v0.9v0.9
				h-0.9v0.9h-1.9h-7.5h-0.9v-0.9h-0.9h-0.9h-3.8v-0.9h-0.9h-0.9v0.9l0.9,0.9h0.9v0.9h-0.9h-0.9l0.9,0.9h-0.9v-0.9l-0.9,0.9h0.9
				h-0.9h-0.9h-0.9H106h-0.9h-0.9h-0.9v0.9h-0.9h-0.9h-0.9h-0.9h-0.9v0.9h0.9v0.9v0.9v0.9v0.9h0.9v0.9h-0.9h-0.9h-0.9v0.9h-0.9h-0.9
				h-0.9v-0.9h-0.9h-0.9h-0.9h-0.9H90H89h-0.9v0.9h-0.9h-0.9V409h-0.9v0.9h-0.9h-0.9h-0.9v0.9h-0.9h-0.9h-0.9h-0.9v-0.9h-2.8H73
				h-0.9V409V408h-1.9h-0.9h-0.9h-0.9v0.9h-0.9V408h-0.9v-0.9v0.9v-0.9v-0.9v-0.9v-0.9h0.9h-0.9h0.9v-0.9v-0.9v-0.9h-0.9v-0.9v-0.9
				v-0.9v-0.9v-0.9v-0.9h0.9v-0.9v-0.9v-0.9V392h-0.9V391v-0.9v-0.9h-0.9v-0.9v-0.9v-0.9h-0.9V385.4"/>
			<path fill="#7F8946" d="M34.4,369.4v-0.9h0.9v-0.9v0.9h-0.9h0.9v0.9H34.4"/>
			<path fill="#7F8946" d="M35.3,368.4v-0.9h0.9h-0.9V368.4"/>
			<path fill="#7F8946" d="M41,380.7v-0.9h0.9H41h0.9v-0.9v0.9H41V380.7"/>
			<path fill="#7F8946" d="M37.2,375v-0.9V375"/>
			<path fill="#7F8946" d="M38.2,374.1v0.9V374.1"/>
			<path fill="#7F8946" d="M40,378.8v0.9V378.8"/>
			<path fill="#7F8946" d="M36.3,368.4h0.9H36.3h0.9H36.3"/>
			<path fill="#7F8946" d="M37.2,376V375V376"/>
			<path fill="#7F8946" d="M38.2,375h-0.9H38.2"/>
			<path fill="#7F8946" d="M38.2,373.1v0.9V373.1"/>
			<path fill="#7F8946" d="M41.9,378.8v-0.9V378.8"/>
			<path fill="#7F8946" d="M39.1,374.1v-0.9V374.1"/>
			<path fill="#7F8946" d="M37.2,369.4v-0.9V369.4"/>
			<path fill="#7F8946" d="M36.3,368.4h0.9H36.3"/>
			<path fill="#7F8946" d="M65.5,404.2h0.9H65.5"/>
		</g>
		<g id="sa3_2011_aust_30">
			<path fill="#7F8946" d="M56.1,212H57H56.1H57v-0.9h-0.9H57v-0.9v0.9H58v-0.9H57H58H57l0.9-0.9h0.9H58v-0.9v-0.9h0.9v0.9v-0.9
				v-0.9h0.9h0.9h0.9v-0.9h0.9v-0.9h0.9v0.9v-0.9h0.9v-0.9h0.9h0.9h-0.9h0.9h0.9h0.9v-0.9h0.9h0.9h0.9h-0.9v-0.9h0.9v0.9v-0.9v0.9
				h0.9h-0.9v-0.9h0.9v-0.9H73v0.9h-0.9H73h-0.9H73H74v-0.9h0.9v0.9v-0.9h0.9h0.9v-0.9h-0.9v0.9v-0.9h0.9v0.9v-0.9h0.9h-0.9h0.9v0.9
				v-0.9v0.9v-0.9v0.9v-0.9h0.9v0.9v-0.9h0.9h-0.9v-0.9h0.9h-0.9h0.9v-0.9v0.9h-0.9h0.9h-0.9h0.9v-0.9v0.9h-0.9v-0.9h0.9h-0.9h0.9
				h-0.9h0.9h0.9v-0.9v0.9h-0.9v-0.9h0.9h-0.9h0.9V196v0.9h0.9h-0.9h0.9h-0.9h0.9h-0.9h0.9V196v0.9l-0.9-0.9h0.9h0.9v-0.9v0.9v-0.9
				h-0.9v0.9v-0.9h0.9h0.9v-0.9h0.9h0.9l-0.9-0.9h0.9v0.9v-0.9v0.9v-0.9v0.9v-0.9v0.9v-0.9h0.9v0.9v-0.9h-0.9h0.9h0.9h-0.9h0.9h-0.9
				l0.9-0.9v-0.9v0.9v-0.9v0.9v-0.9h0.9v-0.9v-0.9v0.9v-0.9v0.9v-0.9v0.9v-0.9H89v-0.9v0.9v-0.9H90l0.9-0.9h0.9h0.9v-0.9h0.9v0.9
				h-0.9h0.9v0.9v-0.9h-0.9h0.9v-0.9v0.9v-0.9v0.9v-0.9v0.9v-0.9l0.9,0.9v-0.9h0.9v-0.9v-0.9h0.9v-0.9v0.9v-0.9v0.9v-0.9v0.9h-0.9
				v-0.9h0.9h-0.9v0.9v-0.9v-0.9h0.9v0.9h0.9h-0.9h0.9h0.9h-0.9h0.9v0.9v-0.9h0.9v-0.9h0.9h0.9h0.9v0.9v-0.9h0.9v0.9v-0.9h-0.9v0.9
				v-0.9h-0.9h0.9v-0.9v0.9h0.9h-0.9v-0.9h0.9h0.9h-0.9v-0.9h0.9v0.9v-0.9h-0.9h0.9h0.9h-0.9h0.9h0.9h-0.9h0.9h-0.9h0.9h-0.9
				l0.9-0.9v0.9V180v0.9h0.9H106V180h0.9v0.9V180v0.9h0.9h-0.9h0.9h-0.9V180h0.9h-0.9V179h0.9v-0.9h0.9h0.9h-0.9v-0.9h0.9h0.9v-0.9
				h-0.9v0.9v-0.9h0.9v-0.9h0.9v0.9h-0.9v0.9v0.9h-0.9h0.9l-0.9,0.9h0.9v0.9h0.9h0.9h0.9v0.9V180v0.9V180h0.9h-0.9h0.9h-0.9V179h0.9
				h0.9h-0.9h0.9h-0.9h0.9h-0.9h0.9v-0.9h0.9v0.9v-0.9h0.9l0.9,0.9h-0.9h0.9v-0.9v0.9v-0.9v0.9v-0.9h0.9v-0.9h0.9h-0.9h0.9v0.9h-0.9
				h0.9v-0.9v0.9h-0.9v0.9v-0.9v0.9h0.9h-0.9h0.9h-0.9h0.9h-0.9v0.9h0.9h-0.9h0.9V179v0.9h0.9h-0.9h0.9h-0.9h0.9h0.9v0.9V180v0.9
				V180h0.9v0.9H122h0.9V180v0.9h0.9H123v0.9v-0.9h0.9H123v0.9h0.9v-0.9v0.9v-0.9h0.9h-0.9h0.9h-0.9h0.9v0.9v-0.9v0.9v-0.9V180v0.9
				V180h0.9v0.9V180v0.9h0.9h-0.9V180h0.9h0.9h0.9v0.9V180v0.9V180h0.9V179v0.9V179h0.9v0.9V179v0.9h0.9V179v0.9V179h0.9h-0.9h0.9
				v0.9V179v0.9V179h0.9h0.9h0.9h-0.9v-0.9h0.9h0.9v-0.9h0.9v-0.9v0.9h-0.9v-0.9h0.9v0.9v-0.9h0.9h-0.9h0.9h-0.9h0.9h0.9H138h0.9
				v-0.9v0.9H138v-0.9h0.9H138h0.9H138v-0.9h0.9H138h0.9H138h0.9h0.9v-0.9h0.9v-0.9h0.9h0.9v-0.9h0.9v-0.9h0.9v0.9h-0.9h0.9h-0.9
				h0.9h-0.9v0.9v-0.9h0.9v0.9v-0.9h0.9h0.9h0.9h-0.9h0.9v-0.9h0.9h-0.9h0.9h-0.9l0.9,0.9h-0.9h0.9h-0.9h0.9h0.9v-0.9h0.9v0.9v-0.9
				v0.9v-0.9v0.9v-0.9h0.9v0.9v-0.9h0.9v0.9v-0.9h0.9h-0.9h0.9h-0.9h0.9h-0.9v-0.9h0.9v0.9v0.9v-0.9v0.9v-0.9v0.9h0.9h-0.9h0.9v-0.9
				h-0.9h0.9v0.9v-0.9h0.9h-0.9h0.9h-0.9h-0.9h0.9v-0.9v0.9l0.9-0.9v0.9h0.9H155h0.9h0.9v-0.9h0.9h0.9h0.9h0.9h-0.9v-0.9v0.9v-0.9
				v-0.9h0.9v0.9v-0.9v0.9v-0.9v-0.9h0.9h0.9v-0.9h0.9v-0.9V164h0.9V163h0.9h0.9v-0.9h0.9v0.9h0.9h-0.9h0.9h0.9h-0.9v-0.9v0.9v-0.9
				v0.9v-0.9v-0.9h0.9v0.9h0.9h0.9h0.9h0.9v0.9h0.9h0.9h0.9v0.9h0.9h0.9v0.9h0.9V164h0.9h0.9V163h0.9h-0.9v0.9V163v0.9h0.9h-0.9V163
				h0.9h0.9h-0.9h0.9v-0.9h-0.9h0.9h-0.9h0.9h-0.9h0.9v-0.9v0.9h0.9h0.9h0.9v-0.9h0.9h0.9h0.9h0.9h0.9v0.9v0.9v0.9h9.4h0.9h2.8h0.9
				l0.9-0.9v-3.8h2.8v0.9h6.6h0.9v-2.8h7.5v0.9h1.9v0.9h4.7v-0.9h32h6.6h6.6v-7.5H285h12.2h5.7h2.8h3.8h10.4h1.9H334V163v27.3v1.9
				h12.2h60.3v18.8v6.6v17.9v0.9v9.4h-11.3h-17H334h-12.2h-12.2H302h-0.9h-0.9h-0.9h-0.9h-0.9h-0.9h-0.9h-0.9h-0.9h-0.9h-0.9h-0.9
				h-0.9h-0.9h-0.9h-0.9v0.9H286H285h-0.9h-0.9h-0.9h-0.9h-0.9h-0.9h-0.9h-0.9h-0.9h-0.9h-0.9h-0.9h-0.9h-0.9h-0.9H270H269h-0.9
				h-0.9h-0.9h-0.9h-0.9h-0.9h-0.9v-0.9h-0.9h-0.9h-0.9h-0.9h-0.9h-0.9h-0.9h-0.9h-0.9H253h-0.9h-0.9h-0.9h-0.9h-0.9h-0.9h-0.9h-0.9
				h-0.9h-0.9h-0.9h-0.9h-0.9h-0.9h-0.9h-0.9H237H236h-0.9h-0.9h-0.9h-0.9h-0.9h-0.9h-0.9h-0.9h-0.9h-0.9h-0.9h-0.9h-0.9h-0.9h-0.9
				H221H220h-0.9h-0.9h-0.9h-0.9h-0.9h-0.9h-0.9h-0.9v1.9v5.7h-0.9h-0.9h-0.9h-0.9h-0.9h-0.9h-0.9h-0.9H204l0.9-0.9l0.9-0.9l0.9-0.9
				v-0.9v-0.9v-0.9v-0.9l0.9-0.9h-0.9h-0.9h-0.9H204h-0.9h-0.9h-0.9h-0.9h-0.9h-0.9h-0.9h-0.9h-0.9h-0.9h-0.9h-0.9h-0.9h-0.9h-0.9
				h-0.9H188H187h-0.9h-0.9h-0.9h-0.9h-0.9h-0.9h-0.9h-0.9h-0.9h-0.9h-0.9h-0.9h-0.9h-0.9h-0.9H172H171h-0.9h-0.9h-0.9h-0.9h-1.9
				h-0.9h-0.9h-0.9h-0.9h-0.9h-0.9h-0.9h-0.9h-0.9h-0.9H155h-0.9h-0.9h-0.9h-0.9h-0.9v-2.8h-1.9h-2.8h-1.9h-0.9h-0.9v1.9H139h-3.8
				h-0.9h-0.9h-0.9v0.9h-1.9v0.9l0.9,0.9v0.9h1.9v1.9l-0.9,0.9v0.9v-0.9v0.9v0.9h-0.9h-0.9v0.9h-14.1v0.9h-0.9h-0.9h-0.9h-1.9v-5.7
				h-6.6v-1.9h-0.9h-0.9v2.8h-4.7v0.9h-1.9h-0.9v-0.9h-0.9h-0.9h-0.9v-0.9h-0.9H90v1.9v0.9v4.7H89h-0.9v-0.9h-0.9h-1.9h-0.9v-2.8
				h-0.9v-0.9v-0.9h-0.9h-0.9v-0.9v-0.9h-0.9h-0.9v-1.9h-0.9h-0.9V245h-0.9h-0.9h-0.9H73h-0.9h-0.9v1.9h-0.9h-0.9h-0.9h-1.9h-0.9
				h-0.9h-0.9h-1.9h-1.9V245h-0.9H58v-0.9v-0.9v-1.9h0.9v-1.9h-2.8h-0.9v-1.9h-0.9v-0.9h0.9h0.9H57v-0.9v-0.9H58v-0.9h1.9h-0.9v-0.9
				v-0.9v-0.9l0.9-0.9V229h0.9V228v-0.9h-0.9h-0.9H58v-3.8H57h-0.9v-2.8v-2.8h-2.8h-0.9h0.9h0.9h-0.9h0.9h-0.9v-0.9h0.9v-0.9h-0.9
				v-0.9h0.9v0.9v-0.9v0.9v-0.9h0.9h-0.9v-0.9h0.9v0.9v-0.9v0.9v-0.9V213h0.9h-0.9h0.9h-0.9h0.9V212v-0.9V212"/>
			<path fill="#7F8946" d="M77.7,180.9v0.9v0.9h-0.9v0.9h-0.9v0.9v-0.9h-0.9H74h0.9v0.9H74v-0.9v-0.9l0.9-0.9v-0.9h0.9V180h0.9V179
				h0.9v0.9V180.9"/>
			<path fill="#7F8946" d="M110.7,174.3h0.9v-0.9h0.9h-0.9v0.9v-0.9v0.9h0.9v0.9h-0.9h-0.9V174.3"/>
			<path fill="#7F8946" d="M102.2,177.1h0.9h0.9v-0.9v0.9h0.9v-0.9v0.9h-0.9v0.9h-0.9h-0.9V177.1v0.9V177.1"/>
			<path fill="#7F8946" d="M105.1,179v0.9h0.9V179h0.9v0.9H106h-0.9v0.9V180V179"/>
			<path fill="#7F8946" d="M106,176.2h0.9v0.9H106h-0.9h0.9h-0.9h0.9V176.2"/>
			<path fill="#7F8946" d="M55.1,212v0.9V212h-0.9v-0.9h0.9V212"/>
			<path fill="#7F8946" d="M110.7,171.5h0.9h0.9v0.9h0.9h0.9h-0.9h-0.9h-0.9v-0.9H110.7"/>
			<path fill="#7F8946" d="M132.4,178.1v-0.9h0.9v0.9v0.9L132.4,178.1"/>
			<path fill="#7F8946" d="M106,174.3h-0.9v0.9v-0.9v-0.9h0.9V174.3"/>
			<path fill="#7F8946" d="M79.6,173.4v0.9V173.4v0.9v0.9v-0.9v0.9v-0.9h-0.9h0.9V173.4h-0.9H79.6v-0.9V173.4"/>
			<path fill="#7F8946" d="M106.9,177.1h0.9H106.9v0.9H106h0.9V177.1"/>
			<path fill="#7F8946" d="M109.8,175.3v-0.9h0.9h-0.9h0.9v0.9H109.8"/>
			<path fill="#7F8946" d="M111.7,173.4h-0.9H111.7h-0.9v0.9v-0.9H111.7"/>
			<path fill="#7F8946" d="M77.7,198.8v0.9h-0.9v-0.9H77.7"/>
			<path fill="#7F8946" d="M65.5,197.9h0.9h0.9h-0.9H65.5"/>
			<path fill="#7F8946" d="M79.6,172.4v-0.9h0.9v0.9v0.9v-0.9H79.6"/>
			<path fill="#7F8946" d="M116.4,178.1h0.9v-0.9v0.9H116.4"/>
			<path fill="#7F8946" d="M50.4,203.5v0.9h-0.9v-0.9H50.4v-0.9V203.5"/>
			<path fill="#7F8946" d="M77.7,199.8v-0.9V199.8h0.9H77.7"/>
			<path fill="#7F8946" d="M72.1,201.6v-0.9H73h-0.9V201.6"/>
			<path fill="#7F8946" d="M117.3,173.4v0.9V173.4"/>
			<path fill="#7F8946" d="M74.9,184.7H74H74.9v0.9H74L74.9,184.7"/>
			<path fill="#7F8946" d="M58.9,202.6v-0.9H58h0.9V202.6"/>
			<path fill="#7F8946" d="M152.2,170.6h-0.9H152.2"/>
			<path fill="#7F8946" d="M106.9,179v-0.9h0.9v0.9H106.9"/>
			<path fill="#7F8946" d="M107.9,175.3h-0.9H107.9"/>
			<path fill="#7F8946" d="M110.7,172.4h0.9H110.7v0.9V172.4"/>
			<path fill="#7F8946" d="M74,185.6h0.9v0.9v-0.9H74"/>
			<path fill="#7F8946" d="M136.2,176.2v-0.9V176.2"/>
			<path fill="#7F8946" d="M75.9,197.9h-0.9H75.9"/>
			<path fill="#7F8946" d="M101.3,179v-0.9h0.9v0.9H101.3"/>
			<path fill="#7F8946" d="M78.7,171.5h0.9H78.7"/>
			<path fill="#7F8946" d="M79.6,172.4h-0.9H79.6"/>
			<path fill="#7F8946" d="M76.8,199.8v-0.9V199.8"/>
			<path fill="#7F8946" d="M55.1,213h0.9H55.1"/>
			<path fill="#7F8946" d="M80.6,178.1v0.9V178.1"/>
			<path fill="#7F8946" d="M106.9,176.2H106H106.9"/>
			<path fill="#7F8946" d="M94.7,185.6h0.9H94.7h0.9H94.7"/>
			<path fill="#7F8946" d="M96.6,182.8v-0.9V182.8"/>
			<path fill="#7F8946" d="M53.2,216.7v0.9V216.7"/>
			<path fill="#7F8946" d="M54.2,214.8v-0.9V214.8"/>
			<path fill="#7F8946" d="M54.2,213.9h0.9H54.2"/>
			<path fill="#7F8946" d="M137.1,174.3h0.9H137.1"/>
			<path fill="#7F8946" d="M79.6,196v0.9V196"/>
			<path fill="#7F8946" d="M79.6,173.4v-0.9V173.4"/>
			<path fill="#7F8946" d="M110.7,172.4h0.9H110.7"/>
			<path fill="#7F8946" d="M79.6,172.4v0.9V172.4"/>
			<path fill="#7F8946" d="M106.9,176.2h0.9H106.9"/>
			<path fill="#7F8946" d="M87.2,186.6h0.9H87.2"/>
			<path fill="#7F8946" d="M64.5,201.6h0.9H64.5"/>
			<path fill="#7F8946" d="M82.4,192.2v-0.9V192.2"/>
			<path fill="#7F8946" d="M111.7,173.4v0.9V173.4v0.9V173.4"/>
			<path fill="#7F8946" d="M106,173.4v0.9V173.4v0.9V173.4"/>
			<path fill="#7F8946" d="M70.2,195.1h0.9H70.2"/>
			<path fill="#7F8946" d="M80.6,178.1h-0.9H80.6"/>
			<path fill="#7F8946" d="M106.9,179v-0.9H106h0.9V179"/>
			<path fill="#7F8946" d="M74.9,199.8v-0.9V199.8"/>
			<path fill="#7F8946" d="M86.2,189.4v-0.9h0.9v0.9H86.2"/>
			<path fill="#7F8946" d="M133.3,177.1h0.9H133.3"/>
			<path fill="#7F8946" d="M69.3,199.8h0.9H69.3"/>
			<path fill="#7F8946" d="M104.1,176.2v-0.9V176.2"/>
			<path fill="#7F8946" d="M53.2,209.2h-0.9H53.2"/>
			<path fill="#7F8946" d="M78.7,197.9h0.9H78.7"/>
			<path fill="#7F8946" d="M90,186.6l0.9-0.9v0.9H90"/>
			<path fill="#7F8946" d="M55.1,205.4v-0.9V205.4"/>
			<path fill="#7F8946" d="M77.7,195.1v-0.9V195.1"/>
			<path fill="#7F8946" d="M80.6,173.4h0.9H80.6"/>
			<path fill="#7F8946" d="M150.3,170.6h0.9H150.3"/>
			<path fill="#7F8946" d="M128.6,179h0.9H128.6"/>
			<path fill="#7F8946" d="M85.3,189.4h0.9H85.3"/>
			<path fill="#7F8946" d="M54.2,201.6h0.9H54.2"/>
			<path fill="#7F8946" d="M76.8,196.9h0.9H76.8"/>
			<path fill="#7F8946" d="M80.6,173.4v0.9V173.4"/>
			<path fill="#7F8946" d="M181.4,163v-0.9V163"/>
			<path fill="#7F8946" d="M101.3,179v-0.9V179"/>
			<path fill="#7F8946" d="M79.6,197.9v-0.9V197.9"/>
			<path fill="#7F8946" d="M160.7,167.7h-0.9H160.7"/>
			<path fill="#7F8946" d="M54.2,215.8h-0.9H54.2"/>
			<path fill="#7F8946" d="M105.1,180V179V180"/>
			<path fill="#7F8946" d="M139,174.3H138H139"/>
			<path fill="#7F8946" d="M55.1,208.2h0.9H55.1"/>
			<path fill="#7F8946" d="M126.7,180.9h-0.9H126.7"/>
			<path fill="#7F8946" d="M52.3,216.7h0.9H52.3"/>
		</g>
		<g id="sa3_2011_aust_31">
			<path fill="#7F8946" d="M173.9,513.5v0.9h-0.9v-0.9v0.9v-0.9v0.9H172v-0.9v0.9v-0.9v0.9v-0.9H171v0.9h-0.9h0.9h-0.9h0.9h-0.9h0.9
				v0.9h-0.9v0.9h-0.9v-0.9h0.9h-0.9h-0.9v-0.9v0.9h-0.9v-0.9h-0.9h-0.9h-0.9h-0.9h-0.9h-0.9v0.9h-0.9h-0.9h-0.9h0.9h-0.9v0.9h-0.9
				v0.9v0.9h0.9h-0.9v0.9h-0.9v-0.9v0.9v-0.9v0.9h-0.9H155v0.9h-0.9h-0.9h-0.9v0.9h-0.9h-0.9v0.9h-0.9v0.9v0.9v0.9h0.9h-0.9h0.9
				h-0.9h0.9h-0.9v0.9v-0.9v0.9v-0.9v0.9v-0.9v0.9v-0.9h-0.9h-0.9h-0.9h-0.9v0.9v-0.9v0.9h-0.9h-0.9v0.9h0.9v0.9h-0.9h0.9h-0.9h0.9
				h-0.9h0.9h-0.9v-0.9h-0.9h-0.9v0.9h-0.9h-0.9H139H138h0.9v-0.9v-0.9H138v0.9v0.9h-0.9h0.9v0.9h-0.9v-0.9h-0.9v0.9v0.9h0.9h0.9
				v-0.9h-0.9h0.9h-0.9h0.9v0.9h0.9h0.9H139v0.9H138h-0.9v-0.9h-0.9v0.9v-0.9h-0.9h-0.9v-0.9h-0.9h-0.9h-0.9h-0.9v0.9h0.9h-0.9v0.9
				h-0.9v-0.9h-0.9h-0.9h-0.9v-0.9h-0.9h-0.9v-0.9h-0.9H123h0.9h0.9h0.9h0.9h-0.9h0.9v-0.9h-0.9h-0.9h-0.9v0.9v-0.9v0.9H123v0.9
				v-0.9H122h-0.9h-0.9h-0.9v0.9h-0.9h-0.9v-0.9v0.9h-0.9v-0.9h-0.9v0.9v-0.9h-0.9h-0.9v0.9h-0.9h-0.9h-0.9v-0.9h-0.9h-0.9h0.9h0.9
				v-0.9v-0.9h-0.9v-0.9h-0.9v-0.9v0.9v-0.9h0.9h-0.9h0.9h-0.9h0.9h-0.9h0.9V523v0.9h0.9V523V522h0.9v-0.9v-0.9v0.9v-0.9v0.9v-0.9
				v-0.9h-0.9h-0.9v-0.9h0.9v-0.9h-0.9h0.9h-0.9h0.9h-0.9h0.9h-0.9h0.9v-0.9h-0.9v-0.9h0.9v-0.9h-0.9v-0.9h-0.9h-0.9h-0.9v-0.9
				l0.9-0.9v-0.9v-0.9v-0.9v0.9h0.9l0.9-0.9h0.9h0.9v-0.9v-0.9V506h-0.9h-0.9h0.9h-0.9v-0.9v-0.9h-0.9v-0.9v-0.9v-0.9h0.9v-0.9v-0.9
				v-0.9v-0.9v-0.9v-0.9h-0.9v-0.9v0.9h0.9h0.9v-0.9v0.9v-0.9h0.9v0.9h0.9v-0.9h0.9h0.9v-0.9v-0.9v-0.9v-0.9h0.9h0.9h0.9h0.9h0.9
				h0.9h0.9h0.9V490h0.9V489h0.9h0.9h0.9h0.9v-0.9h0.9h0.9v0.9h0.9h0.9v-0.9l0.9,0.9h0.9v0.9h-0.9v0.9h0.9h0.9V490h0.9h0.9h0.9h0.9
				h0.9V489v-0.9h0.9h0.9v-0.9h0.9v0.9h0.9h0.9v-0.9h0.9h0.9v0.9h0.9v-0.9v-0.9h0.9h0.9h0.9v0.9h0.9v-0.9h0.9v0.9h0.9h0.9h0.9h0.9
				v-0.9l0.9-0.9l0.9,0.9v0.9l0.9-0.9l0.9-0.9l0.9,1.9l1.9-0.9l0.9-0.9v0.9h0.9h0.9l0.9,0.9v-0.9h0.9h0.9h0.9v0.9v1.9v1.9v0.9h2.8
				h4.7h0.9l0.9,0.9v0.9h-0.9v0.9h-0.9v0.9v0.9v0.9h-0.9l0.9,0.9h0.9v0.9v0.9h-1.9H172l-1.9,1.9h-1.9l0.9,1.9l2.8,1.9v2.8v0.9v0.9
				v0.9v0.9h0.9h0.9V513.5h-0.9H173.9"/>
			<path fill="#7F8946" d="M150.3,525.8v-0.9V525.8v-0.9V525.8v-0.9h0.9v0.9H150.3"/>
			<path fill="#7F8946" d="M139.9,528.6h0.9H139.9"/>
			<path fill="#7F8946" d="M130.5,529.6h0.9H130.5"/>
			<path fill="#7F8946" d="M155,520.1h0.9H155"/>
			<path fill="#7F8946" d="M122,527.7h-0.9H122h-0.9H122"/>
		</g>
		<g id="sa3_2011_aust_32">
			<path fill="#7F8946" d="M97.5,458.9V458V457v-0.9h0.9v-0.9v-0.9h0.9v0.9h0.9h0.9v-0.9v-0.9v-0.9h-0.9h-0.9v-0.9v-0.9l0.9-0.9
				h-0.9v0.9v-0.9v-0.9v-0.9h-0.9h-0.9v-0.9h-0.9v-0.9v-0.9h-0.9h-0.9h-0.9h-0.9h-0.9h-0.9v0.9H90H89h-0.9h-0.9v-0.9v-0.9v-1.9h-0.9
				h-0.9h-0.9h-0.9h-0.9V441h-0.9h-0.9h-0.9V440v-0.9h-0.9v-0.9h-0.9v-0.9h-0.9v-0.9v-0.9v-0.9h-0.9v-0.9v-0.9h-0.9v-0.9v-0.9v-0.9
				H74v-0.9H73v-0.9v-0.9h-0.9v-0.9h-0.9V425V424h-0.9v-0.9v-0.9v-0.9h-0.9v-0.9h-0.9v-0.9h0.9h-0.9v-0.9v-0.9v-0.9h-0.9v-0.9v-0.9
				v-0.9v-0.9v-0.9h-0.9v-0.9v-0.9V409h0.9V408h0.9h0.9h0.9h1.9v0.9v0.9H73h2.8h2.8v0.9h0.9h0.9h0.9h0.9v-0.9h0.9h0.9h0.9V409h0.9
				v1.9h0.9h0.9v-0.9H89H90h0.9h0.9h0.9h0.9h0.9v0.9h0.9h0.9h0.9v-0.9h0.9h0.9h0.9V409h-0.9V408v-0.9v-0.9v-0.9h-0.9v-0.9h0.9h0.9
				h0.9h0.9h0.9v-0.9h0.9h0.9h0.9h0.9h0.9h0.9h0.9h-0.9l0.9-0.9v0.9h0.9l-0.9-0.9h0.9h0.9v-0.9h-0.9l-0.9-0.9v-0.9h0.9h0.9v0.9h3.8
				h0.9h0.9v0.9h0.9h7.5h1.9v-0.9h0.9v-0.9v-0.9v-0.9h0.9v-0.9h0.9v0.9h0.9h0.9v-0.9h0.9h0.9h0.9h0.9h0.9h0.9h0.9h0.9h0.9h0.9h0.9
				h0.9h0.9h0.9h0.9h0.9h0.9h0.9h0.9h0.9h0.9l13.2,4.7l3.8,0.9l1.9,0.9l2.8,0.9l2.8,0.9l0.9,0.9l7.5,2.8l2.8,0.9h0.9v1.9v3.8v1.9
				l-0.9,2.8v3.8v2.8v1.9v0.9v5.7v0.9v5.7v9.4v3.8v4.7h-5.7h-0.9h-0.9h-1.9h-0.9h-1.9h-5.7h-1.9h-0.9h-0.9h-2.8h-1.9l-0.9,0.9h-0.9
				h-0.9h-0.9h-0.9h-0.9h-1.9h0.9v0.9h-1.9h-0.9h-0.9h-0.9h-0.9h-0.9h-0.9v-0.9h-0.9h-0.9h-0.9v-0.9h-0.9h-0.9h-0.9v-0.9h-0.9h-0.9
				H139H138V458h-0.9h-0.9h-0.9v0.9h-0.9V458h-0.9h-0.9h-0.9h-0.9v0.9h-0.9h-0.9v0.9h-0.9v-0.9v0.9v-0.9h-0.9v0.9v-0.9v0.9h-0.9
				v-0.9v0.9h-0.9h-0.9H123H122h-0.9v0.9v-0.9v0.9v-0.9h-0.9v0.9h-0.9h-0.9h-0.9h-0.9h-0.9h-0.9h-0.9h-0.9h-0.9h-0.9v0.9h-0.9v0.9
				h-0.9h-0.9h-0.9H106v0.9h-0.9h-0.9h-0.9h-2.8v-2.8v-0.9h-0.9h-0.9v-0.9H97.5"/>
		</g>
		<g id="sa3_2011_aust_33">
			<path fill="#7F8946" d="M90.9,473H90v-0.9h0.9H90h0.9v-0.9H90h0.9H90v-0.9v-0.9h0.9v-0.9v-0.9v-0.9h0.9h-0.9h0.9v-0.9h0.9h0.9
				h0.9h1.9h0.9v-1.9h-0.9v-0.9h-0.9v-0.9v-0.9l0.9-0.9h2.8h0.9v0.9v2.8h2.8h0.9h0.9h0.9v-0.9h0.9h0.9h0.9h0.9v-0.9h0.9v-0.9h0.9
				h0.9h0.9h0.9h0.9h0.9h0.9h0.9h0.9h0.9v-0.9h0.9v0.9v-0.9v0.9v-0.9h0.9h0.9h0.9h0.9h0.9v-0.9v0.9h0.9v-0.9v0.9v-0.9h0.9v0.9v-0.9
				v0.9h0.9v-0.9h0.9h0.9V458h0.9h0.9h0.9h0.9v0.9h0.9V458h0.9h0.9h0.9v0.9h0.9h0.9h0.9h0.9v0.9h0.9h0.9h0.9v0.9h0.9h0.9h0.9v0.9
				h0.9h0.9h0.9h0.9h0.9h0.9h1.9v-0.9h-0.9h1.9h0.9h0.9h0.9h0.9h0.9l0.9-0.9h1.9h2.8h0.9h0.9h1.9h5.7h1.9h0.9h1.9h0.9h0.9h5.7V473
				h0.9h0.9h0.9h0.9h0.9h0.9h0.9h0.9h0.9h0.9h0.9h0.9h0.9h0.9h0.9l-2.8,1.9l-0.9,0.9h-0.9v0.9h-0.9v0.9h-0.9l-0.9,0.9l-0.9,0.9v0.9
				h-0.9h-0.9h-0.9h-0.9h-0.9l0.9,0.9h-0.9v0.9H188H187l0.9,0.9v0.9v0.9H187v0.9h-0.9h-0.9l-0.9,0.9h-0.9v0.9h-0.9l-0.9-0.9h-0.9
				h-0.9v0.9h-0.9v0.9h-0.9v0.9h-0.9h-0.9v0.9h-0.9v0.9h-4.7h-2.8v-0.9V489v-1.9v-0.9h-0.9h-0.9h-0.9v0.9l-0.9-0.9h-0.9h-0.9v-0.9
				l-0.9,0.9l-1.9,0.9l-0.9-1.9l-0.9,0.9l-0.9,0.9v-0.9l-0.9-0.9l-0.9,0.9v0.9h-0.9h-0.9h-0.9h-0.9v-0.9h-0.9v0.9h-0.9v-0.9h-0.9
				h-0.9h-0.9v0.9v0.9h-0.9v-0.9h-0.9h-0.9v0.9h-0.9h-0.9v-0.9h-0.9v0.9H139H138v0.9v0.9h-0.9h-0.9h-0.9h-0.9h-0.9v0.9h-0.9h-0.9
				V490h0.9V489h-0.9l-0.9-0.9v0.9h-0.9h-0.9v-0.9h-0.9h-0.9v0.9h-0.9h-0.9h-0.9H123v0.9H122v0.9h-0.9h-0.9h-0.9h-0.9h-0.9h-0.9
				h-0.9h-0.9v0.9v0.9v0.9v0.9h-0.9h-0.9v0.9h-0.9v-0.9h-0.9v0.9v-0.9v0.9h-0.9h-0.9v-0.9v0.9h-0.9h-0.9H106v-0.9v0.9h-0.9v-0.9
				h-0.9h-0.9h-0.9v-0.9h-0.9v-0.9h-0.9h-0.9h-0.9v-0.9h-0.9v-0.9h0.9h0.9V490h0.9V489v-0.9v-0.9v-0.9v-0.9v-0.9v-0.9h0.9v-1.9v-0.9
				v-0.9v-0.9h-0.9h-0.9h-0.9h-0.9v0.9h-0.9h-0.9v-0.9v-0.9v-1.9V474h-1.9V473h-0.9h-0.9H90.9"/>
		</g>
	</g>
</g>
<g id="qgisviewbox" inkscape:label="qgisviewbox" inkscape:groupmode="layer">
</g>
</svg>
